<?xml version="1.0" encoding="utf-8"?>
<!-- Generator: Adobe Illustrator 16.0.0, SVG Export Plug-In . SVG Version: 6.00 Build 0)  -->
<!DOCTYPE svg PUBLIC "-//W3C//DTD SVG 1.1//EN" "http://www.w3.org/Graphics/SVG/1.1/DTD/svg11.dtd">
<svg version="1.1" id="Capa_1" xmlns="http://www.w3.org/2000/svg" xmlns:xlink="http://www.w3.org/1999/xlink" x="0px" y="0px"
	 width="1047.1px" height="369.037px" viewBox="-29.998 0 1047.1 369.037" enable-background="new -29.998 0 1047.1 369.037"
	 xml:space="preserve">
<g id="para_web">
	<polygon fill="#FFFFFF" points="238.502,145.275 249.374,161.781 249.59,161.781 260.589,145.104 260.589,170.6 269.111,170.6 
		269.111,131.545 259.854,131.545 249.59,148.062 239.326,131.545 230.086,131.545 230.086,170.6 238.502,170.6 	"/>
	<rect x="277.793" y="129.877" fill="#FFFFFF" width="8.904" height="7.532"/>
	<rect x="278.01" y="140.701" fill="#FFFFFF" width="8.479" height="29.898"/>
	<path fill="#FFFFFF" d="M302.949,153.912c0-4.008,2.051-6.074,5.295-6.074c3.211,0,5.123,2.066,5.123,6.074V170.6h8.465v-19.36
		c0-6.855-3.73-11.104-10.141-11.104c-4.287,0-6.799,2.296-8.742,4.802v-4.235h-8.49V170.6h8.49V153.912z"/>
	<rect x="329.602" y="140.701" fill="#FFFFFF" width="8.475" height="29.898"/>
	<rect x="329.365" y="129.877" fill="#FFFFFF" width="8.941" height="7.532"/>
	<path fill="#FFFFFF" d="M367.984,161.386c0-5.464-4.85-7.474-9.029-8.854c-3.256-1.12-6.088-1.906-6.088-3.587v-0.101
		c0-1.177,1.057-2.067,3.127-2.067c2.184,0,5.127,1.063,8.084,2.797l3.258-5.86c-3.258-2.182-7.371-3.454-11.168-3.454
		c-6.041,0-10.947,3.397-10.947,9.48v0.109c0,5.793,4.732,7.756,8.92,8.985c3.303,1,6.195,1.619,6.195,3.453v0.109
		c0,1.334-1.105,2.226-3.561,2.226c-2.809,0-6.178-1.22-9.428-3.559l-3.621,5.568c3.975,3.135,8.617,4.53,12.82,4.53
		c6.475,0,11.438-3.024,11.438-9.656V161.386z"/>
	<path fill="#FFFFFF" d="M374.957,162.124c0,6.908,3.525,8.98,8.707,8.98c2.826,0,4.902-0.686,6.695-1.734v-6.808
		c-1.24,0.663-2.629,1.072-4.176,1.072c-1.92,0-2.768-0.958-2.768-2.911v-12.781h7.047v-7.241h-7.047v-7.646h-8.459v7.646h-3.572
		v7.241h3.572L374.957,162.124L374.957,162.124z"/>
	<path fill="#FFFFFF" d="M422.256,165.693l-4.848-4.308c-2.33,2.183-4.404,3.068-7.244,3.068c-3.801,0-6.475-2.006-7.309-5.855
		h20.811c0.059-0.776,0.094-1.558,0.094-2.22c0-8.479-4.541-16.244-14.545-16.244c-8.693,0-14.785,7.026-14.785,15.573v0.104
		c0,9.132,6.645,15.449,15.615,15.449C415.445,171.262,419.484,169.151,422.256,165.693z M409.215,146.946
		c3.572,0,5.799,2.563,6.303,6.365h-12.766C403.42,149.447,405.707,146.946,409.215,146.946z"/>
	<path fill="#FFFFFF" d="M447.658,149.015h0.434v-8.88c-5.006-0.21-7.805,2.463-9.524,6.593v-6.026h-8.484V170.6h8.484v-11.043
		C438.566,152.42,442.021,149.015,447.658,149.015z"/>
	<rect x="453.789" y="140.701" fill="#FFFFFF" width="8.494" height="29.898"/>
	<rect x="453.563" y="129.877" fill="#FFFFFF" width="8.949" height="7.532"/>
	<path fill="#FFFFFF" d="M485.031,140.135c-9.31,0-16.256,6.979-16.256,15.573v0.104c0,8.598,6.889,15.449,16.146,15.449
		c9.314,0,16.227-6.97,16.227-15.554v-0.11C501.148,146.994,494.291,140.135,485.031,140.135z M492.779,155.813
		c0,4.411-2.9,8.146-7.748,8.146c-4.699,0-7.875-3.85-7.875-8.251v-0.11c0-4.411,2.903-8.146,7.766-8.146
		c4.687,0,7.857,3.849,7.857,8.256V155.813z"/>
	<path fill="#FFFFFF" d="M545.629,144.604c-2.006-2.396-4.826-4.469-9.314-4.469c-7.098,0-13.615,5.474-13.615,15.463v0.11
		c0,9.985,6.623,15.453,13.615,15.453c4.389,0,7.25-2.077,9.314-4.854v4.293h8.484v-40.723h-8.484V144.604z M545.729,155.708
		c0,4.963-3.287,8.251-7.26,8.251c-3.936,0-7.299-3.288-7.299-8.251v-0.11c0-5.017,3.363-8.265,7.299-8.265
		c3.973,0,7.26,3.291,7.26,8.265V155.708z"/>
	<path fill="#FFFFFF" d="M589.588,156.379c0-8.479-4.582-16.244-14.57-16.244c-8.688,0-14.777,7.026-14.777,15.573v0.104
		c0,9.132,6.646,15.449,15.621,15.449c5.406,0,9.439-2.11,12.205-5.568l-4.844-4.308c-2.33,2.183-4.395,3.068-7.246,3.068
		c-3.807,0-6.475-2.006-7.314-5.855h20.82C589.512,157.822,589.588,157.041,589.588,156.379z M568.577,153.312
		c0.66-3.864,2.943-6.365,6.439-6.365c3.57,0,5.814,2.563,6.301,6.365H568.577z"/>
	<path fill="#FFFFFF" d="M628.739,131.545H613.52V170.6h15.219c12.301,0,20.77-8.542,20.77-19.527v-0.109
		C649.51,139.968,641.04,131.545,628.739,131.545z M640.506,151.187c0,6.907-4.727,11.667-11.768,11.667h-6.621V139.32h6.621
		c7.041,0,11.768,4.836,11.768,11.753V151.187z"/>
	<path fill="none" d="M666.29,146.946c-3.525,0-5.814,2.501-6.449,6.365h12.752C672.102,149.509,669.872,146.946,666.29,146.946z"/>
	<path fill="#FFFFFF" d="M680.848,156.379c0-8.479-4.582-16.244-14.559-16.244c-8.699,0-14.77,7.026-14.77,15.573v0.104
		c0,9.132,6.633,15.449,15.615,15.449c5.395,0,9.42-2.11,12.211-5.568l-4.836-4.308c-2.354,2.183-4.42,3.068-7.254,3.068
		c-3.809,0-6.484-2.006-7.318-5.855h20.814C680.792,157.822,680.848,157.041,680.848,156.379z M659.84,153.312
		c0.637-3.864,2.924-6.365,6.449-6.365c3.582,0,5.813,2.563,6.303,6.365H659.84z"/>
	<path fill="#FFFFFF" d="M689.627,131.826c-1.564,1.572-2.395,3.964-2.395,7.256v1.905h-3.531v6.955h3.531V170.6h8.471v-22.657
		h6.736v-6.902h-6.844v-1.173c0-2.234,1.104-3.234,3.068-3.234c1.445,0,2.6,0.267,3.84,0.724v-7.031
		c-1.563-0.5-3.344-0.839-6.031-0.839C693.483,129.486,691.186,130.264,689.627,131.826z"/>
	<path fill="#FFFFFF" d="M733.444,165.693l-4.842-4.308c-2.334,2.183-4.4,3.068-7.238,3.068c-3.805,0-6.473-2.006-7.314-5.855
		h20.814c0.049-0.776,0.092-1.558,0.092-2.22c0-8.479-4.563-16.244-14.541-16.244c-8.715,0-14.793,7.026-14.793,15.573v0.104
		c0,9.132,6.643,15.449,15.621,15.449C726.67,171.262,730.663,169.151,733.444,165.693z M720.415,146.946
		c3.563,0,5.797,2.563,6.303,6.365H713.95C714.604,149.447,716.893,146.946,720.415,146.946z"/>
	<path fill="#FFFFFF" d="M768.667,170.6v-19.36c0-6.855-3.736-11.104-10.135-11.104c-4.313,0-6.826,2.296-8.768,4.802v-4.235h-8.471
		V170.6h8.471v-16.688c0-4.008,2.055-6.074,5.301-6.074c3.229,0,5.125,2.066,5.125,6.074V170.6H768.667z"/>
	<path fill="#FFFFFF" d="M788.926,152.53c-3.24-1.12-6.074-1.906-6.074-3.587v-0.101c0-1.177,1.043-2.067,3.111-2.067
		c2.172,0,5.137,1.063,8.084,2.797l3.23-5.86c-3.23-2.182-7.365-3.454-11.146-3.454c-6.029,0-10.934,3.397-10.934,9.48v0.109
		c0,5.793,4.729,7.756,8.928,8.985c3.285,1,6.188,1.619,6.188,3.453v0.109c0,1.334-1.109,2.226-3.578,2.226
		c-2.791,0-6.184-1.22-9.398-3.559l-3.631,5.568c3.955,3.135,8.623,4.53,12.82,4.53c6.465,0,11.434-3.024,11.434-9.656v-0.119
		C797.959,155.922,793.104,153.912,788.926,152.53z"/>
	<path fill="#FFFFFF" d="M816.434,140.368c-5.088,0-8.318,0.947-11.609,2.391l2.119,6.465c2.74-0.99,5.008-1.605,8.262-1.605
		c4.24,0,6.408,1.954,6.408,5.465v0.505c-2.121-0.729-4.289-1.225-7.309-1.225c-7.084,0-12.049,3.006-12.049,9.527v0.119
		c0,5.903,4.621,9.151,10.271,9.151c4.131,0,6.965-1.51,9.053-3.811v3.249h8.18v-17.351c0-4.025-0.996-7.303-3.236-9.537
		C824.424,141.592,821.061,140.368,816.434,140.368z M821.733,160.057c0,3.059-2.68,5.236-6.643,5.236
		c-2.744,0-4.641-1.334-4.641-3.631v-0.109c0-2.673,2.248-4.111,5.869-4.111c2.066,0,3.959,0.443,5.412,1.115v1.5H821.733z"/>
	<path fill="#FFFFFF" d="M245.848,198.577h-15.383v39.049h6.838v-12.561h7.757c8.577,0,15.624-4.573,15.624-13.32v-0.113
		C260.684,203.761,254.938,198.577,245.848,198.577z M253.699,211.918c0,4.06-3.23,6.976-8.423,6.976h-7.974v-14.074h7.974
		c5.131,0,8.423,2.41,8.423,6.976V211.918z"/>
	<path fill="#FFFFFF" d="M273.672,214.813v-6.642h-6.719v29.453h6.719V226.41c0-7.795,4.141-11.654,10.031-11.654h0.407v-7.146
		C278.918,207.382,275.519,210.412,273.672,214.813z"/>
	<path fill="#FFFFFF" d="M302.738,207.554c-8.436,0-14.373,6.918-14.373,15.342v0.112c0,9.093,6.598,15.294,15.096,15.294
		c5.43,0,9.275-2.182,12.066-5.525l-3.951-3.517c-2.365,2.286-4.693,3.517-7.996,3.517c-4.357,0-7.758-2.67-8.479-7.48h21.643
		c0.061-0.666,0.1-1.286,0.1-1.887C316.844,214.918,312.111,207.554,302.738,207.554z M295.043,220.836
		c0.627-4.573,3.531-7.755,7.646-7.755c4.471,0,7.041,3.391,7.473,7.755H295.043z"/>
	<path fill="#FFFFFF" d="M335.557,220.228c-3.459-1.125-6.637-2.002-6.637-4.138v-0.112c0-1.715,1.494-2.945,4.117-2.945
		c2.455,0,5.461,1.059,8.301,2.793l2.695-4.803c-3.123-2.067-7.152-3.354-10.818-3.354c-5.857,0-10.486,3.412-10.486,8.985v0.104
		c0,5.632,4.85,7.423,9.188,8.652c3.465,1.058,6.582,1.838,6.582,4.126v0.113c0,1.963-1.672,3.184-4.559,3.184
		c-3.021,0-6.475-1.221-9.658-3.631l-3.012,4.583c3.68,2.888,8.32,4.393,12.494,4.393c6.119,0,10.926-3.06,10.926-9.252v-0.123
		C344.689,223.522,339.857,221.562,335.557,220.228z"/>
	<rect x="351.668" y="197.233" fill="#FFFFFF" width="7.256" height="6.423"/>
	<rect x="351.945" y="208.173" fill="#FFFFFF" width="6.773" height="29.453"/>
	<path fill="#FFFFFF" d="M389.721,212.747c-2.105-2.727-5.191-5.193-10.035-5.193c-7.027,0-13.668,5.527-13.668,15.303v0.096
		c0,9.768,6.736,15.285,13.668,15.285c4.826,0,7.855-2.439,10.035-5.519v4.907h6.75v-40.707h-6.75V212.747z M389.836,222.951
		c0,5.64-4.037,9.442-8.525,9.442c-4.584,0-8.494-3.754-8.494-9.442v-0.097c0-5.869,3.844-9.442,8.494-9.442
		c4.488,0,8.525,3.735,8.525,9.442V222.951z"/>
	<path fill="#FFFFFF" d="M417.684,207.554c-8.428,0-14.402,6.918-14.402,15.342v0.112c0,9.093,6.568,15.294,15.125,15.294
		c5.41,0,9.25-2.182,12.047-5.525l-3.959-3.517c-2.336,2.286-4.683,3.517-7.975,3.517c-4.373,0-7.771-2.67-8.482-7.48h21.652
		c0.03-0.666,0.092-1.286,0.092-1.887C431.781,214.918,427.057,207.554,417.684,207.554z M409.971,220.836
		c0.627-4.573,3.52-7.755,7.66-7.755c4.445,0,7.021,3.391,7.459,7.755H409.971z"/>
	<path fill="#FFFFFF" d="M454.551,207.554c-4.582,0-7.313,2.401-9.203,5.193v-4.574h-6.731v29.453h6.731v-16.607
		c0-4.584,2.726-7.318,6.644-7.318c4.02,0,6.303,2.611,6.303,7.184v16.743h6.74v-18.733
		C465.033,212.032,461.182,207.554,454.551,207.554z"/>
	<path fill="#FFFFFF" d="M487.135,232.44c-5.186,0-8.811-4.248-8.811-9.489v-0.097c0-5.153,3.586-9.375,8.479-9.375
		c3.39,0,5.558,1.496,7.638,3.668l4.182-4.508c-2.736-3.02-6.191-5.087-11.768-5.087c-8.816,0-15.287,7.03-15.287,15.397v0.115
		c0,8.373,6.471,15.234,15.235,15.234c5.734,0,9.134-2.285,12.047-5.525l-4.086-4.012
		C492.641,230.938,490.313,232.44,487.135,232.44z"/>
	<rect x="505.166" y="197.233" fill="#FFFFFF" width="7.252" height="6.423"/>
	<rect x="505.432" y="208.173" fill="#FFFFFF" width="6.749" height="29.453"/>
	<path fill="#FFFFFF" d="M532.78,207.726c-4.813,0-7.98,1-11.213,2.467l1.838,5.404c2.686-1.125,5.135-1.851,8.424-1.851
		c4.682,0,7.254,2.229,7.254,6.299v0.583c-2.291-0.725-4.598-1.23-8.146-1.23c-6.865,0-11.951,3.117-11.951,9.625v0.131
		c0,5.899,4.898,9.084,10.51,9.084c4.447,0,7.516-1.842,9.518-4.24v3.63h6.717V220.17
		C545.729,212.298,541.489,207.726,532.78,207.726z M539.184,226.963c0,3.696-3.346,6.203-7.813,6.203
		c-3.164,0-5.689-1.554-5.689-4.363v-0.096c0-2.858,2.525-4.574,6.756-4.574c2.629,0,5.021,0.496,6.746,1.162V226.963
		L539.184,226.963z"/>
	<path fill="#FFFFFF" d="M592.694,212.747c-2.131-2.727-5.186-5.193-10.043-5.193c-7.041,0-13.646,5.527-13.646,15.303v0.096
		c0,9.768,6.73,15.285,13.646,15.285c4.793,0,7.852-2.439,10.043-5.519v4.907h6.748v-40.707h-6.748V212.747z M592.799,222.951
		c0,5.64-4.025,9.442-8.527,9.442c-4.574,0-8.473-3.754-8.473-9.442v-0.097c0-5.869,3.84-9.442,8.473-9.442
		c4.502,0,8.527,3.735,8.527,9.442V222.951z"/>
	<path fill="#FFFFFF" d="M620.641,207.554c-8.43,0-14.379,6.918-14.379,15.342v0.112c0,9.093,6.574,15.294,15.113,15.294
		c5.395,0,9.25-2.182,12.031-5.525l-3.957-3.517c-2.34,2.286-4.693,3.517-7.973,3.517c-4.344,0-7.752-2.67-8.471-7.48h21.639
		c0.049-0.666,0.105-1.286,0.105-1.887C634.75,214.918,630.02,207.554,620.641,207.554z M612.942,220.836
		c0.639-4.573,3.516-7.755,7.645-7.755c4.453,0,7.031,3.391,7.475,7.755H612.942z"/>
	<rect x="658.686" y="196.919" fill="#FFFFFF" width="6.756" height="40.707"/>
	<path fill="#FFFFFF" d="M686.038,207.726c-4.811,0-7.99,1-11.238,2.467l1.857,5.404c2.676-1.125,5.141-1.851,8.424-1.851
		c4.682,0,7.227,2.229,7.227,6.299v0.583c-2.254-0.725-4.555-1.23-8.129-1.23c-6.855,0-11.934,3.117-11.934,9.625v0.131
		c0,5.899,4.936,9.084,10.5,9.084c4.449,0,7.525-1.842,9.547-4.24v3.63h6.676V220.17
		C698.967,212.298,694.721,207.726,686.038,207.726z M692.454,226.963c0,3.696-3.355,6.203-7.836,6.203
		c-3.178,0-5.678-1.554-5.678-4.363v-0.096c0-2.858,2.5-4.574,6.754-4.574c2.629,0,5.029,0.496,6.76,1.162V226.963L692.454,226.963z
		"/>
	<polygon fill="#FFFFFF" points="751.805,225.582 730.895,198.577 724.53,198.577 724.53,237.626 731.292,237.626 731.292,209.841 
		752.805,237.626 758.551,237.626 758.551,198.577 751.805,198.577 	"/>
	<path fill="#FFFFFF" d="M779.584,207.726c-4.797,0-7.98,1-11.199,2.467l1.838,5.404c2.672-1.125,5.137-1.851,8.4-1.851
		c4.711,0,7.264,2.229,7.264,6.299v0.583c-2.297-0.725-4.568-1.23-8.137-1.23c-6.871,0-11.949,3.117-11.949,9.625v0.131
		c0,5.899,4.918,9.084,10.506,9.084c4.439,0,7.508-1.842,9.523-4.24v3.63h6.697V220.17
		C792.528,212.298,788.297,207.726,779.584,207.726z M786.002,226.963c0,3.696-3.346,6.203-7.818,6.203
		c-3.168,0-5.684-1.554-5.684-4.363v-0.096c0-2.858,2.516-4.574,6.756-4.574c2.639,0,5.029,0.496,6.746,1.162V226.963
		L786.002,226.963z"/>
	<path fill="#FFFFFF" d="M814.514,232.44c-5.197,0-8.818-4.248-8.818-9.489v-0.097c0-5.153,3.574-9.375,8.471-9.375
		c3.42,0,5.588,1.496,7.66,3.668l4.166-4.508c-2.717-3.02-6.172-5.087-11.748-5.087c-8.84,0-15.299,7.03-15.299,15.397v0.115
		c0,8.373,6.459,15.234,15.221,15.234c5.756,0,9.152-2.285,12.064-5.525l-4.08-4.012C820.02,230.938,817.698,232.44,814.514,232.44z
		"/>
	<rect x="832.799" y="208.173" fill="#FFFFFF" width="6.76" height="29.453"/>
	<rect x="832.528" y="197.233" fill="#FFFFFF" width="7.273" height="6.423"/>
	<path fill="#FFFFFF" d="M862.485,207.554c-9.023,0-15.723,6.983-15.723,15.397v0.114c0,8.375,6.629,15.235,15.619,15.235
		c9.088,0,15.768-6.983,15.768-15.351v-0.096C878.149,214.414,871.538,207.554,862.485,207.554z M871.422,223.065
		c0,5.078-3.479,9.375-8.938,9.375c-5.24,0-8.99-4.354-8.99-9.489v-0.097c0-5.153,3.473-9.375,8.889-9.375
		c5.299,0,9.039,4.287,9.039,9.472V223.065z"/>
	<polygon fill="#FFFFFF" points="871.688,198.024 865.557,195.29 859.75,204.419 864.838,204.419 	"/>
	<path fill="#FFFFFF" d="M900.977,207.554c-4.564,0-7.297,2.401-9.193,5.193v-4.574h-6.756v29.453h6.756v-16.607
		c0-4.584,2.725-7.318,6.621-7.318c4.045,0,6.338,2.611,6.338,7.184v16.743h6.73v-18.733
		C911.473,212.032,907.614,207.554,900.977,207.554z"/>
	<g>
		<path fill="#0091D3" d="M145.691,175.573h-8.021c-1.746,0-2.709-0.729-3.208-1.344c-0.432-0.529-0.715-1.205-0.839-1.986
			c-0.014-0.058-0.021-0.119-0.025-0.181c-0.094-0.734-0.059-1.559,0.118-2.439c1.04-5.278,3.145-8.842,4.876-11.02
			c-0.19-0.062-0.376-0.143-0.553-0.242c-1.109-0.635-1.644-1.92-1.4-3.354c0.297-1.754,1.943-3.53,2.239-3.831
			c2.761-3.254,6.865-3.43,7.375-3.439c0.606-0.043,6.009-0.281,8.925,5.432c3.482,6.816,4.307,12.447,4.969,16.968l0.033,0.22
			c0.115,0.786,0.063,1.448-0.08,1.991c-0.012,0.067-0.031,0.124-0.053,0.182c-0.195,0.629-0.512,1.096-0.813,1.424
			c-0.721,0.786-1.782,1.296-3.153,1.515c-0.576,0.096-1.091,0.114-1.415,0.114c-0.158,0-0.271-0.004-0.329-0.009h-2.309
			c-0.009,0-0.021,0-0.04,0c-0.014,0-0.03,0-0.052,0h-3.838v11.416h35.8c0-6.681-0.986-13.164-2.931-19.258
			c-1.876-5.884-4.56-11.161-7.972-15.688c-3.404-4.517-7.366-8.056-11.768-10.528c-4.543-2.549-9.363-3.84-14.332-3.84
			c-4.968,0-9.789,1.291-14.331,3.84c-4.404,2.473-8.364,6.012-11.767,10.528c-3.416,4.526-6.099,9.804-7.977,15.688
			c-1.943,6.094-2.93,12.577-2.93,19.258h35.799v-11.417H145.691z"/>
		<path fill="#FFFFFF" d="M109.893,186.989c0,5.07,0.57,10.025,1.694,14.789c16.013-1.84,25.565-3.734,28.403-5.641
			c1.994-1.41,3.6-2.24,5.701-2.173v-6.978h-35.798V186.989z"/>
		<path fill="#FFFFFF" d="M148.099,194.241c1.438,0.268,2.478,0.658,3.657,1.238c0.116,0,0.236-0.01,0.357-0.01
			c2.05-0.095,3.794,0.534,6.207,1.41c0.662,0.248,1.408,0.516,2.227,0.791c0.348,0.114,11.865,3.755,21.609,4.316
			c1.158-4.831,1.742-9.854,1.742-15h-35.8L148.099,194.241L148.099,194.241z"/>
		<polyline points="144.528,131.383 144.528,131.383 144.528,131.383 144.528,131.383 		"/>
		<path d="M137.063,132.483"/>
		<path d="M137.063,132.488L137.063,132.488L137.063,132.488z"/>
		<path fill="#FFFFFF" d="M162.682,209.983c-0.15,0.313-0.358,0.639-0.66,0.934c-0.6,0.582-1.407,0.896-2.406,0.934
			c-0.123,0.285-0.314,0.629-0.596,0.953c-0.543,0.618-1.512,1.305-3.132,1.229c-0.147,0.257-0.354,0.562-0.636,0.849
			c-0.803,0.818-1.871,1.144-3.045,0.935c-0.275,0.229-0.689,0.504-1.235,0.724c-0.677,0.267-1.658,0.478-2.873,0.229v9.557
			c0,0.668-0.538,1.211-1.202,1.211c-0.668,0-1.205-0.543-1.205-1.211v-9.146c-0.473,0.17-1.004,0.295-1.549,0.295
			c-0.21,0-0.42-0.02-0.629-0.058c-0.67-0.134-1.249-0.495-1.695-1.048c-0.805,0.133-2.207,0.229-3.205-0.458
			c-0.412-0.286-0.713-0.667-0.893-1.134c-0.322-0.038-0.723-0.105-1.135-0.238c-1.051-0.334-1.773-0.953-2.102-1.771
			c-0.244-0.009-0.53-0.039-0.826-0.084c-0.867-0.136-1.993-0.508-2.434-1.525c-0.094-0.219-0.155-0.439-0.186-0.667
			c-5.101,2.639-10.925,5.286-13.541,6.45c1.012,1.752,2.111,3.42,3.301,5.002c3.402,4.509,7.362,8.053,11.767,10.521
			c2.056,1.153,4.171,2.05,6.329,2.688c0.217-0.41,0.529-0.762,0.938-1.029c2.054-1.354,5.958-0.361,7.063-0.047
			c1.102-0.314,5.006-1.307,7.063,0.047c0.406,0.268,0.719,0.619,0.936,1.029c2.16-0.639,4.277-1.534,6.334-2.688
			c4.401-2.468,8.363-6.012,11.768-10.521c1.119-1.485,2.16-3.059,3.117-4.696C173.213,216.043,166.803,213.192,162.682,209.983"/>
		<path fill="#0091D3" d="M150.181,242.685c0.066-0.267,0.103-0.543,0.103-0.828c0-0.258-0.031-0.516-0.086-0.754
			c1.208-0.246,3.16-0.828,4.245-2.162c0.634-0.779,0.897-1.688,0.78-2.717c-0.1-0.894-0.535-1.627-1.264-2.104
			c-2.053-1.354-5.961-0.361-7.066-0.047c-1.102-0.314-5.006-1.307-7.06,0.047c-0.729,0.477-1.167,1.211-1.267,2.104
			c-0.115,1.029,0.146,1.938,0.781,2.717c1.094,1.345,3.064,1.925,4.273,2.162c-0.056,0.248-0.086,0.496-0.086,0.754
			c0,0.285,0.033,0.553,0.098,0.81c-0.873,0.868-3.704,3.366-7.797,3.821l0,0c0.119,0.22,0.48,0.802,1.191,1.438
			c3.635-0.687,6.209-2.694,7.385-3.782c0.113,0.123,0.238,0.248,0.375,0.353c-0.259,1.01-1.346,3.603-5.771,4.728
			c0.732,0.334,1.613,0.609,2.664,0.762c3.077-1.41,4.176-3.545,4.564-4.793c0.213,0.039,0.438,0.067,0.666,0.067
			c0.217,0,0.432-0.028,0.639-0.067c0.389,1.248,1.486,3.393,4.561,4.793c1.051-0.151,1.93-0.428,2.666-0.762
			c-4.408-1.125-5.502-3.679-5.77-4.707c0.141-0.105,0.27-0.229,0.389-0.363c1.18,1.097,3.748,3.088,7.368,3.773
			c0.711-0.638,1.071-1.22,1.19-1.438C153.896,246.039,151.078,243.571,150.181,242.685"/>
		<path fill="#FFFFFF" d="M153.086,235.463c0.332,0.22,0.508,0.515,0.557,0.943c0.063,0.591-0.077,1.085-0.43,1.516
			c-0.473,0.581-1.268,0.989-2.059,1.269c0.387-0.813,0.441-1.633,0.16-2.394c-0.283-0.771-0.748-1.313-1.274-1.705
			C151.246,234.967,152.426,235.024,153.086,235.463"/>
		<path fill="#FFFFFF" d="M143.971,237.349c0.593-1.608,2.835-1.638,2.922-1.638l0,0c0.008,0,0.609,0,1.284,0.22
			c0.844,0.268,1.396,0.742,1.644,1.418c0.27,0.735-0.242,1.486-0.679,1.974c-0.595-0.533-1.376-0.857-2.234-0.857
			c-0.862,0-1.65,0.324-2.248,0.867C144.217,238.854,143.694,238.092,143.971,237.349"/>
		<path fill="#FFFFFF" d="M142.637,239.188c-0.791-0.277-1.582-0.679-2.059-1.258c-0.355-0.439-0.496-0.935-0.428-1.524
			c0.045-0.429,0.221-0.726,0.553-0.943c0.466-0.305,1.197-0.429,2.017-0.429c0.334,0,0.682,0.02,1.032,0.058
			c-0.527,0.392-0.994,0.935-1.277,1.705C142.148,237.685,142.306,238.503,142.637,239.188"/>
		<path fill="#FFFFFF" d="M145.126,241.856c0-0.982,0.8-1.793,1.781-1.793c0.983,0,1.782,0.811,1.782,1.793
			c0,0.99-0.799,1.801-1.782,1.801C145.926,243.657,145.126,242.847,145.126,241.856"/>
		<path fill="#FFFFFF" d="M156.765,247.926c-3.622-0.687-6.188-2.678-7.37-3.772c-0.119,0.134-0.248,0.257-0.389,0.361
			c0.268,1.029,1.361,3.582,5.77,4.707C155.623,248.831,156.276,248.364,156.765,247.926"/>
		<path fill="#FFFFFF" d="M144.408,244.144c-1.172,1.088-3.746,3.097-7.381,3.782c0.485,0.438,1.139,0.905,1.988,1.296
			c4.426-1.125,5.513-3.717,5.771-4.727C144.65,244.392,144.525,244.267,144.408,244.144"/>
		<path d="M191.693,196.585c0.03-0.257-0.069-0.514-0.268-0.686c-0.152-0.123-0.346-0.19-0.536-0.183
			c0.155-0.323,0.298-0.666,0.421-1.01c0.561-1.533,0.855-3.297,0.875-5.24c0.002-0.268-0.125-0.506-0.34-0.647
			c-0.158-0.114-0.346-0.152-0.527-0.133c0.115-0.314,0.215-0.648,0.303-0.992c0.405-1.572,0.523-3.362,0.35-5.299
			c-0.021-0.258-0.174-0.491-0.399-0.61c-0.169-0.095-0.364-0.119-0.546-0.071c0.101-0.381,0.182-0.771,0.244-1.172
			c0.248-1.61,0.191-3.396-0.168-5.313c-0.047-0.256-0.219-0.467-0.459-0.565c-0.129-0.059-0.27-0.072-0.408-0.054
			c0.048-0.271,0.089-0.547,0.119-0.818c0.174-1.625,0.035-3.407-0.414-5.303c-0.061-0.253-0.241-0.457-0.486-0.548
			c-0.243-0.087-0.512-0.048-0.719,0.104l-0.002,0.005c0.035-0.419,0.045-0.853,0.032-1.286c-0.05-1.629-0.431-3.378-1.134-5.192
			c-0.096-0.243-0.303-0.42-0.555-0.473c-0.207-0.047-0.419-0.004-0.592,0.114c-0.013-0.396-0.047-0.79-0.098-1.186
			c-0.217-1.615-0.775-3.316-1.664-5.05c-0.119-0.228-0.343-0.386-0.603-0.414c-0.207-0.023-0.417,0.042-0.574,0.177
			c-0.057-0.362-0.132-0.729-0.224-1.092c-0.405-1.582-1.16-3.206-2.244-4.83c-0.146-0.215-0.393-0.339-0.643-0.339
			c-0.254,0-0.486,0.124-0.627,0.334c-0.129-0.424-0.285-0.849-0.471-1.272c-0.652-1.495-1.659-2.973-2.988-4.401
			c-0.184-0.196-0.46-0.285-0.721-0.229c-0.189,0.043-0.354,0.153-0.463,0.306c-0.203-0.42-0.436-0.838-0.693-1.243
			c-0.871-1.367-2.075-2.658-3.576-3.831c-0.204-0.162-0.475-0.205-0.719-0.124c-0.197,0.067-0.357,0.21-0.445,0.396
			c-0.996-1.344-2.413-2.348-4.204-3c0.314,0.033,0.634,0.062,0.964,0.08c2.126,0.129,3.626-0.324,3.688-0.343
			c0.45-0.138,0.738-0.586,0.68-1.054c-0.058-0.471-0.445-0.833-0.918-0.856c-2.322-0.114-3.193-0.591-4.299-1.201
			c-0.209-0.114-0.426-0.233-0.66-0.353l5.447-0.818c0.479-0.072,0.832-0.481,0.83-0.968c-0.004-0.485-0.357-0.9-0.834-0.967
			l-5.405-0.782c0.626-0.166,1.355-0.381,2.106-0.643c2.012-0.701,3.222-1.695,3.274-1.738c0.364-0.301,0.46-0.824,0.224-1.238
			c-0.233-0.41-0.728-0.596-1.172-0.435c-2.186,0.791-3.175,0.687-4.426,0.554c-0.238-0.029-0.479-0.053-0.733-0.072l4.712-2.85
			c0.412-0.246,0.582-0.768,0.395-1.21c-0.185-0.452-0.668-0.696-1.135-0.571l-5.308,1.357c0.517-0.4,1.112-0.881,1.71-1.414
			c1.592-1.425,2.332-2.811,2.361-2.873c0.224-0.42,0.111-0.938-0.26-1.229c-0.377-0.29-0.903-0.271-1.251,0.052
			c-1.72,1.572-2.67,1.859-3.878,2.217c-0.227,0.066-0.455,0.137-0.695,0.214l3.269-4.431c0.287-0.391,0.247-0.934-0.095-1.277
			c-0.342-0.338-0.881-0.381-1.266-0.09l-4.404,3.311c0.325-0.572,0.697-1.252,1.047-1.981c0.928-1.93,1.082-3.497,1.09-3.563
			c0.042-0.473-0.258-0.91-0.711-1.035c-0.457-0.123-0.936,0.096-1.135,0.529c-0.989,2.115-1.761,2.75-2.738,3.545
			c-0.181,0.148-0.361,0.296-0.553,0.457l1.337-5.34c0.116-0.472-0.126-0.958-0.574-1.139c-0.442-0.186-0.958-0.014-1.202,0.4
			l-2.824,4.769c0.084-0.657,0.167-1.438,0.213-2.253c0.123-2.141-0.332-3.645-0.35-3.712c-0.139-0.452-0.584-0.738-1.051-0.677
			c-0.47,0.058-0.827,0.448-0.848,0.925c-0.105,2.335-0.577,3.216-1.178,4.331c-0.107,0.199-0.219,0.404-0.33,0.623l-0.789-5.44
			c-0.072-0.476-0.479-0.833-0.962-0.833h-0.003c-0.484,0.004-0.891,0.361-0.96,0.843l-0.757,5.412
			c-0.168-0.629-0.377-1.349-0.632-2.092c-0.695-2.024-1.685-3.249-1.728-3.296c-0.299-0.367-0.819-0.467-1.229-0.229
			c-0.412,0.233-0.594,0.733-0.434,1.183c0.785,2.199,0.678,3.191,0.545,4.453c-0.026,0.243-0.053,0.491-0.074,0.753l-2.848-4.759
			c-0.25-0.414-0.763-0.586-1.209-0.396c-0.445,0.186-0.686,0.672-0.566,1.144l1.357,5.311c-0.393-0.514-0.864-1.104-1.389-1.695
			c-1.414-1.605-2.791-2.349-2.848-2.382c-0.418-0.224-0.934-0.11-1.225,0.267c-0.289,0.371-0.27,0.905,0.05,1.258
			c1.565,1.73,1.847,2.688,2.201,3.902c0.069,0.229,0.138,0.467,0.216,0.715l-4.43-3.297c-0.389-0.291-0.928-0.253-1.268,0.095
			c-0.34,0.343-0.379,0.886-0.088,1.272l3.285,4.411c-0.563-0.324-1.23-0.69-1.947-1.043c-1.918-0.935-3.473-1.091-3.537-1.101
			c-0.469-0.043-0.904,0.257-1.029,0.715c-0.125,0.462,0.096,0.942,0.525,1.147c2.102,0.991,2.727,1.767,3.52,2.755
			c0.148,0.185,0.301,0.37,0.463,0.566l-5.334-1.35c-0.469-0.113-0.953,0.129-1.137,0.582c-0.181,0.447-0.012,0.963,0.402,1.21
			l4.732,2.825c-0.648-0.086-1.413-0.166-2.214-0.215c-2.128-0.123-3.626,0.334-3.687,0.354c-0.453,0.138-0.736,0.586-0.678,1.052
			c0.057,0.478,0.446,0.834,0.918,0.858c2.324,0.104,3.196,0.586,4.302,1.186c0.202,0.109,0.409,0.225,0.632,0.339l-5.43,0.8
			c-0.476,0.076-0.828,0.486-0.828,0.973c0,0.487,0.354,0.896,0.831,0.961l5.468,0.807c-0.633,0.166-1.378,0.391-2.143,0.656
			c-2.014,0.705-3.223,1.706-3.273,1.749c-0.363,0.306-0.457,0.824-0.223,1.239c0.235,0.41,0.728,0.596,1.174,0.434
			c1.27-0.463,2.134-0.625,2.879-0.648c-1.172,1.029-2.01,1.854-2.427,2.382c-0.217,0.276-0.422,0.563-0.61,0.853
			c-0.092-0.152-0.234-0.267-0.408-0.329c-0.246-0.081-0.513-0.038-0.718,0.119c-1.541,1.201-2.769,2.507-3.649,3.879
			c-0.26,0.4-0.488,0.814-0.688,1.229c-0.117-0.176-0.301-0.301-0.516-0.338c-0.252-0.043-0.512,0.043-0.688,0.233
			c-1.332,1.429-2.338,2.911-2.99,4.401c-0.174,0.4-0.324,0.806-0.45,1.211c-0.131-0.129-0.306-0.205-0.493-0.215
			c-0.255-0.015-0.502,0.1-0.658,0.309c-1.149,1.573-1.973,3.164-2.438,4.722c-0.126,0.415-0.224,0.829-0.3,1.238
			c-0.162-0.185-0.402-0.28-0.65-0.257c-0.258,0.023-0.483,0.182-0.603,0.41c-0.905,1.724-1.479,3.42-1.711,5.03
			c-0.056,0.404-0.093,0.805-0.106,1.205c-0.187-0.152-0.425-0.21-0.658-0.157c-0.252,0.062-0.46,0.238-0.547,0.481
			c-0.68,1.829-1.039,3.583-1.063,5.212c-0.008,0.396,0.007,0.795,0.04,1.182c-0.195-0.115-0.434-0.139-0.647-0.063
			c-0.246,0.091-0.427,0.296-0.486,0.548c-0.45,1.896-0.588,3.683-0.414,5.302c0.033,0.301,0.078,0.605,0.133,0.905
			c-0.114-0.009-0.23,0.011-0.338,0.059c-0.238,0.099-0.412,0.31-0.46,0.565c-0.36,1.916-0.415,3.702-0.165,5.313
			c0.064,0.414,0.15,0.819,0.256,1.215c-0.107,0-0.213,0.028-0.311,0.076c-0.233,0.114-0.388,0.338-0.422,0.6
			c-0.238,1.929-0.184,3.719,0.168,5.311c0.076,0.343,0.169,0.687,0.271,1.021c-0.174-0.021-0.351,0.019-0.506,0.113
			c-0.221,0.144-0.352,0.381-0.357,0.639c-0.035,1.953,0.21,3.717,0.725,5.27c0.15,0.448,0.326,0.887,0.524,1.297
			c-0.05-0.01-0.083-0.02-0.095-0.02c-0.254-0.066-0.518-0.01-0.711,0.172c-0.193,0.172-0.283,0.438-0.242,0.695
			c0.303,1.925,0.85,3.621,1.627,5.06c0.149,0.276,0.309,0.544,0.479,0.801c-0.137,0.038-0.26,0.114-0.357,0.22
			c-0.182,0.189-0.252,0.457-0.193,0.705c0.448,1.896,1.12,3.555,2.004,4.926c0.207,0.334,0.432,0.64,0.667,0.943
			c-0.208,0.021-0.397,0.124-0.526,0.295c-0.154,0.211-0.195,0.486-0.107,0.734c0.662,1.83,1.521,3.4,2.556,4.668
			c0.226,0.275,0.465,0.534,0.71,0.791c-0.186,0.059-0.346,0.172-0.445,0.354c-0.131,0.229-0.141,0.496-0.023,0.733
			c0.874,1.744,1.91,3.201,3.084,4.335c0.248,0.238,0.506,0.469,0.77,0.688c-0.172,0.076-0.313,0.209-0.391,0.391
			c-0.107,0.238-0.088,0.514,0.053,0.734c1.05,1.647,2.236,2.99,3.522,3.992c0.389,0.305,0.788,0.578,1.201,0.827
			c-0.091,0.029-0.147,0.05-0.165,0.05c-0.245,0.094-0.428,0.295-0.49,0.553c-0.06,0.257,0.014,0.522,0.195,0.714
			c1.334,1.401,2.715,2.506,4.1,3.298c1.129,0.646,2.263,1.076,3.375,1.285c0.965,0.182,1.937,0.191,2.723,0.029
			c0.055,0,0.105-0.021,0.155-0.029c2.394,1.688,4.921,3.117,7.529,4.223c2.187,0.924,4.431,1.639,6.673,2.124
			c0.469,0.095,0.92,0.181,1.346,0.257c-0.935-0.353-1.906-0.877-2.561-1.687c-0.115-0.144-0.215-0.287-0.303-0.438
			c-1.547-0.419-3.086-0.953-4.593-1.592c-2.497-1.058-4.917-2.421-7.208-4.029c0.012-0.049,0.016-0.076,0.02-0.097
			c0.035-0.78-0.051-1.563-0.258-2.344c1.658,1.343,3.125,2.438,4.74,3.344c2.199,1.229,4.469,2.185,6.793,2.849
			c0.003-0.131,0.012-0.266,0.027-0.41c0.045-0.397,0.156-0.75,0.328-1.074c-2.158-0.639-4.273-1.534-6.329-2.688
			c-4.404-2.469-8.364-6.013-11.767-10.521c-1.189-1.582-2.289-3.25-3.301-5.002c2.616-1.164,8.44-3.813,13.541-6.451
			c0.027,0.228,0.092,0.448,0.186,0.667c0.44,1.02,1.566,1.391,2.434,1.525c0.296,0.045,0.582,0.076,0.826,0.084
			c0.328,0.818,1.051,1.438,2.102,1.771c0.412,0.133,0.813,0.2,1.135,0.238c0.18,0.467,0.48,0.848,0.893,1.134
			c0.998,0.687,2.4,0.591,3.205,0.458c0.446,0.553,1.025,0.914,1.695,1.048c0.209,0.038,0.422,0.058,0.629,0.058
			c0.545,0,1.076-0.125,1.549-0.295v9.146c0,0.668,0.537,1.211,1.205,1.211c0.664,0,1.202-0.543,1.202-1.211v-9.557
			c1.215,0.246,2.194,0.037,2.873-0.229c0.542-0.219,0.96-0.495,1.235-0.724c1.178,0.209,2.242-0.115,3.045-0.934
			c0.281-0.287,0.488-0.593,0.634-0.85c1.622,0.076,2.591-0.609,3.134-1.229c0.281-0.324,0.471-0.668,0.596-0.953
			c0.999-0.036,1.807-0.352,2.406-0.934c0.301-0.295,0.513-0.619,0.66-0.934c4.121,3.21,10.531,6.06,13.435,7.261
			c-0.96,1.64-2.001,3.211-3.12,4.697c-3.404,4.508-7.366,8.052-11.768,10.52c-2.057,1.162-4.174,2.05-6.334,2.688
			c0.172,0.324,0.286,0.685,0.328,1.074c0.018,0.146,0.024,0.278,0.024,0.41c2.327-0.664,4.6-1.617,6.798-2.849
			c1.726-0.971,3.316-2.183,4.791-3.384c-0.217,0.791-0.31,1.583-0.273,2.374c0,0.039,0.009,0.075,0.012,0.114
			c-0.703,0.543-2.568,1.896-5.286,3.229c-2.046,1.011-4.171,1.812-6.313,2.383c-0.091,0.027-0.181,0.048-0.269,0.065
			c-0.082,0.134-0.168,0.257-0.265,0.372c-0.67,0.819-1.666,1.354-2.618,1.704c1.188-0.18,2.375-0.428,3.552-0.752
			c2.235-0.602,4.452-1.438,6.587-2.487c2.867-1.418,4.795-2.819,5.525-3.392c0.041,0.02,0.079,0.028,0.115,0.039
			c0.807,0.162,1.771,0.151,2.74-0.029c1.113-0.209,2.247-0.639,3.376-1.285c1.382-0.792,2.765-1.896,4.101-3.299
			c0.18-0.189,0.252-0.456,0.191-0.713c-0.062-0.258-0.24-0.459-0.488-0.553c-0.021,0-0.062-0.021-0.121-0.039
			c0.418-0.248,0.827-0.523,1.223-0.839c1.287-1.001,2.472-2.344,3.522-3.991c0.141-0.222,0.159-0.496,0.052-0.734
			c-0.078-0.182-0.221-0.314-0.391-0.391c0.265-0.22,0.522-0.449,0.77-0.688c1.172-1.134,2.211-2.591,3.083-4.335
			c0.12-0.238,0.11-0.506-0.021-0.733c-0.118-0.209-0.323-0.344-0.555-0.382c0.269-0.269,0.528-0.553,0.775-0.856
			c1.035-1.269,1.892-2.83,2.557-4.67c0.083-0.229,0.05-0.484-0.086-0.686c-0.136-0.21-0.364-0.334-0.607-0.344h-0.002
			c0.226-0.285,0.442-0.58,0.646-0.887c0.902-1.361,1.604-3.01,2.079-4.896c0.064-0.258-0.005-0.523-0.179-0.715
			c-0.161-0.172-0.391-0.268-0.621-0.248c0.211-0.334,0.41-0.686,0.588-1.039C190.963,200.235,191.452,198.521,191.693,196.585
			 M190.78,190.524c0.015,0.01,0.022,0.029,0.022,0.039c-0.096,1.324-0.34,2.543-0.729,3.621c-0.387,1.086-0.929,2.049-1.6,2.84
			c-0.787,0.924-1.602,1.43-1.914,1.601c-0.004,0-0.01,0-0.019,0c-0.011,0-0.022-0.009-0.03-0.019
			c-1.064-1.449-1.584-3.23-1.549-5.299c0.015-0.658,0.084-1.324,0.21-1.982c0.005-0.02,0.015-0.028,0.03-0.037
			c0.018,0,0.031,0,0.043,0.02c0.945,1.172,1.473,2.715,1.477,2.734c0.078,0.219,0.277,0.371,0.51,0.391
			c0.231,0.01,0.451-0.115,0.551-0.334c0.879-1.839,2.09-2.953,2.954-3.574C190.749,190.517,190.769,190.517,190.78,190.524
			 M190.635,183.599c0.012-0.01,0.029-0.019,0.043-0.01c0.014,0.01,0.023,0.018,0.023,0.038c0.039,1.333-0.088,2.571-0.364,3.677
			c-0.28,1.125-0.724,2.125-1.31,2.975c-0.693,1-1.453,1.58-1.746,1.771c-0.008,0.01-0.018,0.01-0.025,0.01
			c-0.009,0-0.021,0-0.03-0.01c-1.872-2.135-2.05-5.299-1.988-6.992c0.003-0.021,0.013-0.039,0.026-0.039
			c0.017-0.01,0.033,0,0.043,0.008c1.015,1.105,1.684,2.459,1.693,2.47c0.1,0.209,0.307,0.334,0.543,0.323
			c0.229-0.02,0.426-0.161,0.504-0.379C188.741,185.522,189.836,184.294,190.635,183.599 M189.889,176.56
			c0.01-0.01,0.029-0.015,0.043-0.01c0.016,0.005,0.026,0.014,0.026,0.033c0.165,1.32,0.165,2.563-0.007,3.697
			c-0.169,1.143-0.512,2.182-1.015,3.09c-0.603,1.086-1.313,1.732-1.591,1.963c-0.008,0.008-0.018,0.008-0.027,0.008
			c-0.008,0-0.016,0-0.025-0.008c-1.849-1.544-2.41-4.881-2.58-6.734c0-0.02,0.006-0.033,0.023-0.043
			c0.016-0.005,0.031-0.005,0.046,0.01c1.081,0.986,1.858,2.225,1.868,2.238c0.121,0.195,0.346,0.3,0.574,0.263
			c0.225-0.034,0.41-0.2,0.466-0.424C188.19,178.66,189.162,177.331,189.889,176.56 M188.791,169.875
			c0.01-0.014,0.025-0.019,0.041-0.014c0.014,0.005,0.025,0.014,0.027,0.033c0.227,1.31,0.284,2.554,0.168,3.692
			c-0.117,1.148-0.41,2.205-0.869,3.134c-0.541,1.097-1.211,1.772-1.473,2.012c-0.008,0.009-0.019,0.014-0.027,0.014
			c-0.008,0-0.018-0.005-0.025-0.014c-1.557-1.325-2.296-3.273-2.645-4.679c-0.156-0.629-0.269-1.291-0.338-1.958
			c-0.002-0.02,0.008-0.033,0.02-0.043c0.014-0.01,0.033-0.005,0.045,0.005c1.16,0.943,2.027,2.19,2.037,2.206
			c0.13,0.19,0.359,0.285,0.584,0.238c0.225-0.048,0.401-0.225,0.447-0.448C187.193,172.053,188.101,170.676,188.791,169.875
			 M135.707,170.304c0.014-0.09,0.028-0.181,0.047-0.271c0.91-4.602,2.705-7.741,4.049-9.565c1.006-1.367,1.922-2.225,2.374-2.606
			c0.144-0.104,0.288-0.224,0.432-0.343c0.44-0.381,0.507-1.038,0.151-1.5c-0.354-0.463-1.006-0.567-1.482-0.233
			c-0.047,0.033-0.207,0.147-0.463,0.361c-1.015,0.715-1.596,0.481-1.748,0.391c-0.332-0.186-0.47-0.624-0.377-1.176
			c0.167-0.991,1.284-2.32,1.699-2.744c0.019-0.02,0.035-0.038,0.053-0.063c2.245-2.662,5.824-2.721,5.859-2.721
			c0.033,0,0.065,0,0.103-0.005c0.011,0,1.124-0.09,2.521,0.372c1.913,0.634,3.397,1.953,4.402,3.926
			c1.41,2.758,2.48,5.55,3.272,8.522c-1.993-0.724-3.58-2.021-3.596-2.034c-0.463-0.386-1.15-0.319-1.534,0.147
			c-0.185,0.224-0.272,0.515-0.245,0.801c0.028,0.295,0.166,0.557,0.389,0.743c0.106,0.09,2.571,2.12,5.568,2.792
			c0.213,1.005,0.404,2.063,0.598,3.297c-0.955-0.491-2.084-0.791-3.006-1.039c-0.634-0.167-1.229-0.324-1.689-0.51
			c-2.043-0.824-3.779-2.196-3.799-2.211c-0.473-0.376-1.156-0.295-1.529,0.182c-0.375,0.471-0.293,1.162,0.176,1.538
			c0.081,0.067,2.004,1.582,4.342,2.524c0.588,0.239,1.249,0.415,1.947,0.601c2.59,0.687,3.758,1.215,3.815,2.511
			c-0.075,0.2-0.187,0.382-0.325,0.539c-0.824,0.9-2.645,0.995-3.273,0.952c-0.023,0-0.047,0-0.074,0h-2.434
			c-0.477-0.009-2.969-0.109-5.117-1.505C141.306,168.398,138.799,168.956,135.707,170.304 M145.1,173.481h-7.43
			c-0.76,0-1.284-0.19-1.598-0.576c-0.067-0.086-0.129-0.176-0.182-0.286C139.004,171.2,140.643,170.694,145.1,173.481
			 M148.099,186.989v-11.416h3.838c0.021,0,0.038,0,0.052,0c0.019,0,0.031,0,0.043,0h2.306c0.058,0.005,0.171,0.009,0.329,0.009
			c0.324,0,0.839-0.019,1.415-0.114c1.371-0.219,2.433-0.729,3.153-1.515c0.301-0.328,0.617-0.795,0.813-1.424
			c0.021-0.058,0.041-0.114,0.053-0.182c0.143-0.543,0.197-1.205,0.08-1.991l-0.033-0.22c-0.662-4.521-1.486-10.151-4.969-16.968
			c-2.916-5.713-8.318-5.475-8.925-5.432c-0.51,0.01-4.616,0.186-7.375,3.439c-0.293,0.301-1.942,2.077-2.239,3.831
			c-0.246,1.434,0.293,2.719,1.398,3.354c0.179,0.1,0.364,0.181,0.555,0.242c-1.731,2.178-3.836,5.741-4.878,11.02
			c-0.175,0.881-0.21,1.705-0.116,2.439c0.004,0.062,0.012,0.123,0.023,0.181c0.126,0.781,0.409,1.457,0.841,1.986
			c0.499,0.614,1.462,1.344,3.208,1.344h8.021v11.416v6.978c-2.102-0.067-3.707,0.763-5.701,2.172
			c-2.838,1.906-12.391,3.802-28.403,5.642c-1.124-4.764-1.694-9.719-1.694-14.789c0-6.681,0.986-13.164,2.93-19.258
			c1.878-5.884,4.561-11.161,7.977-15.688c3.402-4.517,7.362-8.056,11.767-10.528c4.542-2.549,9.363-3.84,14.331-3.84
			c4.969,0,9.789,1.291,14.332,3.84c4.401,2.473,8.363,6.012,11.768,10.528c3.416,4.526,6.098,9.804,7.972,15.688
			c1.944,6.094,2.933,12.577,2.933,19.258c0,5.146-0.586,10.168-1.744,14.998c-9.744-0.562-21.262-4.201-21.609-4.315
			c-0.818-0.276-1.564-0.543-2.227-0.791c-2.413-0.876-4.159-1.505-6.211-1.409c-0.117,0-0.237,0.01-0.354,0.01
			c-1.18-0.582-2.219-0.973-3.657-1.239v-7.253H148.099z M163.23,135.414c-0.588,0.238-1.506,0.553-2.543,0.748
			c-0.657,0.123-1.281,0.186-1.87,0.186c-1.397,0-2.599-0.348-3.579-1.044c-0.013-0.009-0.018-0.024-0.016-0.038
			c0-0.01,0.008-0.023,0.02-0.029c0.448-0.262,1.177-0.613,2.105-0.832c1.003-0.239,2.022-0.272,3.039-0.096
			c0.954,0.162,1.914,0.51,2.852,1.033c0.012,0.01,0.02,0.023,0.02,0.039C163.258,135.395,163.246,135.408,163.23,135.414
			 M164.633,139.387c0.01,0.009,0.012,0.023,0.01,0.038c-0.004,0.014-0.013,0.023-0.027,0.028c-0.401,0.143-1.049,0.314-1.84,0.348
			c-0.092,0.005-0.186,0.005-0.272,0.005c-1.66,0-3.282-0.61-4.831-1.82c-0.014-0.009-0.018-0.023-0.014-0.038
			c0-0.019,0.012-0.027,0.026-0.033c0.694-0.224,1.396-0.357,2.083-0.396C161.722,137.395,163.354,138.028,164.633,139.387
			 M156.971,133.207c-0.651,0.311-1.783,0.72-3.477,0.925c-0.234,0.028-0.432,0.2-0.486,0.434c-0.057,0.233,0.039,0.477,0.233,0.614
			c0.013,0.01,1.324,0.92,2.278,2.129c0.009,0.01,0.012,0.029,0.004,0.043c-0.008,0.016-0.021,0.02-0.035,0.02h-0.003
			c-1.597-0.047-4.593-0.515-6.731-3.092c-0.015-0.014-0.012-0.037,0.002-0.053c0.338-0.324,0.932-0.785,1.84-1.129
			c1.707-0.646,3.908-0.633,6.371,0.033c0.015,0.01,0.026,0.02,0.029,0.039C156.996,133.184,156.988,133.203,156.971,133.207
			 M149.816,132.031c-0.567,0.443-1.594,1.081-3.266,1.596c-0.233,0.071-0.398,0.285-0.406,0.533
			c-0.006,0.248,0.145,0.472,0.375,0.558c0.015,0.005,1.432,0.548,2.582,1.521c0.01,0.01,0.017,0.028,0.01,0.043
			c-0.002,0.014-0.018,0.023-0.033,0.027c-0.4,0.039-0.887,0.072-1.424,0.072c-1.725,0-3.984-0.311-5.73-1.648
			c-0.016-0.01-0.019-0.039-0.006-0.053c0.264-0.386,0.749-0.953,1.564-1.473c1.553-0.99,3.734-1.424,6.313-1.247
			c0.016,0,0.031,0.009,0.035,0.022C149.836,132.002,149.83,132.021,149.816,132.031 M142.465,132.15
			c-0.419,0.576-1.271,1.434-2.948,2.268c-0.222,0.109-0.351,0.348-0.315,0.596c0.034,0.247,0.22,0.438,0.463,0.486
			c0.014,0.004,1.514,0.29,2.854,0.961c0.014,0.01,0.021,0.024,0.02,0.043c0,0.014-0.01,0.029-0.027,0.033
			c-0.626,0.21-1.265,0.372-1.895,0.481c-0.57,0.104-1.246,0.181-1.979,0.181c-1.086,0-2.287-0.171-3.428-0.705
			c-0.02-0.009-0.025-0.033-0.02-0.053c0.176-0.428,0.525-1.09,1.206-1.771c1.325-1.32,3.411-2.215,6.032-2.582
			c0.014,0,0.03,0.004,0.039,0.02C142.475,132.122,142.475,132.141,142.465,132.15 M132.999,136.69
			c-0.181,0.157-0.245,0.414-0.162,0.638c0.083,0.229,0.3,0.376,0.536,0.376h0.007c0.005,0,0.629-0.005,1.462,0.105
			c0.563,0.076,1.08,0.181,1.541,0.324c0.016,0.004,0.024,0.019,0.027,0.033c0.002,0.019-0.008,0.033-0.021,0.043
			c-0.598,0.3-1.213,0.562-1.822,0.776c-1.346,0.467-2.502,0.629-3.454,0.629c-0.837,0-1.515-0.124-2.034-0.271
			c-0.021-0.01-0.033-0.028-0.028-0.048c0.243-1.215,1.362-4.226,6.489-5.974c0.014-0.006,0.027,0,0.039,0.01
			c0.012,0.014,0.016,0.027,0.008,0.042C135.252,134.156,134.533,135.365,132.999,136.69 M185.264,167.513
			c0.131-2.035,0.842-3.525,1.416-4.412c0.01-0.014,0.025-0.023,0.039-0.019c0.014,0.004,0.027,0.015,0.033,0.028
			c0.404,1.268,0.631,2.491,0.669,3.635c0.043,1.158-0.103,2.239-0.431,3.226c-0.387,1.157-0.955,1.92-1.184,2.191
			c-0.008,0.01-0.02,0.015-0.031,0.015c-0.007,0-0.014,0-0.021-0.005c-1.445-0.91-2.563-2.363-3.322-4.307
			c-0.234-0.601-0.424-1.234-0.57-1.882c-0.004-0.015,0.004-0.033,0.014-0.043c0.016-0.009,0.033-0.009,0.047,0
			c1.288,0.776,2.338,1.914,2.348,1.925c0.155,0.171,0.396,0.233,0.613,0.151C185.1,167.941,185.25,167.746,185.264,167.513
			 M182.98,161.129c-0.078-2.039,0.475-3.588,0.954-4.53c0.007-0.015,0.017-0.028,0.035-0.023c0.019,0,0.031,0.009,0.036,0.028
			c0.535,1.219,0.889,2.41,1.043,3.544c0.16,1.148,0.127,2.239-0.098,3.254c-0.264,1.187-0.752,2.005-0.947,2.301
			c-0.011,0.009-0.021,0.019-0.034,0.019c-0.007,0-0.012-0.004-0.019-0.01c-1.535-0.757-2.794-2.081-3.752-3.944
			c-0.293-0.571-0.548-1.177-0.76-1.806c-0.006-0.019-0.002-0.032,0.01-0.042c0.012-0.015,0.027-0.015,0.045-0.01
			c1.355,0.639,2.522,1.667,2.535,1.677c0.17,0.152,0.416,0.186,0.623,0.086C182.862,161.576,182.99,161.362,182.98,161.129
			 M179.787,155.717L179.787,155.717c0.205-0.119,0.316-0.356,0.281-0.591c-0.319-2.015,0.051-3.615,0.414-4.606
			c0.004-0.015,0.019-0.023,0.033-0.023c0.018-0.005,0.031,0.004,0.037,0.019c0.678,1.153,1.166,2.301,1.455,3.411
			c0.291,1.119,0.385,2.211,0.282,3.239c-0.124,1.21-0.512,2.076-0.674,2.392c-0.007,0.015-0.022,0.023-0.036,0.023
			c-0.004,0-0.007-0.004-0.012-0.004c-1.729-0.605-3.175-1.792-4.302-3.525c-0.364-0.553-0.681-1.152-0.942-1.777
			c-0.004-0.009-0.004-0.028,0.006-0.038c0.012-0.014,0.026-0.019,0.043-0.014c1.479,0.424,2.757,1.434,2.771,1.443
			C179.324,155.813,179.584,155.836,179.787,155.717 M175.492,150.181c0.202,0.139,0.469,0.139,0.667-0.009
			c0.197-0.143,0.283-0.399,0.21-0.633c-0.555-1.802-0.463-3.479-0.289-4.569c0.004-0.014,0.012-0.028,0.029-0.028
			c0.014-0.005,0.03,0,0.039,0.015c0.83,1.01,1.482,2.043,1.939,3.077c0.471,1.057,0.739,2.119,0.801,3.148
			c0.072,1.172-0.145,2.049-0.278,2.468c-0.007,0.02-0.024,0.028-0.038,0.028h-0.008c-1.686-0.313-3.268-1.252-4.699-2.782
			c-0.475-0.51-0.917-1.067-1.314-1.657c-0.008-0.015-0.008-0.029,0-0.043c0.006-0.015,0.023-0.024,0.037-0.024
			C174.203,149.29,175.48,150.172,175.492,150.181 M171.207,145.246c0.219,0.086,0.477,0.029,0.633-0.152
			c0.16-0.177,0.191-0.438,0.084-0.648c-0.934-1.811-1.094-3.443-1.061-4.497c0-0.014,0.01-0.028,0.024-0.033
			c0.014-0.005,0.03-0.005,0.043,0.005c0.97,0.867,1.772,1.787,2.387,2.739c0.624,0.967,1.06,1.978,1.298,2.997
			c0.281,1.209,0.205,2.177,0.159,2.534c-0.005,0.019-0.019,0.038-0.04,0.038c-0.03,0-0.064,0-0.098,0
			c-1.91,0-3.668-1.049-4.814-1.935c-0.568-0.442-1.126-0.947-1.65-1.496c-0.01-0.014-0.014-0.028-0.01-0.043
			c0.01-0.014,0.024-0.023,0.039-0.023c0.071-0.005,0.143-0.005,0.215-0.005C169.855,144.727,171.192,145.241,171.207,145.246
			 M169.506,140.759c0.453,1.167,0.505,2.263,0.496,2.811c0,0.023-0.018,0.038-0.039,0.038c-0.1,0.009-0.201,0.009-0.305,0.009
			c-2.354,0-5.093-1.586-6.55-2.563c-0.015-0.009-0.021-0.028-0.017-0.043c0.002-0.014,0.014-0.028,0.029-0.033
			c1.492-0.285,2.912,0.043,2.926,0.048c0.238,0.053,0.486-0.048,0.617-0.253c0.131-0.209,0.117-0.476-0.035-0.672
			c-0.932-1.167-1.506-2.52-1.822-3.448c-0.008-0.014-0.003-0.029,0.006-0.038c0.013-0.015,0.027-0.019,0.043-0.015
			C167.174,137.381,168.739,138.776,169.506,140.759 M126.801,133.76c0.112-0.043,0.227-0.08,0.338-0.123
			c1.383-0.486,2.703-0.806,3.366-0.958c1.532-0.343,2.606-1.019,2.651-1.048c0.139-0.09,0.207-0.258,0.172-0.42
			c-0.033-0.156-0.165-0.28-0.324-0.305l-6.789-0.995l6.787-1.006c0.189-0.023,0.335-0.19,0.335-0.386s-0.146-0.361-0.335-0.391
			c-0.016-0.004-1.478-0.229-2.998-0.918c-0.451-0.205-0.846-0.42-1.192-0.611c-0.601-0.328-1.177-0.643-1.944-0.887
			c0.119,0,0.238,0.006,0.357,0.015c1.473,0.087,2.809,0.296,3.476,0.411c1.546,0.275,2.796,0.061,2.849,0.051
			c0.16-0.023,0.289-0.152,0.319-0.314c0.029-0.162-0.045-0.328-0.186-0.408l-5.894-3.526l6.654,1.683
			c0.188,0.047,0.383-0.053,0.457-0.234c0.076-0.181,0.007-0.386-0.16-0.49c-0.012-0.006-1.271-0.777-2.42-2.006
			c-0.332-0.354-0.601-0.686-0.87-1.02c-0.427-0.533-0.841-1.049-1.458-1.572c0.112,0.048,0.219,0.1,0.329,0.152
			c1.325,0.648,2.479,1.358,3.052,1.725c1.326,0.848,2.559,1.134,2.607,1.148c0.162,0.033,0.329-0.033,0.418-0.171
			c0.088-0.14,0.083-0.319-0.016-0.454l-4.107-5.516l5.514,4.106c0.154,0.119,0.371,0.101,0.508-0.038
			c0.138-0.135,0.154-0.357,0.04-0.515c-0.091-0.124-0.905-1.272-1.472-2.782c-0.172-0.457-0.293-0.877-0.412-1.282
			c-0.193-0.661-0.379-1.295-0.748-2.01c0.08,0.086,0.164,0.177,0.242,0.267c0.978,1.105,1.775,2.211,2.163,2.768
			c0.872,1.254,1.866,1.987,1.976,2.068c0.133,0.09,0.314,0.095,0.45,0c0.132-0.096,0.195-0.262,0.156-0.424l-1.705-6.67l3.54,5.912
			c0.1,0.166,0.307,0.238,0.485,0.162c0.181-0.076,0.276-0.268,0.231-0.457c-0.017-0.063-0.354-1.487-0.298-3.145
			c0.015-0.486,0.062-0.92,0.107-1.34c0.071-0.681,0.14-1.338,0.073-2.148c0.043,0.115,0.084,0.229,0.124,0.344
			c0.479,1.391,0.796,2.721,0.944,3.387c0.328,1.496,0.964,2.554,1.035,2.673c0.086,0.138,0.253,0.205,0.414,0.177
			c0.158-0.033,0.284-0.167,0.306-0.334l0.948-6.766l0.983,6.771c0.028,0.19,0.195,0.339,0.39,0.339
			c0.191,0,0.358-0.148,0.387-0.339c0.008-0.058,0.229-1.495,0.91-3.015c0.197-0.449,0.405-0.83,0.603-1.201
			c0.327-0.605,0.642-1.188,0.884-1.963c-0.002,0.123-0.01,0.242-0.014,0.367c-0.086,1.472-0.293,2.82-0.41,3.496
			c-0.268,1.553-0.057,2.811-0.051,2.863c0.029,0.162,0.155,0.291,0.318,0.324c0.156,0.028,0.324-0.048,0.406-0.186l3.504-5.922
			l-1.67,6.684c-0.048,0.186,0.051,0.386,0.229,0.457c0.179,0.076,0.389,0.01,0.486-0.162c0.081-0.128,0.826-1.328,1.994-2.434
			c0.348-0.328,0.676-0.6,1.016-0.873c0.531-0.432,1.041-0.852,1.557-1.471c-0.048,0.109-0.1,0.219-0.15,0.328
			c-0.641,1.33-1.349,2.496-1.707,3.072c-0.836,1.325-1.127,2.578-1.139,2.631c-0.035,0.157,0.031,0.328,0.169,0.414
			c0.138,0.091,0.316,0.086,0.448-0.014l5.482-4.121l-4.082,5.535c-0.115,0.158-0.102,0.377,0.037,0.515
			c0.137,0.134,0.355,0.153,0.514,0.038c0.008-0.01,1.205-0.887,2.765-1.482c0.453-0.17,0.862-0.295,1.272-0.418
			c0.654-0.19,1.283-0.381,1.998-0.753c-0.086,0.085-0.174,0.167-0.264,0.247c-1.096,0.978-2.192,1.783-2.75,2.178
			c-1.276,0.9-2.02,1.943-2.051,1.986c-0.096,0.134-0.098,0.32-0.002,0.453c0.093,0.133,0.262,0.195,0.419,0.156l6.63-1.7
			l-5.875,3.545c-0.164,0.101-0.233,0.31-0.159,0.491c0.073,0.18,0.267,0.281,0.46,0.232c0.15-0.037,1.527-0.352,3.115-0.299
			c0.49,0.013,0.918,0.061,1.334,0.104c0.677,0.071,1.332,0.143,2.135,0.071c-0.112,0.048-0.227,0.091-0.338,0.13
			c-1.395,0.484-2.709,0.799-3.369,0.947c-1.541,0.348-2.607,1.02-2.653,1.048c-0.139,0.086-0.208,0.253-0.174,0.415
			c0.034,0.162,0.164,0.285,0.327,0.31l6.773,0.977l-6.779,1.02c-0.19,0.028-0.334,0.195-0.334,0.391
			c-0.002,0.19,0.142,0.362,0.334,0.39c0.152,0.025,1.534,0.258,2.994,0.925c0.443,0.2,0.816,0.409,1.193,0.614
			c0.6,0.329,1.175,0.644,1.941,0.891c-0.119-0.004-0.24-0.009-0.359-0.018c-1.467-0.086-2.806-0.301-3.473-0.42l-0.185-0.029
			c-1.226-0.537-2.483-0.818-3.741-0.834c-0.002-0.009-0.006-0.018-0.006-0.033c-0.061-0.262-0.252-0.475-0.505-0.562
			c-1.841-0.643-3.57-0.976-5.138-0.985c-0.576-0.006-1.125,0.033-1.653,0.113c-0.011-0.07-0.032-0.143-0.065-0.204
			c-0.115-0.238-0.336-0.396-0.594-0.429c-1.938-0.258-3.697-0.234-5.232,0.071c-0.611,0.119-1.195,0.29-1.735,0.501
			c-0.017-0.168-0.086-0.324-0.202-0.453c-0.164-0.176-0.391-0.268-0.634-0.248c-1.945,0.162-3.659,0.563-5.093,1.191
			c-0.383,0.166-0.75,0.352-1.096,0.553c-0.02-0.201-0.121-0.391-0.279-0.52c-0.192-0.162-0.455-0.219-0.697-0.152
			c-1.898,0.523-3.527,1.258-4.848,2.177l-0.078,0.058c-0.363,0.023-0.715,0.027-1.056,0.019c-0.284-0.01-1.229-0.095-1.329-0.104
			C128.256,133.76,127.605,133.693,126.801,133.76 M128.628,135.742c0.013-0.01,0.028-0.01,0.043,0
			c0.013,0.005,0.021,0.02,0.019,0.033c-0.064,1.048-0.378,2.658-1.49,4.383c-0.125,0.195-0.125,0.448,0.006,0.639
			c0.132,0.19,0.363,0.285,0.587,0.238c0.015,0,1.475-0.296,2.953-0.177c0.017,0,0.031,0.01,0.036,0.024
			c0.005,0.019,0,0.033-0.015,0.047c-1.276,1.021-3.775,2.696-6.458,2.696c-0.094,0-0.189,0-0.288-0.004
			c-0.019,0-0.034-0.019-0.037-0.039C123.914,142.288,124.223,138.934,128.628,135.742 M119.303,145.689
			c0.226-1.015,0.662-2.021,1.291-2.987c0.626-0.962,1.453-1.9,2.461-2.792c0.012-0.009,0.027-0.009,0.043-0.005
			c0.014,0.005,0.023,0.024,0.023,0.033c0.035,1.049-0.123,2.684-1.064,4.507c-0.11,0.21-0.079,0.458,0.075,0.639
			c0.153,0.182,0.394,0.248,0.617,0.172c0.015-0.005,1.401-0.477,2.872-0.524c0.016,0,0.031,0.01,0.039,0.023
			c0.007,0.015,0.002,0.034-0.01,0.043c-0.553,0.553-1.121,1.058-1.693,1.496c-1.168,0.905-2.878,1.957-4.529,1.957
			c-0.066,0-0.131,0-0.197-0.004c-0.02,0-0.033-0.019-0.038-0.033C119.135,147.856,119.03,146.904,119.303,145.689 M117.795,144.894
			c0.007-0.01,0.023-0.02,0.039-0.014c0.015,0.004,0.027,0.014,0.029,0.033c0.203,1.028,0.307,2.662-0.333,4.61
			c-0.077,0.238,0.003,0.496,0.199,0.644c0.198,0.152,0.466,0.157,0.667,0.014c0.014-0.009,1.27-0.866,2.863-1
			c0.015,0,0.031,0.01,0.039,0.019c0.007,0.021,0.007,0.034-0.003,0.048c-1.034,1.458-3.185,3.974-5.96,4.44
			c-0.002,0-0.005,0-0.007,0c-0.017,0-0.033-0.01-0.038-0.023C114.889,152.426,114.324,149.096,117.795,144.894 M111.814,153.907
			c0.338-1.096,0.873-2.226,1.597-3.35c0.007-0.015,0.024-0.019,0.038-0.019c0.017,0.004,0.029,0.014,0.031,0.028
			c0.326,1,0.629,2.615,0.224,4.626c-0.048,0.252,0.067,0.505,0.294,0.624c0.221,0.119,0.492,0.081,0.674-0.101
			c0.009-0.009,1.182-1.147,2.791-1.371c0.014-0.005,0.031,0.004,0.039,0.014c0.01,0.014,0.012,0.029,0.004,0.043
			c-0.221,0.457-0.598,1.157-1.124,1.887c-1.227,1.695-2.694,2.801-4.356,3.287c-0.005,0-0.008,0-0.012,0
			c-0.015,0-0.029-0.005-0.039-0.02c-0.145-0.324-0.502-1.21-0.576-2.43C111.337,156.094,111.478,155.012,111.814,153.907
			 M108.588,160.129c0.166-1.135,0.531-2.33,1.076-3.55c0.008-0.014,0.021-0.023,0.036-0.023h0.003c0.014,0,0.028,0.01,0.035,0.023
			c0.469,0.943,1.008,2.496,0.912,4.55c-0.012,0.229,0.115,0.443,0.32,0.543c0.207,0.104,0.454,0.071,0.626-0.081
			c0.052-0.043,1.267-1.096,2.685-1.711c0.014-0.01,0.033-0.004,0.043,0.005c0.012,0.011,0.016,0.028,0.014,0.044
			c-0.147,0.576-0.357,1.143-0.621,1.686c-0.868,1.782-2.242,3.154-4.086,4.079c0,0-0.012,0-0.02,0
			c-0.009,0-0.023-0.005-0.033-0.016c-0.238-0.371-0.678-1.161-0.922-2.301C108.442,162.363,108.416,161.267,108.588,160.129
			 M106.842,163.044c0.003-0.02,0.016-0.028,0.033-0.033c0.014,0,0.028,0.01,0.039,0.019c0.582,0.877,1.312,2.345,1.474,4.397
			c0.019,0.233,0.176,0.434,0.397,0.505c0.221,0.071,0.463,0,0.615-0.181c0.01-0.01,1.031-1.229,2.443-2.04
			c0.014-0.009,0.029-0.009,0.043,0c0.012,0.01,0.02,0.024,0.02,0.039c-0.07,0.609-0.203,1.219-0.396,1.811
			c-0.629,1.924-1.822,3.453-3.548,4.535c-0.007,0.005-0.014,0.01-0.02,0.01c-0.014,0-0.025-0.01-0.032-0.015
			c-0.231-0.271-0.812-1.024-1.216-2.182c-0.34-0.977-0.502-2.059-0.479-3.216C106.244,165.55,106.451,164.321,106.842,163.044
			 M104.865,169.804c0.002-0.02,0.012-0.028,0.027-0.033c0.013-0.005,0.031,0,0.041,0.014c0.688,0.801,1.598,2.178,2.006,4.179
			c0.047,0.224,0.221,0.4,0.447,0.448c0.225,0.048,0.455-0.048,0.584-0.238c0.041-0.053,0.93-1.329,2.12-2.272
			c0.013-0.01,0.03-0.01,0.043-0.005c0.015,0.009,0.024,0.023,0.021,0.038c-0.031,0.605-0.112,1.21-0.245,1.801
			c-0.445,1.963-1.398,3.611-2.832,4.897c-0.008,0.005-0.018,0.01-0.027,0.01c-0.009,0-0.018-0.005-0.025-0.01
			c-0.324-0.301-0.943-0.958-1.458-2.001c-0.46-0.93-0.753-1.981-0.872-3.135C104.581,172.357,104.637,171.114,104.865,169.804
			 M103.852,176.583c0-0.02,0.013-0.028,0.027-0.033c0.014-0.005,0.031,0,0.04,0.01c0.729,0.771,1.698,2.101,2.201,4.083
			c0.06,0.233,0.263,0.405,0.501,0.428c0.236,0.024,0.469-0.104,0.57-0.323c0.008-0.014,0.639-1.334,1.787-2.368
			c0.01-0.009,0.028-0.009,0.043-0.005c0.014,0.005,0.021,0.02,0.021,0.039c0,0.69-0.057,1.377-0.164,2.033
			c-0.342,2.067-1.145,3.703-2.387,4.869c-0.01,0-0.02,0.01-0.029,0.01c-0.009,0-0.02,0-0.025-0.01
			c-0.274-0.229-0.973-0.877-1.565-1.944c-0.503-0.908-0.843-1.947-1.015-3.09C103.686,179.146,103.686,177.903,103.852,176.583
			 M103.29,183.703c0.003-0.021,0.009-0.028,0.024-0.038c0.016,0,0.033,0,0.045,0.01c0.145,0.144,0.288,0.286,0.426,0.429
			c0.627,0.675,1.484,1.84,2.025,3.515c0.081,0.258,0.32,0.42,0.586,0.399c0.265-0.019,0.479-0.219,0.521-0.484
			c0.004-0.01,0.26-1.447,1.465-2.553c0.012-0.021,0.026-0.021,0.04-0.01c0.013,0,0.024,0.01,0.026,0.029
			c0.127,0.8,0.23,2.039,0.008,3.362c-0.266,1.582-0.928,2.896-1.971,3.906c-0.006,0.01-0.016,0.01-0.027,0.01
			c-0.008,0-0.016,0-0.021-0.01C105.377,191.507,102.951,189.134,103.29,183.703 M103.014,190.62c0.015-0.01,0.033-0.01,0.043,0
			c0.162,0.125,0.319,0.248,0.472,0.382c0.693,0.61,1.67,1.667,2.382,3.287c0.091,0.2,0.296,0.333,0.521,0.333c0,0,0.006,0,0.01,0
			l0,0c0.23,0,0.434-0.143,0.521-0.352c0.008-0.021,0.629-1.525,1.635-2.727c0.009-0.01,0.025-0.02,0.04-0.01
			c0.015,0,0.026,0.01,0.028,0.027c0.314,1.459,0.524,4.336-1.622,7.252c-0.007,0.011-0.019,0.021-0.03,0.021
			c-0.008,0-0.016,0-0.021-0.01c-1.125-0.658-3.764-2.773-4-8.166C102.992,190.64,103.002,190.62,103.014,190.62 M103.371,197.815
			c-0.005-0.021,0.002-0.039,0.014-0.049c0.013-0.01,0.029-0.01,0.043,0c0.939,0.477,2.299,1.41,3.447,3.116
			c0.126,0.189,0.354,0.285,0.581,0.248c0.224-0.049,0.403-0.221,0.452-0.448l0,0l0.036,0.01l-0.036-0.01
			c0.015-0.066,0.382-1.687,1.166-3.012c0.01-0.02,0.023-0.02,0.037-0.02c0.015,0,0.026,0.011,0.033,0.02
			c0.279,0.592,0.486,1.21,0.62,1.839c0.415,1.953,0.091,3.859-0.958,5.649c-0.004,0.02-0.02,0.029-0.033,0.029
			c-0.005,0-0.01-0.01-0.014-0.01c-0.337-0.125-1.221-0.496-2.145-1.313c-0.779-0.687-1.453-1.554-1.996-2.573
			C104.078,200.282,103.659,199.11,103.371,197.815 M104.991,204.485c-0.005-0.01,0-0.03,0.011-0.041
			c0.01-0.008,0.027-0.019,0.043-0.008c0.182,0.076,0.367,0.162,0.547,0.256c0.824,0.422,2.029,1.211,3.119,2.604
			c0.144,0.182,0.379,0.258,0.602,0.201c0.221-0.059,0.385-0.248,0.416-0.477c0.003-0.021,0.233-1.604,0.881-2.975
			c0.008-0.02,0.021-0.027,0.039-0.027c0.017,0,0.028,0.01,0.035,0.027c0.672,1.479,1.601,4.402,0.27,7.366
			c-0.007,0.019-0.021,0.026-0.038,0.026c-0.003,0-0.007,0-0.007,0C109.648,211.079,106.559,209.688,104.991,204.485
			 M108.988,214.375c-0.723-0.888-1.355-1.963-1.883-3.181c-0.006-0.01-0.004-0.029,0.008-0.039c0.01-0.021,0.025-0.021,0.041-0.021
			c0.188,0.061,0.378,0.126,0.57,0.192c0.865,0.323,2.156,0.971,3.4,2.229c0.162,0.161,0.404,0.219,0.619,0.133
			c0.211-0.086,0.355-0.295,0.359-0.523c0-0.018,0.043-1.572,0.52-3.01c0.004-0.021,0.02-0.029,0.033-0.039
			c0.018,0,0.031,0.01,0.041,0.029c0.323,0.569,0.602,1.16,0.823,1.771c0.715,1.934,0.815,3.781,0.3,5.479
			c-0.006,0.02-0.021,0.027-0.037,0.027c0,0-0.006,0-0.008,0c-0.353-0.057-1.283-0.266-2.338-0.895
			C110.541,216.004,109.717,215.271,108.988,214.375 M109.959,217.539c-0.006-0.011-0.006-0.029,0.003-0.038
			c0.007-0.02,0.021-0.02,0.038-0.02c1.041,0.182,2.621,0.656,4.229,1.944c0.182,0.151,0.432,0.173,0.633,0.046
			c0.205-0.104,0.32-0.332,0.291-0.562c-0.007-0.067-0.162-1.478,0.15-2.992c0.005-0.01,0.017-0.028,0.033-0.028s0.031,0,0.041,0.02
			c0.381,0.553,0.721,1.134,1.008,1.716c0.633,1.296,1.316,3.258,0.969,5.298c-0.002,0.02-0.019,0.038-0.041,0.038l0,0
			c-0.442-0.028-1.346-0.134-2.424-0.619c-0.953-0.42-1.856-1.049-2.688-1.858C111.382,219.683,110.629,218.69,109.959,217.539
			 M123.146,229.088c-0.004-0.011-0.576-1.399-0.702-2.926c0-0.011,0.007-0.028,0.021-0.037c0.015-0.01,0.033,0,0.045,0.009
			c1.336,1.124,3.556,3.479,3.415,6.575c-0.002,0.021-0.014,0.038-0.033,0.038c-0.161,0.027-0.474,0.066-0.895,0.066
			c-0.377,0-0.84-0.028-1.363-0.133c-1.92-0.393-3.893-1.524-5.861-3.386c-0.012-0.008-0.018-0.026-0.012-0.036
			c0.004-0.021,0.016-0.029,0.033-0.04c1.045-0.132,2.695-0.132,4.613,0.63c0.215,0.086,0.46,0.029,0.619-0.134
			C123.189,229.544,123.235,229.306,123.146,229.088 M117.949,224.935c0.199,0.133,0.452,0.123,0.643-0.021
			c0.191-0.133,0.279-0.371,0.221-0.608c-0.006-0.011-0.354-1.431-0.189-2.955c0.006-0.019,0.014-0.027,0.031-0.037
			c0.014,0,0.031,0,0.041,0.01c1.093,1.334,2.898,3.973,2.729,6.766c0,0.028-0.017,0.037-0.036,0.037
			c-0.078,0.01-0.169,0.01-0.273,0.01c-0.494,0-1.277-0.066-2.201-0.361c-0.993-0.323-1.958-0.856-2.87-1.571
			c-0.898-0.715-1.754-1.62-2.538-2.697c-0.007-0.01-0.01-0.028-0.002-0.038c0.01-0.019,0.02-0.027,0.041-0.027
			C114.595,223.515,116.213,223.828,117.949,224.935 M140.346,209.821c-0.188,0.123-0.359,0.248-0.524,0.359
			c-1.225,0.859-1.984,1.784-2.268,2.729c-0.159-0.04-0.31-0.066-0.448-0.116c-0.938-0.313-0.984-0.791-1-0.962
			c-0.027-0.494,0.226-0.936,0.938-1.619c0.834-0.801,1.532-1.201,2.137-1.201c0.218,0,0.422,0.049,0.617,0.153
			c0.296,0.144,0.486,0.313,0.539,0.476C140.353,209.688,140.355,209.755,140.346,209.821 M141.521,214.565
			c-0.375,0.058-1.389,0.181-1.889-0.172c-0.121-0.076-0.248-0.209-0.285-0.543c-0.084-0.801,0.947-1.656,1.572-2.097
			c0.969-0.687,1.635-1.076,2.182-1.076c0.276,0,0.52,0.105,0.754,0.304c0.198,0.174,0.299,0.336,0.291,0.457
			c-0.014,0.258-0.338,0.64-0.633,0.877C142.553,212.985,141.9,213.718,141.521,214.565 M146.382,214.737
			c-0.37,0.285-1.62,1.066-2.516,0.886c-0.144-0.026-0.358-0.095-0.574-0.324c0.411-0.866,1.322-1.446,2.146-1.924
			c1.076-0.628,1.546-0.269,1.559-0.258c0.316,0.305,0.297,0.485,0.293,0.543c-0.041,0.391-0.584,0.856-0.834,1.021
			C146.43,214.699,146.409,214.709,146.382,214.737 M136.167,208.421c-0.144,0.123-0.288,0.258-0.448,0.409
			c-0.563,0.544-1.164,1.21-1.412,2.097c-0.139-0.01-0.273-0.029-0.398-0.049c-0.613-0.104-0.957-0.294-1.021-0.447
			c-0.041-0.095-0.162-0.371,0.198-0.848c0.519-0.686,1.653-1.248,2.462-1.248c0.075,0,0.15,0.01,0.217,0.02
			c0.033,0.01,0.053,0.01,0.082,0.01C135.916,208.373,136.033,208.382,136.167,208.421 M160.754,209.612
			c-0.281,0.266-0.707,0.408-1.27,0.419c-0.798-1.077-2.87-3.632-5.508-4.929c-0.225-0.104-0.484-0.121-0.727-0.037
			c-0.242,0.076-0.437,0.246-0.549,0.484c-0.113,0.229-0.129,0.486-0.047,0.734c0.084,0.238,0.256,0.438,0.484,0.554
			c2.229,1.097,4.074,3.353,4.797,4.326c-0.074,0.162-0.17,0.305-0.281,0.437c-0.358,0.41-0.89,0.612-1.566,0.612
			c-0.24-0.526-0.672-1.155-1.273-1.858c-0.813-0.943-2.451-2.105-2.521-2.153c-0.21-0.144-0.462-0.2-0.715-0.161
			c-0.253,0.047-0.472,0.189-0.614,0.398c-0.15,0.211-0.207,0.459-0.162,0.715c0.041,0.258,0.184,0.478,0.391,0.621
			c0.42,0.305,1.633,1.207,2.174,1.836c0.637,0.746,0.895,1.201,0.994,1.421c-0.086,0.172-0.227,0.399-0.434,0.603
			c-0.344,0.331-0.756,0.467-1.268,0.407c-0.242-0.543-0.779-1.563-1.743-2.658c-0.351-0.399-0.956-0.427-1.349-0.075
			c-0.19,0.172-0.303,0.4-0.319,0.658c-0.017,0.256,0.069,0.504,0.241,0.694c0.662,0.752,1.076,1.448,1.313,1.924
			c-0.158,0.097-0.324,0.19-0.498,0.258c-0.481,0.191-0.998,0.259-1.539,0.191c0.238-0.382,0.381-0.771,0.422-1.163
			c0.057-0.534-0.046-1.334-0.852-2.125c-0.411-0.418-1.224-0.789-2.3-0.618c-0.085-0.591-0.394-1.124-0.929-1.591
			c-0.869-0.764-1.88-0.973-3.004-0.62c-0.172-0.448-0.565-1.028-1.448-1.478c-0.794-0.4-1.677-0.457-2.556-0.181
			c-0.782-0.659-1.802-0.791-2.092-0.812c-1.266-0.172-2.906,0.438-3.99,1.468c-5.453,2.937-12.463,6.106-15.312,7.384
			c-1.493-2.829-2.769-5.888-3.788-9.08c-0.279-0.877-0.54-1.773-0.783-2.667c8.013-0.925,14.457-1.877,19.158-2.821
			c4.929-0.99,8.106-2,9.734-3.097c1.876-1.334,3.157-1.981,4.949-1.83c0.422,0.039,0.805,0.076,1.164,0.136
			c-0.34,0.143-0.664,0.321-0.979,0.543c-0.752,0.533-1.217,0.914-1.625,1.248c-0.412,0.342-0.738,0.608-1.26,0.942
			c-0.357,0.238-0.846,0.478-1.316,0.715c-1.115,0.544-1.998,0.98-2.283,1.744c-0.297,0.828-0.181,1.543,0.379,2.334
			c0.855,1.209,2.246,1.134,3.356,1.065c1.249-0.066,2.772-0.532,3.886-1.182c0.398-0.229,0.752-0.457,1.063-0.666
			c0.478-0.324,0.893-0.592,1.186-0.658c0.017,0,0.035-0.01,0.055-0.01c0.965-0.274,2.054-0.162,3.338,0.334
			c1.159,0.457,2.293,1.153,3.346,1.848c2.498,1.632,4.351,3.843,4.9,4.527C161.141,208.992,161.029,209.345,160.754,209.612
			 M164.219,208.868c-0.822-0.581-1.395-1.191-1.66-1.496c-0.006,0-0.008-0.01-0.013-0.01l-0.028-0.037
			c-0.078-0.086-0.125-0.152-0.141-0.172c-0.857-1.03-2.656-3.004-5.051-4.574c-1.762-1.152-5.032-3.287-8.203-2.43
			c-0.637,0.143-1.182,0.504-1.815,0.934c-0.303,0.2-0.61,0.4-0.964,0.609c-0.991,0.572-2.24,0.877-3.035,0.925
			c-0.902,0.048-1.469,0.058-1.697-0.267c-0.204-0.285-0.195-0.392-0.165-0.486c0.204-0.189,0.947-0.553,1.354-0.752
			c0.521-0.258,1.065-0.524,1.518-0.82c0.607-0.4,1.006-0.725,1.425-1.066c0.384-0.313,0.818-0.677,1.517-1.172
			c0.951-0.668,1.994-0.687,3.571-0.725h0.028c0.24,0,0.486-0.01,0.744-0.02c0.189,0,0.385-0.011,0.59-0.02
			c1.684-0.077,3.211,0.477,5.512,1.307c0.672,0.246,1.43,0.522,2.287,0.817c0.129,0.039,3.232,1.021,7.453,2.03
			c3.658,0.877,9.074,1.99,14.152,2.334c-0.227,0.828-0.471,1.648-0.722,2.438c-1.058,3.317-2.387,6.47-3.954,9.386
			C174.385,214.558,168.256,211.88,164.219,208.868 M176.052,229.296c-2.444,2.307-4.536,3.118-5.86,3.385
			c-0.523,0.104-0.982,0.145-1.361,0.145c-0.393,0-0.701-0.039-0.894-0.077c-0.019,0-0.034-0.019-0.034-0.038
			c-0.08-1.753,0.587-3.47,1.979-5.107c0.435-0.504,0.925-0.981,1.466-1.43c0.014-0.01,0.03-0.01,0.045,0
			c0.014,0,0.023,0.02,0.021,0.039c-0.16,1.457-0.729,2.866-0.734,2.877c-0.09,0.219-0.043,0.456,0.119,0.628
			c0.162,0.163,0.405,0.22,0.62,0.134c1.905-0.752,3.558-0.752,4.611-0.619c0.017,0,0.028,0.01,0.034,0.029
			C176.068,229.271,176.064,229.288,176.052,229.296 M180.379,223.515c-0.781,1.066-1.633,1.973-2.531,2.688
			c-0.912,0.715-1.877,1.248-2.867,1.572c-0.928,0.295-1.711,0.36-2.203,0.36c-0.105,0-0.195,0-0.274-0.01
			c-0.02,0-0.036-0.009-0.038-0.037c-0.117-1.688,0.393-3.44,1.513-5.213c0.347-0.543,0.749-1.076,1.188-1.582
			c0.012-0.01,0.027-0.019,0.043-0.01c0.018,0.01,0.026,0.021,0.027,0.039c0.139,1.495-0.159,3.002-0.16,3.011
			c-0.047,0.229,0.044,0.458,0.234,0.591c0.19,0.134,0.439,0.144,0.634,0.011c1.722-1.105,3.343-1.42,4.403-1.486
			c0.014,0,0.031,0.009,0.037,0.019C180.393,223.476,180.393,223.494,180.379,223.515 M181.689,220.483
			c-0.828,0.81-1.734,1.438-2.686,1.857c-1.118,0.504-2.068,0.6-2.426,0.619h-0.002c-0.02,0-0.033-0.02-0.039-0.038
			c-0.297-1.666,0.026-3.467,0.959-5.337c0.285-0.58,0.628-1.152,1.015-1.705c0.009-0.01,0.026-0.02,0.04-0.01
			c0.017,0,0.029,0.01,0.031,0.029c0.293,1.467,0.156,3.002,0.156,3.021c-0.023,0.228,0.094,0.448,0.297,0.562
			c0.202,0.117,0.449,0.086,0.628-0.056c1.599-1.278,3.18-1.764,4.226-1.944c0.014,0,0.031,0.01,0.038,0.02
			c0.01,0.02,0.01,0.027,0.003,0.048C183.262,218.69,182.51,219.683,181.689,220.483 M184.861,214.289
			c-0.729,0.896-1.554,1.62-2.449,2.153c-1.013,0.601-1.896,0.818-2.334,0.887l-0.006,0.01c-0.016,0-0.033-0.02-0.037-0.027
			c-0.498-1.715-0.391-3.564,0.316-5.498c0.213-0.592,0.477-1.162,0.788-1.726c0.005-0.009,0.021-0.019,0.038-0.019
			c0.018,0,0.031,0.01,0.033,0.027c0.46,1.447,0.533,2.975,0.533,2.991c0.013,0.229,0.16,0.438,0.377,0.515
			c0.217,0.078,0.461,0.021,0.619-0.151l0,0c1.268-1.392,2.54-2.028,3.383-2.316c0.205-0.065,0.41-0.132,0.614-0.17
			c0.013-0.009,0.028,0,0.038,0.009c0.01,0.01,0.012,0.029,0.008,0.039C186.248,212.271,185.6,213.375,184.861,214.289
			 M187.285,207.802c-0.635,0.973-1.383,1.771-2.222,2.391c-0.986,0.726-1.894,1.021-2.239,1.115c-0.003,0-0.008,0-0.008,0
			c-0.019,0-0.033-0.011-0.04-0.019c-0.81-1.981-0.574-4.099-0.233-5.528c0.152-0.637,0.359-1.285,0.615-1.924
			c0.004-0.021,0.021-0.027,0.037-0.027l0,0c0.015,0,0.031,0.008,0.039,0.027c0.605,1.409,0.818,3.012,0.828,3.078
			c0.031,0.229,0.19,0.41,0.412,0.477c0.219,0.066,0.455-0.01,0.602-0.19c1.285-1.591,2.729-2.4,3.71-2.791
			c0.015-0.011,0.03-0.011,0.043,0c0.009,0.01,0.015,0.026,0.009,0.046C188.436,205.724,187.912,206.849,187.285,207.802
			 M189.063,201.046c-0.51,1.038-1.153,1.924-1.907,2.639c-0.855,0.812-1.671,1.211-2.077,1.381c-0.006,0-0.013,0-0.013,0
			c-0.019,0-0.032,0-0.04-0.018c-0.874-1.572-1.191-3.439-0.939-5.557c0.079-0.647,0.21-1.305,0.391-1.943
			c0.006-0.02,0.02-0.029,0.034-0.038c0.017,0,0.034,0.009,0.04,0.019c0.781,1.345,1.199,3.003,1.203,3.021
			c0.055,0.219,0.238,0.391,0.465,0.43c0.229,0.037,0.454-0.067,0.576-0.268c1.078-1.734,2.41-2.716,3.338-3.23
			c0.014-0.01,0.027-0.01,0.043,0.011c0.012,0,0.019,0.019,0.014,0.036C189.947,198.835,189.568,200.017,189.063,201.046"/>
		<path fill="#FDC300" d="M159.178,132.84c1.258,0.016,2.516,0.297,3.741,0.834l0.183,0.029c0.669,0.119,2.008,0.334,3.475,0.424
			c0.119,0.005,0.24,0.01,0.359,0.014c-0.764-0.247-1.342-0.562-1.941-0.891c-0.373-0.205-0.75-0.414-1.193-0.614
			c-1.46-0.667-2.842-0.899-2.994-0.929c-0.192-0.023-0.336-0.195-0.336-0.391c0-0.19,0.146-0.357,0.336-0.386l6.777-1.02
			l-6.771-0.977c-0.163-0.024-0.293-0.147-0.327-0.31c-0.036-0.162,0.035-0.329,0.174-0.415c0.046-0.028,1.112-0.705,2.653-1.048
			c0.657-0.148,1.975-0.463,3.369-0.947c0.113-0.039,0.223-0.082,0.338-0.125c-0.803,0.066-1.458-0.005-2.135-0.076
			c-0.414-0.043-0.844-0.091-1.334-0.104c-1.588-0.053-2.965,0.262-3.115,0.299c-0.191,0.049-0.387-0.053-0.463-0.232
			c-0.071-0.182-0.002-0.391,0.162-0.491l5.875-3.545l-6.63,1.7c-0.157,0.039-0.326-0.023-0.421-0.156
			c-0.094-0.139-0.092-0.319,0.004-0.453c0.031-0.043,0.771-1.086,2.051-1.986c0.558-0.395,1.654-1.2,2.75-2.178
			c0.088-0.08,0.178-0.162,0.266-0.247c-0.717,0.372-1.346,0.558-2,0.753c-0.41,0.123-0.819,0.242-1.272,0.418
			c-1.56,0.596-2.757,1.473-2.769,1.482c-0.154,0.115-0.373,0.096-0.51-0.038c-0.135-0.144-0.152-0.356-0.037-0.515l4.082-5.535
			l-5.485,4.121c-0.129,0.1-0.308,0.104-0.445,0.014c-0.138-0.086-0.204-0.257-0.169-0.414c0.012-0.053,0.303-1.306,1.137-2.631
			c0.363-0.576,1.068-1.742,1.709-3.072c0.051-0.109,0.103-0.219,0.15-0.328c-0.516,0.619-1.025,1.039-1.557,1.471
			c-0.34,0.273-0.668,0.545-1.016,0.873c-1.168,1.105-1.913,2.306-1.994,2.434c-0.098,0.172-0.308,0.238-0.486,0.162
			c-0.178-0.071-0.276-0.271-0.229-0.457l1.67-6.684l-3.504,5.922c-0.082,0.138-0.25,0.214-0.406,0.186
			c-0.163-0.033-0.289-0.162-0.314-0.324c-0.01-0.053-0.221-1.311,0.047-2.863c0.117-0.676,0.324-2.024,0.41-3.496
			c0.004-0.125,0.012-0.244,0.014-0.367c-0.242,0.775-0.555,1.357-0.881,1.963c-0.2,0.371-0.408,0.752-0.605,1.195
			c-0.682,1.525-0.902,2.959-0.91,3.025c-0.028,0.186-0.195,0.334-0.387,0.334c-0.194,0-0.361-0.148-0.39-0.339l-0.981-6.771
			l-0.95,6.766c-0.021,0.167-0.146,0.301-0.306,0.334c-0.161,0.028-0.328-0.039-0.414-0.177c-0.071-0.119-0.707-1.177-1.035-2.673
			c-0.148-0.666-0.465-1.996-0.944-3.387c-0.04-0.115-0.081-0.229-0.124-0.344c0.066,0.811-0.002,1.468-0.073,2.148
			c-0.046,0.42-0.091,0.854-0.107,1.34c-0.056,1.657,0.281,3.082,0.298,3.145c0.045,0.189-0.051,0.381-0.231,0.457
			c-0.18,0.076-0.386,0.004-0.485-0.162l-3.54-5.912l1.705,6.67c0.039,0.162-0.024,0.328-0.156,0.424
			c-0.136,0.095-0.317,0.09-0.45,0c-0.109-0.081-1.104-0.814-1.976-2.068c-0.388-0.557-1.186-1.662-2.163-2.768
			c-0.078-0.09-0.159-0.181-0.242-0.267c0.369,0.72,0.555,1.349,0.748,2.01c0.119,0.405,0.242,0.825,0.412,1.282
			c0.566,1.51,1.381,2.658,1.472,2.782c0.114,0.157,0.101,0.38-0.04,0.515c-0.131,0.139-0.354,0.157-0.508,0.038l-5.514-4.103
			l4.107,5.512c0.099,0.135,0.104,0.314,0.016,0.454c-0.089,0.138-0.256,0.204-0.418,0.171c-0.049-0.015-1.281-0.301-2.607-1.148
			c-0.572-0.366-1.727-1.076-3.052-1.725c-0.107-0.053-0.217-0.104-0.329-0.152c0.617,0.523,1.031,1.039,1.461,1.572
			c0.267,0.334,0.535,0.666,0.867,1.02c1.148,1.229,2.408,2,2.42,2.006c0.167,0.104,0.234,0.31,0.16,0.49
			c-0.074,0.182-0.27,0.281-0.457,0.234l-6.654-1.683l5.894,3.526c0.141,0.08,0.215,0.246,0.186,0.408
			c-0.03,0.162-0.159,0.291-0.319,0.314c-0.053,0.01-1.303,0.225-2.849-0.051c-0.667-0.115-2.003-0.324-3.474-0.411
			c-0.119-0.009-0.24-0.015-0.361-0.015c0.768,0.244,1.346,0.559,1.946,0.887c0.347,0.191,0.741,0.406,1.192,0.611
			c1.521,0.689,2.982,0.914,2.998,0.918c0.189,0.029,0.335,0.195,0.335,0.391c0,0.196-0.146,0.362-0.335,0.386l-6.785,1.006
			l6.787,0.991c0.159,0.028,0.291,0.152,0.326,0.309c0.033,0.162-0.035,0.33-0.174,0.42c-0.045,0.023-1.119,0.705-2.651,1.048
			c-0.663,0.152-1.981,0.477-3.366,0.958c-0.111,0.043-0.226,0.08-0.338,0.123c0.805-0.066,1.455,0,2.137,0.072
			c0.098,0.01,1.045,0.095,1.329,0.104c0.338,0.009,0.692,0.005,1.056-0.019l0.078-0.058c1.32-0.919,2.949-1.653,4.848-2.177
			c0.242-0.066,0.505-0.01,0.697,0.152c0.16,0.129,0.26,0.318,0.279,0.52c0.346-0.201,0.713-0.387,1.098-0.553
			c1.432-0.629,3.146-1.029,5.091-1.187c0.243-0.024,0.47,0.067,0.634,0.243c0.116,0.129,0.188,0.285,0.202,0.453
			c0.54-0.211,1.124-0.382,1.735-0.501c1.535-0.306,3.295-0.329,5.232-0.071c0.258,0.033,0.479,0.19,0.594,0.424
			c0.033,0.066,0.055,0.133,0.065,0.209c0.528-0.08,1.077-0.119,1.653-0.113c1.567,0.01,3.297,0.343,5.138,0.985
			c0.255,0.087,0.44,0.3,0.505,0.562C159.172,132.822,159.176,132.831,159.178,132.84"/>
		<path d="M149.307,124.218c6.594-1.058,7.32,0.858,7.32,0.858s0.176,0.434,0.707,0.299c0,0,0.449-0.047,0.226-0.586
			c0,0-0.724-2.167-4.23-2.544c0,0-1.805-0.243-3.787,0.11c-0.583,0.1-0.751,1.4-0.751,1.4
			C148.709,124.342,149.307,124.218,149.307,124.218"/>
		<path d="M143.682,125.504c-0.807-0.366-2.639-0.29-2.639-0.29c-2.982,0.101-3.766,1.962-3.766,1.962
			c-0.26,0.625,0.262,0.677,0.262,0.677c0.621,0.157,0.826-0.348,0.826-0.348s0.17-0.528,1.396-0.834
			c-0.069,0.177-0.109,0.367-0.109,0.567c0,0.848,0.684,1.534,1.525,1.534c0.844,0,1.527-0.687,1.527-1.534
			c0-0.215-0.043-0.42-0.123-0.605c0.424,0.162,0.833,0.463,1.093,0.991c0.107,0.22,0.336,0.314,0.903,0.314
			c0.609,0,0.462-0.399,0.462-0.399C144.673,125.966,143.682,125.504,143.682,125.504"/>
		<path d="M149.17,127.938c0.567,0,0.797-0.091,0.903-0.314c0.26-0.528,0.67-0.829,1.091-0.991
			c-0.078,0.186-0.121,0.391-0.121,0.605c0,0.848,0.684,1.534,1.525,1.534c0.841,0,1.525-0.687,1.525-1.534
			c0-0.2-0.038-0.391-0.109-0.567c1.227,0.306,1.398,0.834,1.398,0.834s0.203,0.505,0.824,0.348c0,0,0.523-0.052,0.262-0.677
			c0,0-0.781-1.861-3.762-1.962c0,0-1.833-0.076-2.643,0.29c0,0-0.986,0.462-1.355,2.035
			C148.709,127.539,148.559,127.938,149.17,127.938"/>
		<path d="M136.412,125.375c0.533,0.135,0.707-0.299,0.707-0.299s0.729-1.916,7.323-0.858c0,0,0.598,0.124,0.515-0.462
			c0,0-0.168-1.301-0.751-1.4c-1.984-0.354-3.786-0.11-3.786-0.11c-3.508,0.377-4.231,2.544-4.231,2.544
			C135.965,125.328,136.412,125.375,136.412,125.375"/>
		<path fill="#289B38" d="M176.03,229.229c-1.054-0.133-2.706-0.133-4.611,0.619c-0.215,0.086-0.458,0.029-0.62-0.134
			c-0.162-0.172-0.209-0.409-0.117-0.628c0.004-0.011,0.572-1.41,0.732-2.877c0.002-0.02-0.008-0.039-0.021-0.039
			c-0.015-0.01-0.031-0.01-0.045,0c-0.541,0.447-1.031,0.934-1.466,1.43c-1.393,1.639-2.06,3.354-1.979,5.107
			c0,0.02,0.016,0.038,0.034,0.038c0.192,0.038,0.501,0.077,0.894,0.077c0.379,0,0.838-0.039,1.361-0.145
			c1.324-0.267,3.416-1.078,5.862-3.385c0.011-0.008,0.015-0.025,0.011-0.036C176.059,229.239,176.047,229.229,176.03,229.229"/>
		<path fill="#289B38" d="M122.511,226.134c-0.012-0.009-0.03-0.019-0.045-0.009c-0.015,0.009-0.021,0.026-0.021,0.037
			c0.126,1.524,0.698,2.915,0.702,2.926c0.092,0.218,0.043,0.456-0.119,0.628c-0.159,0.163-0.402,0.219-0.617,0.133
			c-1.922-0.761-3.57-0.761-4.615-0.629c-0.018,0.01-0.029,0.021-0.033,0.04c-0.006,0.011,0,0.028,0.012,0.036
			c1.969,1.86,3.941,2.993,5.861,3.385c0.523,0.104,0.988,0.135,1.363,0.135c0.421,0,0.733-0.039,0.895-0.067
			c0.02,0,0.033-0.019,0.033-0.038C126.066,229.612,123.847,227.258,122.511,226.134"/>
		<path fill="#289B38" d="M180.348,223.447c-1.059,0.065-2.682,0.391-4.403,1.485c-0.194,0.133-0.443,0.123-0.634-0.01
			s-0.281-0.361-0.234-0.591c0.001-0.009,0.299-1.515,0.16-3.011c-0.001-0.021-0.01-0.029-0.027-0.039c-0.016,0-0.031,0-0.043,0.01
			c-0.439,0.506-0.842,1.039-1.188,1.582c-1.12,1.764-1.63,3.525-1.511,5.213c0,0.028,0.017,0.037,0.036,0.037
			c0.079,0.01,0.169,0.01,0.274,0.01c0.492,0,1.275-0.066,2.203-0.361c0.99-0.323,1.955-0.856,2.867-1.571
			c0.898-0.716,1.75-1.62,2.531-2.688c0.014-0.02,0.014-0.039,0.006-0.048C180.379,223.456,180.361,223.447,180.348,223.447"/>
		<path fill="#289B38" d="M183.889,217.481c-1.046,0.182-2.627,0.666-4.226,1.944c-0.179,0.142-0.426,0.162-0.628,0.056
			c-0.203-0.112-0.317-0.334-0.297-0.562c0-0.019,0.137-1.554-0.156-3.021c-0.002-0.021-0.015-0.029-0.031-0.029
			c-0.014-0.01-0.031,0-0.04,0.01c-0.387,0.553-0.729,1.125-1.015,1.705c-0.933,1.87-1.256,3.671-0.959,5.337
			c0.003,0.019,0.02,0.038,0.039,0.038h0.002c0.357-0.02,1.308-0.115,2.426-0.619c0.951-0.42,1.854-1.049,2.686-1.857
			c0.82-0.801,1.572-1.793,2.24-2.936c0.01-0.02,0.007-0.039,0-0.048C183.918,217.491,183.902,217.481,183.889,217.481"/>
		<path fill="#289B38" d="M186.737,210.965c-0.204,0.038-0.409,0.104-0.614,0.17c-0.843,0.288-2.115,0.925-3.383,2.316
			c-0.158,0.173-0.402,0.229-0.619,0.151c-0.217-0.076-0.364-0.276-0.377-0.515c0-0.019-0.073-1.544-0.533-2.991
			c-0.002-0.01-0.016-0.027-0.033-0.027c-0.017,0-0.033,0.01-0.038,0.019c-0.312,0.563-0.575,1.134-0.788,1.726
			c-0.707,1.934-0.814,3.783-0.316,5.498c0.002,0.01,0.021,0.019,0.037,0.019h0.006c0.438-0.067,1.321-0.286,2.334-0.886
			c0.896-0.534,1.72-1.258,2.449-2.164c0.74-0.904,1.387-2.01,1.922-3.268c0.004-0.01,0.002-0.029-0.008-0.039
			C186.766,210.965,186.75,210.956,186.737,210.965"/>
		<path fill="#289B38" d="M188.786,204.409c-0.981,0.391-2.425,1.201-3.71,2.791c-0.146,0.182-0.38,0.258-0.602,0.191
			c-0.222-0.058-0.383-0.248-0.412-0.478c-0.01-0.065-0.223-1.669-0.828-3.078c-0.008-0.021-0.024-0.028-0.039-0.028
			c-0.016,0-0.033,0.008-0.037,0.028c-0.254,0.64-0.463,1.287-0.615,1.924c-0.341,1.431-0.576,3.548,0.233,5.528
			c0.007,0.008,0.021,0.018,0.038,0.018c0,0,0.007,0,0.01,0c0.346-0.094,1.253-0.39,2.239-1.115c0.839-0.617,1.587-1.418,2.222-2.39
			c0.627-0.952,1.15-2.079,1.553-3.347c0.006-0.02,0.003-0.036-0.009-0.046C188.816,204.399,188.801,204.399,188.786,204.409"/>
		<path fill="#289B38" d="M190.133,197.481c-0.928,0.515-2.26,1.496-3.338,3.229c-0.122,0.199-0.348,0.306-0.576,0.267
			c-0.227-0.037-0.41-0.209-0.465-0.429c-0.004-0.021-0.422-1.678-1.203-3.021c-0.006-0.01-0.023-0.02-0.04-0.02
			c-0.015,0.01-0.028,0.02-0.034,0.038c-0.181,0.64-0.312,1.296-0.391,1.943c-0.252,2.116,0.065,3.983,0.939,5.557
			c0.008,0.019,0.021,0.019,0.038,0.019c0,0,0.009,0,0.015,0c0.406-0.17,1.223-0.57,2.077-1.381c0.754-0.716,1.397-1.602,1.907-2.64
			c0.506-1.028,0.885-2.211,1.127-3.519c0.005-0.019-0.002-0.036-0.014-0.036C190.164,197.472,190.146,197.472,190.133,197.481"/>
		<path fill="#289B38" d="M187.783,194.099c-0.1,0.219-0.319,0.344-0.551,0.334c-0.232-0.02-0.432-0.172-0.51-0.399
			c-0.004-0.011-0.531-1.554-1.477-2.726c-0.012-0.02-0.025-0.02-0.043-0.02c-0.016,0.009-0.025,0.02-0.027,0.037
			c-0.129,0.658-0.198,1.324-0.213,1.982c-0.035,2.067,0.484,3.85,1.549,5.299c0.008,0.01,0.02,0.019,0.03,0.019
			c0.009,0,0.015,0,0.019-0.009c0.314-0.162,1.127-0.668,1.916-1.592c0.669-0.791,1.208-1.754,1.598-2.84
			c0.389-1.078,0.633-2.297,0.729-3.621c0-0.021-0.008-0.029-0.022-0.039c-0.012-0.01-0.031-0.01-0.04,0
			C189.873,191.146,188.662,192.26,187.783,194.099"/>
		<path fill="#289B38" d="M187.543,187.819c-0.236,0.01-0.443-0.115-0.543-0.324c-0.01-0.01-0.679-1.363-1.691-2.469
			c-0.012-0.008-0.028-0.019-0.045-0.008c-0.014,0-0.023,0.018-0.026,0.038c-0.062,1.694,0.116,4.858,1.991,6.993
			c0.007,0.011,0.019,0.011,0.031,0.011c0.004,0,0.014,0,0.021-0.011c0.293-0.19,1.053-0.771,1.746-1.772
			c0.586-0.849,1.029-1.849,1.31-2.974c0.279-1.104,0.403-2.344,0.364-3.677c0-0.021-0.01-0.028-0.023-0.038
			c-0.014-0.009-0.031,0-0.043,0.01c-0.799,0.687-1.894,1.924-2.588,3.84C187.969,187.657,187.771,187.81,187.543,187.819"/>
		<path fill="#289B38" d="M187.225,181.066c-0.229,0.037-0.453-0.067-0.574-0.263c-0.008-0.014-0.787-1.252-1.871-2.238
			c-0.009-0.015-0.027-0.015-0.043-0.01c-0.018,0.01-0.023,0.023-0.021,0.043c0.17,1.854,0.729,5.19,2.578,6.734
			c0.006,0.008,0.019,0.008,0.025,0.008c0.01,0,0.02,0,0.027-0.008c0.277-0.229,0.988-0.877,1.591-1.963
			c0.503-0.908,0.846-1.947,1.015-3.09c0.172-1.134,0.172-2.377,0.007-3.697c0-0.02-0.011-0.028-0.026-0.033
			c-0.014-0.005-0.033,0-0.043,0.01c-0.727,0.771-1.698,2.101-2.198,4.083C187.631,180.866,187.447,181.032,187.225,181.066"/>
		<path fill="#289B38" d="M186.336,174.502c-0.225,0.047-0.454-0.048-0.584-0.238c-0.01-0.016-0.877-1.263-2.037-2.206
			c-0.012-0.01-0.029-0.015-0.045-0.005c-0.012,0.01-0.021,0.023-0.021,0.043c0.071,0.672,0.184,1.329,0.34,1.958
			c0.346,1.405,1.088,3.354,2.645,4.679c0.008,0.009,0.018,0.014,0.024,0.014c0.01,0,0.021-0.005,0.028-0.014
			c0.262-0.239,0.932-0.92,1.473-2.012c0.459-0.929,0.752-1.985,0.869-3.134c0.116-1.139,0.062-2.383-0.168-3.692
			c-0.002-0.02-0.014-0.028-0.027-0.033c-0.016-0.005-0.031,0-0.041,0.014c-0.69,0.801-1.598,2.178-2.008,4.179
			C186.737,174.277,186.561,174.454,186.336,174.502"/>
		<path fill="#289B38" d="M184.883,168.017c-0.217,0.082-0.458,0.02-0.613-0.151c-0.01-0.011-1.06-1.148-2.348-1.925
			c-0.014-0.009-0.031-0.005-0.047,0c-0.01,0.01-0.018,0.028-0.014,0.043c0.146,0.647,0.336,1.281,0.57,1.882
			c0.762,1.943,1.877,3.396,3.322,4.307c0.008,0.005,0.015,0.005,0.021,0.005c0.012,0,0.023-0.005,0.031-0.015
			c0.229-0.271,0.797-1.034,1.184-2.191c0.328-0.986,0.474-2.067,0.434-3.226c-0.041-1.144-0.268-2.367-0.672-3.635
			c-0.006-0.014-0.016-0.023-0.033-0.028c-0.014-0.005-0.029,0.005-0.039,0.019c-0.574,0.887-1.285,2.377-1.416,4.412
			C185.25,167.746,185.1,167.946,184.883,168.017"/>
		<path fill="#289B38" d="M182.029,161.586c-0.013-0.01-1.18-1.038-2.535-1.677c-0.018-0.005-0.033-0.005-0.045,0.004
			c-0.012,0.016-0.018,0.029-0.01,0.048c0.209,0.629,0.467,1.234,0.76,1.806c0.958,1.863,2.22,3.188,3.752,3.944
			c0.005,0.006,0.012,0.01,0.019,0.01c0.013,0,0.023-0.01,0.034-0.019c0.197-0.296,0.684-1.114,0.947-2.301
			c0.225-1.015,0.258-2.105,0.1-3.254c-0.156-1.134-0.51-2.325-1.045-3.549c-0.005-0.015-0.018-0.023-0.036-0.023
			c-0.018,0-0.028,0.009-0.035,0.023c-0.479,0.942-1.032,2.491-0.956,4.53c0.012,0.233-0.116,0.447-0.323,0.543
			C182.445,161.771,182.199,161.738,182.029,161.586"/>
		<path fill="#289B38" d="M176.33,154.235c-0.01,0.01-0.012,0.024-0.006,0.043c0.264,0.62,0.58,1.22,0.942,1.772
			c1.127,1.733,2.573,2.92,4.302,3.525c0.005,0,0.008,0.004,0.012,0.004c0.014,0,0.029-0.009,0.036-0.023
			c0.162-0.315,0.55-1.182,0.674-2.392c0.107-1.028,0.009-2.12-0.282-3.239c-0.289-1.11-0.777-2.258-1.455-3.411
			c-0.006-0.015-0.018-0.023-0.037-0.023c-0.015,0.005-0.029,0.014-0.033,0.028c-0.363,0.991-0.73,2.592-0.418,4.606
			c0.039,0.234-0.072,0.472-0.277,0.587l0,0c-0.203,0.123-0.463,0.1-0.644-0.048c-0.014-0.01-1.291-1.02-2.771-1.443
			C176.356,154.217,176.342,154.222,176.33,154.235"/>
		<path fill="#289B38" d="M172.551,149.195c-0.008,0.014-0.008,0.028,0,0.043c0.397,0.59,0.84,1.147,1.314,1.657
			c1.432,1.53,3.014,2.469,4.699,2.782h0.005c0.017,0,0.034-0.009,0.041-0.028c0.134-0.419,0.351-1.296,0.278-2.468
			c-0.062-1.034-0.33-2.092-0.801-3.148c-0.457-1.034-1.109-2.067-1.939-3.077c-0.009-0.015-0.025-0.02-0.039-0.015
			c-0.018,0-0.025,0.015-0.029,0.028c-0.174,1.091-0.266,2.768,0.289,4.569c0.073,0.233-0.013,0.49-0.21,0.633
			c-0.198,0.147-0.465,0.147-0.667,0.009c-0.012-0.009-1.289-0.891-2.904-1.01C172.574,149.171,172.557,149.181,172.551,149.195"/>
		<path fill="#289B38" d="M171.84,145.094c-0.156,0.182-0.414,0.238-0.636,0.152c-0.015-0.005-1.35-0.52-2.788-0.52
			c-0.072,0-0.144,0-0.215,0.005c-0.018,0-0.031,0.01-0.036,0.023c-0.005,0.015-0.005,0.029,0.007,0.043
			c0.525,0.549,1.082,1.054,1.65,1.491c1.146,0.891,2.904,1.939,4.814,1.939c0.033,0,0.067,0,0.098,0c0.021,0,0.039-0.02,0.04-0.038
			c0.046-0.357,0.122-1.325-0.159-2.534c-0.238-1.02-0.674-2.03-1.298-2.997c-0.614-0.952-1.417-1.872-2.387-2.739
			c-0.013-0.01-0.028-0.01-0.043-0.005c-0.015,0.005-0.024,0.02-0.024,0.033c-0.031,1.054,0.127,2.687,1.061,4.497
			C172.033,144.655,172,144.917,171.84,145.094"/>
		<path fill="#289B38" d="M121.115,228.135c0.104,0,0.195,0,0.273-0.01c0.02,0,0.036-0.009,0.036-0.037
			c0.169-2.793-1.637-5.432-2.729-6.767c-0.01-0.01-0.027-0.01-0.041-0.01c-0.018,0.01-0.029,0.021-0.031,0.039
			c-0.164,1.523,0.184,2.943,0.189,2.953c0.059,0.238-0.027,0.478-0.221,0.609c-0.19,0.143-0.443,0.152-0.643,0.02
			c-1.734-1.104-3.354-1.42-4.404-1.496c-0.021,0-0.031,0.01-0.041,0.028c-0.005,0.009-0.005,0.028,0.002,0.038
			c0.787,1.077,1.64,1.982,2.54,2.697c0.91,0.715,1.875,1.248,2.868,1.572C119.838,228.067,120.621,228.135,121.115,228.135"/>
		<path fill="#289B38" d="M117.313,222.961L117.313,222.961c0.022,0,0.039-0.021,0.041-0.038c0.348-2.04-0.336-4.002-0.969-5.298
			c-0.287-0.582-0.627-1.163-1.008-1.716c-0.01-0.02-0.024-0.02-0.041-0.02s-0.028,0.02-0.033,0.028
			c-0.313,1.515-0.154,2.925-0.15,2.992c0.029,0.229-0.086,0.458-0.288,0.562c-0.204,0.127-0.452,0.096-0.636-0.046
			c-1.607-1.288-3.188-1.764-4.227-1.944c-0.016,0-0.033,0-0.04,0.02c-0.007,0.009-0.009,0.027-0.003,0.038
			c0.67,1.151,1.423,2.144,2.242,2.944c0.831,0.81,1.734,1.438,2.688,1.857C115.967,222.827,116.87,222.933,117.313,222.961"/>
		<path fill="#289B38" d="M113.775,217.424c0.002,0,0.005,0,0.005,0c0.019,0,0.036-0.009,0.04-0.026
			c0.516-1.697,0.415-3.545-0.3-5.479c-0.224-0.61-0.5-1.202-0.823-1.772c-0.01-0.02-0.023-0.028-0.041-0.028
			c-0.014,0.01-0.029,0.021-0.033,0.039c-0.477,1.43-0.52,2.991-0.52,3.01c-0.004,0.229-0.145,0.438-0.359,0.524
			c-0.214,0.086-0.457,0.027-0.619-0.135c-1.244-1.258-2.535-1.904-3.4-2.229c-0.192-0.066-0.383-0.133-0.57-0.192
			c-0.016,0-0.031,0-0.041,0.021c-0.012,0.011-0.014,0.029-0.008,0.039c0.527,1.219,1.16,2.295,1.883,3.182
			c0.729,0.896,1.553,1.629,2.449,2.154C112.492,217.158,113.423,217.367,113.775,217.424"/>
		<path fill="#289B38" d="M110.906,211.438c0,0,0.006,0,0.009,0c0.017,0,0.031-0.008,0.038-0.025
			c1.331-2.964,0.402-5.889-0.27-7.366c-0.007-0.019-0.019-0.028-0.035-0.028l0,0c-0.018,0-0.031,0.01-0.036,0.028
			c-0.65,1.371-0.879,2.954-0.884,2.974c-0.031,0.229-0.197,0.42-0.416,0.478c-0.223,0.058-0.458-0.021-0.602-0.201
			c-1.088-1.392-2.295-2.182-3.119-2.603c-0.18-0.096-0.365-0.182-0.547-0.258c-0.016-0.01-0.033,0-0.043,0.01
			c-0.011,0.01-0.016,0.029-0.011,0.039C106.559,209.679,109.648,211.079,110.906,211.438"/>
		<path fill="#289B38" d="M106.615,203.866c0.924,0.816,1.808,1.189,2.145,1.313c0.004,0,0.009,0.012,0.014,0.012
			c0.014,0,0.029-0.012,0.033-0.03c1.049-1.79,1.373-3.696,0.958-5.649c-0.134-0.629-0.343-1.248-0.62-1.839
			c-0.007-0.009-0.019-0.019-0.033-0.019c-0.014,0-0.027,0-0.037,0.019c-0.784,1.325-1.151,2.944-1.166,3.011l0.039,0.01
			l-0.039-0.01c-0.049,0.229-0.229,0.4-0.452,0.449c-0.227,0.037-0.455-0.059-0.581-0.248c-1.148-1.705-2.508-2.641-3.447-3.117
			c-0.014-0.009-0.03-0.009-0.043,0c-0.012,0.01-0.019,0.029-0.014,0.049c0.288,1.295,0.707,2.468,1.248,3.479
			C105.162,202.313,105.836,203.181,106.615,203.866"/>
		<path fill="#289B38" d="M106.992,198.825c0.006,0.01,0.014,0.01,0.021,0.01c0.012,0,0.023-0.01,0.03-0.02
			c2.144-2.916,1.937-5.795,1.624-7.252c-0.004-0.02-0.016-0.028-0.03-0.028c-0.015-0.009-0.031,0-0.04,0.01
			c-1.006,1.2-1.627,2.706-1.635,2.726c-0.088,0.209-0.291,0.353-0.521,0.353c-0.002,0-0.004,0-0.01,0
			c-0.226,0-0.431-0.123-0.521-0.333c-0.712-1.62-1.688-2.678-2.382-3.287c-0.152-0.134-0.31-0.257-0.472-0.382
			c-0.012-0.011-0.028-0.011-0.043,0c-0.012,0-0.021,0.021-0.021,0.039C103.229,196.052,105.867,198.167,106.992,198.825"/>
		<path fill="#289B38" d="M106.438,192.269c0.004,0.01,0.014,0.01,0.021,0.01c0.012,0,0.021,0,0.027-0.01
			c1.043-1.01,1.705-2.324,1.971-3.906c0.223-1.322,0.119-2.563-0.008-3.361c-0.002-0.02-0.014-0.029-0.026-0.029
			c-0.014-0.011-0.028-0.011-0.04,0.01c-1.205,1.105-1.461,2.542-1.465,2.553l0,0c-0.043,0.267-0.257,0.467-0.521,0.485
			c-0.266,0.02-0.505-0.144-0.586-0.4c-0.541-1.676-1.398-2.84-2.025-3.515c-0.138-0.143-0.281-0.285-0.426-0.429
			c-0.012-0.01-0.029-0.01-0.045-0.01c-0.016,0.01-0.021,0.018-0.024,0.038C102.951,189.134,105.377,191.507,106.438,192.269"/>
		<path fill="#289B38" d="M104.872,183.37c0.593,1.067,1.291,1.715,1.565,1.943c0.006,0.011,0.016,0.011,0.025,0.011
			c0.009,0,0.02,0,0.025-0.011c1.246-1.165,2.049-2.8,2.391-4.868c0.109-0.661,0.164-1.343,0.164-2.033
			c0-0.02-0.008-0.029-0.021-0.039c-0.015-0.004-0.033-0.004-0.043,0.01c-1.148,1.029-1.779,2.35-1.787,2.363
			c-0.102,0.219-0.334,0.348-0.57,0.323c-0.241-0.022-0.441-0.194-0.501-0.428c-0.503-1.982-1.475-3.312-2.201-4.083
			c-0.009-0.01-0.026-0.015-0.04-0.01c-0.015,0.005-0.027,0.014-0.027,0.033c-0.166,1.32-0.166,2.563,0.006,3.697
			C104.029,181.423,104.371,182.462,104.872,183.37"/>
		<path fill="#289B38" d="M105.567,176.631c0.515,1.043,1.134,1.7,1.458,2.001c0.008,0.005,0.016,0.01,0.025,0.01
			c0.009,0,0.02-0.005,0.027-0.01c1.434-1.286,2.387-2.935,2.832-4.897c0.133-0.591,0.217-1.195,0.245-1.801
			c0.003-0.015-0.007-0.029-0.021-0.038c-0.015-0.005-0.03-0.005-0.043,0.005c-1.19,0.943-2.079,2.22-2.118,2.272
			c-0.131,0.19-0.361,0.286-0.586,0.238c-0.227-0.048-0.4-0.225-0.447-0.448c-0.408-2.001-1.317-3.378-2.006-4.179
			c-0.01-0.014-0.028-0.019-0.041-0.014c-0.016,0.005-0.025,0.014-0.027,0.033c-0.229,1.311-0.287,2.554-0.17,3.692
			C104.814,174.644,105.107,175.701,105.567,176.631"/>
		<path fill="#289B38" d="M107.911,172.091c0.007,0.005,0.019,0.015,0.032,0.015c0.006,0,0.013-0.005,0.02-0.01
			c1.726-1.087,2.919-2.611,3.548-4.535c0.192-0.592,0.325-1.201,0.394-1.811c0.002-0.015-0.006-0.029-0.018-0.039
			c-0.014-0.009-0.029-0.009-0.043,0c-1.412,0.811-2.434,2.03-2.443,2.04c-0.152,0.181-0.391,0.252-0.615,0.181
			c-0.222-0.071-0.379-0.271-0.397-0.505c-0.159-2.048-0.892-3.525-1.474-4.397c-0.011-0.009-0.025-0.019-0.039-0.019
			c-0.018,0.005-0.03,0.014-0.033,0.033c-0.389,1.277-0.598,2.506-0.621,3.649c-0.027,1.157,0.135,2.239,0.475,3.216
			C107.1,171.066,107.68,171.819,107.911,172.091"/>
		<path fill="#289B38" d="M109.578,165.678c0.01,0.011,0.024,0.016,0.033,0.016c0.01,0,0.016,0,0.016,0
			c1.848-0.925,3.222-2.297,4.09-4.079c0.264-0.543,0.474-1.109,0.619-1.686c0.004-0.016,0-0.033-0.012-0.044
			c-0.01-0.009-0.029-0.015-0.043-0.005c-1.418,0.615-2.633,1.668-2.685,1.711c-0.172,0.152-0.419,0.186-0.626,0.081
			c-0.205-0.1-0.332-0.314-0.322-0.543c0.1-2.054-0.441-3.606-0.91-4.55c-0.007-0.014-0.021-0.023-0.035-0.023H109.7
			c-0.015,0-0.028,0.01-0.036,0.023c-0.545,1.22-0.91,2.415-1.076,3.55c-0.172,1.138-0.146,2.234,0.068,3.248
			C108.9,164.517,109.34,165.307,109.578,165.678"/>
		<path fill="#289B38" d="M111.977,159.557c0.008,0.015,0.022,0.02,0.037,0.02c0.004,0,0.007,0,0.01,0
			c1.664-0.486,3.129-1.592,4.358-3.287c0.526-0.729,0.903-1.43,1.124-1.887c0.008-0.014,0.006-0.029-0.004-0.038
			c-0.008-0.015-0.025-0.023-0.039-0.019c-1.609,0.224-2.782,1.362-2.791,1.371c-0.182,0.182-0.453,0.22-0.674,0.101
			c-0.227-0.124-0.342-0.372-0.291-0.624c0.402-2.011,0.1-3.626-0.227-4.626c-0.002-0.015-0.018-0.024-0.031-0.028
			c-0.014,0-0.031,0.004-0.038,0.019c-0.724,1.124-1.259,2.254-1.597,3.35c-0.337,1.104-0.478,2.187-0.416,3.225
			C111.473,158.347,111.828,159.232,111.977,159.557"/>
		<path fill="#289B38" d="M115.329,153.688c0.002,0,0.005,0,0.007,0c2.775-0.467,4.926-2.982,5.96-4.44
			c0.01-0.014,0.01-0.027,0.003-0.048c-0.008-0.009-0.021-0.019-0.039-0.019c-1.596,0.134-2.85,0.991-2.863,1
			c-0.201,0.144-0.469,0.139-0.667-0.014c-0.196-0.147-0.278-0.405-0.199-0.644c0.64-1.948,0.536-3.582,0.333-4.61
			c-0.002-0.02-0.015-0.029-0.029-0.033c-0.014-0.006-0.032,0.004-0.039,0.014c-3.471,4.202-2.906,7.532-2.504,8.771
			C115.296,153.678,115.31,153.688,115.329,153.688"/>
		<path fill="#289B38" d="M119.23,148.247c0.066,0.004,0.131,0.004,0.197,0.004c1.648,0,3.364-1.052,4.529-1.957
			c0.572-0.438,1.141-0.943,1.693-1.496c0.012-0.009,0.017-0.028,0.01-0.043c-0.008-0.014-0.023-0.023-0.039-0.023
			c-1.471,0.048-2.857,0.52-2.872,0.524c-0.224,0.076-0.464,0.01-0.617-0.172c-0.154-0.181-0.186-0.429-0.073-0.639
			c0.939-1.829,1.098-3.458,1.063-4.507c0-0.014-0.01-0.028-0.023-0.033c-0.018-0.004-0.031-0.004-0.043,0.005
			c-1.008,0.892-1.838,1.83-2.461,2.792c-0.629,0.967-1.065,1.973-1.291,2.987c-0.272,1.215-0.168,2.167-0.107,2.524
			C119.197,148.229,119.211,148.247,119.23,148.247"/>
		<path fill="#289B38" d="M130.745,140.858c-1.479-0.119-2.938,0.177-2.953,0.177c-0.224,0.047-0.455-0.048-0.587-0.238
			c-0.128-0.19-0.133-0.443-0.006-0.639c1.112-1.729,1.426-3.335,1.49-4.378c0.003-0.019-0.006-0.033-0.019-0.042
			c-0.012-0.006-0.03-0.006-0.043,0.004c-4.402,3.191-4.714,6.546-4.645,7.841c0.003,0.021,0.019,0.039,0.037,0.039
			c0.099,0.004,0.194,0.004,0.288,0.004c2.681,0,5.182-1.676,6.458-2.696c0.013-0.009,0.02-0.028,0.015-0.047
			C130.776,140.868,130.762,140.858,130.745,140.858"/>
		<path fill="#289B38" d="M136.383,138.134c-0.461-0.144-0.979-0.248-1.541-0.324c-0.83-0.11-1.457-0.105-1.465-0.105h-0.002
			c-0.238,0-0.455-0.147-0.538-0.376c-0.083-0.224-0.019-0.48,0.165-0.638c1.531-1.325,2.25-2.534,2.584-3.316
			c0.008-0.015,0.004-0.028-0.008-0.042c-0.012-0.01-0.025-0.016-0.039-0.01c-5.127,1.748-6.246,4.759-6.489,5.974
			c-0.005,0.02,0.007,0.038,0.028,0.048c0.52,0.147,1.197,0.271,2.034,0.271c0.952,0,2.108-0.162,3.454-0.629
			c0.611-0.215,1.225-0.477,1.822-0.776c0.014-0.01,0.023-0.024,0.021-0.043C136.407,138.152,136.398,138.138,136.383,138.134"/>
		<path fill="#289B38" d="M142.518,136.461c-1.34-0.671-2.84-0.957-2.854-0.961c-0.243-0.043-0.429-0.244-0.463-0.486
			c-0.033-0.248,0.094-0.486,0.315-0.596c1.677-0.834,2.529-1.691,2.948-2.268c0.01-0.01,0.01-0.028,0.002-0.043
			c-0.009-0.016-0.025-0.02-0.039-0.02c-2.621,0.367-4.707,1.262-6.032,2.582c-0.681,0.682-1.03,1.344-1.206,1.771
			c-0.006,0.02,0,0.044,0.021,0.053c1.139,0.534,2.34,0.705,3.426,0.705c0.732,0,1.408-0.076,1.979-0.181
			c0.63-0.109,1.269-0.271,1.895-0.481c0.018-0.004,0.027-0.02,0.027-0.033C142.539,136.485,142.531,136.471,142.518,136.461"/>
		<path fill="#289B38" d="M146.52,134.718c-0.23-0.086-0.381-0.31-0.375-0.558c0.008-0.248,0.173-0.462,0.408-0.533
			c1.67-0.515,2.696-1.148,3.264-1.596c0.014-0.01,0.02-0.029,0.014-0.043c-0.004-0.02-0.02-0.028-0.035-0.028
			c-2.574-0.177-4.76,0.257-6.313,1.247c-0.815,0.52-1.301,1.087-1.568,1.473c-0.009,0.014-0.006,0.043,0.013,0.053
			c1.743,1.334,4.003,1.648,5.728,1.648c0.537,0,1.023-0.033,1.424-0.072c0.016-0.004,0.031-0.014,0.033-0.027
			c0.007-0.015,0-0.033-0.01-0.043C147.951,135.266,146.531,134.723,146.52,134.718"/>
		<path fill="#289B38" d="M153.241,135.18c-0.194-0.138-0.288-0.386-0.233-0.614c0.057-0.229,0.252-0.405,0.488-0.434
			c1.691-0.21,2.823-0.614,3.475-0.925c0.018-0.004,0.025-0.023,0.025-0.037c-0.003-0.015-0.015-0.029-0.029-0.039
			c-2.463-0.666-4.664-0.68-6.371-0.033c-0.908,0.344-1.502,0.805-1.84,1.129c-0.014,0.016-0.017,0.039-0.002,0.058
			c2.139,2.572,5.135,3.04,6.731,3.087h0.003c0.014,0,0.027-0.004,0.035-0.02c0.008-0.014,0.005-0.033-0.004-0.043
			C154.565,136.1,153.254,135.185,153.241,135.18"/>
		<path fill="#289B38" d="M169.963,143.607c0.021,0,0.039-0.015,0.039-0.038c0.009-0.548-0.043-1.644-0.496-2.811
			c-0.77-1.982-2.332-3.378-4.652-4.159c-0.014,0-0.028,0-0.038,0.01c-0.012,0.014-0.017,0.029-0.009,0.043
			c0.316,0.929,0.891,2.281,1.822,3.448c0.152,0.196,0.166,0.463,0.035,0.672c-0.131,0.205-0.379,0.31-0.617,0.253
			c-0.014-0.005-1.434-0.333-2.926-0.048c-0.016,0.005-0.027,0.02-0.029,0.033c-0.004,0.015,0.004,0.034,0.017,0.043
			c1.457,0.977,4.196,2.563,6.552,2.563C169.762,143.616,169.863,143.616,169.963,143.607"/>
		<path fill="#289B38" d="M164.643,139.425c0.002-0.015,0-0.029-0.01-0.038c-1.277-1.358-2.911-1.992-4.867-1.868
			c-0.686,0.038-1.387,0.172-2.081,0.396c-0.015,0.006-0.026,0.02-0.026,0.033c-0.004,0.015,0.002,0.029,0.014,0.038
			c1.549,1.21,3.171,1.82,4.828,1.82c0.09,0,0.184,0,0.275-0.005c0.791-0.033,1.438-0.205,1.84-0.348
			C164.63,139.448,164.639,139.438,164.643,139.425"/>
		<path fill="#289B38" d="M155.223,135.266c-0.002,0.014,0.006,0.029,0.018,0.038c0.979,0.696,2.18,1.044,3.58,1.044
			c0.586,0,1.21-0.063,1.867-0.186c1.037-0.195,1.955-0.51,2.543-0.748c0.016-0.006,0.027-0.02,0.027-0.033
			c0-0.016-0.008-0.029-0.02-0.039c-0.938-0.523-1.897-0.871-2.852-1.033c-1.017-0.177-2.036-0.144-3.039,0.09
			c-0.929,0.219-1.657,0.576-2.105,0.838C155.23,135.242,155.223,135.256,155.223,135.266"/>
		<path fill="#E63312" d="M136.072,172.9c0.313,0.391,0.838,0.581,1.598,0.581h7.43c-4.457-2.787-6.098-2.281-9.209-0.862
			C135.943,172.729,136.005,172.819,136.072,172.9"/>
		<path fill="#E63312" d="M154.221,169.479c-0.698-0.186-1.359-0.361-1.947-0.601c-2.338-0.942-4.261-2.457-4.342-2.524
			c-0.469-0.376-0.551-1.067-0.176-1.538c0.371-0.477,1.057-0.558,1.529-0.182c0.02,0.015,1.756,1.387,3.799,2.211
			c0.46,0.186,1.056,0.343,1.689,0.51c0.922,0.248,2.051,0.548,3.006,1.039c-0.193-1.234-0.385-2.292-0.598-3.297
			c-2.997-0.672-5.461-2.702-5.568-2.792c-0.223-0.187-0.36-0.448-0.389-0.743c-0.027-0.291,0.061-0.577,0.247-0.801
			c0.382-0.467,1.069-0.533,1.532-0.146c0.016,0.014,1.603,1.311,3.594,2.034c-0.79-2.973-1.86-5.765-3.271-8.522
			c-1.005-1.973-2.489-3.292-4.402-3.926c-1.397-0.462-2.511-0.372-2.521-0.372c-0.037,0.005-0.069,0.005-0.103,0.005
			c-0.035,0-3.614,0.059-5.859,2.721c-0.016,0.024-0.034,0.043-0.053,0.063c-0.415,0.424-1.529,1.753-1.699,2.744
			c-0.093,0.552,0.045,0.99,0.377,1.176c0.154,0.091,0.733,0.324,1.75-0.391c0.254-0.214,0.414-0.328,0.461-0.361
			c0.477-0.334,1.129-0.229,1.482,0.233c0.355,0.462,0.289,1.119-0.154,1.5c-0.141,0.119-0.285,0.238-0.429,0.343
			c-0.452,0.382-1.368,1.239-2.374,2.606c-1.344,1.824-3.136,4.964-4.049,9.565c-0.019,0.091-0.033,0.182-0.049,0.271
			c3.094-1.348,5.601-1.905,11.107,1.673c2.148,1.396,4.641,1.496,5.117,1.505h2.434c0.027,0,0.051,0,0.076,0
			c0.627,0.043,2.447-0.052,3.271-0.952c0.139-0.157,0.25-0.339,0.325-0.539C157.979,170.694,156.811,170.166,154.221,169.479"/>
		<path fill="#FAC182" d="M143.514,212.315c0.295-0.237,0.619-0.619,0.633-0.877c0.008-0.121-0.093-0.283-0.291-0.457
			c-0.234-0.197-0.478-0.304-0.754-0.304c-0.547,0-1.213,0.39-2.186,1.076c-0.621,0.438-1.652,1.296-1.568,2.097
			c0.035,0.334,0.164,0.467,0.285,0.543c0.503,0.353,1.514,0.229,1.889,0.172C141.9,213.718,142.553,212.985,143.514,212.315"/>
		<path fill="#FAC182" d="M147.289,213.66c0.004-0.058,0.023-0.238-0.293-0.543c-0.013-0.011-0.482-0.37-1.559,0.258
			c-0.823,0.478-1.734,1.058-2.146,1.924c0.216,0.229,0.431,0.298,0.574,0.324c0.896,0.183,2.146-0.601,2.516-0.886
			c0.027-0.028,0.048-0.038,0.073-0.059C146.705,214.519,147.248,214.051,147.289,213.66"/>
		<path fill="#FAC182" d="M135.764,208.354c-0.066-0.011-0.142-0.021-0.217-0.021c-0.809,0-1.943,0.563-2.462,1.248
			c-0.36,0.478-0.239,0.753-0.198,0.847c0.064,0.154,0.408,0.346,1.021,0.448c0.125,0.019,0.26,0.039,0.398,0.049
			c0.248-0.887,0.85-1.553,1.412-2.097c0.16-0.151,0.305-0.286,0.448-0.409c-0.134-0.039-0.251-0.048-0.321-0.058
			C135.816,208.362,135.795,208.362,135.764,208.354"/>
		<path fill="#FAC182" d="M136.105,211.823c0.016,0.179,0.062,0.654,1,0.97c0.139,0.05,0.291,0.076,0.448,0.116
			c0.283-0.943,1.043-1.868,2.265-2.729c0.168-0.111,0.34-0.236,0.527-0.359c0.01-0.066,0.007-0.133-0.012-0.182
			c-0.051-0.162-0.241-0.332-0.537-0.477c-0.195-0.104-0.399-0.153-0.617-0.153c-0.604,0-1.3,0.4-2.137,1.201
			C136.331,210.896,136.076,211.337,136.105,211.823"/>
		<path fill="#FAC182" d="M159.484,210.031c0.563-0.011,0.988-0.153,1.27-0.419c0.275-0.269,0.387-0.62,0.432-0.887
			c-0.55-0.687-2.402-2.896-4.9-4.527c-1.053-0.694-2.187-1.391-3.346-1.848c-1.284-0.496-2.373-0.609-3.338-0.334
			c-0.02,0-0.038,0.01-0.055,0.01c-0.293,0.065-0.708,0.334-1.186,0.658c-0.311,0.209-0.664,0.438-1.063,0.664
			c-1.113,0.649-2.637,1.115-3.886,1.183c-1.11,0.067-2.501,0.144-3.356-1.065c-0.563-0.791-0.676-1.506-0.379-2.334
			c0.285-0.764,1.168-1.201,2.283-1.744c0.471-0.238,0.959-0.477,1.316-0.715c0.521-0.334,0.848-0.602,1.26-0.943
			c0.408-0.334,0.873-0.715,1.625-1.248c0.314-0.221,0.639-0.399,0.979-0.543c-0.359-0.059-0.742-0.096-1.164-0.135
			c-1.792-0.152-3.073,0.496-4.949,1.83c-1.628,1.096-4.806,2.105-9.734,3.098c-4.701,0.943-11.146,1.896-19.158,2.82
			c0.243,0.895,0.504,1.79,0.783,2.668c1.02,3.191,2.295,6.25,3.788,9.079c2.851-1.276,9.858-4.448,15.312-7.384
			c1.084-1.038,2.725-1.641,3.99-1.468c0.29,0.021,1.307,0.151,2.092,0.812c0.879-0.277,1.762-0.221,2.556,0.182
			c0.883,0.447,1.276,1.027,1.448,1.477c1.124-0.354,2.135-0.143,3.004,0.62c0.535,0.467,0.844,1,0.929,1.591
			c1.076-0.171,1.889,0.2,2.3,0.618c0.806,0.791,0.908,1.591,0.852,2.125c-0.041,0.394-0.184,0.78-0.424,1.163
			c0.543,0.066,1.06,0,1.541-0.191c0.174-0.066,0.34-0.162,0.498-0.258c-0.236-0.477-0.65-1.172-1.315-1.924
			c-0.169-0.189-0.253-0.438-0.238-0.694c0.017-0.258,0.129-0.485,0.319-0.659c0.393-0.351,0.998-0.324,1.349,0.076
			c0.964,1.096,1.501,2.115,1.743,2.658c0.512,0.061,0.924-0.076,1.268-0.406c0.207-0.203,0.348-0.432,0.434-0.604
			c-0.1-0.219-0.357-0.676-0.994-1.42c-0.541-0.629-1.754-1.532-2.174-1.838c-0.207-0.144-0.35-0.362-0.391-0.619
			c-0.045-0.247,0.014-0.506,0.162-0.715c0.145-0.211,0.361-0.354,0.614-0.399c0.253-0.039,0.505,0.019,0.715,0.161
			c0.069,0.048,1.708,1.21,2.521,2.163c0.602,0.694,1.033,1.323,1.273,1.85c0.677,0,1.208-0.202,1.566-0.612
			c0.111-0.131,0.207-0.273,0.281-0.437c-0.723-0.974-2.568-3.229-4.797-4.326c-0.229-0.114-0.4-0.315-0.484-0.554
			c-0.082-0.248-0.066-0.506,0.047-0.734c0.112-0.238,0.307-0.408,0.549-0.484c0.242-0.084,0.498-0.065,0.727,0.037
			C156.614,206.399,158.687,208.954,159.484,210.031"/>
		<path fill="#FAC182" d="M147.308,201.083c0.634-0.43,1.179-0.791,1.815-0.934c3.171-0.857,6.441,1.276,8.203,2.43
			c2.396,1.57,4.193,3.544,5.051,4.574c0.016,0.02,0.063,0.086,0.141,0.172l0.028,0.037c0.005,0,0.007,0.01,0.013,0.01
			c0.264,0.305,0.838,0.915,1.66,1.496c4.037,3.012,10.166,5.688,12.703,6.736c1.567-2.916,2.896-6.068,3.954-9.387
			c0.251-0.79,0.495-1.611,0.718-2.438c-5.074-0.344-10.49-1.459-14.15-2.336c-4.219-1.01-7.322-1.99-7.451-2.029
			c-0.857-0.295-1.615-0.571-2.287-0.818c-2.301-0.83-3.828-1.383-5.512-1.306c-0.205,0.009-0.4,0.019-0.59,0.019
			c-0.258,0.01-0.504,0.021-0.744,0.021h-0.028c-1.577,0.038-2.62,0.057-3.571,0.724c-0.698,0.506-1.133,0.858-1.517,1.174
			c-0.419,0.342-0.817,0.666-1.423,1.065c-0.454,0.296-0.996,0.563-1.52,0.819c-0.407,0.199-1.15,0.563-1.354,0.753
			c-0.03,0.096-0.039,0.2,0.163,0.485c0.23,0.324,0.797,0.314,1.699,0.268c0.793-0.049,2.041-0.354,3.035-0.924
			C146.695,201.483,147.005,201.283,147.308,201.083"/>
	</g>
</g>
</svg>
