<?xml version="1.0" encoding="utf-8"?>
<!-- Generator: Adobe Illustrator 25.2.0, SVG Export Plug-In . SVG Version: 6.00 Build 0)  -->
<svg version="1.1" id="Capa_1" xmlns="http://www.w3.org/2000/svg" xmlns:xlink="http://www.w3.org/1999/xlink" x="0px" y="0px"
	 viewBox="0 0 642.1 291" style="enable-background:new 0 0 642.1 291;" xml:space="preserve">
<style type="text/css">
	.st0{fill:#FFFFFF;}
	.st1{fill-rule:evenodd;clip-rule:evenodd;fill:#FFFFFF;}
</style>
<g>
	<g>
		<g>
			<g>
				<g>
					<path class="st0" d="M235.6,119c-0.6-1.6-1.3-3.1-1.9-4.6c-0.6-1.5-1.3-3.1-1.9-4.6c-0.1-0.4-0.3-0.9-0.6-1.5
						c-0.2-0.6-0.5-1.4-0.7-2.2s-0.5-1.7-0.7-2.6c0,1,0.1,2,0.1,3c0,0.9,0,1.8,0,2.7c0,0.4,0,0.8,0,1.3c0,0.4,0,0.9,0,1.3
						c0,0.4,0,0.8,0,1.3s0,0.8,0,1.3c0,0.5,0,1,0,1.5c0,0.5-0.1,0.8-0.1,1.1c0.3,0,0.7-0.1,1.2-0.1c0.5,0,0.8,0,1,0v2.2h-6.4v-1.9
						c0.4,0,0.8-0.1,1.1-0.2c0.3-0.1,0.5-0.3,0.7-0.6c0.2-0.3,0.2-0.9,0.2-1.6l0.2-10.7c0-0.5,0-1,0.1-1.5c0-0.5,0-0.8,0.1-1.1
						c-0.3,0-0.7,0-1.1,0c-0.4,0-0.8,0-1,0V99h6.2l4.2,10.9c0.2,0.4,0.4,0.9,0.6,1.5c0.2,0.6,0.4,1.1,0.6,1.7c0.2,0.5,0.3,1,0.4,1.3
						h0c0.2-0.7,0.5-1.3,0.7-1.9c0.2-0.6,0.4-1.2,0.6-1.8c0.7-1.9,1.5-3.9,2.2-5.8c0.7-1.9,1.4-3.9,2.2-5.8h6.5v1.9
						c-0.4,0-0.8,0.1-1.1,0.2c-0.3,0.1-0.6,0.3-0.7,0.6c-0.2,0.3-0.2,0.9-0.2,1.6l0.4,10.7c0,0.5,0,1,0,1.5c0,0.5-0.1,0.8-0.1,1.1
						c0.3,0,0.7-0.1,1.2-0.1c0.5,0,0.8,0,1,0v2.2h-7.8v-1.9c0.4,0,0.8-0.1,1.1-0.2c0.3-0.1,0.5-0.3,0.7-0.6c0.2-0.3,0.2-0.9,0.2-1.6
						l-0.2-5.9c0-0.2,0-0.6-0.1-1.2c0-0.6-0.1-1.2-0.1-1.8c0-0.7-0.1-1.3-0.1-1.9c-0.1,0.1-0.1,0.3-0.2,0.4
						c-0.1,0.1-0.1,0.2-0.1,0.4l-5.5,14.6H235.6z"/>
					<path class="st0" d="M252.2,116.9c0.5,0,0.9-0.1,1.1-0.3c0.2-0.2,0.4-0.5,0.4-0.9c0.1-0.4,0.1-0.8,0.1-1.3v-4.7
						c0-0.3,0-0.7,0-1.2c0-0.4,0-0.9,0.1-1.3c-0.3,0-0.7,0-1.1,0c-0.4,0-0.7,0-0.9,0v-2.1c0.9,0,1.6,0,2.2-0.1
						c0.6-0.1,1.1-0.2,1.4-0.3c0.3-0.1,0.6-0.3,0.7-0.4h1.5v9.8c0,0.3,0,0.6,0,1.1c0,0.5,0,0.9-0.1,1.4c0.3,0,0.6-0.1,1-0.1
						c0.4,0,0.6,0,0.8,0v2.1h-7.4V116.9z M255.7,102.2c-0.6,0-1.2-0.2-1.6-0.7c-0.4-0.4-0.6-1-0.6-1.6c0-0.6,0.2-1.2,0.6-1.6
						s0.9-0.7,1.5-0.7c0.6,0,1.1,0.2,1.5,0.7s0.6,1,0.6,1.6c0,0.6-0.2,1.2-0.6,1.6S256.3,102.2,255.7,102.2z"/>
					<path class="st0" d="M261.2,118.7v-1.8c0.5,0,0.9-0.1,1.1-0.3c0.2-0.2,0.4-0.5,0.4-0.9c0.1-0.4,0.1-0.8,0.1-1.3v-4.7
						c0-0.3,0-0.7,0-1.1s0-0.8,0.1-1.2c-0.3,0-0.7,0-1.1,0c-0.4,0-0.7,0-0.9,0v-2.1c0.9,0,1.6,0,2.2-0.1c0.6-0.1,1.1-0.2,1.4-0.3
						c0.3-0.1,0.6-0.3,0.7-0.4h1.4c0,0.2,0.1,0.4,0.1,0.5c0,0.1,0,0.2,0,0.3c0,0.1,0,0.3,0.1,0.5c0.4-0.3,0.8-0.6,1.3-0.8
						c0.5-0.2,1-0.4,1.5-0.6c0.5-0.1,0.9-0.2,1.3-0.2c1.7,0,2.9,0.5,3.7,1.5s1.1,2.6,1.1,4.7v3.8c0,0.3,0,0.6,0,1.1
						c0,0.5,0,0.9-0.1,1.4c0.3,0,0.7-0.1,1-0.1c0.4,0,0.6,0,0.8,0v2.1H270v-1.8c0.5,0,0.9-0.1,1.1-0.3c0.2-0.2,0.4-0.5,0.4-0.9
						c0.1-0.4,0.1-0.8,0.1-1.3l0-4c0-1.2-0.2-2.1-0.5-2.7c-0.3-0.6-0.9-0.9-1.8-0.9c-0.5,0-0.9,0.1-1.4,0.3
						c-0.5,0.2-0.8,0.4-1.2,0.7c0,0.3,0,0.5,0,0.8c0,0.3,0,0.5,0,0.8v4.7c0,0.3,0,0.6,0,1.1c0,0.5,0,0.9-0.1,1.4
						c0.3,0,0.6-0.1,1-0.1c0.4,0,0.6,0,0.8,0v2.1H261.2z"/>
					<path class="st0" d="M278.9,116.9c0.5,0,0.9-0.1,1.1-0.3c0.2-0.2,0.4-0.5,0.4-0.9c0.1-0.4,0.1-0.8,0.1-1.3v-4.7
						c0-0.3,0-0.7,0-1.2c0-0.4,0-0.9,0.1-1.3c-0.3,0-0.7,0-1.1,0c-0.4,0-0.7,0-0.9,0v-2.1c0.9,0,1.6,0,2.2-0.1
						c0.6-0.1,1.1-0.2,1.4-0.3c0.3-0.1,0.6-0.3,0.7-0.4h1.5v9.8c0,0.3,0,0.6,0,1.1c0,0.5,0,0.9-0.1,1.4c0.3,0,0.6-0.1,1-0.1
						c0.4,0,0.6,0,0.8,0v2.1h-7.4V116.9z M282.5,102.2c-0.6,0-1.2-0.2-1.6-0.7c-0.4-0.4-0.6-1-0.6-1.6c0-0.6,0.2-1.2,0.6-1.6
						s0.9-0.7,1.5-0.7c0.6,0,1.1,0.2,1.5,0.7s0.6,1,0.6,1.6c0,0.6-0.2,1.2-0.6,1.6S283.1,102.2,282.5,102.2z"/>
					<path class="st0" d="M294.3,119.1c-0.8,0-1.6-0.1-2.4-0.3c-0.8-0.2-1.4-0.5-1.8-0.8l0.1,0.8h-2.1l-0.1-4.8h1.8
						c0.1,0.6,0.3,1.1,0.7,1.5c0.4,0.5,0.9,0.8,1.5,1.1c0.6,0.3,1.3,0.4,2.1,0.4c0.3,0,0.6,0,0.9-0.1c0.3-0.1,0.5-0.2,0.7-0.5
						c0.2-0.2,0.3-0.5,0.3-0.8c0-0.4-0.1-0.6-0.4-0.9c-0.3-0.2-0.6-0.4-1.1-0.6c-0.5-0.2-1.1-0.4-1.8-0.7c-0.6-0.2-1.2-0.5-1.8-0.7
						c-0.6-0.2-1.1-0.5-1.6-0.9c-0.5-0.3-0.9-0.8-1.2-1.3c-0.3-0.5-0.4-1.1-0.4-1.9c0-0.5,0.1-1.1,0.3-1.6c0.2-0.5,0.5-1,1-1.5
						c0.4-0.4,1-0.8,1.6-1.1c0.7-0.3,1.5-0.4,2.4-0.4c0.5,0,1.1,0.1,1.7,0.2c0.6,0.2,1.2,0.4,1.6,0.7v-0.8h2.1v5h-1.8
						c-0.1-0.7-0.3-1.2-0.7-1.7c-0.3-0.5-0.8-0.8-1.3-1.1c-0.5-0.3-1.2-0.4-1.8-0.4c-0.5,0-0.9,0.1-1.3,0.3
						c-0.4,0.2-0.6,0.6-0.6,1.2c0,0.4,0.1,0.8,0.4,1c0.3,0.3,0.7,0.5,1.2,0.6c0.5,0.2,1.1,0.4,1.7,0.6c1,0.3,1.8,0.7,2.5,1.1
						c0.7,0.4,1.3,0.9,1.8,1.6c0.4,0.6,0.6,1.4,0.6,2.2c0,1-0.2,1.8-0.7,2.4c-0.5,0.6-1.1,1.1-1.9,1.4S295.2,119.1,294.3,119.1z"/>
					<path class="st0" d="M306.7,119.1c-0.6,0-1.1-0.1-1.6-0.2c-0.5-0.1-1-0.4-1.4-0.7c-0.4-0.4-0.7-0.9-1-1.6
						c-0.2-0.7-0.4-1.7-0.4-2.8l0.1-6.8h-1.9v-2.3c0.6,0,1.1-0.2,1.7-0.6c0.5-0.4,1-0.9,1.4-1.5c0.4-0.6,0.6-1.2,0.8-1.9h2.1l0,3.9
						h3.6v2.2l-3.6,0.1l0,6.9c0,0.4,0,0.9,0.1,1.3s0.2,0.8,0.5,1c0.2,0.3,0.6,0.4,1.1,0.4c0.3,0,0.6-0.1,1.1-0.3
						c0.5-0.2,0.9-0.7,1.5-1.4l1.3,1.3c-0.5,0.7-1,1.3-1.6,1.7c-0.5,0.4-1.1,0.7-1.6,0.9c-0.5,0.2-0.9,0.3-1.3,0.3
						C307.1,119.1,306.8,119.1,306.7,119.1z"/>
					<path class="st0" d="M319.4,119.1c-1.4,0-2.6-0.3-3.6-0.9s-1.9-1.5-2.4-2.6c-0.6-1.1-0.9-2.4-0.9-3.9c0-1.3,0.3-2.5,0.9-3.7
						c0.6-1.1,1.4-2.1,2.5-2.8c1.1-0.7,2.3-1.1,3.7-1.1c0.8,0,1.6,0.1,2.3,0.3c0.7,0.2,1.4,0.6,2,1.1c0.6,0.5,1.1,1.2,1.5,2.1
						c0.4,0.9,0.5,2,0.5,3.4l-9.2,0.2c0,1,0.1,1.9,0.4,2.7c0.3,0.8,0.7,1.4,1.2,1.9c0.6,0.5,1.4,0.7,2.3,0.7c0.4,0,0.8-0.1,1.3-0.2
						c0.5-0.1,1-0.4,1.5-0.7c0.5-0.3,1-0.7,1.4-1.2l1.3,1.2c-0.7,1-1.4,1.7-2.2,2.2c-0.8,0.5-1.5,0.8-2.3,1
						C320.7,119.1,320.1,119.1,319.4,119.1z M316.8,109.3h5.2c0-0.8-0.1-1.4-0.3-1.9c-0.2-0.5-0.5-0.8-0.8-1
						c-0.3-0.2-0.7-0.3-1.2-0.3c-0.8,0-1.5,0.3-1.9,0.9C317.2,107.6,316.9,108.4,316.8,109.3z"/>
					<path class="st0" d="M327.4,116.9c0.5,0,0.9-0.1,1.1-0.3c0.2-0.2,0.4-0.5,0.4-0.9c0.1-0.4,0.1-0.8,0.1-1.3v-4.7
						c0-0.3,0-0.7,0-1.1s0-0.8,0.1-1.2c-0.3,0-0.7,0-1.1,0c-0.4,0-0.7,0-0.9,0v-2.1h1.1c0.7,0,1.4-0.1,2-0.3c0.6-0.2,1-0.4,1.2-0.6
						h1.4c0,0.2,0.1,0.5,0.1,1.1c0,0.5,0,1,0,1.4c0.5-0.6,1-1.1,1.4-1.5c0.4-0.4,0.9-0.6,1.3-0.8c0.4-0.2,0.9-0.3,1.3-0.3
						c0.7,0,1.2,0.2,1.7,0.5s0.7,1,0.7,1.8c0,0.3-0.1,0.6-0.2,0.9s-0.3,0.6-0.6,0.8c-0.3,0.2-0.7,0.3-1.2,0.3
						c-0.4,0-0.8-0.1-1.2-0.3c-0.4-0.2-0.6-0.7-0.7-1.3c-0.4,0-0.7,0.2-1.1,0.5s-0.7,0.7-1,1.1s-0.5,0.8-0.6,1.2v4.6
						c0,0.3,0,0.6,0,1.1c0,0.5,0,0.9-0.1,1.4c0.3,0,0.6-0.1,1-0.1c0.4,0,0.6,0,0.8,0v2.1h-7.4V116.9z"/>
					<path class="st0" d="M341.1,116.9c0.5,0,0.9-0.1,1.1-0.3c0.2-0.2,0.4-0.5,0.4-0.9c0.1-0.4,0.1-0.8,0.1-1.3v-4.7
						c0-0.3,0-0.7,0-1.2c0-0.4,0-0.9,0.1-1.3c-0.3,0-0.7,0-1.1,0c-0.4,0-0.7,0-0.9,0v-2.1c0.9,0,1.6,0,2.2-0.1
						c0.6-0.1,1.1-0.2,1.4-0.3c0.3-0.1,0.6-0.3,0.7-0.4h1.5v9.8c0,0.3,0,0.6,0,1.1c0,0.5,0,0.9-0.1,1.4c0.3,0,0.6-0.1,1-0.1
						c0.4,0,0.6,0,0.8,0v2.1h-7.4V116.9z M344.6,102.2c-0.6,0-1.2-0.2-1.6-0.7c-0.4-0.4-0.6-1-0.6-1.6c0-0.6,0.2-1.2,0.6-1.6
						s0.9-0.7,1.5-0.7c0.6,0,1.1,0.2,1.5,0.7s0.6,1,0.6,1.6c0,0.6-0.2,1.2-0.6,1.6S345.2,102.2,344.6,102.2z"/>
					<path class="st0" d="M356.6,119.1c-1.3,0-2.6-0.3-3.6-0.9s-1.9-1.4-2.6-2.5s-0.9-2.3-0.9-3.8c0-1.6,0.3-2.9,1-4.1
						c0.6-1.2,1.5-2.1,2.6-2.7c1.1-0.6,2.2-1,3.5-1c1.3,0,2.6,0.3,3.6,0.9c1.1,0.6,1.9,1.4,2.5,2.5s0.9,2.4,0.9,3.9
						c0,1.6-0.3,2.9-0.9,4.1c-0.6,1.2-1.4,2.1-2.5,2.7C359.2,118.8,358,119.1,356.6,119.1z M356.7,117.1c0.7,0,1.3-0.3,1.7-0.8
						c0.4-0.5,0.6-1.1,0.8-1.9c0.1-0.8,0.2-1.5,0.2-2.3c0-0.7-0.1-1.4-0.2-2.1c-0.1-0.7-0.3-1.4-0.5-1.9c-0.2-0.6-0.5-1-0.9-1.4
						c-0.4-0.4-0.9-0.5-1.4-0.5c-0.7,0-1.3,0.3-1.7,0.8c-0.4,0.5-0.7,1.1-0.9,1.9c-0.2,0.8-0.3,1.5-0.3,2.4c0,1,0.1,1.9,0.3,2.8
						c0.2,0.9,0.5,1.7,1,2.3C355.3,116.9,355.9,117.2,356.7,117.1z"/>
					<path class="st0" d="M378.4,119.1c-1.1,0-2.1-0.3-3-0.9s-1.5-1.4-2-2.5c-0.5-1.1-0.7-2.3-0.7-3.8c0-1.5,0.3-2.9,0.9-4
						s1.4-2.1,2.4-2.8c1-0.7,2.3-1,3.6-1c0.5,0,1,0.1,1.4,0.2c0.4,0.1,0.8,0.2,1.1,0.4v-1.9c0-0.3,0-0.6,0-1.1c0-0.5,0-0.9,0.1-1.3
						c-0.3,0-0.7,0-1.1,0.1c-0.4,0-0.7,0-0.9,0v-2.1c0.9,0,1.6,0,2.2-0.1c0.6-0.1,1.1-0.2,1.4-0.3c0.3-0.1,0.6-0.3,0.7-0.4h1.5v16.7
						c0,0.3,0,0.6,0,1.1s0,0.9-0.1,1.4c0.3,0,0.7-0.1,1-0.1c0.4,0,0.6,0,0.8,0v2.1h-5.3c0-0.2,0-0.4-0.1-0.6c0-0.2-0.1-0.4-0.1-0.6
						c-0.6,0.6-1.3,1.1-1.9,1.3C379.8,119,379.1,119.1,378.4,119.1z M379.8,116.6c0.5,0,0.9-0.1,1.3-0.4c0.4-0.3,0.7-0.6,1-1
						c0-0.3,0-0.6,0-0.8c0-0.3,0-0.6,0-0.8v-6.7c-0.2-0.1-0.5-0.3-0.8-0.4c-0.4-0.1-0.8-0.2-1.2-0.2c-0.9,0-1.5,0.3-2,0.8
						c-0.5,0.5-0.8,1.2-1,2c-0.2,0.8-0.3,1.6-0.3,2.5c0,0.8,0.1,1.6,0.3,2.3c0.2,0.8,0.5,1.4,1,1.9
						C378.5,116.3,379.1,116.6,379.8,116.6z"/>
					<path class="st0" d="M395.8,119.1c-1.4,0-2.6-0.3-3.6-0.9s-1.9-1.5-2.4-2.6c-0.6-1.1-0.9-2.4-0.9-3.9c0-1.3,0.3-2.5,0.9-3.7
						c0.6-1.1,1.4-2.1,2.5-2.8c1.1-0.7,2.3-1.1,3.7-1.1c0.8,0,1.6,0.1,2.3,0.3c0.7,0.2,1.4,0.6,2,1.1c0.6,0.5,1.1,1.2,1.5,2.1
						c0.4,0.9,0.5,2,0.5,3.4l-9.2,0.2c0,1,0.1,1.9,0.4,2.7c0.3,0.8,0.7,1.4,1.2,1.9c0.6,0.5,1.4,0.7,2.3,0.7c0.4,0,0.8-0.1,1.3-0.2
						c0.5-0.1,1-0.4,1.5-0.7c0.5-0.3,1-0.7,1.4-1.2l1.3,1.2c-0.7,1-1.4,1.7-2.2,2.2c-0.8,0.5-1.5,0.8-2.3,1
						C397.1,119.1,396.4,119.1,395.8,119.1z M393.2,109.3h5.2c0-0.8-0.1-1.4-0.3-1.9c-0.2-0.5-0.5-0.8-0.8-1
						c-0.3-0.2-0.7-0.3-1.2-0.3c-0.8,0-1.5,0.3-1.9,0.9C393.6,107.6,393.3,108.4,393.2,109.3z"/>
					<path class="st0" d="M411.9,116.8c0.4,0,0.8-0.1,1.1-0.2c0.3-0.1,0.5-0.3,0.7-0.6c0.2-0.3,0.2-0.9,0.2-1.6v-10.7
						c0-0.5,0-1,0-1.5c0-0.5,0.1-0.8,0.1-1.1c-0.3,0-0.7,0-1.1,0c-0.4,0-0.8,0-1,0V99l8.2,0c1.9,0,3.5,0.3,4.8,0.8
						c1.4,0.6,2.5,1.3,3.3,2.2c0.9,0.9,1.5,2,2,3.1c0.4,1.2,0.6,2.3,0.6,3.5c0,1.1-0.2,2.3-0.6,3.5s-1,2.3-1.9,3.2
						c-0.9,1-2,1.8-3.4,2.4c-1.4,0.6-3.1,0.9-5,0.9h-8V116.8z M417.9,114.1c0,0.5,0,1,0,1.5c0,0.5,0,0.8-0.1,1.1c0.2,0,0.4,0,0.8,0
						c0.3,0,0.7,0,1,0c0.4,0,0.6,0,0.9,0c1,0,1.9-0.2,2.7-0.6c0.7-0.4,1.3-1,1.8-1.7c0.5-0.7,0.8-1.5,1.1-2.4
						c0.2-0.9,0.3-1.8,0.3-2.7c0-1.9-0.3-3.5-0.8-4.7c-0.5-1.2-1.3-2.1-2.2-2.7c-0.9-0.6-2.1-0.9-3.4-1c-0.4,0-0.8,0-1.1,0.1
						c-0.3,0.1-0.5,0.3-0.7,0.7c-0.2,0.3-0.2,0.9-0.2,1.6V114.1z"/>
					<path class="st0" d="M439.4,119.1c-1.4,0-2.6-0.3-3.6-0.9s-1.9-1.5-2.4-2.6c-0.6-1.1-0.9-2.4-0.9-3.9c0-1.3,0.3-2.5,0.9-3.7
						c0.6-1.1,1.4-2.1,2.5-2.8c1.1-0.7,2.3-1.1,3.7-1.1c0.8,0,1.6,0.1,2.3,0.3c0.7,0.2,1.4,0.6,2,1.1c0.6,0.5,1.1,1.2,1.5,2.1
						c0.4,0.9,0.5,2,0.5,3.4l-9.2,0.2c0,1,0.1,1.9,0.4,2.7c0.3,0.8,0.7,1.4,1.2,1.9c0.6,0.5,1.4,0.7,2.3,0.7c0.4,0,0.8-0.1,1.3-0.2
						c0.5-0.1,1-0.4,1.5-0.7c0.5-0.3,1-0.7,1.4-1.2l1.3,1.2c-0.7,1-1.4,1.7-2.2,2.2c-0.8,0.5-1.5,0.8-2.3,1
						C440.7,119.1,440,119.1,439.4,119.1z M436.8,109.3h5.2c0-0.8-0.1-1.4-0.3-1.9c-0.2-0.5-0.5-0.8-0.8-1c-0.3-0.2-0.7-0.3-1.2-0.3
						c-0.8,0-1.5,0.3-1.9,0.9C437.2,107.6,436.9,108.4,436.8,109.3z"/>
					<path class="st0" d="M449.1,103.8c0-2.3,0.5-3.9,1.5-4.9c1-1,2.3-1.5,4-1.5c0.9,0,1.6,0.1,2.1,0.4s0.9,0.6,1.1,0.9
						c0.2,0.4,0.3,0.8,0.3,1.2c0,0.5-0.1,0.9-0.4,1.3c-0.3,0.4-0.7,0.6-1.3,0.6c-0.5,0-1-0.1-1.3-0.4c-0.3-0.3-0.4-0.7-0.4-1.2
						c0-0.1,0-0.2,0-0.3c0-0.1,0-0.2,0-0.3c-0.1-0.1-0.2-0.2-0.3-0.2c-0.1,0-0.2,0-0.3,0c-0.3,0-0.5,0.1-0.7,0.3
						c-0.2,0.2-0.3,0.4-0.3,0.7c-0.1,0.3-0.1,0.5-0.1,0.8v3.5h3.1v2.2l-3.1,0.1l0,7.2c0,0.3,0,0.6,0,1.1c0,0.5,0,1-0.1,1.4
						c0.3,0,0.7-0.1,1.1-0.1c0.4,0,0.7,0,0.9,0v2.1h-7.5v-1.8c0.5,0,0.9-0.1,1.1-0.3c0.2-0.2,0.4-0.5,0.4-0.9
						c0.1-0.4,0.1-0.8,0.1-1.3V107l-2,0v-2.3h2V103.8z"/>
					<path class="st0" d="M463.8,119.1c-1.4,0-2.6-0.3-3.6-0.9s-1.9-1.5-2.4-2.6c-0.6-1.1-0.9-2.4-0.9-3.9c0-1.3,0.3-2.5,0.9-3.7
						c0.6-1.1,1.4-2.1,2.5-2.8c1.1-0.7,2.3-1.1,3.7-1.1c0.8,0,1.6,0.1,2.3,0.3c0.7,0.2,1.4,0.6,2,1.1c0.6,0.5,1.1,1.2,1.5,2.1
						c0.4,0.9,0.5,2,0.5,3.4l-9.2,0.2c0,1,0.1,1.9,0.4,2.7c0.3,0.8,0.7,1.4,1.2,1.9c0.6,0.5,1.4,0.7,2.3,0.7c0.4,0,0.8-0.1,1.3-0.2
						c0.5-0.1,1-0.4,1.5-0.7c0.5-0.3,1-0.7,1.4-1.2l1.3,1.2c-0.7,1-1.4,1.7-2.2,2.2c-0.8,0.5-1.5,0.8-2.3,1
						C465.1,119.1,464.4,119.1,463.8,119.1z M461.1,109.3h5.2c0-0.8-0.1-1.4-0.3-1.9c-0.2-0.5-0.5-0.8-0.8-1
						c-0.3-0.2-0.7-0.3-1.2-0.3c-0.8,0-1.5,0.3-1.9,0.9C461.6,107.6,461.3,108.4,461.1,109.3z"/>
					<path class="st0" d="M471.8,118.7v-1.8c0.5,0,0.9-0.1,1.1-0.3c0.2-0.2,0.4-0.5,0.4-0.9c0.1-0.4,0.1-0.8,0.1-1.3v-4.7
						c0-0.3,0-0.7,0-1.1s0-0.8,0.1-1.2c-0.3,0-0.7,0-1.1,0c-0.4,0-0.7,0-0.9,0v-2.1c0.9,0,1.6,0,2.2-0.1c0.6-0.1,1.1-0.2,1.4-0.3
						c0.3-0.1,0.6-0.3,0.7-0.4h1.4c0,0.2,0.1,0.4,0.1,0.5c0,0.1,0,0.2,0,0.3c0,0.1,0,0.3,0.1,0.5c0.4-0.3,0.8-0.6,1.3-0.8
						c0.5-0.2,1-0.4,1.5-0.6c0.5-0.1,0.9-0.2,1.3-0.2c1.7,0,2.9,0.5,3.7,1.5s1.1,2.6,1.1,4.7v3.8c0,0.3,0,0.6,0,1.1
						c0,0.5,0,0.9-0.1,1.4c0.3,0,0.7-0.1,1-0.1c0.4,0,0.6,0,0.8,0v2.1h-7.4v-1.8c0.5,0,0.9-0.1,1.1-0.3c0.2-0.2,0.4-0.5,0.4-0.9
						c0.1-0.4,0.1-0.8,0.1-1.3l0-4c0-1.2-0.2-2.1-0.5-2.7c-0.3-0.6-0.9-0.9-1.8-0.9c-0.5,0-0.9,0.1-1.4,0.3
						c-0.5,0.2-0.8,0.4-1.2,0.7c0,0.3,0,0.5,0,0.8c0,0.3,0,0.5,0,0.8v4.7c0,0.3,0,0.6,0,1.1c0,0.5,0,0.9-0.1,1.4
						c0.3,0,0.6-0.1,1-0.1c0.4,0,0.6,0,0.8,0v2.1H471.8z"/>
					<path class="st0" d="M495.9,119.1c-0.8,0-1.6-0.1-2.4-0.3c-0.8-0.2-1.4-0.5-1.8-0.8l0.1,0.8h-2.1l-0.1-4.8h1.8
						c0.1,0.6,0.3,1.1,0.7,1.5c0.4,0.5,0.9,0.8,1.5,1.1c0.6,0.3,1.3,0.4,2.1,0.4c0.3,0,0.6,0,0.9-0.1c0.3-0.1,0.5-0.2,0.7-0.5
						c0.2-0.2,0.3-0.5,0.3-0.8c0-0.4-0.1-0.6-0.4-0.9c-0.3-0.2-0.6-0.4-1.1-0.6c-0.5-0.2-1.1-0.4-1.8-0.7c-0.6-0.2-1.2-0.5-1.8-0.7
						c-0.6-0.2-1.1-0.5-1.6-0.9c-0.5-0.3-0.9-0.8-1.2-1.3c-0.3-0.5-0.4-1.1-0.4-1.9c0-0.5,0.1-1.1,0.3-1.6c0.2-0.5,0.5-1,1-1.5
						c0.4-0.4,1-0.8,1.6-1.1c0.7-0.3,1.5-0.4,2.4-0.4c0.5,0,1.1,0.1,1.7,0.2c0.6,0.2,1.2,0.4,1.6,0.7v-0.8h2.1v5h-1.8
						c-0.1-0.7-0.3-1.2-0.7-1.7c-0.3-0.5-0.8-0.8-1.3-1.1c-0.5-0.3-1.2-0.4-1.8-0.4c-0.5,0-0.9,0.1-1.3,0.3
						c-0.4,0.2-0.6,0.6-0.6,1.2c0,0.4,0.1,0.8,0.4,1c0.3,0.3,0.7,0.5,1.2,0.6c0.5,0.2,1.1,0.4,1.7,0.6c1,0.3,1.8,0.7,2.5,1.1
						c0.7,0.4,1.3,0.9,1.8,1.6c0.4,0.6,0.6,1.4,0.6,2.2c0,1-0.2,1.8-0.7,2.4c-0.5,0.6-1.1,1.1-1.9,1.4S496.8,119.1,495.9,119.1z"/>
					<path class="st0" d="M510.7,118.7c0-0.3-0.1-0.5-0.1-0.7c0-0.2,0-0.4,0-0.6c-0.6,0.6-1.3,1.1-2,1.3s-1.4,0.4-2.2,0.4
						c-1.2,0-2.1-0.4-2.8-1.1c-0.7-0.7-1-1.6-1-2.7c0-0.9,0.2-1.7,0.7-2.3c0.5-0.6,1.1-1.2,1.8-1.6c0.8-0.4,1.6-0.7,2.5-0.9
						c0.9-0.2,1.9-0.3,2.8-0.4v-1.5c0-0.5-0.1-0.9-0.2-1.3c-0.1-0.4-0.3-0.7-0.6-0.9c-0.3-0.2-0.7-0.3-1.2-0.3c-0.4,0-0.7,0.1-1,0.2
						c-0.3,0.1-0.6,0.3-0.9,0.6c0.1,0.2,0.2,0.4,0.3,0.5c0,0.2,0.1,0.4,0.1,0.5c0,0.4-0.2,0.8-0.4,1.2c-0.3,0.4-0.8,0.6-1.4,0.6
						c-0.6,0-1-0.2-1.3-0.6c-0.3-0.4-0.4-0.8-0.4-1.3c0-0.7,0.3-1.4,0.8-2c0.5-0.6,1.2-1,2.1-1.3c0.9-0.3,1.9-0.5,3-0.5
						c1.6,0,2.9,0.4,3.8,1.3c0.9,0.9,1.4,2.2,1.4,4.1c0,0.6,0,1.2,0,1.6s0,0.9,0,1.3c0,0.4,0,1,0,1.6c0,0.3,0,0.6,0,1.1
						s0,0.9-0.1,1.4c0.3,0,0.7-0.1,1-0.1c0.4,0,0.6,0,0.8,0v2.1H510.7z M510.4,112.2c-0.5,0.1-1,0.1-1.5,0.3
						c-0.5,0.1-0.9,0.3-1.2,0.5c-0.3,0.2-0.6,0.5-0.8,0.8c-0.2,0.3-0.3,0.7-0.3,1.1c0,0.5,0.2,0.9,0.5,1.1c0.3,0.2,0.7,0.3,1.1,0.3
						c0.4,0,0.8-0.1,1.2-0.3c0.4-0.2,0.7-0.4,1-0.7c0-0.2,0-0.4,0-0.5c0-0.2,0-0.4,0-0.5c0-0.3,0-0.7,0-1
						C510.4,112.9,510.4,112.6,510.4,112.2z"/>
					<path class="st0" d="M225.4,147.7v-1c0.5,0,0.9-0.1,1.1-0.3c0.2-0.2,0.4-0.5,0.4-0.9c0.1-0.4,0.1-0.9,0.1-1.4v-9.9
						c0-0.3,0-0.7,0-1c0-0.3,0-0.6,0-0.8c-0.3,0-0.6,0-0.9,0c-0.3,0-0.6,0-0.9,0v-1.3c1,0,1.9,0,2.9,0c1,0,2,0,3,0
						c1.5,0,2.7,0.2,3.7,0.5c1,0.3,1.7,0.8,2.2,1.5c0.5,0.7,0.7,1.5,0.7,2.5c0,0.6-0.1,1.3-0.4,1.9c-0.3,0.6-0.7,1.2-1.4,1.7
						c-0.6,0.5-1.5,0.9-2.6,1.1c0.3,0.2,0.6,0.5,0.9,0.8s0.5,0.7,0.8,1.1l1.4,2.2c0.3,0.5,0.6,0.9,0.8,1.2c0.3,0.3,0.5,0.6,0.9,0.8
						c0.3,0.2,0.7,0.3,1.1,0.3v1h-3.3c-0.4-0.3-0.8-0.7-1.1-1.1s-0.6-0.9-0.9-1.4l-1.6-2.7c-0.2-0.3-0.4-0.7-0.7-1
						c-0.2-0.4-0.5-0.7-0.7-0.9c-0.3,0-0.5,0-0.7,0c-0.2,0-0.5,0-0.7,0v3.9c0,0.4,0,0.8,0,1.1c0,0.3,0,0.6-0.1,0.8
						c0.2,0,0.4,0,0.6,0c0.2,0,0.4,0,0.6,0c0.2,0,0.4,0,0.6,0v1.3H225.4z M230.9,139.4c0.9,0,1.6-0.2,2.2-0.4
						c0.6-0.3,1.1-0.7,1.4-1.2s0.5-1.3,0.5-2.1c0-0.6-0.1-1.2-0.3-1.6c-0.2-0.4-0.5-0.8-0.8-1.1c-0.3-0.3-0.8-0.5-1.2-0.6
						c-0.5-0.1-1-0.2-1.6-0.2c-0.5,0-0.9,0.1-1.1,0.3c-0.2,0.2-0.4,0.5-0.4,0.8c-0.1,0.4-0.1,0.8-0.1,1.4v4.6c0.2,0,0.5,0,0.7,0.1
						C230.4,139.5,230.7,139.5,230.9,139.4z"/>
					<path class="st0" d="M245.7,148.1c-1.1,0-2.1-0.3-3-0.8c-0.9-0.5-1.6-1.2-2.1-2.2c-0.5-0.9-0.8-2-0.8-3.3
						c0-1.1,0.2-2.1,0.7-3.1c0.5-1,1.2-1.7,2.1-2.3s1.9-0.9,3.1-0.9c0.7,0,1.3,0.1,1.9,0.3c0.6,0.2,1.1,0.5,1.6,1
						c0.5,0.4,0.8,1,1.1,1.7c0.3,0.7,0.4,1.5,0.4,2.5l-8.2,0.1c0,1.1,0.1,2,0.4,2.9c0.2,0.8,0.6,1.5,1.2,1.9
						c0.6,0.5,1.3,0.7,2.2,0.7c0.4,0,0.9-0.1,1.4-0.2c0.5-0.1,0.9-0.4,1.4-0.7c0.4-0.3,0.8-0.6,1.1-1l0.7,0.6
						c-0.5,0.7-1,1.3-1.6,1.7s-1.2,0.7-1.9,0.9C246.8,148,246.3,148.1,245.7,148.1z M242.8,139.8h5.5c0-0.6-0.1-1.1-0.2-1.6
						c-0.2-0.5-0.4-0.9-0.8-1.1c-0.3-0.3-0.8-0.4-1.3-0.4c-0.8,0-1.5,0.3-2.1,0.8C243.3,137.9,243,138.7,242.8,139.8z"/>
					<path class="st0" d="M252.4,153.7v-1c0.5,0,0.8-0.1,1-0.3c0.2-0.2,0.3-0.5,0.3-0.9c0-0.4,0.1-0.9,0.1-1.4l0-11
						c0-0.3,0-0.5,0-0.8c0-0.3,0-0.6,0.1-0.9c-0.3,0-0.6,0-0.9,0c-0.3,0-0.6,0-0.8,0v-1.3c0.7,0,1.3,0,1.7-0.1
						c0.4-0.1,0.7-0.2,0.9-0.2c0.2-0.1,0.4-0.2,0.5-0.3h0.9c0,0.2,0,0.3,0,0.6c0,0.2,0,0.4,0,0.7c0.5-0.4,1.1-0.8,1.7-1
						c0.6-0.2,1.2-0.4,1.8-0.4c0.9,0,1.8,0.2,2.5,0.7c0.8,0.5,1.4,1.2,1.8,2c0.5,0.9,0.7,1.9,0.7,3.2c0,1.3-0.3,2.5-0.8,3.5
						c-0.5,1-1.3,1.8-2.2,2.4c-0.9,0.6-1.9,0.8-3,0.8c-0.5,0-1-0.1-1.4-0.2c-0.4-0.1-0.8-0.3-1.2-0.5v3.4c0,0.3,0,0.6,0,0.9
						c0,0.3,0,0.6-0.1,0.9c0.3,0,0.5,0,0.8,0c0.3,0,0.5,0,0.7,0v1.3H252.4z M258.7,146.8c0.8,0,1.4-0.2,1.9-0.7
						c0.5-0.5,0.9-1.1,1.1-1.8c0.2-0.8,0.4-1.6,0.4-2.6c0-0.8-0.1-1.6-0.3-2.3c-0.2-0.7-0.6-1.3-1.1-1.8c-0.5-0.5-1.1-0.7-1.9-0.7
						c-0.5,0-1,0.1-1.4,0.4c-0.4,0.2-0.8,0.5-1.1,0.9c0,0.2,0,0.4,0,0.7s0,0.5,0,0.9c0,0.4,0,0.8,0,1.4c0,0.5,0,1.2,0,2
						c0,0.8,0,1.8,0,2.9c0.3,0.2,0.7,0.4,1.1,0.6C257.8,146.8,258.2,146.9,258.7,146.8z"/>
					<path class="st0" d="M271.4,148.1c-0.9,0-1.6-0.2-2.2-0.5c-0.6-0.3-1-0.9-1.3-1.6c-0.3-0.8-0.4-1.8-0.4-3v-3.7
						c0-0.3,0-0.5,0-0.8c0-0.3,0-0.6,0.1-0.9c-0.3,0-0.6,0-0.9,0c-0.3,0-0.6,0-0.8,0v-1.3h0.6c0.8,0,1.4-0.1,1.8-0.2
						c0.4-0.1,0.7-0.3,0.8-0.5h0.9v7.2c0,1.2,0.2,2.2,0.5,2.8c0.3,0.6,0.9,0.9,1.8,0.9c0.5,0,1.1-0.2,1.6-0.5
						c0.5-0.3,0.9-0.7,1.2-1.1v-5.6c0-0.3,0-0.7,0-1c0-0.3,0-0.6,0.1-0.9c-0.3,0-0.6,0-0.9,0c-0.3,0-0.6,0-0.8,0v-1.3h0.7
						c0.7,0,1.2-0.1,1.6-0.2c0.4-0.1,0.7-0.3,0.9-0.5h0.9l0,8.7c0,0.3,0,0.6,0,1c0,0.4,0,0.8-0.1,1.1c0.3,0,0.5,0,0.8,0
						c0.3,0,0.6,0,0.8,0v1.3h-3.8c0-0.3-0.1-0.5-0.1-0.7c0-0.2-0.1-0.4-0.1-0.6c-0.5,0.5-1.1,0.9-1.7,1.2
						C272.8,147.9,272.1,148.1,271.4,148.1z M271.4,134.1l-0.8-0.7l2-3.2c0.2-0.3,0.4-0.5,0.7-0.6c0.2-0.1,0.4-0.1,0.6-0.1
						c0.2,0,0.4,0.1,0.5,0.2c0.1,0.1,0.2,0.2,0.3,0.5c0.1,0.2,0.1,0.4,0,0.7c-0.1,0.2-0.2,0.5-0.5,0.8L271.4,134.1z"/>
					<path class="st0" d="M281.1,133.4c0-0.3,0-0.5,0-0.8c0-0.3,0-0.6,0.1-0.9c-0.3,0-0.6,0-0.9,0c-0.3,0-0.6,0-0.8,0v-1.3
						c0.7,0,1.3,0,1.7-0.1c0.4-0.1,0.8-0.2,1-0.2c0.2-0.1,0.4-0.2,0.5-0.3h0.9v7c0.5-0.4,1-0.8,1.6-1c0.6-0.2,1.2-0.3,1.9-0.3
						c1,0,1.9,0.2,2.6,0.7c0.8,0.5,1.4,1.2,1.8,2.1s0.7,2,0.7,3.2c0,1.3-0.3,2.5-0.8,3.5s-1.3,1.8-2.2,2.3c-0.9,0.5-1.9,0.8-3,0.8
						c-0.5,0-1.1-0.1-1.7-0.3c-0.6-0.2-1.2-0.6-1.7-1.2l-0.6,1.1h-1L281.1,133.4z M283.6,144c0,0.7,0.1,1.3,0.4,1.7
						c0.2,0.4,0.5,0.7,0.9,0.9s0.8,0.2,1.2,0.2c0.7,0,1.4-0.2,1.9-0.6s0.9-1,1.1-1.7c0.3-0.7,0.4-1.6,0.4-2.5c0-0.9-0.1-1.8-0.4-2.6
						c-0.2-0.8-0.6-1.4-1.1-1.8c-0.5-0.5-1.1-0.7-1.8-0.7c-0.5,0-1,0.1-1.4,0.3s-0.8,0.5-1.1,0.9V144z"/>
					<path class="st0" d="M293.5,146.7c0.5,0,0.8-0.1,1-0.3c0.2-0.2,0.3-0.5,0.3-0.9c0-0.4,0.1-0.9,0.1-1.4v-10.7c0-0.3,0-0.5,0-0.8
						c0-0.3,0-0.6,0.1-0.9c-0.3,0-0.6,0-0.9,0c-0.3,0-0.6,0-0.8,0v-1.3c0.7,0,1.3,0,1.7-0.1c0.4-0.1,0.7-0.2,1-0.2
						c0.2-0.1,0.4-0.2,0.5-0.3h0.9v15c0,0.3,0,0.6,0,0.9c0,0.3,0,0.6-0.1,0.9c0.3,0,0.5,0,0.8,0c0.3,0,0.5,0,0.7,0v1.3h-5.3V146.7z"
						/>
					<path class="st0" d="M300.5,146.7c0.5,0,0.8-0.1,1-0.3c0.2-0.2,0.3-0.5,0.3-0.9c0-0.4,0.1-0.9,0.1-1.4v-4.9c0-0.3,0-0.5,0-0.8
						c0-0.3,0-0.6,0.1-0.9c-0.3,0-0.6,0-0.9,0c-0.3,0-0.6,0-0.8,0v-1.3c0.7,0,1.3,0,1.7-0.1c0.4-0.1,0.7-0.2,1-0.2
						c0.2-0.1,0.4-0.2,0.5-0.3h0.9v9.1c0,0.3,0,0.6,0,0.9c0,0.3,0,0.6-0.1,0.9c0.3,0,0.5,0,0.8,0c0.3,0,0.5,0,0.7,0v1.3h-5.3V146.7z
						 M303,133.4c-0.4,0-0.8-0.2-1-0.5c-0.3-0.3-0.4-0.7-0.4-1.1c0-0.4,0.1-0.8,0.5-1.1c0.3-0.3,0.6-0.5,1-0.5c0.4,0,0.8,0.2,1,0.5
						s0.4,0.7,0.4,1.1c0,0.4-0.1,0.8-0.4,1.1C303.8,133.3,303.4,133.4,303,133.4z"/>
					<path class="st0" d="M312.8,148.1c-1.1,0-2-0.2-2.9-0.7s-1.6-1.2-2.1-2.1s-0.8-2-0.8-3.3c0-0.9,0.2-1.7,0.5-2.5
						s0.7-1.5,1.3-2.1c0.5-0.6,1.2-1.1,1.9-1.5c0.8-0.4,1.6-0.5,2.5-0.5c0.9,0,1.7,0.1,2.4,0.4c0.7,0.3,1.2,0.7,1.5,1.1
						c0.4,0.5,0.5,1,0.5,1.5c0,0.4-0.1,0.7-0.3,1c-0.2,0.3-0.5,0.4-0.9,0.4c-0.5,0-0.8-0.1-1-0.4c-0.2-0.3-0.3-0.6-0.3-0.8
						c0-0.1,0-0.3,0.1-0.5c0-0.2,0.1-0.3,0.3-0.5c-0.1-0.3-0.3-0.6-0.6-0.7c-0.3-0.2-0.6-0.3-0.9-0.3c-0.3,0-0.6-0.1-0.8-0.1
						c-1,0-1.8,0.4-2.4,1.2c-0.7,0.8-1,2-1,3.5c0,1,0.1,1.9,0.4,2.6c0.3,0.8,0.7,1.4,1.3,1.8c0.6,0.5,1.2,0.7,2,0.7
						c0.7,0,1.4-0.2,2.1-0.6c0.7-0.4,1.2-0.8,1.6-1.4l0.8,0.7c-0.5,0.7-1,1.3-1.6,1.7c-0.6,0.4-1.2,0.7-1.8,0.9
						S313.4,148.1,312.8,148.1z"/>
					<path class="st0" d="M326.7,147.7c0-0.3-0.1-0.5-0.1-0.7c0-0.2,0-0.4-0.1-0.6c-0.5,0.5-1.1,0.9-1.7,1.2
						c-0.6,0.3-1.3,0.4-1.9,0.4c-1.1,0-2-0.3-2.6-0.8c-0.6-0.6-0.9-1.3-0.9-2.1c0-0.7,0.2-1.4,0.6-1.9c0.4-0.5,1-1,1.7-1.3
						c0.7-0.3,1.5-0.6,2.3-0.8c0.8-0.2,1.6-0.2,2.4-0.2v-1.4c0-0.5,0-1-0.1-1.4c-0.1-0.4-0.3-0.8-0.6-1.1c-0.3-0.3-0.7-0.4-1.4-0.4
						c-0.4,0-0.8,0.1-1.2,0.2c-0.4,0.2-0.7,0.4-0.9,0.8c0.1,0.1,0.2,0.3,0.2,0.4c0,0.2,0.1,0.3,0.1,0.5c0,0.2-0.1,0.5-0.3,0.7
						c-0.2,0.3-0.5,0.4-1,0.4c-0.4,0-0.7-0.1-0.9-0.4c-0.2-0.3-0.3-0.6-0.3-0.9c0-0.6,0.2-1.1,0.6-1.5c0.4-0.4,1-0.8,1.7-1
						c0.7-0.3,1.5-0.4,2.4-0.4c1.4,0,2.4,0.4,3,1.1c0.7,0.7,1,1.8,1,3.4c0,0.6,0,1.1,0,1.6s0,1,0,1.6c0,0.5,0,1.1,0,1.7
						c0,0.2,0,0.5,0,0.8c0,0.3,0,0.6-0.1,0.9c0.3,0,0.5,0,0.8,0c0.3,0,0.6,0,0.8,0v1.3H326.7z M326.5,142c-0.5,0-1,0.1-1.6,0.2
						c-0.5,0.1-1,0.3-1.4,0.5c-0.4,0.2-0.8,0.5-1,0.9c-0.3,0.3-0.4,0.8-0.4,1.3c0,0.5,0.2,0.9,0.5,1.2c0.3,0.3,0.7,0.4,1.1,0.4
						c0.6,0,1-0.1,1.5-0.3c0.4-0.2,0.8-0.5,1.3-0.9c0-0.2,0-0.4,0-0.5c0-0.2,0-0.4,0-0.6c0-0.1,0-0.4,0-0.8
						C326.5,142.9,326.5,142.5,326.5,142z"/>
					<path class="st0" d="M337.2,147.7v-1.1c0.5,0,0.8-0.1,1.1-0.4c0.3-0.3,0.5-0.6,0.6-1c0.2-0.4,0.4-0.9,0.6-1.5l4.8-13.1h0.9
						l5.2,13.3c0.1,0.3,0.3,0.7,0.4,1.2c0.2,0.5,0.2,1,0.2,1.3c0.3,0,0.5-0.1,0.8-0.1c0.3,0,0.5,0,0.7,0v1.3h-5.8v-1
						c0.6,0,0.9-0.1,1.1-0.4c0.2-0.2,0.3-0.5,0.2-0.8c0-0.3-0.1-0.7-0.2-1l-0.7-1.9l-5.8,0.1l-0.7,2.1c-0.1,0.3-0.2,0.6-0.3,0.9
						c-0.1,0.3-0.2,0.6-0.3,0.8c0.3,0,0.6-0.1,0.9-0.1c0.3,0,0.6,0,0.9,0v1.3H337.2z M341.8,141.4h5l-1.5-4c-0.2-0.5-0.4-1-0.5-1.6
						c-0.2-0.5-0.3-1-0.5-1.5h0c-0.1,0.4-0.3,0.8-0.4,1.3c-0.2,0.5-0.3,1-0.5,1.5L341.8,141.4z"/>
					<path class="st0" d="M353.9,146.7c0.5,0,0.8-0.1,1-0.3c0.2-0.2,0.3-0.5,0.3-0.9c0-0.4,0.1-0.9,0.1-1.4v-4.9c0-0.3,0-0.5,0-0.8
						c0-0.3,0-0.6,0.1-0.9c-0.3,0-0.6,0-0.9,0c-0.3,0-0.6,0-0.8,0v-1.3h0.8c0.7,0,1.2-0.1,1.5-0.2c0.3-0.1,0.6-0.3,0.8-0.5h0.9
						c0,0.2,0.1,0.5,0.1,0.9c0,0.4,0,0.8,0,1.3c0.3-0.4,0.6-0.8,1-1.2c0.4-0.4,0.8-0.6,1.3-0.9c0.5-0.2,1-0.3,1.5-0.3
						c0.5,0,0.9,0.1,1.3,0.4c0.4,0.3,0.5,0.7,0.5,1.3c0,0.2,0,0.3-0.1,0.5c-0.1,0.2-0.2,0.4-0.4,0.5c-0.2,0.2-0.5,0.2-0.8,0.2
						c-0.3,0-0.6-0.1-0.9-0.4c-0.2-0.2-0.4-0.6-0.3-1c-0.4,0-0.8,0.1-1.1,0.3c-0.4,0.2-0.7,0.5-1.1,0.9c-0.3,0.4-0.6,0.8-0.8,1.2
						v5.2c0,0.3,0,0.6,0,0.9c0,0.3,0,0.6-0.1,0.9c0.3,0,0.5,0,0.8,0c0.3,0,0.5,0,0.7,0v1.3h-5.3V146.7z"/>
					<path class="st0" d="M369.8,154.1c-1.4,0-2.5-0.2-3.4-0.5s-1.5-0.7-1.8-1.2c-0.4-0.5-0.6-1-0.6-1.5c0-0.4,0.1-0.8,0.3-1.2
						c0.2-0.4,0.5-0.7,0.8-1c0.3-0.3,0.7-0.5,1.1-0.7c-0.6-0.2-1-0.4-1.3-0.7c-0.3-0.3-0.4-0.7-0.4-1.2c0-0.5,0.2-1,0.6-1.5
						c0.4-0.5,1-0.8,1.7-1c-0.7-0.3-1.3-0.8-1.7-1.4c-0.4-0.6-0.6-1.3-0.7-2.1c0-0.9,0.2-1.8,0.7-2.5c0.5-0.7,1.1-1.3,1.9-1.7
						c0.8-0.4,1.6-0.6,2.5-0.6c0.5,0,1,0.1,1.5,0.2c0.5,0.1,1,0.3,1.4,0.6c0.2-0.5,0.4-0.9,0.7-1.3c0.3-0.4,0.6-0.7,1-0.9
						c0.4-0.2,0.8-0.3,1.2-0.3c0.5,0,0.8,0.1,1,0.4c0.2,0.2,0.4,0.6,0.4,0.9c0,0.1,0,0.3-0.1,0.5c-0.1,0.2-0.2,0.3-0.4,0.5
						c-0.2,0.1-0.4,0.2-0.7,0.2c-0.3,0-0.5-0.1-0.7-0.2c-0.2-0.2-0.3-0.4-0.4-0.6c-0.3,0.1-0.6,0.3-0.8,0.6c-0.2,0.3-0.4,0.7-0.4,1
						c0.4,0.4,0.7,0.8,1,1.3c0.2,0.5,0.3,1,0.3,1.6c0,0.9-0.2,1.7-0.7,2.4c-0.5,0.7-1.1,1.2-1.9,1.6c-0.8,0.4-1.6,0.6-2.5,0.6
						c-0.3,0-0.5,0-0.8-0.1c-0.2,0-0.5-0.1-0.8-0.1c-0.5,0-0.9,0.1-1.2,0.4c-0.3,0.2-0.4,0.5-0.4,0.9c0.1,0.3,0.4,0.6,1,0.7
						c0.6,0.1,1.4,0.2,2.5,0.2c1.2,0,2.3,0.2,3.1,0.4c0.9,0.2,1.6,0.6,2,1.1c0.5,0.5,0.7,1.2,0.7,2.1c0,0.6-0.2,1.2-0.5,1.7
						c-0.4,0.5-0.8,0.9-1.4,1.3c-0.6,0.3-1.3,0.6-2,0.8C371.3,154,370.5,154.1,369.8,154.1z M370,152.9c1.3,0,2.3-0.2,3-0.7
						c0.7-0.5,1.1-1,1.1-1.6c0-0.5-0.2-0.9-0.5-1.2c-0.3-0.3-0.8-0.5-1.5-0.6c-0.6-0.1-1.4-0.2-2.2-0.2c-0.4,0-0.8-0.1-1.3-0.1
						c-0.4,0-0.8-0.1-1.2-0.1c-0.4,0.3-0.6,0.6-0.8,0.9c-0.2,0.4-0.3,0.7-0.3,1.1c0,0.7,0.3,1.3,1,1.8
						C368,152.7,368.9,152.9,370,152.9z M369.7,143.3c0.5,0,1-0.1,1.3-0.4c0.4-0.3,0.6-0.6,0.8-1.1c0.2-0.5,0.3-1,0.3-1.5
						c0-0.6-0.1-1.3-0.3-1.8s-0.5-1-0.8-1.4c-0.4-0.3-0.8-0.5-1.4-0.5c-0.8,0-1.4,0.3-1.8,0.9c-0.4,0.6-0.6,1.4-0.6,2.2
						c0,0.7,0.1,1.3,0.3,1.9c0.2,0.5,0.5,1,0.9,1.3C368.7,143.2,369.2,143.3,369.7,143.3z"/>
					<path class="st0" d="M382.6,148.1c-1.1,0-2.1-0.3-3-0.8c-0.9-0.5-1.6-1.2-2.1-2.2c-0.5-0.9-0.8-2-0.8-3.3
						c0-1.1,0.2-2.1,0.7-3.1c0.5-1,1.2-1.7,2.1-2.3s1.9-0.9,3.1-0.9c0.7,0,1.3,0.1,1.9,0.3c0.6,0.2,1.1,0.5,1.6,1
						c0.5,0.4,0.8,1,1.1,1.7c0.3,0.7,0.4,1.5,0.4,2.5l-8.2,0.1c0,1.1,0.1,2,0.4,2.9c0.2,0.8,0.6,1.5,1.2,1.9
						c0.6,0.5,1.3,0.7,2.2,0.7c0.4,0,0.9-0.1,1.4-0.2c0.5-0.1,0.9-0.4,1.4-0.7c0.4-0.3,0.8-0.6,1.1-1l0.7,0.6
						c-0.5,0.7-1,1.3-1.6,1.7s-1.2,0.7-1.9,0.9C383.7,148,383.2,148.1,382.6,148.1z M379.7,139.8h5.5c0-0.6-0.1-1.1-0.2-1.6
						c-0.2-0.5-0.4-0.9-0.8-1.1c-0.3-0.3-0.8-0.4-1.3-0.4c-0.8,0-1.5,0.3-2.1,0.8C380.2,137.9,379.9,138.7,379.7,139.8z"/>
					<path class="st0" d="M389.4,147.7v-1c0.5,0,0.8-0.1,1-0.3c0.2-0.2,0.3-0.5,0.3-0.9c0-0.4,0.1-0.9,0.1-1.4l0-4.9
						c0-0.3,0-0.5,0-0.8c0-0.3,0-0.6,0.1-0.9c-0.3,0-0.6,0-0.9,0c-0.3,0-0.6,0-0.8,0v-1.3c0.7,0,1.3,0,1.7-0.1
						c0.4-0.1,0.7-0.2,0.9-0.2c0.2-0.1,0.4-0.2,0.5-0.3h0.9c0,0.1,0,0.3,0,0.4c0,0.1,0,0.3,0,0.4c0,0.1,0,0.3,0,0.5
						c0.3-0.3,0.7-0.5,1.1-0.8c0.4-0.2,0.8-0.4,1.3-0.5c0.5-0.1,0.9-0.2,1.3-0.2c1.4,0,2.4,0.4,3,1.3s0.9,2.2,0.9,4v4
						c0,0.3,0,0.6,0,0.9c0,0.3,0,0.6-0.1,0.9c0.3,0,0.5,0,0.8,0c0.3,0,0.5,0,0.7,0v1.3H397v-1c0.5,0,0.8-0.1,1-0.3
						c0.2-0.2,0.3-0.5,0.3-0.9c0-0.4,0.1-0.9,0.1-1.4v-3.3c0-1.2-0.2-2.2-0.6-2.8c-0.4-0.6-1-0.9-1.9-0.9c-0.5,0-1,0.1-1.5,0.4
						s-0.9,0.6-1.2,0.9c0,0.2,0,0.3,0,0.5c0,0.2,0,0.4,0,0.6v5.4c0,0.3,0,0.6,0,0.9c0,0.3,0,0.6-0.1,0.9c0.3,0,0.5,0,0.8,0
						c0.3,0,0.5,0,0.7,0v1.3H389.4z"/>
					<path class="st0" d="M407.9,148.1c-0.4,0-0.8-0.1-1.2-0.2c-0.4-0.1-0.8-0.3-1.1-0.6c-0.3-0.3-0.6-0.8-0.8-1.3
						c-0.2-0.6-0.3-1.4-0.3-2.3l0-6.5h-1.8v-1.3c0.4,0,0.9-0.2,1.3-0.5c0.4-0.3,0.8-0.7,1.2-1.2c0.3-0.5,0.6-1.1,0.7-1.6h1.1v3.3
						h3.6v1.2l-3.6,0l0,6.3c0,0.6,0.1,1.1,0.2,1.6c0.1,0.5,0.3,0.8,0.5,1c0.2,0.2,0.6,0.4,1,0.4c0.4,0,0.7-0.1,1.1-0.3
						c0.4-0.2,0.8-0.6,1.1-1.1l0.8,0.7c-0.4,0.6-0.8,1-1.1,1.3c-0.4,0.3-0.7,0.5-1.1,0.7c-0.3,0.1-0.7,0.2-0.9,0.3
						C408.3,148,408.1,148.1,407.9,148.1z"/>
					<path class="st0" d="M412.9,146.7c0.5,0,0.8-0.1,1-0.3c0.2-0.2,0.3-0.5,0.3-0.9c0-0.4,0.1-0.9,0.1-1.4v-4.9c0-0.3,0-0.5,0-0.8
						c0-0.3,0-0.6,0.1-0.9c-0.3,0-0.6,0-0.9,0c-0.3,0-0.6,0-0.8,0v-1.3c0.7,0,1.3,0,1.7-0.1c0.4-0.1,0.7-0.2,1-0.2
						c0.2-0.1,0.4-0.2,0.5-0.3h0.9v9.1c0,0.3,0,0.6,0,0.9c0,0.3,0,0.6-0.1,0.9c0.3,0,0.5,0,0.8,0c0.3,0,0.5,0,0.7,0v1.3h-5.3V146.7z
						 M415.4,133.4c-0.4,0-0.8-0.2-1-0.5c-0.3-0.3-0.4-0.7-0.4-1.1c0-0.4,0.1-0.8,0.5-1.1c0.3-0.3,0.6-0.5,1-0.5
						c0.4,0,0.8,0.2,1,0.5s0.4,0.7,0.4,1.1c0,0.4-0.1,0.8-0.4,1.1C416.2,133.3,415.8,133.4,415.4,133.4z"/>
					<path class="st0" d="M419.9,147.7v-1c0.5,0,0.8-0.1,1-0.3c0.2-0.2,0.3-0.5,0.3-0.9c0-0.4,0.1-0.9,0.1-1.4l0-4.9
						c0-0.3,0-0.5,0-0.8c0-0.3,0-0.6,0.1-0.9c-0.3,0-0.6,0-0.9,0c-0.3,0-0.6,0-0.8,0v-1.3c0.7,0,1.3,0,1.7-0.1
						c0.4-0.1,0.7-0.2,0.9-0.2c0.2-0.1,0.4-0.2,0.5-0.3h0.9c0,0.1,0,0.3,0,0.4c0,0.1,0,0.3,0,0.4c0,0.1,0,0.3,0,0.5
						c0.3-0.3,0.7-0.5,1.1-0.8c0.4-0.2,0.8-0.4,1.3-0.5c0.5-0.1,0.9-0.2,1.3-0.2c1.4,0,2.4,0.4,3,1.3s0.9,2.2,0.9,4v4
						c0,0.3,0,0.6,0,0.9c0,0.3,0,0.6-0.1,0.9c0.3,0,0.5,0,0.8,0c0.3,0,0.5,0,0.7,0v1.3h-5.3v-1c0.5,0,0.8-0.1,1-0.3
						c0.2-0.2,0.3-0.5,0.3-0.9c0-0.4,0.1-0.9,0.1-1.4v-3.3c0-1.2-0.2-2.2-0.6-2.8c-0.4-0.6-1-0.9-1.9-0.9c-0.5,0-1,0.1-1.5,0.4
						s-0.9,0.6-1.2,0.9c0,0.2,0,0.3,0,0.5c0,0.2,0,0.4,0,0.6v5.4c0,0.3,0,0.6,0,0.9c0,0.3,0,0.6-0.1,0.9c0.3,0,0.5,0,0.8,0
						c0.3,0,0.5,0,0.7,0v1.3H419.9z"/>
					<path class="st0" d="M441.6,147.7c0-0.3-0.1-0.5-0.1-0.7c0-0.2,0-0.4-0.1-0.6c-0.5,0.5-1.1,0.9-1.7,1.2
						c-0.6,0.3-1.3,0.4-1.9,0.4c-1.1,0-2-0.3-2.6-0.8c-0.6-0.6-0.9-1.3-0.9-2.1c0-0.7,0.2-1.4,0.6-1.9c0.4-0.5,1-1,1.7-1.3
						c0.7-0.3,1.5-0.6,2.3-0.8c0.8-0.2,1.6-0.2,2.4-0.2v-1.4c0-0.5,0-1-0.1-1.4c-0.1-0.4-0.3-0.8-0.6-1.1c-0.3-0.3-0.7-0.4-1.4-0.4
						c-0.4,0-0.8,0.1-1.2,0.2c-0.4,0.2-0.7,0.4-0.9,0.8c0.1,0.1,0.2,0.3,0.2,0.4c0,0.2,0.1,0.3,0.1,0.5c0,0.2-0.1,0.5-0.3,0.7
						c-0.2,0.3-0.5,0.4-1,0.4c-0.4,0-0.7-0.1-0.9-0.4c-0.2-0.3-0.3-0.6-0.3-0.9c0-0.6,0.2-1.1,0.6-1.5c0.4-0.4,1-0.8,1.7-1
						c0.7-0.3,1.5-0.4,2.4-0.4c1.4,0,2.4,0.4,3,1.1c0.7,0.7,1,1.8,1,3.4c0,0.6,0,1.1,0,1.6s0,1,0,1.6c0,0.5,0,1.1,0,1.7
						c0,0.2,0,0.5,0,0.8c0,0.3,0,0.6-0.1,0.9c0.3,0,0.5,0,0.8,0c0.3,0,0.6,0,0.8,0v1.3H441.6z M441.3,142c-0.5,0-1,0.1-1.6,0.2
						c-0.5,0.1-1,0.3-1.4,0.5c-0.4,0.2-0.8,0.5-1,0.9c-0.3,0.3-0.4,0.8-0.4,1.3c0,0.5,0.2,0.9,0.5,1.2c0.3,0.3,0.7,0.4,1.1,0.4
						c0.6,0,1-0.1,1.5-0.3c0.4-0.2,0.8-0.5,1.3-0.9c0-0.2,0-0.4,0-0.5c0-0.2,0-0.4,0-0.6c0-0.1,0-0.4,0-0.8
						C441.3,142.9,441.3,142.5,441.3,142z"/>
				</g>
			</g>
		</g>
	</g>
	<g>
		<path class="st0" d="M159.2,170.8c-19.3,0-35-22.1-35-49.4c0-27.2,15.7-49.4,35-49.4s35,22.1,35,49.4
			C194.2,148.7,178.5,170.8,159.2,170.8z M159.2,73c-18.8,0-34.1,21.7-34.1,48.4c0,26.7,15.3,48.4,34.1,48.4s34.1-21.7,34.1-48.4
			C193.3,94.8,178,73,159.2,73z"/>
		<rect x="124.3" y="119.9" class="st0" width="69.8" height="0.5"/>
		<rect x="124.7" y="112.8" class="st0" width="68.9" height="0.5"/>
		<g>
			<path class="st0" d="M148.3,105.6C148.3,105.6,148.3,105.6,148.3,105.6l-21.9,0v0.5h22.1C148.4,105.9,148.3,105.7,148.3,105.6z"
				/>
			<path class="st0" d="M170.8,105.5c-0.1,0.2-0.2,0.3-0.4,0.5H192v-0.5H170.8z"/>
		</g>
		<g>
			<path class="st0" d="M169.4,98.4c0.1,0.2,0.2,0.3,0.2,0.5h19.9v-0.5H169.4z"/>
			<path class="st0" d="M149.4,98.4h-20.6v0.5h20.3C149.2,98.7,149.3,98.6,149.4,98.4z"/>
		</g>
		<g>
			<path class="st0" d="M165.4,91.2c0.1,0.1,0.2,0.3,0.3,0.5h20.8v-0.5H165.4z"/>
			<path class="st0" d="M148.3,91.2h-16.4v0.5h16C148,91.5,148.2,91.3,148.3,91.2z"/>
		</g>
		<rect x="137.1" y="84" class="st0" width="44.2" height="0.5"/>
		<rect x="144.2" y="76.8" class="st0" width="30" height="0.5"/>
		<g>
			<path class="st0" d="M189.3,146c0.3-0.7,0.7-1.8,1-3.2C189.9,144.2,189.6,145.2,189.3,146z"/>
			<path class="st0" d="M188.7,146.8c-1.4-0.2-10.8-4.2-13.1-5.9c-0.4-0.3-0.8-0.7-1.3-1c-1.7-1.4-3.5-3.2-4.6-4.2
				c-0.3-0.3-0.6-0.5-0.7-0.7c-0.9-0.8-5.2-3-7-3c-0.1,0-0.2,0-0.3,0c-1,0.1-1.8,0.6-2.5,1c-0.5,0.3-1.1,0.6-1.6,0.8
				c-1.4,0.4-3.2,0.4-3.5,0.3c-0.2-0.1-0.5-0.4-0.4-0.7c0.2-0.4,1.5-1,2.1-1.3c0.6-0.3,1.6-1,2.5-1.7c0.7-0.6,1.5-1.2,1.9-1.3
				c0.8-0.3,2.5-0.3,3.4-0.3c1.3,0.1,8.8,2.1,12.6,3.3c3.5,1.1,14,1.9,16.2,2.1c-0.7,3.2-1.4,6.2-2,8.5c0.2-0.6,0.5-1.4,0.7-2.2
				c1.1-3.2,1.7-6.9,1.7-6.9c-0.1,0-12.7-0.9-16.4-2.1c-3.9-1.3-11.3-3.3-12.7-3.4c-0.9-0.1-2.8-0.1-3.7,0.3c-0.1,0-0.2,0.1-0.3,0.2
				c-1-0.3-3.6-0.5-4.5-0.5c-1.4,0.1-8.9,2.1-12.7,3.4c-3.8,1.2-16.3,2.1-16.4,2.1l-0.4,0l0.1,0.4c0,0,0.6,3.7,1.7,7.1
				c2.1,6.3,2.4,7.1,2.9,7.1c0,0,7.3-3.2,11.5-5.7c1.7-0.9,4.9-2.6,5.9-2.9l0.5-1c-1.1,0.2-6.4,2.9-6.6,3c-5.6,2.8-9.6,4.8-11.4,5.5
				c-1,0.4-4-12.9-3.8-12.9c0,0,12.7-0.9,16.2-2.1c3.7-1.2,11.3-3.2,12.6-3.3c0.7-0.1,2.6,0.1,3.7,0.3c-0.3,0.2-0.7,0.5-1,0.8
				c-0.8,0.6-1.8,1.4-2.3,1.6c-1.4,0.6-2.2,1-2.4,1.6c-0.2,0.5,0,1.1,0.6,1.5c0.5,0.4,2.8,0.2,4-0.2c0.6-0.2,1.2-0.5,1.7-0.8
				c0.7-0.4,1.5-0.9,2.3-1c1.4-0.2,5.8,2,6.7,2.8c0.2,0.2,0.4,0.4,0.7,0.7c1.1,1,2.9,2.8,4.7,4.2c0.5,0.4,0.9,0.8,1.3,1.1
				c2.2,1.7,11.9,6.1,13.5,6.3c0,0,0.1-0.4,0.6-1.8C189.1,146.5,188.9,146.8,188.7,146.8z"/>
		</g>
		<g>
			<g>
				<g>
					<g>
						<path class="st0" d="M181.4,78.7L181.4,78.7L171.1,75l0,0.1c0.4,0.2,0.9,0.5,1.4,0.8l9.1,3.2l0.1,0l0-0.1
							C181.5,78.9,181.4,78.8,181.4,78.7z"/>
						<path class="st0" d="M189.6,68.9l-16.8-1.1l0,0c0.1,0,0.1,0,0.2-0.1c0.4-0.1,0.7-0.3,1.2-0.5c0.2-0.1,0.4-0.2,0.6-0.3l0,0
							c0.2-0.1,0.3-0.2,0.5-0.2c0.7-0.3,1.4-0.6,2-0.7c0.7-0.2,1.3-0.2,2.1-0.2c0.2,0,0.4,0,0.7,0l0,0c0.1,0,0.3,0,0.5,0
							c0.4,0,0.9,0,1.4,0c0.9-0.1,1.6-0.5,2.2-0.9l0,0c0.1,0,0.2-0.1,0.3-0.1c0.6-0.3,1.3-0.7,2-0.9c0.7-0.2,1.4-0.2,2.1-0.2
							c0.4,0,0.7-0.2,0.7-0.5c0-0.2,0-0.4-0.1-0.5c-0.1-0.1-0.3-0.3-0.4-0.3c-0.9-0.2-1.8-0.2-2.6,0c-0.9,0.2-1.6,0.5-2.4,0.9
							c-0.3,0.1-0.7,0.3-1,0.4c-0.2,0.1-0.3,0.1-0.5,0.2l0,0c-0.1,0-0.1,0-0.2,0l-0.1,0c-0.1,0-0.1,0-0.2,0l0,0
							c-0.4,0-0.9,0-1.4-0.1c-0.2,0-0.5-0.1-0.8-0.1c-0.9-0.1-1.8-0.1-2.6,0.1c-0.8,0.1-1.7,0.4-2.5,0.7c-0.2,0.1-0.3,0.1-0.5,0.2
							l0,0c-0.2,0.1-0.4,0.2-0.6,0.2c-0.4,0.2-0.7,0.3-1,0.3c-0.2,0.1-0.5,0.1-0.8,0.2l0,0l0-0.1l15.8-7.8c0.2-0.1,0.3-0.4,0.2-0.6
							c-0.1-0.2-0.3-0.3-0.6-0.2L171,62.7l0,0c0.1-0.1,0.2-0.2,0.4-0.3c0.3-0.3,0.6-0.5,0.9-0.9c0.1-0.2,0.3-0.3,0.5-0.5l0,0
							c0.1-0.1,0.2-0.3,0.3-0.4c0.5-0.6,1-1.1,1.6-1.5c0.6-0.4,1.2-0.7,1.9-1c0.2-0.1,0.4-0.2,0.7-0.2l0,0c0.1,0,0.3-0.1,0.4-0.1
							c0.4-0.1,0.8-0.3,1.3-0.6c0.8-0.5,1.2-1.1,1.7-1.6l0,0c0.1-0.1,0.1-0.1,0.2-0.2c0.4-0.6,0.9-1.2,1.5-1.6
							c0.5-0.4,1.2-0.8,1.8-1c0.3-0.1,0.6-0.4,0.5-0.8c0-0.2-0.1-0.3-0.3-0.4c-0.2-0.1-0.3-0.1-0.5-0.1c-0.9,0.2-1.7,0.6-2.4,1.1
							c-0.7,0.5-1.3,1.1-1.8,1.8c-0.2,0.3-0.5,0.6-0.8,0.8c-0.1,0.1-0.3,0.2-0.4,0.3l0,0c-0.1,0-0.1,0.1-0.2,0.1l0,0c0,0,0,0,0,0
							c0,0-0.1,0.1-0.1,0.1l0,0c-0.3,0.2-0.8,0.3-1.3,0.4c-0.3,0.1-0.5,0.1-0.8,0.2c-0.9,0.3-1.7,0.6-2.4,1.1c-0.7,0.4-1.4,1-2,1.7
							c-0.1,0.1-0.3,0.3-0.4,0.4c-0.1,0.1-0.3,0.3-0.4,0.4c-0.3,0.3-0.6,0.5-0.8,0.7c-0.2,0.2-0.5,0.4-0.7,0.5l0,0L169,61l11.6-13.5
							c0.2-0.2,0.1-0.5,0-0.6c-0.2-0.1-0.4-0.2-0.6,0l-12.3,11.6l0,0c0.1-0.1,0.1-0.3,0.2-0.4c0.2-0.4,0.3-0.7,0.5-1.2
							c0.1-0.2,0.1-0.4,0.2-0.6l0,0c0.1-0.2,0.1-0.3,0.2-0.5c0.2-0.7,0.5-1.4,0.9-2c0.3-0.6,0.8-1.1,1.3-1.6
							c0.2-0.2,0.3-0.3,0.5-0.5l0,0c0.1-0.1,0.2-0.2,0.3-0.3c0.3-0.3,0.6-0.6,0.9-1c0.5-0.7,0.7-1.5,0.9-2.2c0-0.1,0.1-0.2,0.1-0.3
							c0.2-0.7,0.4-1.4,0.7-2.1c0.3-0.6,0.8-1.2,1.3-1.6c0.3-0.2,0.3-0.6,0.1-0.9c-0.1-0.1-0.3-0.2-0.4-0.3c-0.2,0-0.4,0-0.5,0.1
							c-0.7,0.5-1.3,1.2-1.8,1.9c-0.5,0.8-0.8,1.6-1,2.3c-0.1,0.3-0.2,0.7-0.4,1.1c-0.1,0.2-0.1,0.3-0.2,0.5l0,0
							c0,0.1-0.1,0.1-0.1,0.2l0,0.1c0,0-0.1,0.1-0.1,0.1l0,0c-0.2,0.3-0.6,0.6-1,0.9l0,0c-0.2,0.2-0.4,0.3-0.6,0.5
							c-0.7,0.6-1.3,1.2-1.8,2c-0.5,0.7-0.9,1.5-1.2,2.3c-0.1,0.2-0.1,0.4-0.2,0.5l0,0c-0.1,0.2-0.1,0.3-0.2,0.5
							c-0.2,0.4-0.3,0.7-0.5,1c-0.1,0.3-0.3,0.6-0.5,0.8l0,0l0,0l0,0c-0.1,0-0.1-0.1-0.2-0.1l0,0l5.9-16.9c0.1-0.3-0.1-0.5-0.3-0.6
							c-0.2-0.1-0.5,0-0.6,0.2l-6.8,14.3l0,0c0-0.2,0-0.4,0-0.7c0-0.2,0-0.4-0.1-0.7l0,0c0-0.2,0-0.4,0-0.5c-0.1-0.8-0.1-1.5,0-2.1
							c0.1-0.7,0.3-1.3,0.6-2c0.1-0.2,0.2-0.4,0.3-0.6c0.1-0.1,0.1-0.3,0.2-0.4c0.2-0.4,0.4-0.8,0.5-1.3c0.2-0.9,0.1-1.6,0-2.4l0,0
							c0-0.1,0-0.2,0-0.3c-0.1-0.7-0.2-1.5-0.1-2.2c0.1-0.7,0.3-1.4,0.6-2c0.2-0.3,0.1-0.7-0.2-0.9c-0.2-0.1-0.3-0.1-0.5-0.1
							c-0.2,0-0.3,0.1-0.4,0.3c-0.5,0.8-0.8,1.6-0.9,2.5c-0.1,0.9-0.1,1.7,0,2.5c0,0.4,0,0.8,0,1.1c0,0.2,0,0.4,0,0.5l0,0
							c0,0.1,0,0.1,0,0.2l0,0c0,0,0,0,0,0c0,0.1,0,0.1,0,0.2l0,0c-0.1,0.4-0.3,0.8-0.6,1.2c-0.1,0.2-0.3,0.5-0.4,0.7
							c-0.4,0.8-0.7,1.7-0.9,2.5c-0.2,0.8-0.2,1.7-0.2,2.6c0,0.2,0,0.3,0,0.5l0,0.1c0,0.2,0,0.4,0,0.6c0,0.4,0,0.8,0,1.1
							c0,0.3-0.1,0.7-0.2,0.9c0,0.1,0,0.1-0.1,0.2l0,0l0,0c-0.1,0-0.1,0-0.2,0l-1.1-17.7c0-0.3-0.2-0.4-0.4-0.4
							c-0.2,0-0.4,0.1-0.4,0.4l-0.8,16.9l0,0c0-0.2-0.1-0.3-0.2-0.5c-0.1-0.4-0.3-0.7-0.5-1.2c-0.1-0.2-0.2-0.4-0.3-0.6l0-0.1
							c-0.1-0.2-0.1-0.3-0.2-0.4c-0.3-0.7-0.6-1.4-0.7-2c-0.2-0.7-0.2-1.3-0.2-2.1c0-0.2,0-0.4,0-0.7l0-0.1c0-0.1,0-0.3,0-0.4
							c0-0.4,0-0.9,0-1.4c-0.1-0.9-0.5-1.6-0.8-2.2c-0.1-0.1-0.1-0.2-0.1-0.3c-0.3-0.6-0.7-1.3-0.9-2c-0.2-0.7-0.2-1.4-0.2-2.1
							c0-0.4-0.2-0.7-0.5-0.8c-0.2,0-0.4,0-0.5,0.1c-0.1,0.1-0.3,0.3-0.3,0.4c-0.2,0.9-0.2,1.8,0,2.7c0.2,0.9,0.5,1.6,0.9,2.4
							c0.1,0.3,0.3,0.7,0.4,1c0.1,0.2,0.1,0.3,0.2,0.5l0,0c0,0.1,0,0.1,0,0.2l0,0.1c0,0,0,0.1,0,0.1l0,0c0,0.4,0,0.9-0.1,1.4
							c0,0.3-0.1,0.5-0.1,0.8c-0.1,0.9-0.1,1.8,0.1,2.6c0.1,0.8,0.4,1.7,0.7,2.5c0.1,0.2,0.1,0.4,0.2,0.5l0,0
							c0.1,0.2,0.2,0.4,0.2,0.6c0.2,0.4,0.3,0.7,0.3,1c0.1,0.3,0.2,0.6,0.2,0.9l0,0l-0.1,0l-7.9-16c-0.1-0.2-0.4-0.3-0.6-0.2
							c-0.2,0.1-0.3,0.3-0.2,0.6l5.9,15.9l0,0c-0.1-0.1-0.2-0.2-0.3-0.4c-0.3-0.3-0.5-0.6-0.9-0.9c-0.2-0.1-0.3-0.3-0.5-0.4
							l-0.1-0.1c-0.1-0.1-0.3-0.2-0.4-0.3c-0.6-0.5-1.1-1-1.5-1.6c-0.4-0.6-0.7-1.2-1-1.9c-0.1-0.2-0.2-0.4-0.2-0.7
							c0-0.1-0.1-0.3-0.2-0.4c-0.1-0.4-0.3-0.8-0.6-1.3c-0.5-0.8-1.1-1.2-1.6-1.7c-0.1-0.1-0.2-0.1-0.2-0.2
							c-0.6-0.4-1.2-0.9-1.6-1.5c-0.4-0.5-0.8-1.2-1-1.8c-0.1-0.3-0.4-0.6-0.8-0.5c-0.2,0-0.3,0.1-0.4,0.3c-0.1,0.2-0.1,0.3-0.1,0.5
							c0.2,0.9,0.6,1.7,1.1,2.4c0.5,0.7,1.1,1.3,1.8,1.8c0.3,0.2,0.6,0.5,0.8,0.8c0.1,0.1,0.2,0.3,0.3,0.4l0,0c0,0,0.1,0.1,0.1,0.2
							l0,0.1c0,0,0.1,0.1,0.1,0.1l0,0c0.2,0.3,0.3,0.8,0.4,1.3l0,0c0.1,0.3,0.1,0.5,0.2,0.8c0.3,0.9,0.6,1.7,1.1,2.4
							c0.4,0.7,1,1.4,1.7,2c0.1,0.1,0.3,0.3,0.4,0.4l0,0c0.1,0.1,0.3,0.3,0.4,0.4c0.3,0.3,0.5,0.6,0.7,0.8c0.2,0.3,0.4,0.5,0.5,0.8
							c0,0,0,0.1,0,0.1l0,0l0,0l-13.6-11.7c-0.2-0.2-0.5-0.1-0.6,0c-0.1,0.2-0.2,0.4,0,0.6l11.6,12.3l0,0c-0.1-0.1-0.3-0.1-0.4-0.2
							c-0.4-0.2-0.7-0.3-1.2-0.5c-0.2-0.1-0.4-0.1-0.6-0.2l0,0c-0.2-0.1-0.3-0.1-0.5-0.1c-0.7-0.2-1.4-0.5-2-0.9
							c-0.6-0.3-1.1-0.8-1.6-1.3c-0.2-0.2-0.3-0.4-0.5-0.5c-0.1-0.1-0.2-0.2-0.3-0.3c-0.3-0.3-0.6-0.7-1-0.9
							c-0.7-0.5-1.5-0.7-2.2-0.9l0,0c-0.1,0-0.2,0-0.2-0.1c-0.7-0.2-1.4-0.4-2.1-0.7c-0.6-0.3-1.2-0.8-1.6-1.3
							c-0.2-0.3-0.6-0.3-0.9-0.1c-0.3,0.2-0.4,0.6-0.2,0.9c0.5,0.7,1.2,1.4,1.9,1.8c0.8,0.5,1.6,0.8,2.3,1c0.3,0.1,0.7,0.2,1.1,0.4
							c0.2,0.1,0.3,0.1,0.5,0.2l0,0c0.1,0,0.1,0.1,0.2,0.1l0.1,0c0,0,0.1,0.1,0.1,0.1l0,0c0.3,0.2,0.6,0.6,0.9,1
							c0.2,0.2,0.3,0.4,0.5,0.6c0.6,0.7,1.2,1.3,2,1.8c0.7,0.5,1.5,0.9,2.3,1.2c0.2,0.1,0.4,0.1,0.5,0.2c0.2,0.1,0.4,0.1,0.6,0.2
							c0.4,0.2,0.7,0.3,1,0.5c0.3,0.1,0.6,0.3,0.8,0.5c0,0,0.1,0.1,0.1,0.1l0,0l-0.1,0.1l-16.9-6c-0.3-0.1-0.5,0.1-0.6,0.3
							c-0.1,0.2,0,0.5,0.2,0.6l14.3,6.8l0,0c-0.2,0-0.4,0-0.7,0c-0.2,0-0.4,0-0.7,0.1l0,0c-0.2,0-0.3,0-0.5,0
							c-0.8,0.1-1.5,0.1-2.1,0c-0.7-0.1-1.3-0.3-2-0.6c-0.2-0.1-0.4-0.2-0.6-0.3l0,0c-0.1-0.1-0.3-0.1-0.4-0.2
							c-0.4-0.2-0.8-0.4-1.3-0.5c-0.9-0.2-1.6-0.1-2.4,0l-0.1,0c-0.1,0-0.2,0-0.2,0c-0.7,0.1-1.5,0.2-2.2,0.1
							c-0.7-0.1-1.4-0.3-2-0.6c-0.3-0.2-0.7-0.1-0.9,0.2c-0.1,0.2-0.1,0.3-0.1,0.5c0,0.2,0.1,0.3,0.3,0.4c0.8,0.5,1.6,0.8,2.5,0.9
							c0.9,0.1,1.7,0.1,2.5,0c0.3,0,0.7,0,1.1,0h0c0.2,0,0.4,0,0.5,0l0,0c0.1,0,0.1,0,0.2,0l0.1,0c0,0,0.1,0,0.1,0l0,0
							c0.4,0.1,0.8,0.3,1.2,0.6l0,0c0.2,0.1,0.5,0.3,0.7,0.4c0.8,0.4,1.7,0.7,2.5,0.9c0.8,0.2,1.7,0.2,2.6,0.2c0.2,0,0.4,0,0.6,0
							c0.2,0,0.4,0,0.6,0c0.4,0,0.8,0,1.1,0c0.3,0,0.7,0.1,0.9,0.2c0.1,0,0.1,0,0.2,0.1l0,0l0,0c0,0.1,0,0.1,0,0.2l-17.7,1.1
							c-0.3,0-0.4,0.2-0.4,0.4c0,0.2,0.1,0.4,0.4,0.4l16.9,0.8l0,0c-0.2,0-0.3,0.1-0.5,0.2c-0.4,0.1-0.7,0.3-1.2,0.5
							c-0.2,0.1-0.4,0.2-0.6,0.3l0,0c-0.2,0.1-0.3,0.2-0.5,0.2c-0.7,0.3-1.4,0.6-2,0.7c-0.7,0.2-1.3,0.2-2.1,0.2c-0.2,0-0.5,0-0.7,0
							l-0.1,0c-0.1,0-0.3,0-0.4,0c-0.4,0-0.9,0-1.4,0c-0.9,0.1-1.6,0.5-2.2,0.9c-0.1,0-0.2,0.1-0.3,0.1c-0.6,0.3-1.3,0.7-2,0.9
							c-0.7,0.2-1.4,0.2-2.1,0.2c-0.4,0-0.7,0.2-0.7,0.5c0,0.2,0,0.4,0.1,0.5c0.1,0.1,0.3,0.3,0.4,0.3c0.9,0.2,1.8,0.2,2.6,0
							c0.9-0.2,1.6-0.5,2.4-0.9c0.3-0.1,0.7-0.3,1-0.4c0.2-0.1,0.3-0.1,0.5-0.2l0,0c0.1,0,0.1,0,0.2,0l0,0c0,0,0,0,0.1,0
							c0.1,0,0.1,0,0.2,0l0,0c0.4,0,0.9,0,1.4,0.1l0,0c0.3,0,0.5,0.1,0.8,0.1c0.9,0.1,1.8,0.1,2.6-0.1c0.8-0.1,1.7-0.4,2.5-0.7
							c0.2-0.1,0.3-0.1,0.5-0.2l0,0c0.2-0.1,0.4-0.2,0.6-0.2c0.4-0.2,0.7-0.3,1-0.3c0.3-0.1,0.6-0.2,0.9-0.2l0,0l0,0
							c0,0,0,0.1,0,0.1l0,0l-9.1,4.5l0,0l0,0l0,0c0,0.1,0.1,0.1,0,0.2l0,0.1l9.5-4.7l0,0l0-0.1c0-0.1-0.1-0.2-0.1-0.4l0-0.1l-0.1,0
							c0,0-0.1,0-0.1,0c-0.3,0-0.7,0.1-1,0.2c-0.3,0.1-0.6,0.2-1.1,0.4c-0.2,0.1-0.4,0.2-0.6,0.2l0,0c-0.2,0.1-0.3,0.1-0.5,0.2
							c-0.8,0.3-1.6,0.6-2.4,0.7c-0.8,0.1-1.7,0.2-2.6,0.1c-0.3,0-0.6-0.1-0.8-0.1l0,0c-0.5-0.1-1-0.1-1.4-0.1c-0.1,0-0.1,0-0.2,0
							l-0.1,0c-0.1,0-0.1,0-0.2,0.1c-0.2,0-0.4,0.1-0.5,0.2c-0.4,0.1-0.7,0.3-1.1,0.5c-0.7,0.3-1.5,0.7-2.3,0.9
							c-0.8,0.2-1.7,0.2-2.5,0c-0.1,0-0.2-0.1-0.2-0.1c-0.1-0.1-0.1-0.2-0.1-0.3c0-0.2,0.2-0.3,0.4-0.3c0.7,0.1,1.5,0,2.2-0.2
							c0.7-0.2,1.4-0.6,2.1-0.9c0.1,0,0.1-0.1,0.2-0.1l0,0c0.6-0.3,1.3-0.7,2.1-0.8c0.5-0.1,0.9-0.1,1.3,0c0.2,0,0.3,0,0.5,0l0,0
							c0.2,0,0.5,0,0.7,0c0.8,0,1.5,0,2.2-0.2c0.7-0.2,1.4-0.4,2.1-0.8c0.1-0.1,0.3-0.1,0.4-0.2l0,0c0.2-0.1,0.4-0.2,0.6-0.3
							c0.5-0.2,0.8-0.4,1.2-0.5c0.4-0.2,0.9-0.3,1.3-0.3l0.2,0l0-0.4l-17.9-0.8c-0.1,0-0.1-0.1-0.1-0.1c0,0,0-0.1,0.1-0.1l17.9-1.1
							l0,0l0-0.1c0-0.1,0-0.3,0.1-0.4l0-0.1l-0.1-0.1l0,0c-0.1,0-0.2-0.1-0.3-0.1c-0.3-0.1-0.7-0.1-1-0.2c-0.3,0-0.7,0-1.1,0
							c-0.2,0-0.4,0-0.6,0c-0.2,0-0.4,0-0.6,0c-0.9,0-1.8,0-2.5-0.2c-0.8-0.2-1.6-0.4-2.4-0.9c-0.3-0.1-0.5-0.3-0.7-0.4
							c-0.5-0.3-0.9-0.5-1.3-0.6c-0.1,0-0.1,0-0.2,0l-0.1,0c-0.1,0-0.1,0-0.2,0c-0.2,0-0.3,0-0.5,0h0c-0.4,0-0.8,0-1.1,0
							c-0.8,0.1-1.6,0.1-2.5,0c-0.8-0.1-1.6-0.4-2.4-0.9c-0.1,0-0.1-0.1-0.2-0.2c0-0.1,0-0.2,0-0.3c0.1-0.2,0.3-0.2,0.5-0.1
							c0.7,0.4,1.4,0.6,2.1,0.6c0.8,0.1,1.5,0,2.3-0.1c0.1,0,0.1,0,0.2,0l0.1,0c0.7-0.1,1.4-0.2,2.2,0c0.5,0.1,0.9,0.3,1.2,0.4
							c0.1,0.1,0.3,0.1,0.4,0.2l0,0c0.2,0.1,0.4,0.2,0.6,0.3c0.7,0.3,1.4,0.5,2.1,0.6c0.7,0.1,1.4,0.1,2.2,0c0.2,0,0.3,0,0.5,0
							c0.2,0,0.5,0,0.7-0.1c0.5,0,0.9,0,1.3,0c0,0,0,0,0.1,0l0.8,0l-15.7-7.5c-0.1,0-0.1-0.1-0.1-0.1c0,0,0.1-0.1,0.1-0.1l17.2,6.1
							l0,0l0.1-0.1c0,0,0.1-0.2,0.2-0.4l0.1-0.1l-0.1-0.1c0-0.1-0.1-0.1-0.2-0.2c-0.3-0.2-0.5-0.4-0.9-0.5c-0.3-0.2-0.6-0.3-1-0.5
							c-0.2-0.1-0.4-0.1-0.5-0.2l0,0c-0.2-0.1-0.3-0.1-0.5-0.2c-0.8-0.3-1.6-0.7-2.3-1.2c-0.7-0.5-1.3-1.1-1.9-1.7
							c-0.2-0.2-0.4-0.4-0.5-0.6c-0.3-0.4-0.6-0.8-1-1.1c-0.1-0.1-0.1-0.1-0.2-0.1l-0.1,0c-0.1,0-0.1-0.1-0.2-0.1
							c-0.2-0.1-0.3-0.2-0.5-0.2c-0.4-0.2-0.7-0.3-1.1-0.4c-0.8-0.3-1.5-0.5-2.3-1c-0.7-0.4-1.3-1-1.8-1.7c-0.1-0.2-0.1-0.4,0.1-0.5
							c0.1-0.1,0.4-0.1,0.5,0.1c0.5,0.6,1,1.1,1.7,1.4c0.7,0.4,1.4,0.6,2.1,0.8c0.1,0,0.2,0,0.2,0.1l0,0c0.7,0.2,1.4,0.4,2.1,0.9
							c0.4,0.3,0.7,0.6,1,0.9c0.1,0.1,0.2,0.2,0.3,0.3c0.2,0.2,0.3,0.4,0.5,0.5c0.5,0.6,1.1,1,1.7,1.4c0.6,0.4,1.3,0.7,2,0.9
							c0.1,0.1,0.3,0.1,0.5,0.2l0,0c0.2,0.1,0.4,0.1,0.6,0.2c0.5,0.2,0.8,0.3,1.2,0.5c0.4,0.2,0.8,0.4,1.2,0.7c0,0,0.1,0.1,0.1,0.1
							l0.1,0.1l0.2-0.3l-12.4-13.2c-0.1-0.1,0-0.1,0-0.2c0,0,0.1-0.1,0.2,0l13.8,11.8l0,0l0.1-0.1c0.1-0.1,0.2-0.1,0.2-0.2l0.1-0.1
							l0-0.1c0-0.1-0.1-0.2-0.1-0.2c-0.2-0.3-0.4-0.6-0.6-0.8c-0.2-0.2-0.4-0.5-0.7-0.8c-0.1-0.1-0.3-0.3-0.4-0.4l0,0
							c-0.1-0.1-0.3-0.3-0.4-0.4c-0.6-0.6-1.2-1.3-1.6-2c-0.4-0.7-0.8-1.5-1.1-2.3c-0.1-0.3-0.2-0.5-0.2-0.8l0,0
							c-0.1-0.5-0.3-1-0.5-1.4c0-0.1-0.1-0.1-0.1-0.2l0-0.1c0-0.1-0.1-0.1-0.1-0.2c-0.1-0.2-0.3-0.3-0.4-0.4
							c-0.3-0.3-0.6-0.6-0.8-0.8c-0.6-0.5-1.2-1.1-1.7-1.8c-0.5-0.7-0.8-1.5-1-2.3c0-0.1,0-0.2,0-0.3c0.1-0.1,0.1-0.1,0.2-0.2
							c0.2,0,0.4,0.1,0.4,0.2c0.2,0.7,0.5,1.4,1,2c0.5,0.6,1.1,1.1,1.7,1.5c0.1,0.1,0.2,0.1,0.2,0.2c0.5,0.4,1.1,0.9,1.6,1.6
							c0.2,0.4,0.4,0.8,0.5,1.2c0.1,0.1,0.1,0.3,0.1,0.4l0,0c0.1,0.2,0.2,0.5,0.2,0.7c0.3,0.7,0.6,1.4,1,1.9
							c0.4,0.6,0.9,1.1,1.5,1.6c0.1,0.1,0.3,0.2,0.4,0.3l0,0c0.2,0.1,0.3,0.3,0.5,0.4c0.4,0.3,0.7,0.6,0.9,0.9
							c0.3,0.3,0.6,0.7,0.8,1.1c0,0,0,0.1,0,0.1l0.1,0.1l0.3-0.2l-6.3-17c0-0.1,0-0.1,0.1-0.1c0,0,0.1,0,0.1,0.1l8,16.2l0,0l0.1,0
							c0.1,0,0.2-0.1,0.3-0.1l0.1,0l0-0.1c0-0.1,0-0.1,0-0.2c0-0.3-0.1-0.7-0.2-1c-0.1-0.3-0.2-0.6-0.4-1.1
							c-0.1-0.2-0.1-0.3-0.2-0.5l0-0.1c-0.1-0.1-0.1-0.3-0.2-0.5c-0.3-0.8-0.6-1.7-0.7-2.4c-0.1-0.8-0.2-1.7-0.1-2.6
							c0-0.3,0.1-0.5,0.1-0.8c0.1-0.5,0.1-1,0.1-1.4c0-0.1,0-0.1,0-0.2c0,0,0,0,0,0l0,0c0-0.1,0-0.1-0.1-0.2c0-0.2-0.1-0.3-0.2-0.5
							c-0.1-0.4-0.3-0.7-0.5-1.1c-0.3-0.7-0.7-1.5-0.9-2.3c-0.2-0.8-0.2-1.7,0-2.5c0-0.1,0.1-0.2,0.1-0.2c0.1-0.1,0.2-0.1,0.3-0.1
							c0.2,0,0.3,0.2,0.3,0.4c-0.1,0.8,0,1.5,0.2,2.2c0.2,0.7,0.6,1.4,0.9,2.1c0,0.1,0.1,0.2,0.1,0.3c0.3,0.6,0.7,1.3,0.8,2.1
							c0.1,0.5,0.1,0.9,0,1.3c0,0.2,0,0.3,0,0.5c0,0.2,0,0.5,0,0.7c0,0.8,0,1.5,0.2,2.2c0.2,0.7,0.4,1.4,0.8,2.1
							c0.1,0.1,0.1,0.3,0.2,0.5c0.1,0.2,0.2,0.4,0.3,0.6c0.2,0.5,0.4,0.8,0.5,1.2c0.2,0.4,0.3,0.9,0.3,1.3l0,0.2l0.4,0l0.8-18
							c0-0.1,0.1-0.1,0.1-0.1c0,0,0.1,0,0.1,0.1l1.1,17.9l0,0l0.1,0c0.2,0,0.3,0,0.5,0.1l0.1,0l0.1-0.1c0-0.1,0.1-0.2,0.1-0.3
							c0.1-0.3,0.1-0.7,0.2-1c0-0.3,0-0.7,0-1.1c0-0.2,0-0.4,0-0.6l0,0c0-0.2,0-0.3,0-0.5c0-0.9,0-1.8,0.2-2.5
							c0.2-0.8,0.4-1.6,0.8-2.4c0.1-0.3,0.3-0.5,0.4-0.7c0.3-0.5,0.5-0.9,0.6-1.3c0-0.1,0-0.1,0.1-0.2l0-0.1c0-0.1,0-0.1,0-0.2
							c0-0.2,0-0.3,0-0.5c0-0.4,0-0.8,0-1.2c-0.1-0.8-0.1-1.6,0-2.5c0.1-0.8,0.4-1.6,0.9-2.4c0-0.1,0.1-0.1,0.2-0.2
							c0.1,0,0.2,0,0.3,0c0.2,0.1,0.2,0.3,0.1,0.5c-0.4,0.7-0.6,1.4-0.6,2.1c-0.1,0.8,0,1.5,0.1,2.3c0,0.1,0,0.1,0,0.2l0,0.1
							c0.1,0.7,0.2,1.4,0,2.3c-0.1,0.5-0.3,0.9-0.4,1.2c-0.1,0.1-0.1,0.3-0.2,0.4l0,0c-0.1,0.2-0.2,0.4-0.3,0.6
							c-0.3,0.7-0.5,1.4-0.6,2.1c-0.1,0.7-0.1,1.4,0,2.2c0,0.2,0,0.3,0,0.5c0,0.3,0,0.5,0.1,0.7c0,0.5,0,0.9,0,1.3c0,0,0,0.1,0,0.1
							l0,0.8l7.5-15.7c0-0.1,0.1-0.1,0.1-0.1c0,0,0.1,0,0.1,0.1l-6,17.1l0,0l0.1,0.1c0.1,0.1,0.3,0.1,0.4,0.2l0.1,0.1l0.1-0.1
							c0.1-0.1,0.1-0.1,0.1-0.2c0.2-0.3,0.4-0.5,0.6-0.9c0.2-0.3,0.3-0.6,0.5-1c0.1-0.2,0.1-0.4,0.2-0.5l0-0.1
							c0.1-0.2,0.1-0.3,0.2-0.5c0.3-0.8,0.7-1.6,1.2-2.3c0.5-0.7,1.1-1.3,1.7-1.9c0.2-0.2,0.4-0.3,0.6-0.5l0,0
							c0.4-0.3,0.8-0.6,1.1-1c0.1-0.1,0.1-0.1,0.1-0.2l0-0.1c0,0,0.1-0.1,0.1-0.2c0.1-0.2,0.2-0.3,0.2-0.5l0,0
							c0.1-0.3,0.3-0.7,0.4-1.1c0.3-0.8,0.5-1.5,1-2.3c0.4-0.7,1-1.3,1.7-1.8c0.1-0.1,0.2-0.1,0.3-0.1c0.1,0,0.2,0.1,0.2,0.1
							c0.1,0.1,0.1,0.4-0.1,0.5c-0.6,0.5-1.1,1-1.4,1.7c-0.4,0.7-0.6,1.4-0.8,2.1c0,0.1-0.1,0.2-0.1,0.3l0,0
							c-0.2,0.7-0.4,1.4-0.9,2.1c-0.3,0.4-0.6,0.7-0.9,1c-0.1,0.1-0.2,0.2-0.3,0.2l-0.1,0.1c-0.2,0.1-0.4,0.3-0.5,0.5
							c-0.6,0.5-1,1.1-1.4,1.7c-0.4,0.6-0.7,1.3-0.9,2c0,0.1-0.1,0.3-0.1,0.4l0,0.1c-0.1,0.2-0.1,0.4-0.2,0.6
							c-0.2,0.5-0.3,0.8-0.5,1.2c-0.2,0.4-0.4,0.8-0.7,1.2c0,0,0,0,0,0l-0.1,0.1l0.3,0.2l13.1-12.4c0.1-0.1,0.1,0,0.2,0
							c0,0,0.1,0.1,0,0.2l-11.7,13.7l0,0l0.1,0.1c0.1,0.1,0.2,0.2,0.2,0.3l0.1,0.1l0.1-0.1c0,0,0.1,0,0.1,0c0.3-0.2,0.6-0.4,0.8-0.6
							c0.2-0.2,0.5-0.4,0.8-0.7c0.2-0.2,0.3-0.3,0.4-0.4c0.1-0.1,0.3-0.3,0.4-0.4c0.6-0.6,1.3-1.2,2-1.6c0.7-0.4,1.5-0.8,2.3-1.1
							c0.3-0.1,0.5-0.2,0.8-0.2c0.5-0.1,1-0.3,1.4-0.5c0.1,0,0.1-0.1,0.2-0.1l0.1,0c0.1,0,0.1-0.1,0.2-0.1c0.1-0.1,0.3-0.2,0.4-0.4
							c0.3-0.3,0.6-0.6,0.8-0.8c0.5-0.6,1.1-1.2,1.8-1.7c0.7-0.5,1.5-0.8,2.3-1c0.1,0,0.2,0,0.3,0c0.1,0,0.1,0.1,0.2,0.2
							c0,0.2-0.1,0.4-0.2,0.4c-0.7,0.2-1.4,0.6-2,1c-0.6,0.5-1.1,1.1-1.5,1.7c0,0.1-0.1,0.1-0.1,0.2l-0.1,0.1
							c-0.4,0.5-0.9,1.1-1.6,1.6c-0.4,0.2-0.8,0.4-1.2,0.5c-0.1,0.1-0.3,0.1-0.4,0.2c-0.2,0.1-0.5,0.2-0.7,0.2
							c-0.7,0.3-1.4,0.6-1.9,1c-0.6,0.4-1.1,0.9-1.6,1.5c-0.1,0.1-0.2,0.2-0.3,0.4l0,0c-0.1,0.2-0.3,0.3-0.4,0.5
							c-0.3,0.4-0.6,0.7-0.9,0.9c-0.3,0.3-0.7,0.6-1,0.8L170,63l0.2,0.3l16.8-6.2c0.1,0,0.1,0,0.1,0.1c0,0,0,0.1-0.1,0.1l-16,8l0,0
							l0,0.1c0,0.1,0.1,0.3,0.1,0.4l0,0.1l0.1,0c0.3,0,0.6-0.1,1-0.2c0.3-0.1,0.6-0.2,1.1-0.4c0.2-0.1,0.4-0.1,0.6-0.2l0,0
							c0.2-0.1,0.3-0.1,0.5-0.2c0.8-0.3,1.6-0.6,2.4-0.7c0.8-0.1,1.7-0.2,2.6-0.1c0.3,0,0.5,0.1,0.8,0.1l0,0c0.5,0.1,1,0.1,1.4,0.1
							c0.1,0,0.1,0,0.2,0l0.1,0c0.1,0,0.1,0,0.2-0.1c0.2,0,0.3-0.1,0.5-0.2c0.4-0.1,0.7-0.3,1.1-0.5c0.7-0.3,1.5-0.7,2.3-0.9
							c0.8-0.2,1.7-0.2,2.5,0c0.1,0,0.2,0.1,0.2,0.1c0.1,0.1,0.1,0.2,0.1,0.3c0,0.2-0.2,0.3-0.4,0.3c-0.7-0.1-1.5,0-2.2,0.2
							c-0.7,0.2-1.4,0.6-2.1,0.9c-0.1,0-0.2,0.1-0.2,0.1l0,0c-0.6,0.3-1.3,0.7-2.1,0.8c-0.5,0.1-0.9,0.1-1.3,0c-0.2,0-0.3,0-0.5,0
							c-0.2,0-0.5,0-0.7,0c-0.8,0-1.5,0-2.2,0.2c-0.7,0.2-1.4,0.4-2.1,0.8c-0.1,0.1-0.3,0.1-0.4,0.2l0,0c-0.2,0.1-0.4,0.2-0.6,0.3
							c-0.5,0.2-0.8,0.4-1.2,0.5c-0.4,0.1-0.8,0.2-1.1,0.3l-0.2,0l0,0.3l18,1.2c0.1,0,0.1,0.1,0.1,0.1c0,0,0,0.1-0.1,0.1l-17.9,0.7
							l0,0.1c0,0.2,0,0.4-0.1,0.6l0,0.1l0.1,0c0,0,0.1,0,0.1,0c0.3,0.1,0.7,0.1,1,0.2c0.3,0,0.7,0,1.1,0c0.2,0,0.4,0,0.6,0l0.1,0
							c0.2,0,0.3,0,0.5,0c0.9,0,1.8,0,2.5,0.2c0.8,0.2,1.6,0.4,2.4,0.9c0.3,0.1,0.5,0.3,0.7,0.4c0.5,0.3,0.9,0.5,1.3,0.6
							c0.1,0,0.1,0,0.2,0.1l0.1,0c0.1,0,0.1,0,0.2,0c0.2,0,0.4,0,0.5,0l0,0c0.4,0,0.8,0,1.1,0c0.8-0.1,1.6-0.1,2.5,0
							c0.8,0.1,1.6,0.4,2.4,0.9c0.1,0,0.1,0.1,0.2,0.2c0,0.1,0,0.2,0,0.3c-0.1,0.2-0.3,0.2-0.5,0.1c-0.7-0.4-1.4-0.6-2.1-0.6
							c-0.8-0.1-1.5,0-2.3,0.1c-0.1,0-0.2,0-0.3,0l0,0c-0.7,0.1-1.4,0.2-2.3,0c-0.5-0.1-0.9-0.3-1.2-0.4c-0.1-0.1-0.3-0.1-0.4-0.2
							c-0.2-0.1-0.4-0.2-0.6-0.3c-0.7-0.3-1.4-0.5-2.1-0.6c-0.7-0.1-1.4-0.1-2.2,0c-0.2,0-0.3,0-0.5,0l0,0c-0.2,0-0.4,0-0.7,0.1
							c-0.5,0-0.9,0-1.3,0c0,0-0.1,0-0.1,0l-0.8,0l8.9,4.3l0.1,0v-0.1c0,0,0-0.1,0-0.1c0,0,0,0,0.1-0.1l0.1,0l-7.7-3.7l0,0
							c0.2,0,0.4,0,0.7,0c0.2,0,0.5,0,0.7-0.1l0,0c0.2,0,0.3,0,0.5,0c0.8-0.1,1.5-0.1,2.1,0c0.7,0.1,1.3,0.3,2,0.6
							c0.2,0.1,0.4,0.2,0.6,0.3l0.1,0c0.1,0.1,0.3,0.1,0.4,0.2c0.4,0.2,0.8,0.4,1.3,0.5c0.9,0.2,1.6,0.1,2.4,0c0.1,0,0.2,0,0.3,0
							c0.7-0.1,1.5-0.2,2.2-0.1c0.7,0.1,1.4,0.3,2,0.6c0.3,0.2,0.7,0.1,0.9-0.2c0.1-0.2,0.1-0.3,0.1-0.5c0-0.2-0.1-0.3-0.3-0.4
							c-0.8-0.5-1.6-0.8-2.5-0.9c-0.9-0.1-1.7-0.1-2.5,0c-0.3,0-0.7,0-1.1,0h0c-0.2,0-0.4,0-0.5,0l0,0c-0.1,0-0.1,0-0.2,0l-0.1,0
							c-0.1,0-0.1,0-0.1,0l0,0c-0.4-0.1-0.8-0.3-1.2-0.6l0,0c-0.2-0.1-0.5-0.3-0.7-0.4c-0.8-0.4-1.7-0.7-2.5-0.9
							c-0.8-0.2-1.7-0.2-2.6-0.2c-0.2,0-0.4,0-0.6,0l0,0c-0.2,0-0.4,0-0.6,0c-0.4,0-0.8,0-1.1,0c-0.3,0-0.6-0.1-0.9-0.2l0,0l0,0
							c0-0.1,0-0.2,0-0.4l17.7-0.7c0.3,0,0.4-0.2,0.4-0.4C190,69.2,189.8,69,189.6,68.9z M170.2,50.1L170.2,50.1L170.2,50.1
							L170.2,50.1z"/>
						<path class="st0" d="M136.8,79L136.8,79c-0.1,0.1-0.1,0.2-0.2,0.4l0,0.1l8.4-3.1c0.4-0.3,0.8-0.5,1.2-0.7l0.8-0.4L136.8,79z"
							/>
					</g>
					<g>
						<path class="st0" d="M162.6,64.5c-0.8,0.3-1.2,0.8-1.2,0.8l-0.1,0.1l0.1,0.1c0.6,0.7,1.3,0.9,2,0.9c1.3,0,2.5-0.8,2.5-0.8
							l0.2-0.1l-0.2-0.1C164.5,64.2,163.4,64.2,162.6,64.5z M162.8,64.8c-0.1,0.3-0.2,0.9,0.1,1.2c-0.4-0.1-0.7-0.3-1.1-0.6
							C161.9,65.2,162.3,65,162.8,64.8z M164.1,66c0.3-0.3,0.2-0.9,0.2-1.2c0.4,0.1,0.8,0.3,1.3,0.6C165.3,65.6,164.7,65.9,164.1,66
							z"/>
						<path class="st0" d="M163.6,63.7C163.6,63.7,163.5,63.7,163.6,63.7c-1.1,0-2.2,0.5-3.1,1.4l-0.1,0.1l0,0.1
							c0,0.1,0.6,1.3,2,1.7c0.3,0.1,0.6,0.1,1,0.1c0.9,0,1.9-0.3,3-1l-0.2-0.3c-1.4,0.9-2.6,1.2-3.7,0.8c-1-0.3-1.5-1.1-1.7-1.4
							c0.9-0.8,1.8-1.3,2.8-1.2c1.8,0,3.2,1.4,3.3,1.5l0.2-0.2C167,65.2,165.5,63.7,163.6,63.7z"/>
						<path class="st0" d="M154.5,66.4c0.7,0,1.4-0.2,2-0.9l0.1-0.1l-0.1-0.1c0,0-0.4-0.6-1.2-0.8c-0.7-0.2-1.9-0.3-3.3,0.8
							l-0.2,0.1l0.2,0.1C152,65.6,153.2,66.4,154.5,66.4z M156.1,65.4c-0.3,0.3-0.7,0.5-1.1,0.6c0.3-0.3,0.2-0.9,0.1-1.2
							C155.6,65,156,65.2,156.1,65.4z M153.6,64.8c-0.1,0.3-0.1,0.9,0.2,1.2c-0.6-0.1-1.2-0.4-1.4-0.6
							C152.8,65.1,153.2,64.9,153.6,64.8z"/>
						<path class="st0" d="M163.4,62.1c-2.7,0-4.2,1.5-4.2,4c0,2.7,1,2.9,1.5,3.1c0.1,0,0.1,0,0.2,0c0.4,0.1,0.7,0.2,0.7,0.7
							c0,0.2-0.1,0.4-0.3,0.4c-0.3,0.1-0.9,0-1.2-0.3l-0.1-0.1l-0.1,0.1c0,0-0.3,0.3-1,0.3c-0.7,0-1-0.3-1-0.3l-0.1-0.1l-0.1,0.1
							c-0.3,0.3-0.8,0.4-1.2,0.3c-0.2-0.1-0.3-0.2-0.3-0.4c0-0.5,0.3-0.6,0.7-0.7c0.1,0,0.2,0,0.3-0.1c0.5-0.1,1.5-0.4,1.5-3.1
							c0-2.5-1.5-4-4.2-4c-2.5,0-4,2-4.1,2.1l0.3,0.2c0,0,1.5-1.9,3.8-1.9c2.5,0,3.9,1.3,3.9,3.7c0,2.4-0.8,2.6-1.2,2.7l0,0
							c-0.1,0-0.1,0-0.2,0c-0.4,0.1-1,0.2-1,1c0,0.3,0.2,0.6,0.5,0.8c0.4,0.2,1,0.1,1.4-0.2c0.2,0.1,0.6,0.3,1.1,0.3c0,0,0,0,0,0
							c0.6,0,1-0.2,1.1-0.3c0.3,0.2,0.6,0.3,1,0.3c0.2,0,0.3,0,0.5-0.1c0.3-0.1,0.5-0.4,0.5-0.8c0-0.8-0.6-0.9-1-1
							c-0.1,0-0.1,0-0.2,0l0,0l0,0c-0.4-0.1-1.2-0.3-1.2-2.7c0-2.4,1.4-3.7,3.9-3.7c2.3,0,3.8,1.9,3.8,1.9l0.3-0.2
							C167.4,64.1,165.9,62.1,163.4,62.1z"/>
						<path class="st0" d="M157.5,65.3l0-0.1l-0.1-0.1c-0.9-0.9-2-1.4-3.1-1.4c0,0,0,0,0,0c-2,0-3.4,1.5-3.5,1.6l0.2,0.2
							c0,0,1.4-1.4,3.3-1.5c0,0,0,0,0,0c1,0,1.9,0.4,2.8,1.2c-0.2,0.3-0.7,1.1-1.7,1.4c-1,0.3-2.3,0-3.7-0.8l-0.2,0.3
							c1.1,0.7,2.1,1,3,1c0.3,0,0.7,0,1-0.1C156.9,66.6,157.5,65.4,157.5,65.3z"/>
					</g>
				</g>
			</g>
		</g>
		<path class="st0" d="M159.2,170.8c-19.3,0-35-22.1-35-49.4c0-27.2,15.7-49.4,35-49.4s35,22.1,35,49.4
			C194.2,148.7,178.5,170.8,159.2,170.8z M159.2,73c-18.8,0-34.1,21.7-34.1,48.4c0,26.7,15.3,48.4,34.1,48.4s34.1-21.7,34.1-48.4
			C193.3,94.8,178,73,159.2,73z"/>
		<g>
			<path class="st0" d="M205.1,119.1c-0.1-0.1-0.2,0-0.3,0c-0.2,0.2-0.5,0.4-0.7,0.6l0,0c-0.5,0.4-1.1,0.9-1.6,1.4
				c-0.2-0.7-0.5-1.4-0.7-2l0,0c-0.1-0.2-0.2-0.4-0.2-0.6c0.1-0.1,0.3-0.2,0.5-0.3c1-0.7,1.8-1.4,2.4-2.7c0.1-0.1,0.1-0.3,0.2-0.5
				c0.4-1.4,0.1-3.7-0.1-5.4c0-0.3-0.1-0.6-0.1-0.9c0-0.1-0.1-0.2-0.2-0.2c-0.1,0-0.2,0-0.3,0.1c-0.2,0.2-0.4,0.5-0.7,0.8
				c-0.4,0.5-0.9,1.1-1.3,1.7c-0.3-0.7-0.7-1.3-1.1-1.9l0,0c-0.1-0.3-0.3-0.5-0.4-0.7c0.2-0.2,0.3-0.3,0.5-0.5c0.9-0.9,1.6-1.6,2-3
				c0-0.2,0.1-0.3,0.1-0.5c0.2-1.5-0.4-3.7-0.8-5.3c-0.1-0.3-0.2-0.6-0.2-0.9c0-0.1-0.1-0.2-0.2-0.2c-0.1,0-0.2,0-0.3,0.1
				c-0.2,0.3-0.3,0.6-0.5,0.9c-0.4,0.6-0.7,1.2-1.1,1.9c-0.4-0.6-0.9-1.2-1.3-1.7l0,0c-0.1-0.2-0.3-0.3-0.4-0.5
				c0.1-0.2,0.2-0.3,0.3-0.5c0.7-1,1.3-1.9,1.4-3.3c0-0.2,0-0.3,0-0.5c0-1.5-1-3.6-1.7-5.1c-0.1-0.3-0.3-0.6-0.4-0.8
				c0-0.1-0.2-0.2-0.3-0.2c-0.1,0-0.2,0.1-0.3,0.2c-0.1,0.3-0.2,0.6-0.4,1l0,0c-0.3,0.6-0.5,1.3-0.8,2c-0.5-0.5-1.1-1-1.6-1.5
				c-0.2-0.2-0.4-0.3-0.5-0.5c0-0.1,0.1-0.3,0.1-0.4l0,0c0.3-1.3,0.5-2.5-0.1-4c-0.6-1.3-2.2-2.7-3.4-3.9l0,0
				c-0.3-0.2-0.5-0.5-0.7-0.7c-0.1-0.1-0.2-0.1-0.3-0.1c-0.1,0-0.2,0.2-0.2,0.3c0,0.3,0,0.6,0,1c0,1,0,2.2,0.2,3.2
				c-1-0.3-2.1-0.5-3.1-0.6c-0.3-0.1-0.7-0.1-1-0.2c-0.1,0-0.2,0-0.3,0.1c-0.1,0.1-0.1,0.2,0,0.3c0.2,0.2,0.3,0.5,0.5,0.8
				c1,1.4,2.2,3.2,3.4,4c1,0.6,1.9,0.8,2.8,0.8c0.4,0,0.8,0,1.2-0.1c0.1,0,0.2,0,0.2,0c0,0.1,0,0.3,0,0.4c0,0.7,0,1.5,0.1,2.3
				c-0.7-0.3-1.4-0.5-2.1-0.8c-0.4-0.1-0.7-0.2-1-0.4c-0.1,0-0.2,0-0.3,0.1c-0.1,0.1-0.1,0.2,0,0.3c0.1,0.2,0.2,0.5,0.4,0.8
				c0.7,1.5,1.7,3.7,2.8,4.7c1.3,1.1,2.5,1.3,3.8,1.4l0,0c0.1,0,0.3,0,0.4,0c0,0.2,0,0.3-0.1,0.5c-0.1,0.7-0.2,1.5-0.3,2.3
				c-0.7-0.4-1.3-0.8-1.9-1.1c-0.4-0.2-0.7-0.4-0.9-0.5c-0.1-0.1-0.2-0.1-0.3,0c-0.1,0.1-0.1,0.2-0.1,0.3c0.1,0.3,0.1,0.5,0.2,0.8
				l0,0c0.4,1.6,1,3.9,2,5c1.1,1.3,2.2,1.6,3.5,2l0,0c0.1,0,0.3,0.1,0.5,0.1c-0.1,0.2-0.1,0.5-0.2,0.7c-0.2,0.7-0.4,1.4-0.6,2.2
				c-0.6-0.5-1.2-1-1.8-1.4l0,0c-0.3-0.2-0.6-0.4-0.8-0.6c-0.1-0.1-0.2-0.1-0.3,0c-0.1,0.1-0.2,0.2-0.1,0.3c0,0.3,0.1,0.5,0.1,0.8
				l0,0c0.2,1.7,0.5,4,1.2,5.3c0.9,1.5,2,1.9,3.2,2.5c0.1,0.1,0.2,0.1,0.4,0.2c-0.1,0.1-0.1,0.3-0.2,0.5l0,0c-0.3,0.6-0.7,1.4-1,2.1
				c-0.5-0.6-1-1.1-1.5-1.6c-0.3-0.3-0.5-0.5-0.7-0.8c-0.1-0.1-0.2-0.1-0.3-0.1c-0.1,0-0.2,0.1-0.2,0.3c0,0.3,0,0.6,0,0.9
				c-0.1,1.7-0.2,4,0.3,5.4c0.6,1.6,1.6,2.2,2.8,3c0.2,0.1,0.3,0.2,0.5,0.3c-0.1,0.2-0.2,0.4-0.4,0.6l0,0c-0.4,0.6-0.8,1.3-1.1,2
				c-0.4-0.6-0.9-1.2-1.4-1.8c-0.2-0.3-0.5-0.6-0.7-0.8c-0.1-0.1-0.2-0.1-0.3-0.1c-0.1,0-0.2,0.1-0.2,0.2c0,0.2-0.1,0.5-0.1,0.8
				l0,0.1c-0.2,1.7-0.5,4-0.1,5.4c0.5,1.6,1.4,2.4,2.5,3.2c0.1,0.1,0.2,0.2,0.4,0.3c-0.1,0.1-0.2,0.3-0.3,0.4
				c-0.5,0.5-1,1.1-1.5,1.8c-0.3-0.7-0.7-1.4-1.1-2c-0.2-0.3-0.4-0.6-0.5-0.9c-0.1-0.1-0.2-0.2-0.3-0.2c0,0,0,0,0,0
				c-0.1,0-0.2,0.1-0.2,0.2c-0.1,0.2-0.2,0.5-0.3,0.8c-0.5,1.6-1.2,3.8-1,5.3c0.2,1.7,1,2.6,1.9,3.6c0.1,0.1,0.2,0.2,0.3,0.4
				c-0.1,0.1-0.3,0.2-0.4,0.3l0,0c-0.5,0.5-1.1,1-1.7,1.5c-0.2-0.7-0.5-1.5-0.8-2.1c-0.1-0.4-0.3-0.7-0.4-1c0-0.1-0.1-0.2-0.3-0.2
				c-0.1,0-0.2,0.1-0.3,0.2c-0.1,0.2-0.2,0.5-0.3,0.7l0,0.1c-0.7,1.5-1.7,3.6-1.8,5.1c-0.1,1.7,0.6,2.7,1.4,3.8
				c0.1,0.2,0.2,0.3,0.3,0.5c-0.2,0.1-0.4,0.2-0.6,0.3c-0.6,0.4-1.3,0.7-2,1.1c-0.1-0.8-0.2-1.5-0.3-2.2c-0.1-0.4-0.1-0.7-0.2-1
				c0-0.1-0.1-0.2-0.2-0.2c-0.1,0-0.2,0-0.3,0.1c-0.2,0.2-0.4,0.5-0.5,0.7c-1,1.3-2.5,3.2-2.8,4.6c-0.4,1.7,0,2.7,0.6,4
				c0.1,0.2,0.2,0.4,0.2,0.6c-0.2,0.1-0.5,0.1-0.8,0.2l0,0c-0.7,0.2-1.5,0.4-2.2,0.7c0.1-0.8,0.2-1.5,0.2-2.2c0-0.4,0.1-0.7,0.1-1
				c0-0.1,0-0.2-0.2-0.3c-0.1-0.1-0.2,0-0.3,0c-0.2,0.2-0.4,0.3-0.7,0.5l0,0c-1.3,1.1-3.1,2.5-3.8,3.8c-0.8,1.5-0.6,2.7-0.4,4
				c0,0.2,0.1,0.4,0.1,0.6c-0.2,0-0.5,0-0.7,0h-0.1c-0.7,0-1.5,0-2.3,0c0.3-0.7,0.6-1.4,0.8-2.1c0.1-0.4,0.3-0.7,0.4-1
				c0-0.1,0-0.2-0.1-0.3c-0.1-0.1-0.2-0.1-0.3-0.1c-0.2,0.1-0.5,0.2-0.8,0.3l0,0c-1.6,0.7-3.7,1.6-4.7,2.7c-1.2,1.2-1.3,2.4-1.5,3.8
				c0,0.2-0.1,0.5-0.1,0.8c0,0.1,0,0.1,0,0.2c0,0.1,0.1,0.1,0.1,0.2c0.2,0.1,0.4,0.3,0.6,0.4l0,0c1,0.7,1.9,1.4,3.2,1.5
				c0.2,0,0.3,0,0.5,0c1.5,0,3.6-0.9,5.2-1.6c0.3-0.1,0.6-0.2,0.8-0.3c0.1,0,0.2-0.2,0.2-0.3c0-0.1-0.1-0.2-0.2-0.3
				c-0.3-0.1-0.6-0.2-0.9-0.4l-0.1,0c-0.6-0.3-1.3-0.6-2-0.8c0.5-0.5,1.1-1.1,1.5-1.5c0.3-0.3,0.5-0.5,0.7-0.7
				c0.2,0.1,0.4,0.1,0.6,0.2c0.9,0.3,1.7,0.7,2.7,0.7c0.3,0,0.6,0,0.9-0.1c0.2,0,0.3-0.1,0.5-0.1c1.4-0.4,3.2-1.9,4.6-2.9l0,0
				c0.2-0.2,0.5-0.4,0.7-0.5c0.1-0.1,0.1-0.2,0.1-0.3c0-0.1-0.1-0.2-0.2-0.2c-0.3,0-0.7-0.1-1-0.1c-0.7-0.1-1.4-0.2-2.2-0.2
				c0.4-0.6,0.7-1.3,1.1-1.9l0-0.1c0.2-0.3,0.3-0.6,0.5-0.9c0,0,0,0,0-0.1c0.2,0,0.4,0,0.6,0.1l0,0c0.6,0.1,1.1,0.1,1.6,0.1
				c0.6,0,1.3-0.1,2-0.4c0.1-0.1,0.3-0.1,0.5-0.2c1.3-0.7,2.7-2.6,3.7-3.9c0.2-0.3,0.4-0.5,0.5-0.7c0.1-0.1,0.1-0.2,0-0.3
				c-0.1-0.1-0.2-0.2-0.3-0.1c-0.3,0-0.7,0.1-1,0.1c-0.7,0.1-1.4,0.2-2.2,0.3c0.2-0.7,0.4-1.4,0.6-2.1l0,0c0.1-0.3,0.2-0.6,0.2-0.9
				c0.2,0,0.4,0,0.6,0c1.2-0.1,2.3-0.2,3.4-1c0.1-0.1,0.3-0.2,0.4-0.3c1.1-1,2.1-3.1,2.9-4.6c0.1-0.3,0.3-0.6,0.4-0.8
				c0.1-0.1,0-0.2,0-0.3c-0.1-0.1-0.2-0.1-0.3-0.1c-0.3,0.1-0.6,0.2-1,0.3c-0.6,0.2-1.4,0.4-2,0.7c0.1-0.7,0.1-1.5,0.1-2.2l0-0.1
				c0-0.2,0-0.5,0-0.7c0.2,0,0.3-0.1,0.5-0.1l0,0c1.2-0.3,2.3-0.5,3.3-1.5c0.1-0.1,0.2-0.2,0.3-0.4c1-1.1,1.6-3.3,2.1-5
				c0.1-0.3,0.2-0.6,0.3-0.8c0-0.1,0-0.2-0.1-0.3c-0.1-0.1-0.2-0.1-0.3,0c-0.3,0.1-0.6,0.3-0.9,0.5c-0.6,0.3-1.3,0.6-1.9,1
				c0-0.7-0.1-1.5-0.2-2.2c0-0.2-0.1-0.5-0.1-0.7c0.2-0.1,0.3-0.1,0.5-0.2c1.1-0.5,2.1-0.9,3-2c0.1-0.1,0.2-0.3,0.3-0.4
				c0.8-1.3,1.1-3.6,1.3-5.3l0-0.1c0-0.3,0.1-0.6,0.1-0.8c0-0.1,0-0.2-0.1-0.3c-0.1-0.1-0.2-0.1-0.3,0c-0.3,0.2-0.5,0.4-0.8,0.6
				c-0.5,0.4-1.1,0.8-1.7,1.3c-0.2-0.7-0.4-1.4-0.6-2.1l0,0c-0.1-0.3-0.2-0.6-0.2-0.8c0.2-0.1,0.3-0.2,0.5-0.2l0,0
				c1.1-0.6,2.1-1.1,2.8-2.2c0.1-0.1,0.2-0.3,0.2-0.4c0.6-1.3,0.8-3.6,0.8-5.3l0,0c0-0.3,0-0.6,0-0.8
				C205.2,119.2,205.2,119.1,205.1,119.1z M195.2,153.8c-0.7,1.4-1.6,1.8-2.8,2.5c-0.1,0-0.2,0.1-0.3,0.1c0-0.1,0-0.2-0.1-0.3
				c-0.3-1.3-0.5-2.4,0.2-3.7c0.2-0.5,0.6-1,1.1-1.5c0.2,0.6,0.3,1.2,0.3,1.7c0,0.1,0.1,0.2,0.2,0.3c0.1,0,0.2,0,0.3,0
				c0.4-0.3,1-0.6,1.6-0.9C195.6,152.7,195.4,153.3,195.2,153.8z M191.7,152.1c-0.6,1.3-0.6,2.4-0.3,3.5c-0.6-0.9-1-1.7-1-3.1
				c0.1-1.4,1-3.4,1.8-4.9l0.1-0.2c0,0.1,0.1,0.2,0.1,0.3c0.3,0.7,0.6,1.6,0.8,2.4C192.6,150.9,192,151.5,191.7,152.1z M194.2,155.9
				c0.7-0.5,1.2-1.1,1.6-1.9c0.3-0.6,0.5-1.5,0.6-2.4c0.8-0.3,1.6-0.6,2.3-0.8l0,0c0.1,0,0.2-0.1,0.3-0.1l-0.1,0.2
				c-0.7,1.5-1.7,3.5-2.7,4.4c-1,0.8-1.8,1-2.9,1.1C193.6,156.3,193.9,156.1,194.2,155.9z M194.2,152.1c-0.1-0.5-0.2-1.1-0.4-1.7
				c0.6-0.6,1.3-1.2,1.9-1.7c0.1-0.1,0.1-0.1,0.2-0.2c0,0.1,0,0.1,0,0.2l0,0.2c0,0.7-0.1,1.6-0.2,2.4
				C195.2,151.5,194.6,151.8,194.2,152.1z M199,144.4c-0.4,1.4-1.3,2.1-2.4,2.8l-0.1,0.1c-0.1,0-0.1,0.1-0.2,0.1
				c0-0.1-0.1-0.2-0.1-0.2l0-0.1c-0.5-1.3-0.8-2.3-0.4-3.7c0.2-0.5,0.5-1.1,0.9-1.7c0.3,0.6,0.4,1.2,0.5,1.7c0,0.1,0.1,0.2,0.2,0.2
				c0.1,0,0.2,0,0.3-0.1c0.4-0.4,0.9-0.8,1.4-1.1C199.2,143.2,199.2,143.9,199,144.4z M195.4,143.3c-0.4,1.4-0.2,2.4,0.2,3.5
				c-0.7-0.8-1.3-1.6-1.4-2.9c-0.1-1.3,0.5-3.5,1-5.1l0.1-0.2c0.1,0.1,0.1,0.2,0.2,0.3c0.4,0.7,0.8,1.5,1.2,2.2
				C196,141.9,195.6,142.6,195.4,143.3z M198.3,146.7c0.6-0.6,1-1.2,1.3-2.1c0.2-0.7,0.3-1.5,0.2-2.5c0.7-0.4,1.5-0.8,2.1-1.1l0,0
				c0.1-0.1,0.2-0.1,0.3-0.2l-0.1,0.2c-0.5,1.6-1.2,3.7-2,4.8c-0.8,1-1.7,1.3-2.7,1.5C197.8,147.1,198.1,146.9,198.3,146.7z
				 M197.8,142.8c-0.1-0.5-0.3-1.1-0.6-1.6c0.5-0.7,1.1-1.4,1.6-2l0.2-0.2c0,0.1,0,0.2,0,0.3l0,0.1c0.1,0.7,0.2,1.6,0.2,2.4
				C198.7,142.1,198.2,142.5,197.8,142.8z M201.3,134.5c-0.2,1.5-0.9,2.2-1.9,3.2c-0.1,0.1-0.1,0.1-0.2,0.2
				c-0.1-0.1-0.1-0.2-0.2-0.3c-0.7-1.2-1.2-2.1-1-3.6c0.1-0.5,0.3-1.2,0.6-1.8c0.3,0.5,0.6,1.1,0.8,1.6c0,0.1,0.1,0.2,0.2,0.2
				c0.1,0,0.2,0,0.3-0.1c0.3-0.4,0.7-0.9,1.2-1.3C201.3,133.3,201.4,134,201.3,134.5z M197.5,134c-0.2,1.4,0.2,2.4,0.8,3.4
				c-0.9-0.7-1.5-1.3-1.9-2.6c-0.4-1.3-0.1-3.5,0.1-5.2l0-0.2c0.1,0.1,0.1,0.2,0.2,0.3c0.5,0.6,1,1.3,1.5,2
				C197.9,132.5,197.6,133.3,197.5,134z M201,136.9c0.5-0.7,0.8-1.4,0.9-2.3c0.1-0.7,0-1.6-0.2-2.5c0.6-0.5,1.3-1,1.9-1.4l0,0
				c0.1-0.1,0.2-0.1,0.3-0.2l0,0.2c-0.2,1.6-0.5,3.9-1.2,5c-0.7,1.1-1.4,1.5-2.4,1.9C200.6,137.4,200.8,137.1,201,136.9z
				 M199.8,133.2c-0.2-0.5-0.5-1-0.9-1.5c0.4-0.8,0.9-1.6,1.3-2.2l0.1-0.2c0,0.1,0,0.2,0.1,0.2l0,0.1c0.2,0.7,0.4,1.5,0.6,2.4
				C200.6,132.3,200.2,132.7,199.8,133.2z M197.1,102.9c0.5,0.4,1,0.7,1.3,1.1c0.1,0.1,0.2,0.1,0.3,0.1c0.1,0,0.2-0.1,0.2-0.2
				c0.1-0.5,0.3-1.1,0.6-1.7c0.4,0.6,0.7,1.2,0.8,1.7c0.4,1.5,0,2.4-0.5,3.7l0,0.1c0,0.1-0.1,0.2-0.1,0.2c-0.1,0-0.1-0.1-0.2-0.1
				l-0.1,0c-1.1-0.8-1.9-1.5-2.3-2.9C197.1,104.2,197.1,103.6,197.1,102.9z M201,106.2c0.2-0.8,0.2-1.6,0-2.4
				c-0.2-0.7-0.6-1.4-1.1-2.2c0.4-0.7,0.8-1.4,1.2-2.1l0-0.1c0.1-0.1,0.1-0.2,0.2-0.3l0.1,0.2c0.4,1.6,1,3.8,0.8,5.1
				c-0.2,1.2-0.7,2-1.5,2.7C200.8,106.9,200.9,106.5,201,106.2z M198.5,103.2c-0.4-0.4-0.9-0.7-1.4-1c0.1-0.9,0.2-1.8,0.3-2.5l0-0.3
				l0.2,0.3c0.5,0.6,1,1.3,1.5,2C198.9,102.2,198.6,102.7,198.5,103.2z M196.7,104.9c0.4,1.4,1.1,2.2,2,2.9
				c-1.1-0.3-1.9-0.6-2.8-1.7c-0.8-1.1-1.4-3.2-1.9-4.8l-0.1-0.2c0.1,0.1,0.2,0.1,0.3,0.2c0.7,0.4,1.5,0.8,2.2,1.3
				C196.5,103.4,196.5,104.2,196.7,104.9z M200.9,119.2c0,0,0-0.1,0.1-0.1l0.1,0.3c0.3,0.7,0.6,1.5,0.8,2.3
				c-0.4,0.4-0.8,0.9-1.1,1.3c-0.3-0.5-0.6-0.9-1-1.4c0.3-0.8,0.7-1.6,1.1-2.3L200.9,119.2z M200.7,123.9c0.1,0,0.2-0.1,0.3-0.1
				c0.3-0.5,0.6-0.9,1.1-1.4c0.2,0.7,0.3,1.4,0.3,1.9c-0.1,1.5-0.7,2.3-1.6,3.3l-0.1,0.1c0,0.1-0.1,0.1-0.1,0.2
				c0-0.1-0.1-0.1-0.1-0.2l0,0c-0.8-1.1-1.4-2-1.3-3.5c0-0.5,0.2-1.2,0.4-1.8c0.4,0.5,0.7,1,0.9,1.5
				C200.5,123.9,200.6,123.9,200.7,123.9z M198.5,124.1c-0.1,1.5,0.4,2.4,1,3.3c-0.9-0.6-1.6-1.2-2.1-2.4c-0.5-1.3-0.4-3.5-0.3-5.2
				l0-0.2c0.1,0.1,0.2,0.2,0.3,0.3c0.5,0.6,1.1,1.2,1.7,1.8C198.7,122.6,198.5,123.4,198.5,124.1z M202.2,126.6
				c0.4-0.7,0.7-1.5,0.7-2.3c0-0.7-0.1-1.6-0.4-2.4c0.6-0.6,1.2-1.1,1.8-1.6l0,0c0.1-0.1,0.2-0.2,0.3-0.2l0,0.2
				c-0.1,1.6-0.2,3.9-0.8,5.1c-0.6,1.1-1.3,1.6-2.2,2.1C201.8,127.2,202,126.9,202.2,126.6z M200.2,113.9c0.1,0.1,0.2,0.1,0.3,0.1
				c0.1,0,0.2-0.1,0.2-0.2c0.2-0.5,0.5-1,0.9-1.6c0.3,0.7,0.5,1.3,0.6,1.9c0.2,1.5-0.3,2.4-1,3.6l0,0c0,0.1-0.1,0.2-0.1,0.2
				c-0.1-0.1-0.1-0.1-0.2-0.2l0,0c-0.9-1-1.7-1.7-1.9-3.2c-0.1-0.5,0-1.2,0.1-1.9C199.5,113.1,199.9,113.5,200.2,113.9z
				 M202.4,116.5c0.3-0.8,0.4-1.5,0.3-2.4c-0.1-0.7-0.4-1.5-0.8-2.3c0.5-0.7,1-1.3,1.5-1.9l0.1-0.1c0.1-0.1,0.1-0.1,0.2-0.2l0,0.2
				c0.2,1.6,0.5,3.9,0.1,5.2c-0.4,1.2-1,1.8-1.8,2.5C202.2,117.1,202.3,116.8,202.4,116.5z M200.4,113.2c-0.3-0.4-0.7-0.8-1.2-1.2
				c0.2-0.9,0.4-1.7,0.7-2.5l0-0.1c0-0.1,0-0.1,0.1-0.2l0.2,0.3c0.4,0.6,0.8,1.4,1.2,2.1C200.9,112.2,200.6,112.7,200.4,113.2z
				 M198.3,114.6c0.2,1.4,0.8,2.3,1.6,3.1c-1-0.4-1.8-0.9-2.5-2c-0.7-1.2-1-3.4-1.2-5.1l0-0.2c0.1,0.1,0.2,0.1,0.3,0.2
				c0.6,0.5,1.3,1,2,1.5C198.3,113.1,198.2,113.9,198.3,114.6z M195.5,94.8c0.1,0,0.2-0.1,0.2-0.3c0-0.5,0.1-1.1,0.3-1.8
				c0.5,0.5,0.9,1.1,1.1,1.6c0.6,1.4,0.4,2.4,0.1,3.7c0,0.1,0,0.2-0.1,0.3c-0.1,0-0.2-0.1-0.3-0.1c-1.2-0.6-2.1-1.1-2.8-2.5
				c-0.2-0.5-0.4-1.1-0.5-1.8c0.6,0.3,1.1,0.6,1.5,0.9C195.3,94.8,195.4,94.8,195.5,94.8z M198.1,96.5c0.1-0.8-0.1-1.6-0.4-2.4
				c-0.3-0.6-0.8-1.3-1.5-2c0.3-0.8,0.6-1.5,0.9-2.2l0-0.1c0-0.1,0.1-0.2,0.1-0.3l0.1,0.2c0.7,1.5,1.6,3.6,1.7,4.9
				c0,1.3-0.4,2.1-1,2.9C198,97.1,198.1,96.8,198.1,96.5z M195.1,94c-0.4-0.3-1-0.6-1.5-0.8c-0.1-0.9-0.1-1.8-0.1-2.5l0-0.1
				c0-0.1,0-0.1,0-0.2c0,0,0.1,0.1,0.2,0.1l0.1,0.1c0.5,0.5,1.2,1.1,1.8,1.7C195.4,92.8,195.2,93.4,195.1,94z M193.6,95.9
				c0.6,1.3,1.5,1.9,2.5,2.5c-1.1-0.1-2-0.3-3-1.2c-1-0.9-1.9-3-2.6-4.5l-0.1-0.2c0.1,0,0.2,0.1,0.3,0.1c0.7,0.3,1.6,0.5,2.4,0.9
				C193.2,94.4,193.3,95.3,193.6,95.9z M192.8,89.3c-1.1-0.6-2-1.1-2.7-2.5c-0.1-0.3-0.2-0.6-0.3-0.9c0.3,0.1,0.6,0.3,0.9,0.4
				C192,87.1,192.4,88.1,192.8,89.3z M193.3,88.8c-0.4-1.1-0.9-2.1-2.2-3c-0.4-0.2-0.8-0.4-1.3-0.6c-0.2-1.1-0.2-2.4-0.2-3.4l0-0.3
				c0.1,0.1,0.2,0.2,0.3,0.2c1.2,1.1,2.7,2.5,3.3,3.7C193.6,86.7,193.5,87.7,193.3,88.8z M189.6,87c0.6,1.4,1.6,2,2.7,2.6
				c-1.2,0.1-2.1,0.1-3.3-0.7c-1.1-0.7-2.3-2.5-3.2-3.9l-0.2-0.2c0.1,0,0.2,0,0.3,0.1c1,0.2,2.2,0.4,3.2,0.7
				C189.3,86.2,189.5,86.6,189.6,87z M189.6,162.7c-0.9,1.2-1.9,1.5-3.2,1.8c-0.1,0-0.2,0.1-0.3,0.1c0-0.1,0-0.2,0-0.3
				c0-1.3,0-2.4,0.9-3.6c0.3-0.4,0.8-0.9,1.4-1.3c0,0.6,0,1.2-0.1,1.7c0,0.1,0,0.2,0.1,0.3c0.1,0.1,0.2,0.1,0.3,0
				c0.5-0.2,1.1-0.4,1.7-0.5C190.2,161.6,189.9,162.2,189.6,162.7z M186.5,160.3c-0.9,1.2-1,2.2-1.1,3.3c-0.4-1-0.7-1.9-0.3-3.2
				c0.3-1.3,1.7-3.1,2.7-4.4l0.1-0.2c0,0.1,0,0.2,0.1,0.4c0.1,0.8,0.3,1.6,0.3,2.5C187.6,159.2,187,159.8,186.5,160.3z M188.1,164.5
				c0.8-0.3,1.4-0.8,1.9-1.5c0.4-0.6,0.8-1.4,1.1-2.2c0.8-0.1,1.6-0.2,2.4-0.3l0,0c0.1,0,0.2,0,0.4,0l-0.1,0.2
				c-1,1.3-2.4,3.1-3.6,3.8c-1.1,0.6-2,0.6-3,0.5C187.5,164.8,187.8,164.7,188.1,164.5z M189,160.7c0.1-0.5,0-1.1,0-1.7
				c0.7-0.5,1.5-0.9,2.2-1.3l0.2-0.1c0,0.1-0.1,0.2-0.1,0.3c-0.2,0.7-0.4,1.6-0.7,2.3C190.1,160.4,189.5,160.5,189,160.7z
				 M182,170.2c-1.2,1-2.2,1-3.6,1c-0.1,0-0.2,0-0.3,0c0-0.1,0.1-0.2,0.1-0.3c0.3-1.3,0.6-2.3,1.8-3.3c0.4-0.3,1-0.6,1.7-0.9
				c-0.1,0.6-0.3,1.2-0.5,1.7c0,0.1,0,0.2,0,0.3c0.1,0.1,0.2,0.1,0.3,0.1c0.5-0.1,1.1-0.1,1.8-0.1
				C182.9,169.3,182.4,169.8,182,170.2z M179.6,167.2c-1.1,0.9-1.5,1.9-1.8,3c-0.2-1.1-0.2-2,0.4-3.2c0.6-1.2,2.4-2.6,3.7-3.7
				l0.2-0.1c0,0.1,0,0.2,0,0.4c-0.1,0.8-0.1,1.7-0.3,2.5C180.9,166.4,180.1,166.7,179.6,167.2z M180.2,171.6c0.8-0.1,1.5-0.5,2.2-1
				c0.6-0.4,1.1-1.1,1.6-1.9c0.8,0.1,1.6,0.2,2.4,0.3l0.1,0c0.1,0,0.2,0,0.2,0l-0.2,0.1c-1.3,1-3.1,2.5-4.4,2.8
				c-1.2,0.3-2.1,0.1-3.1-0.2C179.5,171.7,179.8,171.7,180.2,171.6z M181.9,168.2c0.2-0.5,0.3-1.1,0.4-1.7c0.8-0.3,1.7-0.5,2.5-0.7
				l0.3-0.1c-0.1,0.1-0.1,0.2-0.2,0.3c-0.3,0.7-0.8,1.4-1.2,2.1C183,168.1,182.4,168.1,181.9,168.2z M172.8,175.5
				c-1.4,0.6-2.4,0.4-3.7,0l-0.1,0c-0.1,0-0.2,0-0.3-0.1c0-0.1,0.1-0.2,0.1-0.2l0,0c0.7-1.2,1.2-2.1,2.6-2.7
				c0.5-0.2,1.1-0.3,1.8-0.4c-0.3,0.6-0.6,1.1-0.9,1.5c-0.1,0.1-0.1,0.2,0,0.3c0,0.1,0.1,0.2,0.3,0.2c0.5,0,1.1,0.2,1.8,0.4
				C173.9,174.9,173.3,175.3,172.8,175.5z M171.3,171.9c-1.3,0.6-2,1.4-2.6,2.4c0.1-1.1,0.4-2,1.3-3c0.9-1,3-1.9,4.5-2.5l0.2-0.1
				c0,0.1-0.1,0.2-0.1,0.3c-0.3,0.7-0.6,1.6-0.9,2.3C172.8,171.5,171.9,171.7,171.3,171.9z M170.6,176.4c0.2,0,0.3,0,0.5,0
				c0.7,0,1.3-0.1,1.9-0.4c0.7-0.3,1.3-0.8,2-1.4c0.8,0.3,1.5,0.6,2.2,0.9l0,0c0.1,0,0.2,0.1,0.3,0.1l-0.2,0.1
				c-1.5,0.7-3.6,1.5-5,1.6c-1.3,0-2-0.4-2.9-1C169.9,176.3,170.3,176.4,170.6,176.4z M173.2,173.5c0.3-0.4,0.6-0.9,0.8-1.5
				c0.9-0.1,1.8-0.1,2.6-0.1l0.3,0c-0.1,0.1-0.1,0.1-0.2,0.2l-0.1,0.1c-0.5,0.5-1.1,1.2-1.7,1.7
				C174.3,173.7,173.7,173.6,173.2,173.5z"/>
			<path class="st0" d="M181.1,78.3c0.7,1.5,1.6,3.4,2.7,4.3c1.2,1.1,2.4,1.1,3.7,1.2l0,0c0.2,0,0.4,0,0.6,0c0,0,0,0,0,0
				c0,0,0,0,0,0l0,0c0.1,0,0.1,0,0.2-0.1c0.1-0.1,0.1-0.2,0.1-0.2c-0.1-0.2-0.1-0.4-0.1-0.6c-0.3-1.3-0.5-2.4-1.7-3.4
				c-1-0.9-3-1.5-4.5-2c-0.3-0.1-0.6-0.2-0.9-0.3c-0.1,0-0.2,0-0.3,0.1c-0.1,0.1-0.1,0.2,0,0.3C180.8,77.7,180.9,78,181.1,78.3z
				 M181.5,77.8l0.3,0.1c1.4,0.5,3.4,1.1,4.3,1.9c1.1,0.9,1.3,1.9,1.6,3.1l0,0c0,0.1,0,0.2,0.1,0.3c-0.1,0-0.2,0-0.2,0l-0.1,0
				c-1.3-0.1-2.3-0.2-3.3-1.1c-1-0.8-1.9-2.7-2.5-4.1C181.5,77.9,181.5,77.9,181.5,77.8z"/>
			<path class="st0" d="M148.6,171c-1-1.1-3.2-2-4.7-2.7l0,0c-0.3-0.1-0.5-0.2-0.8-0.3c-0.1,0-0.2,0-0.3,0.1
				c-0.1,0.1-0.1,0.2-0.1,0.3c0.1,0.3,0.2,0.6,0.4,0.9l0,0c0.2,0.6,0.5,1.4,0.8,2.1c-0.8,0-1.6,0-2.3,0h-0.1c-0.3,0-0.5,0-0.7,0
				c0-0.2,0.1-0.4,0.1-0.6l0,0c0.2-1.4,0.4-2.5-0.4-4c-0.7-1.3-2.5-2.8-3.8-3.8l0,0c-0.2-0.2-0.5-0.4-0.6-0.5
				c-0.1-0.1-0.2-0.1-0.3,0c-0.1,0.1-0.2,0.2-0.2,0.3c0,0.3,0.1,0.7,0.1,1c0.1,0.7,0.1,1.5,0.2,2.2c-0.7-0.2-1.5-0.5-2.2-0.7l0,0
				c-0.3-0.1-0.6-0.2-0.8-0.2c0.1-0.2,0.2-0.4,0.2-0.6c0.5-1.3,1-2.4,0.6-4c-0.4-1.4-1.8-3.3-2.8-4.6c-0.2-0.2-0.4-0.5-0.5-0.7
				c-0.1-0.1-0.2-0.1-0.3-0.1c-0.1,0-0.2,0.1-0.2,0.2c0,0.3-0.1,0.7-0.2,1c-0.1,0.7-0.2,1.5-0.3,2.2c-0.7-0.4-1.4-0.8-2-1.1
				c-0.2-0.1-0.4-0.2-0.6-0.3c0.1-0.2,0.2-0.3,0.3-0.5c0.8-1.1,1.4-2.1,1.4-3.8c-0.1-1.5-1.1-3.6-1.8-5.1l0,0
				c-0.1-0.3-0.3-0.5-0.4-0.8c0-0.1-0.2-0.2-0.3-0.2c-0.1,0-0.2,0.1-0.3,0.2c-0.1,0.3-0.2,0.6-0.4,1l0,0c-0.2,0.6-0.5,1.4-0.8,2.1
				c-0.6-0.5-1.2-1.1-1.7-1.5l0,0c-0.1-0.1-0.3-0.2-0.4-0.4c0.1-0.1,0.2-0.2,0.3-0.4c0.9-1,1.7-1.9,1.9-3.6c0.2-1.5-0.5-3.7-1-5.3
				c-0.1-0.3-0.2-0.6-0.3-0.8c0-0.1-0.1-0.2-0.3-0.2c-0.1,0-0.2,0-0.3,0.2c-0.1,0.3-0.3,0.6-0.5,0.9c-0.3,0.6-0.7,1.3-1.1,2
				c-0.5-0.6-1-1.2-1.5-1.8l0,0c-0.1-0.1-0.2-0.3-0.3-0.4c0.1-0.1,0.2-0.2,0.4-0.3l0,0c1.1-0.8,2-1.6,2.5-3.2
				c0.4-1.4,0.1-3.7-0.1-5.4c0-0.3-0.1-0.6-0.1-0.9c0-0.1-0.1-0.2-0.2-0.2c-0.1,0-0.2,0-0.3,0.1c-0.2,0.2-0.4,0.5-0.7,0.8
				c-0.4,0.5-0.9,1.1-1.4,1.8c-0.4-0.7-0.8-1.4-1.1-2l0,0c-0.1-0.2-0.3-0.4-0.4-0.6c0.2-0.1,0.3-0.2,0.5-0.3c1.2-0.7,2.2-1.4,2.8-3
				c0.5-1.4,0.4-3.7,0.3-5.4l0,0c0-0.3,0-0.6,0-0.9c0-0.1-0.1-0.2-0.2-0.3c-0.1,0-0.2,0-0.3,0.1c-0.2,0.2-0.4,0.5-0.7,0.8
				c-0.5,0.5-1,1.1-1.5,1.6c-0.3-0.7-0.7-1.4-1-2.1c-0.1-0.2-0.2-0.3-0.2-0.5c0.1-0.1,0.2-0.1,0.4-0.2l0,0c1.3-0.5,2.4-1,3.2-2.5
				c0.7-1.3,1-3.6,1.2-5.3l0,0c0-0.3,0.1-0.6,0.1-0.9c0-0.1,0-0.2-0.1-0.3c-0.1-0.1-0.2,0-0.3,0c-0.3,0.2-0.6,0.4-0.8,0.6
				c-0.6,0.4-1.2,0.9-1.8,1.4c-0.2-0.8-0.4-1.5-0.6-2.2l0,0c-0.1-0.3-0.1-0.5-0.2-0.7c0.2,0,0.3-0.1,0.5-0.1l0,0
				c1.3-0.4,2.5-0.7,3.5-2c0.9-1.2,1.5-3.4,2-5l0,0c0.1-0.3,0.2-0.6,0.2-0.8c0-0.1,0-0.2-0.1-0.3c-0.1-0.1-0.2-0.1-0.3,0
				c-0.3,0.2-0.6,0.3-0.9,0.5c-0.6,0.3-1.3,0.7-1.9,1.1c-0.1-0.8-0.2-1.6-0.3-2.3l0,0c0-0.2-0.1-0.3-0.1-0.5c0.1,0,0.3,0,0.4,0l0,0
				c1.4-0.1,2.6-0.3,3.8-1.4c1.1-1,2.1-3.1,2.8-4.7c0.1-0.3,0.3-0.6,0.4-0.8c0.1-0.1,0-0.2,0-0.3c-0.1-0.1-0.2-0.1-0.3-0.1
				c-0.3,0.1-0.6,0.2-1,0.4c-0.7,0.2-1.4,0.5-2.1,0.8c0.1-0.8,0.1-1.6,0.1-2.3l0,0c0-0.1,0-0.3,0-0.4c0.1,0,0.2,0,0.2,0
				c0.4,0,0.8,0.1,1.2,0.1c0.9,0,1.8-0.2,2.8-0.8c1.2-0.8,2.4-2.6,3.4-4l0,0c0.2-0.3,0.4-0.5,0.5-0.8c0.1-0.1,0.1-0.2,0-0.3
				c-0.1-0.1-0.2-0.1-0.3-0.1c-0.3,0.1-0.7,0.1-1,0.2c-1,0.2-2.1,0.4-3.1,0.6c0.1-1,0.2-2.2,0.2-3.2l0,0c0-0.3,0-0.6,0-0.9
				c0-0.1-0.1-0.2-0.2-0.3c-0.1,0-0.2,0-0.3,0.1c-0.2,0.2-0.5,0.4-0.7,0.7c-1.3,1.2-2.8,2.6-3.4,3.9c-0.7,1.5-0.4,2.7-0.1,4
				c0,0.1,0.1,0.2,0.1,0.4c-0.2,0.1-0.3,0.3-0.5,0.5l0,0c-0.5,0.5-1.1,1-1.6,1.5c-0.2-0.7-0.5-1.4-0.8-2l0,0c-0.1-0.3-0.3-0.7-0.4-1
				c0-0.1-0.1-0.2-0.3-0.2c0,0,0,0,0,0c-0.1,0-0.2,0.1-0.3,0.2c-0.1,0.2-0.2,0.5-0.4,0.8c-0.7,1.5-1.7,3.7-1.7,5.1
				c0,0.2,0,0.3,0,0.5c0.1,1.4,0.7,2.3,1.4,3.3c0.1,0.2,0.2,0.3,0.3,0.5c-0.1,0.2-0.3,0.3-0.4,0.5l0,0c-0.4,0.5-0.9,1.1-1.3,1.7
				c-0.4-0.6-0.7-1.3-1.1-1.9l0,0c-0.2-0.3-0.4-0.6-0.5-0.9c-0.1-0.1-0.2-0.2-0.3-0.1c-0.1,0-0.2,0.1-0.2,0.2
				c-0.1,0.3-0.1,0.6-0.2,0.9c-0.4,1.6-1,3.9-0.8,5.3c0,0.2,0.1,0.3,0.1,0.5c0.3,1.4,1.1,2.1,2,3c0.1,0.1,0.3,0.3,0.5,0.5
				c-0.1,0.2-0.3,0.5-0.4,0.7l0,0c-0.3,0.6-0.7,1.2-1.1,1.9c-0.4-0.6-0.9-1.2-1.4-1.7l0,0c-0.2-0.3-0.5-0.6-0.6-0.8
				c-0.1-0.1-0.2-0.1-0.3-0.1c-0.1,0-0.2,0.1-0.2,0.2c0,0.3-0.1,0.6-0.1,0.9l0,0c-0.2,1.7-0.5,4-0.1,5.4c0,0.2,0.1,0.3,0.2,0.5
				c0.5,1.3,1.4,1.9,2.4,2.7c0.1,0.1,0.3,0.2,0.5,0.3c-0.1,0.2-0.1,0.4-0.2,0.6l0,0c-0.2,0.6-0.5,1.3-0.7,2c-0.5-0.5-1.1-1-1.6-1.4
				l0,0c-0.3-0.2-0.5-0.5-0.8-0.7c-0.1-0.1-0.2-0.1-0.3,0c-0.1,0.1-0.2,0.2-0.2,0.3c0,0.3,0,0.6,0,0.9l0,0c0.1,1.7,0.2,4,0.8,5.3
				c0.1,0.2,0.2,0.3,0.2,0.4c0.7,1.2,1.7,1.7,2.8,2.2l0,0c0.2,0.1,0.3,0.2,0.5,0.3c-0.1,0.3-0.1,0.5-0.2,0.8l0,0
				c-0.2,0.7-0.4,1.4-0.6,2.1c-0.6-0.5-1.2-0.9-1.7-1.3l0,0c-0.3-0.2-0.6-0.4-0.8-0.6c-0.1-0.1-0.2-0.1-0.3,0
				c-0.1,0.1-0.2,0.2-0.1,0.3c0,0.3,0.1,0.5,0.1,0.8l0,0c0.2,1.7,0.5,4,1.3,5.3c0.1,0.1,0.2,0.3,0.3,0.4c0.8,1.1,1.8,1.5,3,2
				c0.1,0.1,0.3,0.1,0.5,0.2c0,0.2,0,0.5-0.1,0.7c-0.1,0.7-0.1,1.4-0.2,2.2c-0.6-0.4-1.3-0.7-1.9-1c-0.3-0.2-0.7-0.3-0.9-0.5
				c-0.1-0.1-0.2,0-0.3,0c-0.1,0.1-0.1,0.2-0.1,0.3c0.1,0.3,0.2,0.5,0.3,0.8c0.5,1.6,1.2,3.8,2.1,5c0.1,0.1,0.2,0.3,0.3,0.4
				c1,1,2,1.2,3.3,1.5l0,0c0.2,0,0.3,0.1,0.5,0.1c0,0.2,0,0.5,0,0.7l0,0c0,0.7,0.1,1.4,0.1,2.2c-0.7-0.3-1.4-0.5-2.1-0.7l0,0
				c-0.4-0.1-0.7-0.2-1-0.3c-0.1,0-0.2,0-0.3,0.1c-0.1,0.1-0.1,0.2,0,0.3c0.1,0.2,0.2,0.5,0.4,0.8c0.7,1.5,1.7,3.6,2.9,4.6
				c0.1,0.1,0.3,0.2,0.4,0.3c1.1,0.8,2.2,0.9,3.4,1c0.2,0,0.4,0,0.6,0c0.1,0.3,0.2,0.6,0.2,0.9c0.2,0.7,0.4,1.4,0.6,2.1
				c-0.7-0.1-1.5-0.2-2.2-0.3c-0.4,0-0.7-0.1-1-0.1c-0.1,0-0.2,0-0.3,0.1c-0.1,0.1,0,0.2,0,0.3c0.2,0.2,0.3,0.4,0.5,0.7
				c1,1.3,2.5,3.2,3.7,3.9c0.1,0.1,0.3,0.2,0.4,0.2c0.7,0.3,1.3,0.4,2,0.4c0.5,0,1.1-0.1,1.6-0.1l0,0c0.2,0,0.4-0.1,0.6-0.1
				c0,0,0,0,0,0.1c0.1,0.3,0.3,0.6,0.5,0.9l0,0c0.3,0.6,0.7,1.3,1.1,1.9c-0.7,0.1-1.5,0.2-2.2,0.2c-0.4,0-0.7,0.1-1,0.1
				c-0.1,0-0.2,0.1-0.2,0.2c0,0.1,0,0.2,0.1,0.3c0.2,0.2,0.4,0.3,0.6,0.5l0.1,0c1.3,1.1,3.1,2.5,4.6,2.9c0.2,0,0.3,0.1,0.5,0.1h0
				c0.3,0.1,0.6,0.1,0.9,0.1c1,0,1.8-0.3,2.7-0.7c0.2-0.1,0.4-0.1,0.6-0.2c0.2,0.2,0.5,0.5,0.7,0.7l0,0c0.5,0.5,1,1,1.5,1.5
				c-0.7,0.3-1.4,0.6-2,0.8l-0.1,0c-0.3,0.1-0.6,0.3-0.9,0.4c-0.1,0-0.2,0.1-0.2,0.3c0,0.1,0.1,0.2,0.2,0.3c0.2,0.1,0.5,0.2,0.8,0.3
				c1.6,0.7,3.7,1.6,5.2,1.6c0.2,0,0.3,0,0.5,0c1.4-0.1,2.3-0.8,3.2-1.5l0,0c0.2-0.1,0.4-0.3,0.6-0.4c0.1,0,0.1-0.1,0.1-0.2
				c0-0.1,0-0.1,0-0.2c0-0.3-0.1-0.5-0.1-0.8C149.9,173.4,149.8,172.2,148.6,171z M145.5,174c0.1,0,0.2-0.1,0.3-0.2
				c0-0.1,0-0.2,0-0.3c-0.3-0.4-0.6-0.9-0.9-1.5c0.7,0.1,1.4,0.2,1.8,0.4c1.4,0.6,1.9,1.5,2.6,2.7c0,0.1,0.1,0.2,0.2,0.3
				c-0.1,0-0.2,0-0.3,0.1l0,0c-1.3,0.3-2.3,0.6-3.7,0c-0.5-0.2-1.1-0.6-1.6-1.1C144.4,174.2,145,174,145.5,174z M146.9,171.9
				c-0.6-0.3-1.5-0.4-2.4-0.5c-0.3-0.8-0.7-1.6-0.9-2.3c0-0.1-0.1-0.2-0.1-0.3l0.2,0.1c1.5,0.7,3.6,1.6,4.5,2.5c0.9,1,1.1,1.9,1.3,3
				C148.9,173.4,148.2,172.5,146.9,171.9z M145,173.5c-0.5,0.1-1.1,0.2-1.7,0.4c-0.6-0.6-1.2-1.2-1.7-1.7l-0.1-0.1
				c-0.1-0.1-0.1-0.1-0.2-0.2l0.3,0c0.8,0,1.7,0,2.6,0.1C144.4,172.5,144.7,173.1,145,173.5z M145.2,176c0.6,0.3,1.3,0.4,1.9,0.4
				c0.2,0,0.3,0,0.5,0c0.3,0,0.7-0.1,1-0.2c-0.8,0.6-1.6,1-2.9,1c-1.4,0-3.4-0.9-5-1.6l-0.2-0.1c0.1,0,0.2-0.1,0.3-0.1l0,0
				c0.7-0.3,1.5-0.6,2.2-0.9C143.8,175.2,144.5,175.7,145.2,176z M136.7,168.8c0.1,0,0.2,0,0.3-0.1c0.1-0.1,0.1-0.2,0-0.3
				c-0.2-0.5-0.4-1-0.5-1.7c0.7,0.3,1.3,0.6,1.7,0.9c1.2,1,1.4,2,1.8,3.3c0,0.1,0,0.2,0.1,0.3c-0.1,0-0.2,0-0.3,0
				c-1.3,0-2.4-0.1-3.6-1c-0.4-0.3-0.9-0.9-1.3-1.5C135.6,168.7,136.2,168.7,136.7,168.8z M140.4,170.2c-0.3-1.1-0.7-2.1-1.8-3
				c-0.5-0.4-1.3-0.8-2.1-1.1c-0.1-0.8-0.2-1.7-0.3-2.5l0-0.1c0-0.1,0-0.2,0-0.3l0.2,0.1c1.3,1,3,2.5,3.7,3.7
				C140.6,168.2,140.6,169.1,140.4,170.2z M136.3,168.2c-0.5-0.1-1.1-0.1-1.8,0c-0.4-0.7-0.8-1.5-1.2-2.1l0-0.1
				c0-0.1-0.1-0.2-0.1-0.2l0.3,0.1c0.7,0.2,1.6,0.5,2.5,0.7C136,167.1,136.1,167.7,136.3,168.2z M135.8,170.6c0.7,0.5,1.4,0.9,2.2,1
				c0.3,0.1,0.7,0.1,1,0.1c-1,0.4-1.9,0.6-3.1,0.2c-1.3-0.4-3.1-1.8-4.4-2.8l-0.1-0.1c0.1,0,0.2,0,0.3,0l0.1,0
				c0.8-0.1,1.6-0.2,2.4-0.3C134.7,169.5,135.3,170.2,135.8,170.6z M129.8,161.4c0.1-0.1,0.1-0.2,0.1-0.3c-0.1-0.5-0.1-1.1-0.1-1.7
				c0.6,0.4,1.1,0.8,1.4,1.3c0.9,1.2,0.9,2.3,0.9,3.6c0,0.1,0,0.2,0,0.3c-0.1,0-0.2-0.1-0.3-0.1c-1.3-0.4-2.3-0.6-3.2-1.8
				c-0.3-0.4-0.6-1.1-0.9-1.7c0.7,0.1,1.2,0.3,1.7,0.5C129.5,161.5,129.7,161.5,129.8,161.4z M131.6,160.3c-0.4-0.6-1.1-1.1-1.8-1.6
				c0.1-0.8,0.2-1.7,0.3-2.5c0-0.1,0-0.2,0.1-0.4l0.1,0.2c1,1.3,2.4,3.1,2.7,4.4c0.3,1.3,0.1,2.2-0.3,3.2
				C132.7,162.5,132.5,161.5,131.6,160.3z M129.2,160.7c-0.5-0.2-1.1-0.3-1.7-0.4c-0.3-0.8-0.5-1.6-0.7-2.3l0-0.1
				c0-0.1,0-0.2-0.1-0.3l0.3,0.1c0.7,0.4,1.5,0.8,2.2,1.3C129.2,159.6,129.2,160.2,129.2,160.7z M128.1,163c0.5,0.7,1.1,1.2,1.9,1.5
				c0.3,0.1,0.6,0.2,1,0.3c-1,0.1-1.9,0.1-3-0.5c-1.2-0.7-2.6-2.5-3.6-3.8l-0.1-0.2c0.1,0,0.2,0,0.4,0l0,0c0.8,0.1,1.6,0.2,2.4,0.3
				C127.4,161.7,127.7,162.5,128.1,163z M122.7,94.8c0.1,0,0.2,0,0.3,0c0.4-0.3,0.9-0.6,1.5-0.9c-0.1,0.7-0.2,1.3-0.5,1.8
				c-0.6,1.4-1.6,1.9-2.8,2.5c-0.1,0-0.2,0.1-0.3,0.1c0-0.1,0-0.2-0.1-0.3l0,0c-0.3-1.3-0.5-2.3,0.1-3.7c0.2-0.5,0.6-1,1.1-1.6
				c0.2,0.6,0.3,1.2,0.3,1.8C122.5,94.6,122.6,94.7,122.7,94.8z M124.6,95.9c0.3-0.6,0.5-1.5,0.5-2.3c0.8-0.3,1.6-0.6,2.4-0.9
				c0.1,0,0.2-0.1,0.3-0.1l-0.1,0.2c-0.7,1.5-1.6,3.5-2.6,4.5c-1,0.9-1.9,1.1-3,1.2C123.1,97.8,123.9,97.2,124.6,95.9z M123,94
				c-0.1-0.5-0.2-1.1-0.4-1.7c0.6-0.6,1.2-1.2,1.8-1.7l0.1-0.1c0.1-0.1,0.1-0.1,0.2-0.2l0,0.3c0,0.8,0,1.7-0.1,2.5
				C124,93.4,123.5,93.7,123,94z M120.5,94.1c-0.4,0.8-0.5,1.5-0.4,2.4c0,0.3,0.1,0.7,0.1,1c-0.6-0.9-1-1.7-1-2.9
				c0-1.4,1-3.4,1.7-4.9l0.1-0.2c0,0.1,0.1,0.2,0.1,0.3l0,0c0.3,0.7,0.6,1.5,0.9,2.2C121.3,92.7,120.8,93.4,120.5,94.1z M128,86.8
				c-0.6,1.4-1.5,1.9-2.7,2.5c0.5-1.2,0.8-2.2,2.1-3c0.2-0.2,0.6-0.3,0.9-0.4C128.2,86.2,128.1,86.5,128,86.8z M128.5,87
				c0.2-0.4,0.3-0.9,0.4-1.4c1-0.3,2.3-0.5,3.2-0.7c0.1,0,0.2,0,0.3-0.1l-0.2,0.2c-0.9,1.3-2.1,3.1-3.2,3.9
				c-1.2,0.7-2.1,0.7-3.3,0.7C127,89.1,127.9,88.5,128.5,87z M127.1,85.8c-1.3,0.8-1.7,1.8-2.2,3c-0.2-1.1-0.4-2.1,0.2-3.3
				c0.5-1.2,2.1-2.7,3.3-3.7c0.1-0.1,0.2-0.2,0.3-0.2l0,0.3c0,1,0,2.3-0.2,3.4C127.9,85.4,127.5,85.6,127.1,85.8z M119.5,104.1
				c0.1,0,0.2,0,0.3-0.1c0.3-0.4,0.8-0.8,1.3-1.1c0,0.7,0,1.4-0.1,1.9c-0.4,1.5-1.2,2.1-2.3,2.9l-0.1,0c-0.1,0-0.1,0.1-0.2,0.1
				c0-0.1-0.1-0.2-0.1-0.3c-0.5-1.2-0.9-2.2-0.5-3.7c0.1-0.5,0.5-1.1,0.8-1.8c0.3,0.6,0.5,1.2,0.6,1.7
				C119.3,104,119.4,104.1,119.5,104.1z M121.5,104.9c0.2-0.7,0.2-1.5,0.1-2.4c0.7-0.5,1.5-0.9,2.2-1.3c0.1-0.1,0.2-0.1,0.3-0.2
				l-0.1,0.2c-0.4,1.6-1,3.8-1.9,4.8c-0.8,1-1.7,1.4-2.8,1.7C120.4,107.1,121.1,106.3,121.5,104.9z M119.7,103.2
				c-0.2-0.5-0.4-1.1-0.7-1.6c0.5-0.7,1-1.4,1.5-2c0.1-0.1,0.1-0.2,0.2-0.3l0,0.3c0.1,0.8,0.2,1.7,0.3,2.5
				C120.6,102.5,120.1,102.9,119.7,103.2z M117.2,103.8c-0.2,0.8-0.2,1.6,0,2.4c0.1,0.3,0.2,0.7,0.3,1c-0.7-0.7-1.3-1.5-1.5-2.7
				c-0.2-1.3,0.4-3.5,0.8-5.1l0.1-0.2c0.1,0.1,0.1,0.2,0.2,0.3l0,0c0.4,0.6,0.8,1.4,1.2,2.1C117.8,102.3,117.4,103.1,117.2,103.8z
				 M117.2,119.3c0-0.1,0.1-0.2,0.1-0.2l0.1,0.3c0.3,0.7,0.7,1.5,1.1,2.3c-0.4,0.5-0.7,0.9-1,1.4c-0.3-0.4-0.7-0.9-1.1-1.3
				c0.2-0.8,0.5-1.6,0.8-2.3L117.2,119.3z M117.5,123.9C117.5,123.9,117.5,123.9,117.5,123.9c0.1,0,0.2-0.1,0.3-0.2
				c0.2-0.5,0.5-1,0.9-1.5c0.2,0.7,0.4,1.3,0.4,1.8c0.1,1.5-0.5,2.4-1.3,3.5c-0.1,0.1-0.1,0.2-0.2,0.2c-0.1-0.1-0.1-0.1-0.2-0.2l0,0
				c-0.9-1-1.5-1.8-1.6-3.3c0-0.5,0.1-1.2,0.3-1.9c0.5,0.5,0.8,1,1.1,1.4C117.3,123.9,117.4,123.9,117.5,123.9z M119.7,124.1
				c0-0.7-0.3-1.5-0.6-2.3c0.5-0.6,1.1-1.3,1.7-1.9c0.1-0.1,0.2-0.2,0.3-0.3l0,0.2c0.1,1.6,0.2,3.9-0.3,5.2
				c-0.5,1.2-1.2,1.8-2.1,2.4C119.3,126.5,119.8,125.5,119.7,124.1z M115.3,124.3c0,0.9,0.3,1.6,0.7,2.3c0.2,0.3,0.4,0.6,0.6,0.8
				c-0.9-0.5-1.7-1-2.2-2.1c-0.6-1.2-0.7-3.5-0.8-5.1l0-0.2l0.3,0.2c0.6,0.5,1.2,1,1.8,1.6C115.4,122.8,115.2,123.6,115.3,124.3z
				 M117.7,114.1c0.1,0,0.2,0,0.3-0.1c0.3-0.4,0.7-0.9,1.2-1.3c0.1,0.7,0.2,1.4,0.1,1.9c-0.2,1.5-0.9,2.3-1.9,3.2
				c-0.1,0.1-0.1,0.1-0.2,0.2c-0.1-0.1-0.1-0.2-0.2-0.3c-0.7-1.1-1.2-2.1-1-3.6c0.1-0.5,0.3-1.2,0.6-1.9c0.4,0.6,0.7,1.1,0.9,1.6
				C117.5,114,117.6,114.1,117.7,114.1z M119.9,114.6c0.1-0.7,0-1.5-0.2-2.4c0.6-0.5,1.3-1.1,2-1.5c0.1-0.1,0.2-0.1,0.3-0.2l0,0.2
				c-0.2,1.6-0.5,3.9-1.2,5.1c-0.7,1.1-1.5,1.6-2.5,2C119,116.9,119.7,116,119.9,114.6z M117.8,113.2c-0.2-0.5-0.6-1-0.9-1.5
				c0.4-0.7,0.8-1.5,1.2-2.1l0.2-0.3c0,0.1,0,0.2,0.1,0.2l0,0c0.2,0.7,0.5,1.6,0.7,2.5C118.6,112.4,118.2,112.8,117.8,113.2z
				 M115.4,114.1c-0.1,0.9,0,1.6,0.3,2.4c0.1,0.3,0.3,0.6,0.5,0.9c-0.8-0.6-1.5-1.3-1.8-2.5c-0.4-1.3-0.1-3.5,0.1-5.2l0-0.2
				c0.1,0.1,0.2,0.2,0.2,0.3l0,0c0.5,0.6,1,1.2,1.5,1.9C115.8,112.6,115.5,113.4,115.4,114.1z M118.2,133.9c0.1,0.1,0.2,0.1,0.3,0.1
				c0.1,0,0.2-0.1,0.2-0.2c0.2-0.5,0.5-1,0.8-1.6c0.3,0.6,0.5,1.3,0.6,1.8c0.2,1.5-0.3,2.4-1,3.6c0,0.1-0.1,0.2-0.2,0.3
				c-0.1-0.1-0.1-0.1-0.2-0.2l0,0c-0.9-0.9-1.7-1.7-1.9-3.2c-0.1-0.5,0-1.2,0.1-1.9C117.5,133,117.9,133.5,118.2,133.9z M120.7,134
				c-0.1-0.7-0.4-1.5-0.8-2.3c0.5-0.7,1-1.4,1.5-2c0.1-0.1,0.2-0.2,0.2-0.3l0,0.2c0.2,1.6,0.5,3.9,0.1,5.2c-0.4,1.3-1,1.9-1.9,2.6
				C120.5,136.4,120.9,135.4,120.7,134z M118.4,133.2c-0.3-0.4-0.8-0.8-1.3-1.2c0.2-0.8,0.4-1.7,0.6-2.4l0-0.1c0-0.1,0-0.2,0.1-0.2
				l0.1,0.2c0.4,0.7,0.9,1.4,1.3,2.2C118.9,132.2,118.6,132.7,118.4,133.2z M116.3,134.6c0.1,0.9,0.4,1.6,0.9,2.3
				c0.2,0.3,0.4,0.5,0.7,0.8c-1-0.4-1.7-0.9-2.4-1.9c-0.7-1.2-1-3.4-1.2-5l0-0.2c0.1,0.1,0.2,0.1,0.3,0.2l0,0
				c0.6,0.4,1.3,0.9,1.9,1.4C116.3,133,116.2,133.9,116.3,134.6z M119.2,139c0,0.1,0.1,0.1,0.1,0.2l0,0c0.5,0.6,1.1,1.3,1.6,2
				c-0.2,0.5-0.5,1.1-0.6,1.6c-0.4-0.4-0.9-0.7-1.4-1c0-0.8,0.1-1.7,0.2-2.4L119.2,139z M118.9,142.5c0.6,0.4,1.1,0.7,1.4,1.1
				c0.1,0.1,0.2,0.1,0.3,0.1c0.1,0,0.2-0.1,0.2-0.2c0.1-0.5,0.3-1.1,0.5-1.7c0.4,0.6,0.7,1.2,0.9,1.7c0.4,1.5,0.1,2.5-0.4,3.7l0,0.1
				c0,0.1-0.1,0.2-0.1,0.2c-0.1,0-0.1-0.1-0.2-0.1l-0.1-0.1c-1.1-0.8-1.9-1.4-2.4-2.8C119,143.9,118.9,143.2,118.9,142.5z
				 M122.8,143.3c-0.2-0.7-0.6-1.4-1.2-2.1c0.4-0.8,0.8-1.5,1.2-2.2c0.1-0.1,0.1-0.2,0.2-0.3l0.1,0.2c0.5,1.6,1.2,3.7,1,5.1
				c-0.1,1.3-0.7,2.1-1.4,2.9C123,145.7,123.3,144.7,122.8,143.3z M118.6,144.6c0.3,0.8,0.7,1.5,1.3,2.1c0.2,0.2,0.5,0.5,0.8,0.7
				c-1-0.2-1.9-0.6-2.7-1.5c-0.9-1-1.5-3.2-2-4.8l-0.1-0.2c0.1,0.1,0.2,0.1,0.3,0.2l0,0c0.7,0.3,1.4,0.7,2.1,1.1
				C118.3,143,118.4,143.9,118.6,144.6z M124.4,152.9c0.1,0,0.2-0.1,0.2-0.3c0-0.5,0.1-1.1,0.3-1.7c0.5,0.5,0.9,1,1.1,1.5
				c0.7,1.4,0.4,2.4,0.2,3.7l0,0.1c0,0.1,0,0.1,0,0.2c-0.1-0.1-0.2-0.1-0.3-0.1c-1.2-0.6-2.1-1.1-2.8-2.5c-0.2-0.5-0.4-1.2-0.5-1.9
				c0.6,0.3,1.2,0.6,1.6,0.9C124.2,152.9,124.3,152.9,124.4,152.9z M126.5,152.1c-0.3-0.6-0.8-1.3-1.5-1.9c0.2-0.8,0.6-1.6,0.8-2.4
				c0-0.1,0.1-0.2,0.1-0.3l0.1,0.2c0.7,1.5,1.7,3.5,1.8,4.9c0,1.3-0.4,2.1-1,3.1C127,154.5,127.1,153.5,126.5,152.1z M124,152.1
				c-0.5-0.3-1-0.5-1.6-0.8c-0.1-0.8-0.1-1.7-0.2-2.4l0-0.1c0-0.1,0-0.2,0-0.3c0.1,0.1,0.1,0.1,0.2,0.2c0.6,0.5,1.3,1.1,1.9,1.7
				C124.2,151,124.1,151.5,124,152.1z M122.5,154.1c0.4,0.8,0.9,1.4,1.6,1.9c0.3,0.2,0.6,0.4,0.9,0.5c-1-0.1-1.9-0.3-2.9-1.1
				c-1-0.9-2-2.9-2.7-4.4l-0.1-0.2c0.1,0,0.2,0.1,0.3,0.1l0,0c0.7,0.2,1.5,0.5,2.3,0.8C122,152.6,122.2,153.4,122.5,154.1z
				 M122.8,148.3C122.8,148.3,122.8,148.3,122.8,148.3L122.8,148.3L122.8,148.3z"/>
			<path class="st0" d="M130.1,83.8C130.1,83.8,130.1,83.8,130.1,83.8C130.1,83.8,130.2,83.8,130.1,83.8c0.3,0,0.5,0,0.7,0
				c1.3-0.1,2.4-0.1,3.7-1.1c1.1-0.9,2-2.7,2.8-4.2l0,0c0.1-0.3,0.3-0.5,0.4-0.8c0.1-0.1,0-0.2,0-0.3c-0.1-0.1-0.2-0.1-0.3-0.1
				c-0.3,0.1-0.6,0.2-0.9,0.3c-1.6,0.5-3.5,1-4.6,1.9c-1.2,1-1.5,2.1-1.8,3.4l0,0c-0.1,0.2-0.1,0.4-0.2,0.6c0,0.1,0,0.2,0.1,0.2
				C130,83.7,130,83.8,130.1,83.8z M130.5,83.2c0-0.1,0-0.2,0.1-0.3c0.3-1.2,0.5-2.2,1.6-3.1c1-0.8,2.9-1.4,4.4-1.8l0.3-0.1
				l-0.1,0.2c-0.7,1.4-1.7,3.2-2.6,4c-1.1,0.9-2.1,1-3.4,1l0,0C130.7,83.2,130.6,83.2,130.5,83.2z"/>
		</g>
		<path class="st0" d="M172.1,138l-0.5,0.4c0.5,0.5,0.4,1,0.1,1.3c-0.4,0.4-1.2,0.5-2-0.2c-0.1-0.1-0.5-0.4-1-0.9
			c-1.5-1.4-2.2-2-2.6-2.3c0,0-0.1-0.1-0.1-0.1l0,0c-0.3-0.2-0.3-0.1-0.4,0l-0.2,0.2l0.2,0.2c0.1,0.1,0.8,0.8,1.9,1.8
			c0.6,0.5,1.1,1.1,1.2,1.1c0.6,0.6,0.6,1.2,0.3,1.6c-0.3,0.3-1,0.5-2-0.1c-0.3-0.2-0.6-0.4-0.9-0.6l-0.2-0.1l0,0
			c-0.3-0.2-1-0.9-1.6-1.4c-1-0.9-1.4-1.3-1.7-1.5c0,0,0,0,0,0l0,0c-0.2-0.1-0.3-0.1-0.4-0.1c-0.2,0.1-0.2,0.4-0.1,0.5h0
			c0,0,0,0,2.2,2l1.2,1.1c0.6,0.6,0.6,1.2,0.3,1.6c-0.3,0.3-1,0.5-2-0.1c-0.2-0.1-0.4-0.1-1.5-1c-1.7-1.4-1.7-1.4-1.8-1.4h0
			c-0.3,0-0.5,0.3-0.3,0.5c0.1,0.1-0.7-0.6,0.9,0.9c0.6,0.6,0.7,0.7,0.8,0.8c0.5,0.6,0.4,1.1,0.1,1.4c-0.3,0.3-0.9,0.5-1.8-0.1
			c-0.2-0.1-0.5-0.3-0.8-0.6c0,0-0.1-0.1-0.1-0.1c0,0,0,0,0,0c0.3-0.4,0.5-0.8,0.5-1.2c0-0.3-0.2-0.8-0.8-1.1
			c-0.6-0.3-1.1-0.2-1.5,0c0-0.1,0-0.2,0-0.3c0-0.4-0.3-0.8-1-1.1c-0.4-0.2-0.9-0.2-1.2-0.1c0,0,0,0,0,0c0-0.1,0-0.2,0-0.2
			c-0.1-0.4-0.3-0.9-1.1-1.3c-0.8-0.3-1.5-0.1-2.1,0.2c0-0.3-0.1-0.7-0.3-1c-0.4-0.7-0.9-0.8-1.3-0.8c-0.9,0-1.8,1-2.6,2.7
			c-0.3,0.6-0.4,1-0.3,1.4c0.1,0.5,0.3,0.9,0.6,1.1c0.4,0.2,0.9,0.3,1.4,0.1c0,0.5,0.2,0.9,0.4,1.2c0.3,0.3,0.8,0.5,1.4,0.5
			c0.3,0,0.7-0.1,1-0.3v0c0,0.4,0.2,0.7,0.4,0.9c0.3,0.3,0.7,0.5,1.2,0.4c0.4,0,0.8-0.2,1.2-0.5c0,0,0,0,0,0c0,0.2,0.1,0.4,0.3,0.6
			c0.2,0.3,0.6,0.5,1,0.5c0.4,0,0.8-0.1,1.2-0.4c0.1-0.1,0.2-0.1,0.3-0.2v15.3c0,0,0,0,0,0c0,0.6,0.5,1.1,1.1,1.1
			c0.6,0,1.1-0.5,1.1-1.1v-15.2c0.5,0.3,0.9,0.4,1.3,0.4c0.5,0,1-0.2,1.2-0.5c0.3-0.4,0.5-0.9,0.3-1.5c0,0,0.6,0.4,0.6,0.4
			c1.3,0.8,2.3,0.5,2.8-0.1c0.3-0.4,0.4-0.9,0.3-1.5c0,0,0,0,0,0c1.4,0.9,2.4,0.5,2.9,0c0.2-0.3,0.4-0.7,0.3-1.2
			c1,0.6,1.9,0.4,2.4-0.2C172.7,139.6,172.9,138.8,172.1,138z M159.2,143.3C159.2,143.3,159.2,143.2,159.2,143.3
			C159.2,143.2,159.2,143.3,159.2,143.3z M149.8,140.7c-0.5,0.5-1,0.5-1.3,0.3c-0.3-0.2-0.6-0.8-0.1-1.8c0.8-1.7,1.6-2.3,2.1-2.3
			c0.3,0,0.5,0.1,0.7,0.5c0.1,0.2,0.2,0.4,0.2,0.6c0,0.2,0,0.5-0.1,0.7c-0.4,0.4-0.8,0.9-1,1.3c-0.1,0.1-0.2,0.2-0.2,0.3
			C150,140.4,149.9,140.6,149.8,140.7z M152.7,141.9c-0.1,0.1-0.2,0.1-0.2,0.2c-0.9,0.7-1.6,0.6-2,0.3c-0.3-0.3-0.4-0.9,0.1-1.6
			c0.1-0.1,0.1-0.2,0.2-0.3c0.7-0.9,1.4-1.9,2.3-1.9c0.2,0,0.4,0,0.7,0.1c0.4,0.2,0.6,0.4,0.7,0.7c0,0.1,0,0.3-0.1,0.5
			c-0.6,0.4-1.1,1.1-1.4,1.5c-0.1,0.1-0.1,0.2-0.2,0.3C152.8,141.7,152.7,141.8,152.7,141.9z M155.4,142.8c-0.1,0.1-0.3,0.2-0.4,0.3
			c-0.8,0.6-1.5,0.5-1.7,0.2c-0.3-0.3-0.3-0.8,0.1-1.4c0.1-0.1,0.1-0.2,0.2-0.3c0.6-0.8,1.3-1.7,2.1-1.7c0.2,0,0.4,0,0.6,0.1
			c0.4,0.1,0.6,0.3,0.6,0.6c0,0.2,0,0.4-0.2,0.7c-0.3,0.3-0.6,0.6-0.8,0.8c-0.1,0.1-0.1,0.2-0.2,0.2
			C155.6,142.5,155.5,142.7,155.4,142.8z M157.5,143.9c-0.8,0.5-1.3,0.3-1.5,0.1c-0.2-0.3-0.2-0.7,0.2-1.2c0.1-0.1,0.1-0.1,0.2-0.2
			c0.6-0.7,1.2-1.3,1.9-1.3c0.2,0,0.3,0,0.5,0.1c0.3,0.2,0.5,0.3,0.5,0.6C159.3,142.3,158.8,143.1,157.5,143.9z"/>
		<path class="st0" d="M171.1,103.3c-0.1-1.3-0.5-2.5-1.1-3.6c-0.3-0.6-4-8-5.7-10c-0.7-0.8-3.6-3.8-6.7-3.2
			c-1.1,0.1-2.1,0.4-3.1,0.9c-2.2,1-4.2,2.3-6.2,3.8c-1.2,0.9-1.6,2.7-1.1,4.1c0.2,0.7,0.6,1.2,1.3,1.4c0.6,0.2,1.1,0,1.6-0.3
			c0.2-0.1,0.3-0.2,0.6-0.2c0,0.1-0.1,0.2-0.1,0.3c0,0.1-0.1,0.2-0.1,0.2c-0.6,1.1-1.3,2.2-1.9,3.3c-0.2,0.3-0.3,0.7-0.4,1.1
			c-0.2,0.8-0.2,1.7-0.2,2.6c0.1,0.6,0.1,1.3,0.3,1.9c0.2,0.6,0.6,1.1,1.2,1.2c0.1,0,0.2,0.1,0.3,0.1c2.2,0.8,4.4,1.3,6.8,1.5
			c0.5,0,1,0.1,1.5,0.1v20.3c0.7,0.2,1.5-0.4,2.2-0.1v-20.2c0.1,0,0.2,0,0.4,0c1.2-0.1,2.4-0.2,3.6-0.5c2-0.4,4-1,5.9-1.8
			c0.5-0.2,0.8-0.6,1-1.1C171.2,104.6,171.2,104,171.1,103.3z M151.3,106.5c2.2-0.9,4.5-1.5,6.8-1.7v2.8v0.3
			C155.8,107.7,153.7,107.3,151.3,106.5z M160.2,107.8v-3.2c2.8,0,5.6,0.4,8.4,1.3C165.3,107.1,162.7,107.7,160.2,107.8z M170.3,105
			c-0.2,0.5-0.4,0.6-0.8,0.4c-0.8-0.3-1.6-0.5-2.4-0.7c-1.1-0.2-2.5-0.5-3.6-0.7c-1.3-0.2-3.1-0.2-4.5-0.2c-2.3,0.1-3.4,0.3-5.6,1.1
			c-0.9,0.3-2,0.7-2.9,1.1c-0.3,0.1-0.5,0.2-0.8,0.1c-0.4,0-0.6-0.2-0.8-0.6c-0.2-0.4-0.3-0.9-0.3-1.4c-0.1-0.8-0.1-1.5,0-2.3
			c0.1-0.5,0.2-1,0.5-1.4c0.6-1,1.2-2.1,1.8-3.1c0.1-0.1,0.2-0.3,0.2-0.4c0.2-0.3,0.4-1.1,0.6-1.5c0.5-1.8,4.2-2.4,5.6-2.9
			c-0.2-0.2-5.2,0.7-6.3,2.1c-0.6,0.8-2,2.1-3,0.6c-0.3-0.8-0.2-1.6,0.1-2.4c0.2-0.4,0.4-0.8,0.8-1c1.6-1.2,3.2-2.3,4.9-3.2
			c1.1-0.5,2.2-1,3.3-1.2c2.4-0.4,5.3,0.5,8.8,6.6c0.8,1.3,1.3,2.9,1.8,3.7c0,0,0,0,0,0.1c-1.2-0.5-3.9-0.6-5.4-0.5
			c-2.3,0.2-4.4,1.4-6.7,2.1c-1.6,0.6-3.4,0.6-3.2,2c0.8-0.7,2.2-1.1,3.2-1.5c2-0.7,2.5-1,4.5-1.5c1.2-0.3,5.5-1.3,8.2,0.4
			c0.1,0,0.2,0.1,0.3,0.2c0.9,1.3,1.4,2.7,1.6,4.3C170.4,103.9,170.5,104.4,170.3,105z"/>
		<path class="st0" d="M173.6,188.1c-2-3.4-7.8-6.1-10.5-6.9c1.6-1.5,2.9-3.4,3-4.9c0,0,0,0,0-0.1c0,0,0,0,0,0c0-1-0.1-2.2-0.8-3.1
			c-0.2-0.3-0.8-0.4-1.1-0.3c-0.3,0.1-2.8,0.5-5.4,0.4c-2.9-0.1-4.7-0.4-5-0.4c-0.3-0.1-0.9,0-1.1,0.3c-0.7,0.9-0.8,2.1-0.8,3.1
			c0,0,0,0,0,0c0,0,0,0,0,0.1c0.1,1.5,1.5,3.4,3,4.9c-2.7,0.8-8.5,3.5-10.5,6.9c-0.1,0.1,0,0.2,0,0.3c0.1,0.1,0.2,0.1,0.3,0.1
			c1-0.5,2-0.6,2.8-0.2c0.9,0.3,1.6,1.1,2,2.3c0,0.1,0.1,0.2,0.3,0.2c0,0,0,0,0,0c0.1,0,0.2-0.1,0.3-0.2c1.1-3.2,4.8-6.8,6.5-7.9
			c0.1,0.4,0.5,0.7,0.9,0.7c0.4,0.1,0.8,0.1,1.3,0.1v0c0,0,0,0,0,0c0,0,0.1,0,0.1,0c0,0,0.1,0,0.1,0c0,0,0,0,0,0v0
			c0.4,0,0.8,0,1.3-0.1c0.5-0.1,0.8-0.3,0.9-0.7c1.7,1.1,5.4,4.7,6.5,7.9c0,0.1,0.1,0.2,0.3,0.2c0,0,0,0,0,0c0.1,0,0.2-0.1,0.3-0.2
			c0.4-1.2,1.1-2,2-2.3c0.8-0.3,1.8-0.3,2.8,0.2c0.1,0.1,0.2,0,0.3-0.1C173.6,188.3,173.7,188.2,173.6,188.1z M153.1,173.5
			c0.1-0.1,0.4-0.2,0.6-0.1c0.3,0.1,1.9,0.4,5.1,0.5c3.1,0.1,5.3-0.4,5.6-0.5c0.2,0,0.5,0,0.6,0.1c0.2,0.2,0.3,0.5,0.4,0.8
			c-4.2,1-8.2,1-12.6,0C152.8,174,153,173.7,153.1,173.5z M152.5,176.2c0-0.3,0-0.6,0-0.9c4.5,1.1,8.5,1.1,13,0c0,0.3,0,0.6,0,0.9
			c0,0,0,0,0,0.1C162,177.5,156.1,177.5,152.5,176.2C152.5,176.2,152.5,176.2,152.5,176.2z M161.4,180.4c0-0.1,0-0.2,0-0.3
			c0,0,0,0,0,0c0.4-0.8,0.6-1.7,0.7-2.4c0,0,0.1,0,0.1,0c0,0,0,0,0,0c0.3,0,0.6-0.1,0.8-0.2c0,0,0,0,0,0c0.1,0,0.2,0,0.2-0.1
			C162.9,178.6,162.3,179.5,161.4,180.4z M156.7,180.1c0,0.1,0,0.2,0,0.3c-0.8-0.9-1.5-1.8-1.9-2.9c0.1,0,0.2,0,0.2,0.1c0,0,0,0,0,0
			c0.3,0.1,0.6,0.1,0.8,0.2c0,0,0,0,0,0c0,0,0.1,0,0.1,0C156,178.5,156.3,179.3,156.7,180.1C156.7,180.1,156.7,180.1,156.7,180.1z
			 M145.4,187.7c2.4-3.1,7.8-5.4,10-6c0.1,0,0.1,0.1,0.2,0.1c-2.8,1.5-6.1,3.5-8.5,5.8C146.6,187.5,146,187.5,145.4,187.7z
			 M149.9,189.8c-0.4-0.7-0.8-1.2-1.4-1.6c1.5-2.1,5.2-4.7,7.4-6.1c0.1,0.1,0.2,0.2,0.3,0.2C154.6,183.5,151.3,186.7,149.9,189.8z
			 M155.7,181.1C155.7,181.1,155.6,181.1,155.7,181.1c-1.4-1.3-2.7-2.9-3.1-4.2c0.1,0,0.2,0.1,0.3,0.1l0.1,0c0.1,0,0.3,0.1,0.5,0.1
			c0.8,1.5,1.8,2.9,3,4.1c0,0.1,0,0.3,0,0.5C156.2,181.5,156,181.3,155.7,181.1z M157.2,182.5c0-0.1,0-0.1,0-0.2c0,0,0,0,0,0
			c0,0,0-0.1,0-0.1c0-0.3-0.1-0.6-0.1-0.9c0,0,0,0,0,0c0,0,0-0.1,0-0.1c0-0.3,0-0.5,0.1-0.9c0,0,0-0.1,0-0.1
			c0.1-0.3,0.4-0.4,0.5-0.4c0.2,0,0.4-0.1,0.6-0.1v3.3c-0.2,0-0.4,0-0.6-0.1C157.4,182.8,157.3,182.7,157.2,182.5z M160.9,182.1
			C160.9,182.2,160.9,182.2,160.9,182.1c0,0.1,0,0.1,0,0.1c0,0.1,0,0.1,0,0.2c0,0.2-0.2,0.4-0.5,0.4c-0.2,0-0.4,0-0.6,0.1v-3.3
			c0.2,0,0.4,0,0.6,0.1c0.1,0,0.4,0.1,0.5,0.4c0,0,0,0.1,0,0.1c0,0.3,0.1,0.6,0.1,0.9c0,0,0,0.1,0,0.1c0,0,0,0,0,0
			C160.9,181.5,160.9,181.8,160.9,182.1z M161.1,179.4c-0.2-0.2-0.4-0.3-0.6-0.3c-0.4-0.1-2.4-0.1-2.8,0c-0.3,0-0.5,0.2-0.6,0.3
			c-0.2-0.5-0.4-1.1-0.4-1.6c0.8,0.1,4.1,0.1,5,0C161.5,178.3,161.3,178.9,161.1,179.4z M161.5,181.3c1.3-1.2,2.3-2.5,3-4.1
			c0.2,0,0.3-0.1,0.5-0.1l0.1,0c0.1,0,0.2-0.1,0.3-0.1c-0.4,1.3-1.6,2.9-3,4.1c0,0-0.1,0-0.1,0c-0.3,0.2-0.5,0.4-0.9,0.6
			C161.5,181.6,161.5,181.4,161.5,181.3z M168.1,189.8c-1.3-3-4.6-6.3-6.3-7.5c0.1-0.1,0.2-0.2,0.3-0.2c2.2,1.3,5.9,4,7.4,6.1
			C169,188.5,168.5,189.1,168.1,189.8z M171,187.5c-2.4-2.3-5.7-4.2-8.5-5.8c0,0,0.1-0.1,0.1-0.1c2.2,0.6,7.6,3,10,6
			C172.1,187.5,171.5,187.5,171,187.5z"/>
	</g>
</g>
</svg>
