<?xml version="1.0" encoding="utf-8"?>
<!-- Generator: Adobe Illustrator 16.0.0, SVG Export Plug-In . SVG Version: 6.00 Build 0)  -->
<!DOCTYPE svg PUBLIC "-//W3C//DTD SVG 1.1//EN" "http://www.w3.org/Graphics/SVG/1.1/DTD/svg11.dtd">
<svg version="1.1" xmlns="http://www.w3.org/2000/svg" xmlns:xlink="http://www.w3.org/1999/xlink" x="0px" y="0px" width="1378px"
	 height="986px" viewBox="0 0 1378 986" enable-background="new 0 0 1378 986" xml:space="preserve">
<g id="Capa_1" display="none">
	<g display="inline">
		<g>
			<path fill="none" stroke="#38608F" stroke-width="3" stroke-miterlimit="10" d="M1499.625,691.191
				c-67.153,216.818-297.365,338.154-514.188,270.994c-216.823-67.145-338.15-297.364-270.996-514.18
				c34.856-112.545,113.647-199.363,211.694-247.444c90.844-44.555,198.213-55.851,302.488-23.553
				C1445.448,244.16,1566.777,474.375,1499.625,691.191z"/>
			<path fill="none" stroke="#38608F" stroke-width="3" stroke-linecap="round" stroke-linejoin="round" stroke-miterlimit="10" d="
				M942.81,192.847c-9.759,9.66-52.099,54.476-39.727,71.832c12.378,17.358,36.455,32.423,47.431,32.445
				c10.985,0.017,5.173,2.399,23.784,13.278c18.605,10.882,15.46,18.316,26.604,25.989c11.149,7.684,6.294,15.884,23.12,18.155
				c8.819,1.187,11.298-9.183,15.958,5.783c4.661,14.974,4.879,25.184-26.782,37.354c-31.665,12.172-10.842,111.092,25.096,134.567
				c24.611,16.072-33.256,104.656-42.043,135.747c-8.78,31.095-50.545,108.606,23.524,120.557
				c-29.011-42.798,10.802-32.159,2.543-60.07c10.937-5.768,19.322-15.999,18.693-27.604c14.233,8.633,17.22-1.006,17.423-8.552
				c31.018,10.454,24.916-1.993,40.843-7.638c67.426-23.893,62.667-37.371,69.806-49.526c7.154-12.157,23.208-7.884,45.945-7.606
				c38.255-21.743,102.128-73.179,82.699-97.792c-17.186-15.472-62.018-65.094-75.666-70.165
				c-13.645-5.07,26.991-9.648-56.978-77.43c-66.275-53.49-70.055-41.382-108.571-37.005c-17.714,2.01-36.078-1.246-39.28-9.633
				c-5.316-13.907,18.197-20.568,5.643-34.598c-12.557-14.035-21.071,5.358-23.548-3.018c-2.483-8.376,29.719-22.233,22.121-27.856
				c-13.75-10.177-50.342,19.986-57.247,10.164c-12.907-18.362,34.047-79.901,93.169-38.787
				c30.63,21.294,11.525-9.936,42.047-15.695c30.523-5.76,80.102-40.276,117.746-11.714c37.641,28.569,18.404-34.063-15.197-44.005"
				/>
			<path fill="#38608F" d="M990.156,776.352l3.684-11.887c0,0-14.591-5.745-7.818-23.512c6.769-17.766,13.092-16.701,13.188-36.115
				c0.097-19.413,14.146-41.684,19.465-48.913c5.318-7.229,0.612-15.872,3.979-26.241c3.36-10.369,14.726-30.518,19.596-29.852
				c4.865,0.66-0.282-16.574,9.349-17.396c9.633-0.817,9.125-24.327,23.814-5.302c5.604,0.985,4.474-14.25,14.469,5.327
				c9.999,19.581,25.931,22.827,23.216,27.477c-2.708,4.657-12.492,6.275-11.128,10.08c1.355,3.8,10.237,6.548,16.114,6.68
				c5.874,0.132,11.055-8.407,13.731-8.849c2.673-0.439,2.748,8.882-0.64,11.633c-3.393,2.752-40.726,12.749-42.279,35.514
				c-0.573,8.334,0.184,27.215-13.755,32.056c-26.864-2.496-12.795,12.043-34.838,5.009c-0.938,13.601-8.441,22.042-17.986,26.425
				c2.041,12.502-2.396,15.935-12.604,30.516c1.115,20.11,5.266,21.851,10.062,29.555
				C1007.943,788.824,990.156,776.352,990.156,776.352z"/>
			<path fill="none" stroke="#38608F" stroke-width="3" stroke-miterlimit="10" d="M920.372,935.823
				c19.707-4.591,28.247,0.592,35.263-5.688c7.016-6.282-35.333-17.562-45.826-30.109c-10.482-12.54-12.354-32.222,28.352-22.638
				c27.575,6.492-34.679-17.758-3.597-12.949c28.681,4.436,35.774,12.772,50.26,9.646c14.494-3.11,4.776-15.42,11.264-22.708
				c6.483-7.287,15.696-20.652,43.712-10.133c-9.267,6.155-30.366,9.219-28.976,19.788c1.393,10.576,18.829,15.828-19.632,30.729
				c-21.136,8.188,10.458,25.58,25.78,26.939c15.319,1.365,40.539-11.829,62.144,0.295c21.605,12.126,36.03-21.321,56.829,34.869
				c4.648,12.555,11.337,24.856,11.337,24.856"/>
			
				<line fill="#38608F" stroke="#38608F" stroke-width="3" stroke-miterlimit="10" x1="1325.456" y1="176.368" x2="1304.981" y2="209.326"/>
			
				<line fill="#38608F" stroke="#38608F" stroke-width="3" stroke-miterlimit="10" x1="876.438" y1="911.12" x2="855.751" y2="943.752"/>
			<path fill="none" stroke="#38608F" stroke-width="3" stroke-miterlimit="10" d="M1214.993,133.136
				c-9.718-2.426-16.146-11.941-16.146-22.411c0-12.344,10.004-22.351,22.347-22.351c1.544,0,3.05,0.155,4.501,0.456l0.359-0.015
				c217.303,53.338,378.492,249.423,378.492,483.188c0,274.789-222.73,497.513-497.519,497.513
				c-152.324,0-295.946-72.786-379.905-176.236c-4.039-4.985-3.893-7.612-3.893-12.731c0-11.955,12.122-22.997,24.078-22.997
				c5.533,0,9.162,1.028,13.572,4.901c70.354,90.875,207.193,161.4,346.148,161.4c249.551,0,451.85-202.297,451.85-451.85
				C1558.878,359.665,1412.409,181.534,1214.993,133.136z"/>
			<path fill="none" stroke="#38608F" stroke-width="3" stroke-linecap="round" stroke-linejoin="round" stroke-miterlimit="10" d="
				M735.533,519.268c0.665-4.87,1.427-9.739,2.291-14.608"/>
			<path fill="none" stroke="#38608F" stroke-width="3" stroke-linecap="round" stroke-linejoin="round" stroke-miterlimit="10" d="
				M734.127,608.557c-2.418-23.047-2.704-46.499-0.718-70.082"/>
			<path fill="none" stroke="#38608F" stroke-width="3" stroke-linecap="round" stroke-linejoin="round" stroke-miterlimit="10" d="
				M747.627,676.211c-4.899-16.464-8.682-33.312-11.287-50.423"/>
			<path fill="none" stroke="#38608F" stroke-width="3" stroke-linecap="round" stroke-linejoin="round" stroke-miterlimit="10" d="
				M837.129,829.817c-41.725-43.355-72.41-96.173-89.501-153.606"/>
			<path fill="none" stroke="#38608F" stroke-width="3" stroke-miterlimit="10" d="M841.931,834.718
				c-1.616-1.62-3.218-3.254-4.802-4.9"/>
			
				<line fill="none" stroke="#38608F" stroke-width="3" stroke-linecap="round" stroke-linejoin="round" stroke-miterlimit="10" x1="1047.207" y1="704.275" x2="1089.553" y2="726.843"/>
			
				<line fill="none" stroke="#38608F" stroke-width="3" stroke-linecap="round" stroke-linejoin="round" stroke-miterlimit="10" x1="1039.685" y1="718.386" x2="1103.208" y2="752.234"/>
			
				<line fill="none" stroke="#38608F" stroke-width="3" stroke-linecap="round" stroke-linejoin="round" stroke-miterlimit="10" x1="1117.32" y1="759.761" x2="1124.383" y2="763.521"/>
			
				<line fill="none" stroke="#38608F" stroke-width="3" stroke-linecap="round" stroke-linejoin="round" stroke-miterlimit="10" x1="1029.066" y1="730.116" x2="1130.977" y2="785.16"/>
			
				<line fill="none" stroke="#38608F" stroke-width="3" stroke-linecap="round" stroke-linejoin="round" stroke-miterlimit="10" x1="1024.651" y1="746.621" x2="1088.167" y2="780.463"/>
			
				<line fill="none" stroke="#38608F" stroke-width="3" stroke-linecap="round" stroke-linejoin="round" stroke-miterlimit="10" x1="1013.747" y1="758.599" x2="1031.221" y2="768.254"/>
			
				<line fill="none" stroke="#38608F" stroke-width="3" stroke-linecap="round" stroke-linejoin="round" stroke-miterlimit="10" x1="1001.1" y1="469.579" x2="917.949" y2="425.393"/>
			
				<line fill="none" stroke="#38608F" stroke-width="3" stroke-linecap="round" stroke-linejoin="round" stroke-miterlimit="10" x1="998.57" y1="449.213" x2="895.613" y2="394.615"/>
			
				<line fill="none" stroke="#38608F" stroke-width="3" stroke-linecap="round" stroke-linejoin="round" stroke-miterlimit="10" x1="874.659" y1="383.439" x2="864.172" y2="377.855"/>
			
				<line fill="none" stroke="#38608F" stroke-width="3" stroke-linecap="round" stroke-linejoin="round" stroke-miterlimit="10" x1="996.201" y1="428.517" x2="854.385" y2="352.937"/>
			
				<line fill="none" stroke="#38608F" stroke-width="3" stroke-linecap="round" stroke-linejoin="round" stroke-miterlimit="10" x1="1001.1" y1="411.506" x2="917.949" y2="367.114"/>
			
				<line fill="none" stroke="#38608F" stroke-width="3" stroke-linecap="round" stroke-linejoin="round" stroke-miterlimit="10" x1="1007.606" y1="399.024" x2="984.788" y2="386.871"/>
			
				<line fill="none" stroke="#38608F" stroke-width="3" stroke-linecap="round" stroke-linejoin="round" stroke-miterlimit="10" x1="1010.533" y1="493.366" x2="929.074" y2="449.966"/>
			
				<line fill="none" stroke="#38608F" stroke-width="3" stroke-linecap="round" stroke-linejoin="round" stroke-miterlimit="10" x1="1027.711" y1="522.723" x2="957.312" y2="485.177"/>
			
				<line fill="none" stroke="#38608F" stroke-width="3" stroke-linecap="round" stroke-linejoin="round" stroke-miterlimit="10" x1="896.445" y1="460.274" x2="891.944" y2="457.953"/>
			
				<line fill="none" stroke="#38608F" stroke-width="3" stroke-linecap="round" stroke-linejoin="round" stroke-miterlimit="10" x1="838.762" y1="409.803" x2="834.262" y2="407.481"/>
			
				<line fill="none" stroke="#38608F" stroke-width="3" stroke-linecap="round" stroke-linejoin="round" stroke-miterlimit="10" x1="1148.811" y1="813.585" x2="1144.312" y2="811.263"/>
		</g>
		<path fill="#38608F" d="M1037.179,916.003l-42.696,48.872c0,0-25.56-85.923-27.154-90.185
			c-1.595-4.261,20.354,11.496,24.313-15.336c3.697-25.065,33.285-28.909,50.495-18.463c-23.405,13.123-27.157,8.901-29.144,18.624
			c5.738,17.011,2.455,22.17-13.666,28.769c-20.93,6.533-17.091,18.586,2.835,26.211
			C1022.083,922.121,1037.179,916.003,1037.179,916.003z"/>
		<path fill="#38608F" stroke="#38608F" stroke-width="3" stroke-miterlimit="10" d="M1040.187,778.851c0,0-0.45-2.858,1.353-3.457
			c1.803-0.6,0.601-3.45,7.661-1.05c7.059,2.401,9.014,5.408,5.256,4.957c-3.757-0.45-4.204,3.457-9.763,1.352
			C1039.134,778.548,1040.187,778.851,1040.187,778.851z"/>
	</g>
</g>
<g id="Capa_2" display="none">
	<g display="inline">
		
			<polyline fill="none" stroke="#88744E" stroke-width="3" stroke-linecap="round" stroke-linejoin="round" stroke-miterlimit="10" points="
			738.112,832.225 1106.538,223.346 1341.69,591.168 		"/>
		
			<polyline fill="none" stroke="#88744E" stroke-width="3" stroke-linecap="round" stroke-linejoin="round" stroke-miterlimit="10" points="
			1186.843,877.41 1432.459,425.55 1624.671,776.314 		"/>
		<path fill="none" stroke="#88744E" stroke-width="3" stroke-linecap="round" stroke-linejoin="round" stroke-miterlimit="10" d="
			M977.584,435.899c56.684,0-53.047,89.63,17.803,89.63c77.943,0,25.775-84.921,67.828-84.921
			c57.342,0,10.266,125.204,74.028,125.204c56.684,0-53.883-161.979,9.887-161.979c56.678,0,76.316,124.704,111.743,124.704
			s-32.589-85.549-11.335-85.549"/>
		<path fill="none" stroke="#88744E" stroke-width="3" stroke-linecap="round" stroke-linejoin="round" stroke-miterlimit="10" d="
			M1332.855,607.31c40.562,5.728-11.401,40.095,28.747,52.429c40.155,12.35,30.859-88.721,47.237-93.926
			c40.043-12.766,28.121,145.629,63.768,145.66c56.682,0.094-15.064-96.256,18.004-104.163
			c33.068-7.933,50.491,64.292,74.302,59.946"/>
		<path fill="none" stroke="#88744E" stroke-width="3" stroke-linecap="round" stroke-linejoin="round" stroke-miterlimit="10" d="
			M1903.221,730.527c-125.166,0-149.175-12.126-231.841,16.613c-114.081,39.663,13.006,143.359-153.112,143.359
			c-166.104,0-724.268,0-724.268,0"/>
		<path fill="none" stroke="#88744E" stroke-width="3" stroke-linecap="round" stroke-linejoin="round" stroke-miterlimit="10" d="
			M1916.352,801.042c-125.175,0-126.65-7.278-166.005,5.81c-114.622,38.107,11.973,139.648-154.141,139.648
			c-166.109,0-690.206,0-690.206,0"/>
		
			<path fill="#FAFAFA" stroke="#88744E" stroke-width="3" stroke-linecap="round" stroke-linejoin="round" stroke-miterlimit="10" d="
			M753.589,834.739c0,30.363-24.613,54.977-54.975,54.977c-30.359,0-54.972-24.613-54.972-54.977
			c0-30.368,24.613-54.973,54.972-54.973C728.976,779.767,753.589,804.371,753.589,834.739z"/>
		
			<polygon fill="#FAFAFA" stroke="#88744E" stroke-width="3" stroke-linecap="round" stroke-linejoin="round" stroke-miterlimit="10" points="
			661.023,939.5 706.538,800.016 752.049,939.5 		"/>
		
			<line fill="#FFFFFF" stroke="#88744E" stroke-width="3" stroke-linecap="round" stroke-linejoin="round" stroke-miterlimit="10" x1="707.5" y1="941" x2="707.5" y2="1024"/>
		
			<path fill="#FAFAFA" stroke="#88744E" stroke-width="3" stroke-linecap="round" stroke-linejoin="round" stroke-miterlimit="10" d="
			M845.692,870.162c0,30.363-24.608,54.97-54.97,54.97c-30.359,0-54.979-24.606-54.979-54.97c0-30.357,24.619-54.971,54.979-54.971
			C821.084,815.191,845.692,839.805,845.692,870.162z"/>
		
			<path fill="#FAFAFA" stroke="#88744E" stroke-width="3" stroke-linecap="round" stroke-linejoin="round" stroke-miterlimit="10" d="
			M966.495,898.33c0,18.72-15.174,33.891-33.889,33.891c-18.723,0-33.899-15.171-33.899-33.891
			c0-18.719,15.177-33.896,33.899-33.896C951.321,864.435,966.495,879.611,966.495,898.33z"/>
		
			<polygon fill="#FAFAFA" stroke="#88744E" stroke-width="3" stroke-linecap="round" stroke-linejoin="round" stroke-miterlimit="10" points="
			801.725,939.5 844.193,809.33 886.668,939.5 		"/>
		
			<polygon fill="#FAFAFA" stroke="#88744E" stroke-width="3" stroke-linecap="round" stroke-linejoin="round" stroke-miterlimit="10" points="
			858.406,963.5 888.82,870.292 919.229,963.5 		"/>
		
			<line fill="#FFFFFF" stroke="#88744E" stroke-width="3" stroke-linecap="round" stroke-linejoin="round" stroke-miterlimit="10" x1="839.5" y1="939" x2="839.5" y2="1030"/>
		
			<line fill="#FFFFFF" stroke="#88744E" stroke-width="3" stroke-linecap="round" stroke-linejoin="round" stroke-miterlimit="10" x1="788.5" y1="928" x2="788.5" y2="1002"/>
		
			<line fill="#FFFFFF" stroke="#88744E" stroke-width="3" stroke-linecap="round" stroke-linejoin="round" stroke-miterlimit="10" x1="886.5" y1="966" x2="886.5" y2="1047"/>
		
			<line fill="#FFFFFF" stroke="#88744E" stroke-width="3" stroke-linecap="round" stroke-linejoin="round" stroke-miterlimit="10" x1="932.5" y1="937" x2="932.5" y2="1013"/>
		
			<polygon fill="#FAFAFA" stroke="#88744E" stroke-width="3" stroke-linecap="round" stroke-linejoin="round" stroke-miterlimit="10" points="
			631.677,939.5 662.097,846.29 692.505,939.5 		"/>
		
			<line fill="#FFFFFF" stroke="#88744E" stroke-width="3" stroke-linecap="round" stroke-linejoin="round" stroke-miterlimit="10" x1="656.5" y1="941" x2="656.5" y2="1009"/>
		
			<line fill="#FFFFFF" stroke="#88744E" stroke-width="3" stroke-linecap="round" stroke-linejoin="round" stroke-miterlimit="10" x1="695.5" y1="941" x2="695.5" y2="968"/>
		
			<path fill="#FAFAFA" stroke="#88744E" stroke-width="3" stroke-linecap="round" stroke-linejoin="round" stroke-miterlimit="10" d="
			M972.998,189.242c0,45.952-37.249,83.194-83.194,83.194c-45.956,0-83.203-37.242-83.203-83.194
			c0-45.951,37.247-83.201,83.203-83.201C935.749,106.041,972.998,143.291,972.998,189.242z"/>
		
			<line fill="none" stroke="#88744E" stroke-width="3" stroke-linecap="round" stroke-linejoin="round" stroke-miterlimit="10" x1="937.728" y1="550.86" x2="945.352" y2="537.75"/>
		
			<line fill="none" stroke="#88744E" stroke-width="3" stroke-linecap="round" stroke-linejoin="round" stroke-miterlimit="10" x1="893.098" y1="627.564" x2="929.035" y2="565.813"/>
		
			<line fill="none" stroke="#88744E" stroke-width="3" stroke-linecap="round" stroke-linejoin="round" stroke-miterlimit="10" x1="803.586" y1="783.627" x2="884.964" y2="641.483"/>
		
			<line fill="none" stroke="#88744E" stroke-width="3" stroke-linecap="round" stroke-linejoin="round" stroke-miterlimit="10" x1="1328.733" y1="678.126" x2="1332.855" y2="670.553"/>
		
			<line fill="none" stroke="#88744E" stroke-width="3" stroke-linecap="round" stroke-linejoin="round" stroke-miterlimit="10" x1="1305.531" y1="720.813" x2="1323.081" y2="688.529"/>
		<path fill="none" stroke="#88744E" stroke-width="3" stroke-linecap="round" stroke-linejoin="round" stroke-miterlimit="10" d="
			M1305.531,720.813"/>
		<path fill="none" stroke="#88744E" stroke-width="3" stroke-linecap="round" stroke-linejoin="round" stroke-miterlimit="10" d="
			M1295.835,738.664"/>
		
			<line fill="none" stroke="#88744E" stroke-width="3" stroke-linecap="round" stroke-linejoin="round" stroke-miterlimit="10" x1="1243.522" y1="834.905" x2="1295.835" y2="738.664"/>
		
			<line fill="none" stroke="#88744E" stroke-width="3" stroke-linecap="round" stroke-linejoin="round" stroke-miterlimit="10" x1="1205.644" y1="932.221" x2="1174.386" y2="932.171"/>
		
			<line fill="none" stroke="#88744E" stroke-width="3" stroke-linecap="round" stroke-linejoin="round" stroke-miterlimit="10" x1="1215.182" y1="921.807" x2="1158.78" y2="921.726"/>
		
			<line fill="none" stroke="#88744E" stroke-width="3" stroke-linecap="round" stroke-linejoin="round" stroke-miterlimit="10" x1="1144" y1="931.5" x2="1138" y2="931.5"/>
		
			<line fill="none" stroke="#88744E" stroke-width="3" stroke-linecap="round" stroke-linejoin="round" stroke-miterlimit="10" x1="1219.903" y1="911.391" x2="1132.749" y2="911.273"/>
		
			<line fill="none" stroke="#88744E" stroke-width="3" stroke-linecap="round" stroke-linejoin="round" stroke-miterlimit="10" x1="1205.689" y1="900.972" x2="1158.812" y2="900.884"/>
		
			<line fill="none" stroke="#88744E" stroke-width="3" stroke-linecap="round" stroke-linejoin="round" stroke-miterlimit="10" x1="1113.813" y1="900.357" x2="1117.113" y2="900.312"/>
	</g>
</g>
<g id="Capa_3" display="none">
	
		<path display="inline" fill="none" stroke="#ED8E25" stroke-width="3" stroke-linecap="round" stroke-linejoin="round" stroke-miterlimit="10" d="
		M1150.225,312.576c0,82.287-66.701,148.965-148.959,148.965c-82.26,0-148.953-66.678-148.953-148.965
		c0-82.245,66.693-148.952,148.953-148.952C1083.523,163.624,1150.225,230.331,1150.225,312.576z"/>
	
		<path display="inline" fill="none" stroke="#ED8E25" stroke-width="3" stroke-linecap="round" stroke-linejoin="round" stroke-miterlimit="10" d="
		M848.686,920.633c-0.34-71.477,0.477-209.113,0.477-293.561c-1.407-68.036,60.429-68.572,60.429-68.572h171.887
		c0,0,59.022-31.08,59.022,60.594V910"/>
	
		<line display="inline" fill="#FFFFFF" stroke="#ED8E25" stroke-width="3" stroke-linecap="round" stroke-linejoin="round" stroke-miterlimit="10" x1="945.5" y1="556" x2="945.5" y2="453"/>
	
		<line display="inline" fill="#FFFFFF" stroke="#ED8E25" stroke-width="3" stroke-linecap="round" stroke-linejoin="round" stroke-miterlimit="10" x1="1056.5" y1="556" x2="1056.5" y2="455"/>
	
		<line display="inline" fill="#FFFFFF" stroke="#ED8E25" stroke-width="3" stroke-linecap="round" stroke-linejoin="round" stroke-miterlimit="10" x1="848" y1="920.5" x2="1129" y2="920.5"/>
	
		<line display="inline" fill="#FFFFFF" stroke="#ED8E25" stroke-width="3" stroke-linecap="round" stroke-linejoin="round" stroke-miterlimit="10" x1="870.5" y1="712" x2="870.5" y2="683"/>
	
		<line display="inline" fill="#FFFFFF" stroke="#ED8E25" stroke-width="3" stroke-linecap="round" stroke-linejoin="round" stroke-miterlimit="10" x1="870.5" y1="872" x2="870.5" y2="751"/>
	
		<line display="inline" fill="#FFFFFF" stroke="#ED8E25" stroke-width="3" stroke-linecap="round" stroke-linejoin="round" stroke-miterlimit="10" x1="744" y1="275.5" x2="1145" y2="275.5"/>
	<g display="inline">
		
			<path fill="#FAFAFA" stroke="#ED8E25" stroke-width="3" stroke-linecap="round" stroke-linejoin="round" stroke-miterlimit="10" d="
			M1422.961,823.05c20.872-15.656,35.484-82.449,35.484-82.449c3.132-55.309-24-81.405-22.957-120.017
			c1.35-49.789,25.526-79.84,28.371-116.626C1483.396,250.996,1292.824,252.5,1279.08,252.5h-2.881
			c-13.42,0-221.639,25.923-170.504,247.172c7.778,33.628-33.523,62.254-22.955,106.9c4.52,19.074,40.379,43.383,46.794,64.469
			c4.466,14.657-27.213,90.03-21.752,105.713c0,0,0.631,34.111,23.793,48.725"/>
		<path fill="none" stroke="#ED8E25" stroke-width="3" stroke-linecap="round" stroke-linejoin="round" stroke-miterlimit="10" d="
			M1432.779,453.849c0,82.291-66.703,148.981-148.934,148.981c-82.274,0-148.952-66.69-148.952-148.981
			c0-82.23,66.678-148.935,148.952-148.935C1366.076,304.914,1432.779,371.618,1432.779,453.849z"/>
		<path fill="none" stroke="#ED8E25" stroke-width="3" stroke-linecap="round" stroke-linejoin="round" stroke-miterlimit="10" d="
			M1339.17,687.736c0,0,82.33-19.025,82.33,72.631V1068"/>
		
			<path fill="#FAFAFA" stroke="#ED8E25" stroke-width="3" stroke-linecap="round" stroke-linejoin="round" stroke-miterlimit="10" d="
			M1127.414,1068.11c-0.369-74.646,2.407-220.396,2.407-301.061c-1.408-68.026,62.351-76.55,62.351-76.55H1213"/>
		
			<polyline fill="none" stroke="#ED8E25" stroke-width="3" stroke-linecap="round" stroke-linejoin="round" stroke-miterlimit="10" points="
			1337.425,689.727 1279.984,777.127 1215.169,691.664 		"/>
		
			<line fill="#FFFFFF" stroke="#ED8E25" stroke-width="3" stroke-linecap="round" stroke-linejoin="round" stroke-miterlimit="10" x1="1215.5" y1="689" x2="1215.5" y2="591"/>
		
			<line fill="#FFFFFF" stroke="#ED8E25" stroke-width="3" stroke-linecap="round" stroke-linejoin="round" stroke-miterlimit="10" x1="1338.5" y1="688" x2="1338.5" y2="591"/>
		<path fill="none" stroke="#ED8E25" stroke-width="3" stroke-linecap="round" stroke-linejoin="round" stroke-miterlimit="10" d="
			M1209.259,324.914c7.888,74.846,141.694,62.938,221.008,131.818"/>
		
			<line fill="#FFFFFF" stroke="#ED8E25" stroke-width="3" stroke-linecap="round" stroke-linejoin="round" stroke-miterlimit="10" x1="1161.5" y1="850" x2="1161.5" y2="827"/>
		
			<line fill="#FFFFFF" stroke="#ED8E25" stroke-width="3" stroke-linecap="round" stroke-linejoin="round" stroke-miterlimit="10" x1="1161.5" y1="999" x2="1161.5" y2="884"/>
	</g>
	
		<path display="inline" fill="none" stroke="#ED8E25" stroke-width="3" stroke-linecap="round" stroke-linejoin="round" stroke-miterlimit="10" d="
		M1365.561,809.536c0,9.832-7.974,17.8-17.797,17.8c-9.828,0-17.792-7.968-17.792-17.8c0-9.833,7.964-17.797,17.792-17.797
		C1357.587,791.739,1365.561,799.703,1365.561,809.536z"/>
	
		<path display="inline" fill="#FFFFFF" stroke="#ED8E25" stroke-width="3" stroke-linecap="round" stroke-linejoin="round" stroke-miterlimit="10" d="
		M1279.984,777.127"/>
</g>
<g id="Capa_4">
	<g>
		
			<path fill="none" stroke="#C92C25" stroke-width="3" stroke-linecap="round" stroke-linejoin="round" stroke-dasharray="19.7893,19.7893" d="
			M907.728,460.744c0,76.526-62.047,138.572-138.582,138.572c-76.524,0-138.567-62.046-138.567-138.572
			c0-76.538,62.043-138.584,138.567-138.584C845.681,322.16,907.728,384.206,907.728,460.744z"/>
	</g>
	
		<path fill="#FAFAFA" stroke="#C92C25" stroke-width="3" stroke-linecap="round" stroke-linejoin="round" stroke-miterlimit="10" d="
		M723.897,276.917c0,0,4.243,169.687,38.177,159.788C796.012,426.795,723.897,276.917,723.897,276.917z"/>
	
		<path fill="#FAFAFA" stroke="#C92C25" stroke-width="3" stroke-linecap="round" stroke-linejoin="round" stroke-miterlimit="10" d="
		M798.294,466.123c-8.12,34.402,157.836,45.583,157.836,45.583S806.415,431.719,798.294,466.123"/>
	
		<path fill="#FAFAFA" stroke="#C92C25" stroke-width="3" stroke-linecap="round" stroke-linejoin="round" stroke-miterlimit="10" d="
		M742.598,476.369c22.702,27.103-120.576,111.582-120.576,111.582S719.891,449.268,742.598,476.369"/>
	<path fill="none" stroke="#C92C25" stroke-width="3" stroke-linecap="round" stroke-linejoin="round" stroke-miterlimit="10" d="
		M775.641,460.319c0,4.911-3.993,8.902-8.908,8.902c-4.91,0-8.895-3.991-8.895-8.902c0-4.921,3.985-8.891,8.895-8.891
		C771.647,451.429,775.641,455.398,775.641,460.319z"/>
	
		<line fill="#FFFFFF" stroke="#C92C25" stroke-width="3" stroke-linecap="round" stroke-linejoin="round" stroke-miterlimit="10" x1="762.5" y1="479" x2="762.5" y2="912"/>
	
		<polyline fill="#FAFAFA" stroke="#C92C25" stroke-width="3" stroke-linecap="round" stroke-linejoin="round" stroke-miterlimit="10" points="
		1436.5,690 1436.5,352.5 1317.5,352.5 1317.5,719 	"/>
	
		<rect x="1343.5" y="388.5" fill="#C92C25" stroke="#C92C25" stroke-width="3" stroke-linecap="round" stroke-linejoin="round" stroke-miterlimit="10" width="10" height="21"/>
	
		<rect x="1343.5" y="439.5" fill="#C92C25" stroke="#C92C25" stroke-width="3" stroke-linecap="round" stroke-linejoin="round" stroke-miterlimit="10" width="10" height="26"/>
	
		<rect x="1373.5" y="498.5" fill="#C92C25" stroke="#C92C25" stroke-width="3" stroke-linecap="round" stroke-linejoin="round" stroke-miterlimit="10" width="7" height="25"/>
	
		<rect x="1338.5" y="596.5" fill="#C92C25" stroke="#C92C25" stroke-width="3" stroke-linecap="round" stroke-linejoin="round" stroke-miterlimit="10" width="5" height="36"/>
	<path fill="none" stroke="#C92C25" stroke-width="3" stroke-linecap="round" stroke-linejoin="round" stroke-miterlimit="10" d="
		M708.341,925.819c-0.022,0.007,398.781-101.795,559.947-8.489c97.689,56.555,295.079,15.473,435.456-25.652"/>
	<g>
		<g>
			<path fill="none" stroke="#C92C25" stroke-width="3" stroke-linecap="round" stroke-linejoin="round" d="M691.375,985.203
				c0,0,2.016-0.515,5.82-1.438"/>
			
				<path fill="none" stroke="#C92C25" stroke-width="3" stroke-linecap="round" stroke-linejoin="round" stroke-dasharray="12.1189,12.1189" d="
				M708.985,980.974c78.807-18.265,401.389-85.853,542.34-4.254c101.013,58.477,308.637,12.569,449.592-29.861"/>
		</g>
	</g>
	
		<polyline fill="#FAFAFA" stroke="#C92C25" stroke-width="3" stroke-linecap="round" stroke-linejoin="round" stroke-miterlimit="10" points="
		987.5,710 987.5,816.509 1003.662,835.607 1021.571,816.509 1023.258,709.921 	"/>
	
		<line fill="#FFFFFF" stroke="#C92C25" stroke-width="3" stroke-linecap="round" stroke-linejoin="round" stroke-miterlimit="10" x1="1002.5" y1="876" x2="1002.5" y2="710"/>
	
		<polyline fill="none" stroke="#C92C25" stroke-width="3" stroke-linecap="round" stroke-linejoin="round" stroke-miterlimit="10" points="
		989.569,794.058 1003.791,813.141 1021.752,794.058 	"/>
	
		<polyline fill="none" stroke="#C92C25" stroke-width="3" stroke-linecap="round" stroke-linejoin="round" stroke-miterlimit="10" points="
		989.569,771.598 1003.791,790.691 1021.752,771.598 	"/>
	
		<polyline fill="none" stroke="#C92C25" stroke-width="3" stroke-linecap="round" stroke-linejoin="round" stroke-miterlimit="10" points="
		989.569,749.132 1003.791,768.225 1021.752,749.132 	"/>
	
		<polyline fill="none" stroke="#C92C25" stroke-width="3" stroke-linecap="round" stroke-linejoin="round" stroke-miterlimit="10" points="
		989.569,726.682 1003.791,745.763 1021.752,726.682 	"/>
	
		<polyline fill="#FAFAFA" stroke="#C92C25" stroke-width="3" stroke-linecap="round" stroke-linejoin="round" stroke-miterlimit="10" points="
		1042.5,710 1042.5,816.509 1060,835.607 1077.5,816.509 1077.5,710 	"/>
	
		<line fill="#FFFFFF" stroke="#C92C25" stroke-width="3" stroke-linecap="round" stroke-linejoin="round" stroke-miterlimit="10" x1="1061.5" y1="873" x2="1061.5" y2="710"/>
	
		<polyline fill="none" stroke="#C92C25" stroke-width="3" stroke-linecap="round" stroke-linejoin="round" stroke-miterlimit="10" points="
		1042.342,794.058 1062.176,813.141 1078.275,794.058 	"/>
	
		<polyline fill="none" stroke="#C92C25" stroke-width="3" stroke-linecap="round" stroke-linejoin="round" stroke-miterlimit="10" points="
		1042.342,771.598 1062.176,790.691 1078.275,771.598 	"/>
	
		<polyline fill="none" stroke="#C92C25" stroke-width="3" stroke-linecap="round" stroke-linejoin="round" stroke-miterlimit="10" points="
		1042.342,749.132 1062.176,768.225 1078.275,749.132 	"/>
	
		<polyline fill="none" stroke="#C92C25" stroke-width="3" stroke-linecap="round" stroke-linejoin="round" stroke-miterlimit="10" points="
		1042.342,726.682 1062.176,745.763 1078.275,726.682 	"/>
	
		<polyline fill="#FAFAFA" stroke="#C92C25" stroke-width="3" stroke-linecap="round" stroke-linejoin="round" stroke-miterlimit="10" points="
		840.5,710 840.5,816.509 855,835.607 869.5,816.509 869.5,710 	"/>
	
		<line fill="#FFFFFF" stroke="#C92C25" stroke-width="3" stroke-linecap="round" stroke-linejoin="round" stroke-miterlimit="10" x1="855.5" y1="892" x2="855.5" y2="710"/>
	
		<polyline fill="none" stroke="#C92C25" stroke-width="3" stroke-linecap="round" stroke-linejoin="round" stroke-miterlimit="10" points="
		838.723,794.058 852.945,813.141 870.917,794.058 	"/>
	
		<polyline fill="none" stroke="#C92C25" stroke-width="3" stroke-linecap="round" stroke-linejoin="round" stroke-miterlimit="10" points="
		838.723,771.598 852.945,790.691 870.917,771.598 	"/>
	
		<polyline fill="none" stroke="#C92C25" stroke-width="3" stroke-linecap="round" stroke-linejoin="round" stroke-miterlimit="10" points="
		838.723,749.132 852.945,768.225 870.917,749.132 	"/>
	
		<polyline fill="none" stroke="#C92C25" stroke-width="3" stroke-linecap="round" stroke-linejoin="round" stroke-miterlimit="10" points="
		838.723,726.682 852.945,745.763 870.917,726.682 	"/>
	
		<polyline fill="#FAFAFA" stroke="#C92C25" stroke-width="3" stroke-linecap="round" stroke-linejoin="round" stroke-miterlimit="10" points="
		885.5,710 885.5,816.509 904.936,835.607 922.5,816.509 922.5,710 	"/>
	
		<line fill="#FFFFFF" stroke="#C92C25" stroke-width="3" stroke-linecap="round" stroke-linejoin="round" stroke-miterlimit="10" x1="905.5" y1="883" x2="905.5" y2="710"/>
	
		<polyline fill="none" stroke="#C92C25" stroke-width="3" stroke-linecap="round" stroke-linejoin="round" stroke-miterlimit="10" points="
		885.887,794.058 903.856,813.141 921.818,794.058 	"/>
	
		<polyline fill="none" stroke="#C92C25" stroke-width="3" stroke-linecap="round" stroke-linejoin="round" stroke-miterlimit="10" points="
		885.887,771.598 905.729,790.691 921.818,771.598 	"/>
	
		<polyline fill="none" stroke="#C92C25" stroke-width="3" stroke-linecap="round" stroke-linejoin="round" stroke-miterlimit="10" points="
		885.887,749.132 905.729,768.225 921.818,749.132 	"/>
	
		<polyline fill="none" stroke="#C92C25" stroke-width="3" stroke-linecap="round" stroke-linejoin="round" stroke-miterlimit="10" points="
		885.887,726.682 905.729,745.763 921.818,726.682 	"/>
	
		<polyline fill="#FAFAFA" stroke="#C92C25" stroke-width="3" stroke-linecap="round" stroke-linejoin="round" stroke-miterlimit="10" points="
		938.5,710 938.5,816.509 954.823,835.607 970.942,816.509 972.508,709.921 	"/>
	
		<line fill="#FFFFFF" stroke="#C92C25" stroke-width="3" stroke-linecap="round" stroke-linejoin="round" stroke-miterlimit="10" x1="956.5" y1="883" x2="956.5" y2="710"/>
	
		<polyline fill="none" stroke="#C92C25" stroke-width="3" stroke-linecap="round" stroke-linejoin="round" stroke-miterlimit="10" points="
		940.536,794.058 956.628,813.141 972.72,794.058 	"/>
	
		<polyline fill="none" stroke="#C92C25" stroke-width="3" stroke-linecap="round" stroke-linejoin="round" stroke-miterlimit="10" points="
		940.536,771.598 956.628,790.691 972.72,771.598 	"/>
	
		<polyline fill="none" stroke="#C92C25" stroke-width="3" stroke-linecap="round" stroke-linejoin="round" stroke-miterlimit="10" points="
		940.536,749.132 956.628,768.225 972.72,749.132 	"/>
	
		<polyline fill="none" stroke="#C92C25" stroke-width="3" stroke-linecap="round" stroke-linejoin="round" stroke-miterlimit="10" points="
		940.536,726.682 956.628,745.763 972.72,726.682 	"/>
	
		<line fill="#FFFFFF" stroke="#C92C25" stroke-width="3" stroke-linecap="round" stroke-linejoin="round" stroke-miterlimit="10" x1="896.5" y1="697" x2="896.5" y2="661"/>
	
		<line fill="#FFFFFF" stroke="#C92C25" stroke-width="3" stroke-linecap="round" stroke-linejoin="round" stroke-miterlimit="10" x1="862.5" y1="661" x2="862.5" y2="697"/>
	
		<line fill="#FFFFFF" stroke="#C92C25" stroke-width="3" stroke-linecap="round" stroke-linejoin="round" stroke-miterlimit="10" x1="879.5" y1="697" x2="879.5" y2="661"/>
	
		<polyline fill="none" stroke="#C92C25" stroke-width="3" stroke-linecap="round" stroke-linejoin="round" stroke-miterlimit="10" points="
		862.306,675.788 878.396,696.737 896.365,675.788 	"/>
	
		<line fill="#FFFFFF" stroke="#C92C25" stroke-width="3" stroke-linecap="round" stroke-linejoin="round" stroke-miterlimit="10" x1="954.5" y1="697" x2="954.5" y2="661"/>
	
		<line fill="#FFFFFF" stroke="#C92C25" stroke-width="3" stroke-linecap="round" stroke-linejoin="round" stroke-miterlimit="10" x1="918.5" y1="661" x2="918.5" y2="697"/>
	
		<line fill="#FFFFFF" stroke="#C92C25" stroke-width="3" stroke-linecap="round" stroke-linejoin="round" stroke-miterlimit="10" x1="935.5" y1="697" x2="935.5" y2="661"/>
	
		<polyline fill="none" stroke="#C92C25" stroke-width="3" stroke-linecap="round" stroke-linejoin="round" stroke-miterlimit="10" points="
		918.821,675.788 936.79,696.737 954.759,675.788 	"/>
	
		<line fill="#FFFFFF" stroke="#C92C25" stroke-width="3" stroke-linecap="round" stroke-linejoin="round" stroke-miterlimit="10" x1="1005.5" y1="697" x2="1005.5" y2="661"/>
	
		<line fill="#FFFFFF" stroke="#C92C25" stroke-width="3" stroke-linecap="round" stroke-linejoin="round" stroke-miterlimit="10" x1="969.5" y1="661" x2="969.5" y2="697"/>
	
		<line fill="#FFFFFF" stroke="#C92C25" stroke-width="3" stroke-linecap="round" stroke-linejoin="round" stroke-miterlimit="10" x1="987.5" y1="697" x2="987.5" y2="661"/>
	
		<polyline fill="none" stroke="#C92C25" stroke-width="3" stroke-linecap="round" stroke-linejoin="round" stroke-miterlimit="10" points="
		969.728,675.788 987.697,696.737 1005.659,675.788 	"/>
	
		<line fill="#FFFFFF" stroke="#C92C25" stroke-width="3" stroke-linecap="round" stroke-linejoin="round" stroke-miterlimit="10" x1="1057.5" y1="697" x2="1057.5" y2="661"/>
	
		<line fill="#FFFFFF" stroke="#C92C25" stroke-width="3" stroke-linecap="round" stroke-linejoin="round" stroke-miterlimit="10" x1="1019.5" y1="661" x2="1019.5" y2="697"/>
	
		<line fill="#FFFFFF" stroke="#C92C25" stroke-width="3" stroke-linecap="round" stroke-linejoin="round" stroke-miterlimit="10" x1="1038.5" y1="697" x2="1038.5" y2="661"/>
	
		<polyline fill="none" stroke="#C92C25" stroke-width="3" stroke-linecap="round" stroke-linejoin="round" stroke-miterlimit="10" points="
		1020.634,675.788 1038.596,696.737 1056.56,675.788 	"/>
	
		<line fill="#FFFFFF" stroke="#C92C25" stroke-width="3" stroke-linecap="round" stroke-linejoin="round" stroke-miterlimit="10" x1="1107.5" y1="697" x2="1107.5" y2="661"/>
	
		<line fill="#FFFFFF" stroke="#C92C25" stroke-width="3" stroke-linecap="round" stroke-linejoin="round" stroke-miterlimit="10" x1="1070.5" y1="661" x2="1070.5" y2="697"/>
	
		<line fill="#FFFFFF" stroke="#C92C25" stroke-width="3" stroke-linecap="round" stroke-linejoin="round" stroke-miterlimit="10" x1="1088.5" y1="697" x2="1088.5" y2="661"/>
	
		<polyline fill="none" stroke="#C92C25" stroke-width="3" stroke-linecap="round" stroke-linejoin="round" stroke-miterlimit="10" points="
		1071.541,675.788 1089.497,696.737 1107.466,675.788 	"/>
	
		<polyline fill="#FAFAFA" stroke="#C92C25" stroke-width="3" stroke-linecap="round" stroke-linejoin="round" stroke-miterlimit="10" points="
		1566.5,921 1566.5,560.5 1480.5,560.5 1480.5,699.938 1366.5,643.447 1366.5,695.225 1256.5,643.447 1256.5,688.385 
		1253.809,690.781 1136.5,637.716 1136.5,879 	"/>
	
		<rect x="1200.5" y="771.5" fill="#C92C25" stroke="#C92C25" stroke-width="3" stroke-linecap="round" stroke-linejoin="round" stroke-miterlimit="10" width="50" height="20"/>
	
		<rect x="1292.5" y="771.5" fill="#C92C25" stroke="#C92C25" stroke-width="3" stroke-linecap="round" stroke-linejoin="round" stroke-miterlimit="10" width="46" height="20"/>
	
		<rect x="1292.5" y="834.5" fill="#C92C25" stroke="#C92C25" stroke-width="3" stroke-linecap="round" stroke-linejoin="round" stroke-miterlimit="10" width="46" height="22"/>
	
		<rect x="1373.5" y="834.5" fill="#C92C25" stroke="#C92C25" stroke-width="3" stroke-linecap="round" stroke-linejoin="round" stroke-miterlimit="10" width="43" height="22"/>
	
		<line fill="#FFFFFF" stroke="#C92C25" stroke-width="3" stroke-linecap="round" stroke-linejoin="round" stroke-miterlimit="10" x1="1156.5" y1="863" x2="1156.5" y2="756"/>
	
		<line fill="#FFFFFF" stroke="#C92C25" stroke-width="3" stroke-linecap="round" stroke-linejoin="round" stroke-miterlimit="10" x1="1156.5" y1="732" x2="1156.5" y2="677"/>
</g>
<g id="Capa_5" display="none">
</g>
<g id="Capa_6" display="none">
</g>
</svg>
