<?xml version="1.0" encoding="utf-8"?>
<!-- Generator: Adobe Illustrator 16.0.0, SVG Export Plug-In . SVG Version: 6.00 Build 0)  -->
<!DOCTYPE svg PUBLIC "-//W3C//DTD SVG 1.1//EN" "http://www.w3.org/Graphics/SVG/1.1/DTD/svg11.dtd">
<svg version="1.1" id="Capa_1" xmlns="http://www.w3.org/2000/svg" xmlns:xlink="http://www.w3.org/1999/xlink" x="0px" y="0px"
	 width="236px" height="200px" viewBox="0 0 236 200" enable-background="new 0 0 236 200" xml:space="preserve">
<g>
	<path fill="#FFFFFF" d="M107.299,173.506c-38.633,11.418-72.652,4.979-83.72-16.814c-5.37-10.576-4.228-23.475,2.098-36.754
		c-8.689,14.766-11.088,29.199-5.259,40.668C31.259,181.967,67.217,186.186,107.299,173.506"/>
	<path fill="#FFFFFF" d="M76.671,55.601l0.032-0.389h-19.73l-4.185,22.005C59.383,69.753,67.403,62.388,76.671,55.601z"/>
	<path fill="#FFFFFF" d="M180.865,119.773l-2.594,11.957h18.189l6.508-33.016C196.907,105.96,189.467,113.084,180.865,119.773z"/>
	<g>
		<g>
			<path fill="#FFFFFF" d="M111.128,89.247l-2.499,13.218h12.034l-2.917,14.861c-1.954,0.553-3.886,0.951-5.799,1.207
				c-1.912,0.258-3.827,0.385-5.729,0.385c-5.878,0-10.44-1.689-13.657-5.074c-3.231-3.383-4.852-8.13-4.852-14.246
				c0-9.222,2.771-16.779,8.306-22.656c5.531-5.868,12.703-8.808,21.521-8.808c4.028,0,8.032,0.599,12.01,1.793
				c3.991,1.192,8.064,3.001,12.233,5.434l3.017-15.837c-4.505-1.884-9.083-3.299-13.729-4.259
				c-4.643-0.954-9.262-1.431-13.838-1.431c-8.232,0-15.553,1.349-21.965,4.048c-6.405,2.703-11.962,6.783-16.677,12.251
				c-2.755,3.201-5.015,6.648-6.801,10.323l4.437-22.784c-9.268,6.786-17.324,14.083-23.928,21.548L42.058,131.73h19.729
				l5.25-26.913c0.496,8.376,3.572,15.083,9.245,20.124c6.21,5.518,14.758,8.273,25.623,8.273c6.109,0,11.859-0.584,17.224-1.77
				c5.361-1.182,10.535-2.982,15.523-5.406l7.127-36.792H111.128z M192.716,55.211L187.4,88.99l-16.105-33.778h-21.324
				l-14.914,76.519h18.709l10.248-50.862l17.535,35.206l-0.419,1.979c8.601-6.695,16.056-13.832,22.094-21.06l8.155-41.781H192.716z
				"/>
		</g>
	</g>
	<path fill="#FFFFFF" d="M102.69,41.918c49.428-25.086,98.577-21.703,112.32,5.37c5.37,10.569,4.228,23.468-2.103,36.759
		c8.691-14.774,11.081-29.216,5.256-40.673c-13.379-26.376-65.1-26.998-115.521-1.401L102.69,41.918z"/>
	<g>
		<path fill="#FFFFFF" d="M44.15,139.822h1.172l-1.68,9.572h-1.166L44.15,139.822z"/>
		<path fill="#FFFFFF" d="M51.564,145.061l-0.758,4.334h-1.07l0.758-4.289c0.033-0.201,0.061-0.379,0.082-0.533
			c0.021-0.152,0.033-0.275,0.033-0.365c0-0.357-0.104-0.639-0.309-0.84c-0.205-0.199-0.488-0.301-0.852-0.301
			c-0.574,0-1.064,0.211-1.475,0.631c-0.41,0.422-0.68,0.994-0.809,1.715l-0.711,3.982h-1.059l1.25-7.18h1.064l-0.219,1.127
			c0.301-0.414,0.656-0.734,1.072-0.961c0.414-0.227,0.85-0.34,1.307-0.34c0.568,0,1.01,0.17,1.324,0.512
			c0.314,0.344,0.471,0.824,0.471,1.443c0,0.154-0.008,0.318-0.025,0.494C51.623,144.664,51.598,144.855,51.564,145.061z"/>
		<path fill="#FFFFFF" d="M57.723,142.426l-0.205,1.115c-0.281-0.172-0.578-0.299-0.889-0.385c-0.309-0.086-0.631-0.129-0.965-0.129
			c-0.555,0-0.994,0.107-1.316,0.318s-0.484,0.498-0.484,0.861c0,0.424,0.375,0.748,1.123,0.975
			c0.055,0.018,0.098,0.031,0.127,0.039l0.34,0.115c0.709,0.219,1.182,0.447,1.418,0.686c0.234,0.24,0.352,0.566,0.352,0.98
			c0,0.762-0.271,1.381-0.814,1.859s-1.256,0.719-2.141,0.719c-0.342,0-0.701-0.037-1.078-0.109
			c-0.375-0.072-0.789-0.186-1.242-0.34l0.205-1.217c0.389,0.221,0.771,0.391,1.146,0.506c0.377,0.115,0.738,0.172,1.084,0.172
			c0.521,0,0.945-0.123,1.27-0.371s0.486-0.563,0.486-0.941c0-0.41-0.426-0.742-1.281-0.994l-0.109-0.033l-0.365-0.102
			c-0.539-0.158-0.934-0.367-1.184-0.625c-0.25-0.26-0.375-0.59-0.375-0.99c0-0.766,0.26-1.373,0.777-1.82
			c0.516-0.449,1.219-0.674,2.107-0.674c0.352,0,0.693,0.031,1.027,0.096C57.068,142.201,57.398,142.297,57.723,142.426z"/>
		<path fill="#FFFFFF" d="M62.305,142.215l-0.16,0.916h-2.117l-0.686,3.898c-0.025,0.145-0.043,0.266-0.055,0.365
			c-0.01,0.098-0.016,0.174-0.016,0.23c0,0.273,0.074,0.473,0.221,0.596c0.148,0.125,0.387,0.186,0.715,0.186h1.072l-0.18,0.988
			h-1.014c-0.633,0-1.104-0.137-1.414-0.41c-0.309-0.273-0.465-0.689-0.465-1.244c0-0.098,0.008-0.207,0.02-0.324
			c0.014-0.117,0.029-0.246,0.051-0.387l0.688-3.898h-0.898l0.166-0.916h0.885l0.359-2.039h1.059l-0.354,2.039H62.305z"/>
		<path fill="#FFFFFF" d="M62.961,142.215h1.064l-1.27,7.18h-1.057L62.961,142.215z M63.449,139.418h1.057l-0.256,1.494h-1.064
			L63.449,139.418z"/>
		<path fill="#FFFFFF" d="M68.902,142.215l-0.16,0.916h-2.117l-0.686,3.898c-0.025,0.145-0.043,0.266-0.055,0.365
			c-0.01,0.098-0.016,0.174-0.016,0.23c0,0.273,0.074,0.473,0.221,0.596c0.148,0.125,0.387,0.186,0.715,0.186h1.072l-0.18,0.988
			h-1.014c-0.633,0-1.104-0.137-1.414-0.41c-0.309-0.273-0.465-0.689-0.465-1.244c0-0.098,0.008-0.207,0.02-0.324
			c0.014-0.117,0.029-0.246,0.051-0.387l0.688-3.898h-0.898l0.166-0.916h0.885l0.359-2.039h1.059l-0.354,2.039H68.902z"/>
		<path fill="#FFFFFF" d="M68.668,146.547l0.758-4.332h1.07l-0.756,4.287c-0.039,0.211-0.066,0.391-0.084,0.539
			c-0.018,0.15-0.025,0.273-0.025,0.373c0,0.363,0.1,0.643,0.297,0.842c0.199,0.199,0.482,0.299,0.85,0.299
			c0.568,0,1.061-0.215,1.475-0.641c0.416-0.428,0.688-1.004,0.814-1.725l0.713-3.975h1.057l-1.25,7.18h-1.064l0.219-1.129
			c-0.299,0.42-0.656,0.742-1.07,0.971c-0.416,0.229-0.855,0.344-1.322,0.344c-0.563,0-1.004-0.172-1.32-0.516
			s-0.475-0.824-0.475-1.439c0-0.129,0.01-0.289,0.029-0.48C68.602,146.951,68.631,146.752,68.668,146.547z"/>
		<path fill="#FFFFFF" d="M79.705,142.215l-0.16,0.916H77.43l-0.686,3.898c-0.025,0.145-0.045,0.266-0.055,0.365
			c-0.012,0.098-0.016,0.174-0.016,0.23c0,0.273,0.072,0.473,0.221,0.596c0.146,0.125,0.385,0.186,0.715,0.186h1.07l-0.18,0.988
			h-1.012c-0.633,0-1.105-0.137-1.414-0.41c-0.311-0.273-0.465-0.689-0.465-1.244c0-0.098,0.006-0.207,0.02-0.324
			c0.012-0.117,0.029-0.246,0.051-0.387l0.686-3.898h-0.896l0.166-0.916h0.885l0.359-2.039h1.057l-0.352,2.039H79.705z"/>
		<path fill="#FFFFFF" d="M81.684,149.58c-0.756,0-1.355-0.26-1.795-0.779c-0.441-0.52-0.66-1.227-0.66-2.125
			c0-0.521,0.076-1.053,0.227-1.594c0.152-0.539,0.348-0.994,0.588-1.361c0.385-0.572,0.811-0.996,1.277-1.27
			c0.469-0.273,1-0.41,1.594-0.41c0.734,0,1.328,0.254,1.779,0.762c0.451,0.51,0.676,1.174,0.676,1.994
			c0,0.568-0.074,1.135-0.225,1.699c-0.148,0.564-0.346,1.033-0.59,1.404c-0.375,0.572-0.799,0.996-1.27,1.27
			C82.816,149.443,82.281,149.58,81.684,149.58z M80.324,146.637c0,0.65,0.123,1.137,0.369,1.459s0.615,0.484,1.111,0.484
			c0.709,0,1.299-0.346,1.768-1.035c0.467-0.691,0.701-1.566,0.701-2.625c0-0.621-0.125-1.088-0.375-1.404s-0.617-0.475-1.1-0.475
			c-0.402,0-0.758,0.104-1.07,0.311s-0.59,0.523-0.834,0.945c-0.184,0.316-0.324,0.678-0.422,1.084
			C80.373,145.787,80.324,146.205,80.324,146.637z"/>
		<path fill="#FFFFFF" d="M94.795,147.965l0.449-2.508h-1.91l0.18-1.063h3.051l-0.744,4.211c-0.508,0.313-1.064,0.553-1.67,0.721
			c-0.604,0.17-1.213,0.254-1.822,0.254c-1.082,0-1.928-0.334-2.537-1c-0.607-0.666-0.912-1.594-0.912-2.783
			c0-0.986,0.184-1.926,0.555-2.816c0.369-0.891,0.883-1.635,1.541-2.229c0.41-0.371,0.859-0.648,1.346-0.83
			c0.488-0.182,1.031-0.271,1.629-0.271c0.539,0,1.055,0.074,1.549,0.227c0.492,0.152,0.965,0.379,1.412,0.684l-0.23,1.377
			c-0.346-0.4-0.752-0.707-1.217-0.92c-0.467-0.211-0.963-0.316-1.488-0.316c-0.615,0-1.154,0.129-1.619,0.387
			c-0.463,0.26-0.879,0.66-1.246,1.203c-0.313,0.461-0.559,1.006-0.738,1.631c-0.178,0.627-0.268,1.264-0.268,1.914
			c0,0.893,0.205,1.566,0.617,2.016c0.414,0.451,1.027,0.678,1.844,0.678c0.406,0,0.801-0.049,1.184-0.145
			C94.129,148.289,94.479,148.148,94.795,147.965z"/>
		<path fill="#FFFFFF" d="M103.447,146.086h-4.936c-0.021,0.162-0.037,0.291-0.045,0.385c-0.01,0.094-0.014,0.176-0.014,0.244
			c0,0.594,0.164,1.053,0.494,1.377c0.328,0.326,0.793,0.488,1.391,0.488c0.461,0,0.898-0.059,1.311-0.174
			c0.414-0.115,0.797-0.283,1.152-0.506l-0.205,1.166c-0.381,0.172-0.775,0.301-1.18,0.385c-0.406,0.086-0.818,0.129-1.238,0.129
			c-0.896,0-1.586-0.238-2.066-0.715c-0.482-0.477-0.723-1.152-0.723-2.029c0-0.748,0.119-1.443,0.359-2.086
			c0.24-0.645,0.592-1.217,1.059-1.723c0.299-0.316,0.656-0.559,1.07-0.73c0.414-0.17,0.854-0.256,1.32-0.256
			c0.73,0,1.313,0.244,1.744,0.73c0.432,0.488,0.646,1.141,0.646,1.961c0,0.197-0.012,0.408-0.035,0.633
			S103.494,145.83,103.447,146.086z M102.523,145.162c0.014-0.068,0.023-0.139,0.029-0.211s0.01-0.145,0.01-0.219
			c0-0.52-0.137-0.934-0.414-1.236c-0.275-0.303-0.65-0.455-1.125-0.455c-0.525,0-0.99,0.186-1.395,0.555
			c-0.402,0.369-0.707,0.895-0.912,1.574L102.523,145.162z"/>
		<path fill="#FFFFFF" d="M106.457,149.58c-0.756,0-1.354-0.26-1.795-0.779c-0.439-0.52-0.66-1.227-0.66-2.125
			c0-0.521,0.076-1.053,0.229-1.594c0.15-0.539,0.348-0.994,0.586-1.361c0.385-0.572,0.811-0.996,1.279-1.27s0.998-0.41,1.594-0.41
			c0.734,0,1.328,0.254,1.777,0.762c0.451,0.51,0.678,1.174,0.678,1.994c0,0.568-0.076,1.135-0.225,1.699
			c-0.15,0.564-0.346,1.033-0.59,1.404c-0.377,0.572-0.799,0.996-1.27,1.27S107.057,149.58,106.457,149.58z M105.1,146.637
			c0,0.65,0.121,1.137,0.367,1.459s0.617,0.484,1.113,0.484c0.709,0,1.297-0.346,1.766-1.035c0.469-0.691,0.701-1.566,0.701-2.625
			c0-0.621-0.125-1.088-0.375-1.404s-0.615-0.475-1.098-0.475c-0.402,0-0.76,0.104-1.072,0.311c-0.311,0.207-0.59,0.523-0.832,0.945
			c-0.184,0.316-0.326,0.678-0.424,1.084S105.1,146.205,105.1,146.637z"/>
		<path fill="#FFFFFF" d="M117.072,142.215l-1.104,6.289c-0.209,1.217-0.613,2.125-1.211,2.725c-0.6,0.598-1.404,0.896-2.418,0.896
			c-0.371,0-0.717-0.031-1.039-0.094c-0.32-0.061-0.619-0.156-0.896-0.285l0.199-1.146c0.26,0.188,0.537,0.326,0.83,0.416
			s0.604,0.135,0.932,0.135c0.676,0,1.229-0.203,1.66-0.611s0.719-0.996,0.859-1.76l0.09-0.539
			c-0.295,0.377-0.639,0.662-1.031,0.859c-0.395,0.195-0.816,0.295-1.27,0.295c-0.654,0-1.168-0.24-1.543-0.723
			c-0.373-0.48-0.561-1.141-0.561-1.982c0-0.664,0.113-1.313,0.34-1.947s0.545-1.197,0.955-1.689
			c0.273-0.324,0.592-0.574,0.955-0.75c0.363-0.174,0.744-0.262,1.143-0.262c0.436,0,0.814,0.111,1.137,0.336
			s0.564,0.543,0.723,0.953l0.178-1.115H117.072z M115.475,144.85c0-0.582-0.123-1.031-0.371-1.348s-0.6-0.475-1.051-0.475
			c-0.283,0-0.551,0.063-0.803,0.188c-0.252,0.123-0.469,0.297-0.654,0.518c-0.289,0.369-0.518,0.801-0.682,1.299
			s-0.246,1.012-0.246,1.543c0,0.588,0.125,1.041,0.375,1.357s0.607,0.475,1.072,0.475c0.672,0,1.232-0.338,1.684-1.016
			S115.475,145.865,115.475,144.85z"/>
		<path fill="#FFFFFF" d="M122.141,143.305c-0.111-0.064-0.236-0.113-0.373-0.148c-0.137-0.033-0.283-0.051-0.441-0.051
			c-0.568,0-1.064,0.238-1.488,0.715c-0.422,0.477-0.703,1.113-0.84,1.914l-0.652,3.66h-1.059l1.264-7.18h1.064l-0.205,1.115
			c0.281-0.416,0.617-0.734,1.006-0.955c0.389-0.223,0.805-0.334,1.25-0.334c0.115,0,0.229,0.008,0.34,0.021
			c0.111,0.016,0.223,0.041,0.334,0.074L122.141,143.305z"/>
		<path fill="#FFFFFF" d="M127.414,145.297l-0.719,4.098h-1.064l0.193-1.09c-0.309,0.428-0.662,0.746-1.061,0.957
			c-0.4,0.213-0.844,0.318-1.332,0.318c-0.551,0-1.002-0.188-1.352-0.561c-0.352-0.375-0.525-0.854-0.525-1.439
			c0-0.838,0.299-1.5,0.9-1.988c0.6-0.486,1.43-0.73,2.49-0.73h1.475l0.059-0.314c0.008-0.033,0.014-0.07,0.018-0.111
			c0.006-0.041,0.008-0.104,0.008-0.189c0-0.381-0.141-0.676-0.42-0.889c-0.281-0.211-0.672-0.316-1.178-0.316
			c-0.346,0-0.701,0.049-1.063,0.146c-0.365,0.1-0.738,0.246-1.123,0.443l0.186-1.09c0.402-0.166,0.795-0.291,1.178-0.375
			c0.381-0.084,0.752-0.125,1.111-0.125c0.762,0,1.34,0.184,1.738,0.551c0.396,0.367,0.596,0.902,0.596,1.604
			c0,0.141-0.01,0.307-0.029,0.496C127.48,144.883,127.451,145.084,127.414,145.297z M126.266,145.785h-1.064
			c-0.867,0-1.51,0.129-1.926,0.387c-0.416,0.26-0.625,0.66-0.625,1.203c0,0.375,0.105,0.67,0.316,0.885
			c0.213,0.213,0.508,0.32,0.889,0.32c0.576,0,1.08-0.23,1.51-0.689s0.715-1.074,0.855-1.844L126.266,145.785z M126.664,138.893
			h1.146l-2.301,2.41h-0.891L126.664,138.893z"/>
		<path fill="#FFFFFF" d="M133.297,139.418l-0.168,0.982h-1.012c-0.385,0-0.666,0.084-0.84,0.252
			c-0.176,0.17-0.307,0.479-0.393,0.928l-0.115,0.635h1.75l-0.16,0.916h-1.744l-1.096,6.264h-1.07l1.104-6.264h-1.014l0.146-0.916
			h1.014l0.09-0.502c0.145-0.846,0.402-1.439,0.77-1.781s0.945-0.514,1.73-0.514H133.297z"/>
		<path fill="#FFFFFF" d="M132.826,142.215h1.064l-1.27,7.18h-1.059L132.826,142.215z M133.313,139.418h1.059l-0.258,1.494h-1.063
			L133.313,139.418z"/>
		<path fill="#FFFFFF" d="M140.105,142.49l-0.211,1.166c-0.252-0.205-0.523-0.359-0.811-0.461c-0.289-0.104-0.588-0.154-0.895-0.154
			c-0.338,0-0.66,0.066-0.965,0.199c-0.307,0.133-0.564,0.32-0.773,0.564c-0.328,0.371-0.584,0.807-0.766,1.307
			s-0.271,1.018-0.271,1.551c0,0.646,0.145,1.127,0.436,1.443s0.732,0.475,1.326,0.475c0.291,0,0.602-0.049,0.93-0.148
			c0.33-0.098,0.674-0.244,1.033-0.441l-0.199,1.166c-0.309,0.143-0.625,0.248-0.953,0.318c-0.326,0.07-0.66,0.105-1.002,0.105
			c-0.855,0-1.514-0.238-1.975-0.715c-0.463-0.477-0.693-1.158-0.693-2.041c0-0.744,0.119-1.43,0.359-2.055
			c0.24-0.627,0.596-1.189,1.07-1.689c0.32-0.342,0.699-0.602,1.135-0.777c0.436-0.174,0.91-0.262,1.424-0.262
			c0.303,0,0.602,0.037,0.896,0.111C139.496,142.229,139.799,142.34,140.105,142.49z"/>
		<path fill="#FFFFFF" d="M142.609,149.58c-0.756,0-1.354-0.26-1.795-0.779c-0.439-0.52-0.66-1.227-0.66-2.125
			c0-0.521,0.076-1.053,0.229-1.594c0.15-0.539,0.348-0.994,0.586-1.361c0.385-0.572,0.811-0.996,1.279-1.27s0.998-0.41,1.594-0.41
			c0.734,0,1.328,0.254,1.777,0.762c0.451,0.51,0.678,1.174,0.678,1.994c0,0.568-0.076,1.135-0.225,1.699
			c-0.15,0.564-0.346,1.033-0.59,1.404c-0.377,0.572-0.799,0.996-1.27,1.27S143.209,149.58,142.609,149.58z M141.252,146.637
			c0,0.65,0.121,1.137,0.367,1.459s0.617,0.484,1.113,0.484c0.709,0,1.297-0.346,1.766-1.035c0.469-0.691,0.701-1.566,0.701-2.625
			c0-0.621-0.125-1.088-0.375-1.404s-0.615-0.475-1.098-0.475c-0.402,0-0.76,0.104-1.072,0.311c-0.311,0.207-0.59,0.523-0.832,0.945
			c-0.184,0.316-0.326,0.678-0.424,1.084S141.252,146.205,141.252,146.637z"/>
		<path fill="#FFFFFF" d="M151.266,139.822h1.57l2.379,8.207l1.443-8.207h1.135l-1.68,9.572h-1.572l-2.371-8.258l-1.443,8.258
			h-1.135L151.266,139.822z"/>
		<path fill="#FFFFFF" d="M163.797,145.297l-0.719,4.098h-1.064l0.193-1.09c-0.309,0.428-0.662,0.746-1.061,0.957
			c-0.4,0.213-0.844,0.318-1.332,0.318c-0.551,0-1.002-0.188-1.352-0.561c-0.352-0.375-0.525-0.854-0.525-1.439
			c0-0.838,0.299-1.5,0.9-1.988c0.6-0.486,1.43-0.73,2.49-0.73h1.475l0.059-0.314c0.008-0.033,0.014-0.07,0.018-0.111
			c0.006-0.041,0.008-0.104,0.008-0.189c0-0.381-0.141-0.676-0.42-0.889c-0.281-0.211-0.672-0.316-1.178-0.316
			c-0.346,0-0.701,0.049-1.063,0.146c-0.365,0.1-0.738,0.246-1.123,0.443l0.186-1.09c0.402-0.166,0.795-0.291,1.178-0.375
			c0.381-0.084,0.752-0.125,1.111-0.125c0.762,0,1.34,0.184,1.738,0.551c0.396,0.367,0.596,0.902,0.596,1.604
			c0,0.141-0.01,0.307-0.029,0.496C163.863,144.883,163.834,145.084,163.797,145.297z M162.648,145.785h-1.064
			c-0.867,0-1.51,0.129-1.926,0.387c-0.416,0.26-0.625,0.66-0.625,1.203c0,0.375,0.105,0.67,0.316,0.885
			c0.213,0.213,0.508,0.32,0.889,0.32c0.576,0,1.08-0.23,1.51-0.689s0.715-1.074,0.855-1.844L162.648,145.785z"/>
		<path fill="#FFFFFF" d="M170.365,142.49l-0.213,1.166c-0.252-0.205-0.521-0.359-0.811-0.461c-0.289-0.104-0.586-0.154-0.895-0.154
			c-0.338,0-0.658,0.066-0.965,0.199c-0.305,0.133-0.563,0.32-0.771,0.564c-0.33,0.371-0.584,0.807-0.766,1.307
			c-0.184,0.5-0.273,1.018-0.273,1.551c0,0.646,0.145,1.127,0.436,1.443s0.734,0.475,1.328,0.475c0.289,0,0.6-0.049,0.93-0.148
			c0.328-0.098,0.672-0.244,1.031-0.441l-0.199,1.166c-0.307,0.143-0.625,0.248-0.951,0.318s-0.662,0.105-1.004,0.105
			c-0.854,0-1.512-0.238-1.975-0.715c-0.461-0.477-0.691-1.158-0.691-2.041c0-0.744,0.119-1.43,0.359-2.055
			c0.238-0.627,0.596-1.189,1.07-1.689c0.32-0.342,0.697-0.602,1.135-0.777c0.436-0.174,0.91-0.262,1.422-0.262
			c0.305,0,0.604,0.037,0.898,0.111C169.756,142.229,170.057,142.34,170.365,142.49z"/>
		<path fill="#FFFFFF" d="M171.549,142.215h1.064l-1.27,7.18h-1.059L171.549,142.215z M172.035,139.418h1.059l-0.258,1.494h-1.063
			L172.035,139.418z"/>
		<path fill="#FFFFFF" d="M175.494,149.58c-0.756,0-1.354-0.26-1.795-0.779c-0.439-0.52-0.66-1.227-0.66-2.125
			c0-0.521,0.076-1.053,0.229-1.594c0.15-0.539,0.348-0.994,0.586-1.361c0.385-0.572,0.811-0.996,1.279-1.27s0.998-0.41,1.594-0.41
			c0.734,0,1.328,0.254,1.777,0.762c0.451,0.51,0.678,1.174,0.678,1.994c0,0.568-0.076,1.135-0.225,1.699
			c-0.15,0.564-0.346,1.033-0.59,1.404c-0.377,0.572-0.799,0.996-1.27,1.27S176.094,149.58,175.494,149.58z M174.137,146.637
			c0,0.65,0.121,1.137,0.367,1.459s0.617,0.484,1.113,0.484c0.709,0,1.297-0.346,1.766-1.035c0.469-0.691,0.701-1.566,0.701-2.625
			c0-0.621-0.125-1.088-0.375-1.404s-0.615-0.475-1.098-0.475c-0.402,0-0.76,0.104-1.072,0.311c-0.311,0.207-0.59,0.523-0.832,0.945
			c-0.184,0.316-0.326,0.678-0.424,1.084S174.137,146.205,174.137,146.637z"/>
		<path fill="#FFFFFF" d="M185.646,145.061l-0.756,4.334h-1.07l0.756-4.289c0.035-0.201,0.063-0.379,0.084-0.533
			c0.021-0.152,0.031-0.275,0.031-0.365c0-0.357-0.102-0.639-0.307-0.84c-0.205-0.199-0.49-0.301-0.854-0.301
			c-0.572,0-1.064,0.211-1.475,0.631c-0.41,0.422-0.68,0.994-0.807,1.715l-0.713,3.982h-1.057l1.25-7.18h1.064l-0.219,1.127
			c0.299-0.414,0.656-0.734,1.07-0.961s0.852-0.34,1.309-0.34c0.568,0,1.01,0.17,1.322,0.512c0.314,0.344,0.473,0.824,0.473,1.443
			c0,0.154-0.01,0.318-0.025,0.494C185.707,144.664,185.682,144.855,185.646,145.061z"/>
		<path fill="#FFFFFF" d="M192.242,145.297l-0.719,4.098h-1.064l0.193-1.09c-0.309,0.428-0.662,0.746-1.061,0.957
			c-0.4,0.213-0.844,0.318-1.332,0.318c-0.551,0-1.002-0.188-1.352-0.561c-0.352-0.375-0.525-0.854-0.525-1.439
			c0-0.838,0.299-1.5,0.9-1.988c0.6-0.486,1.43-0.73,2.49-0.73h1.475l0.059-0.314c0.008-0.033,0.014-0.07,0.018-0.111
			c0.006-0.041,0.008-0.104,0.008-0.189c0-0.381-0.141-0.676-0.42-0.889c-0.281-0.211-0.672-0.316-1.178-0.316
			c-0.346,0-0.701,0.049-1.063,0.146c-0.365,0.1-0.738,0.246-1.123,0.443l0.186-1.09c0.402-0.166,0.795-0.291,1.178-0.375
			c0.381-0.084,0.752-0.125,1.111-0.125c0.762,0,1.34,0.184,1.738,0.551c0.396,0.367,0.596,0.902,0.596,1.604
			c0,0.141-0.01,0.307-0.029,0.496C192.309,144.883,192.279,145.084,192.242,145.297z M191.094,145.785h-1.064
			c-0.867,0-1.51,0.129-1.926,0.387c-0.416,0.26-0.625,0.66-0.625,1.203c0,0.375,0.105,0.67,0.316,0.885
			c0.213,0.213,0.508,0.32,0.889,0.32c0.576,0,1.08-0.23,1.51-0.689s0.715-1.074,0.855-1.844L191.094,145.785z"/>
		<path fill="#FFFFFF" d="M194.643,139.418h1.059l-1.75,9.977h-1.059L194.643,139.418z"/>
		<path fill="#FFFFFF" d="M69.277,159.023l-0.564,2.875h-1.959l1.48-7.598h2.895c0.834,0,1.467,0.156,1.898,0.469
			c0.43,0.313,0.646,0.771,0.646,1.379c0,0.613-0.17,1.119-0.51,1.516c-0.34,0.398-0.799,0.625-1.379,0.682
			c0.266,0.055,0.484,0.189,0.662,0.406c0.176,0.215,0.33,0.545,0.463,0.988l0.646,2.158h-1.949l-0.57-1.889
			c-0.115-0.375-0.254-0.635-0.42-0.775c-0.164-0.141-0.402-0.211-0.715-0.211H69.277z M70.361,157.67
			c0.443,0,0.781-0.104,1.01-0.311s0.344-0.51,0.344-0.91c0-0.252-0.08-0.436-0.236-0.553c-0.158-0.117-0.406-0.176-0.746-0.176
			h-0.809l-0.387,1.949H70.361z"/>
		<path fill="#FFFFFF" d="M75.809,154.301h5.281l-0.289,1.48h-3.322l-0.275,1.416h3.129l-0.295,1.48h-3.123l-0.336,1.74h3.428
			l-0.279,1.48h-5.398L75.809,154.301z"/>
		<path fill="#FFFFFF" d="M82.48,154.301h3.25c0.799,0,1.422,0.184,1.871,0.547c0.449,0.365,0.674,0.871,0.674,1.52
			c0,0.396-0.074,0.773-0.225,1.133c-0.148,0.357-0.361,0.67-0.641,0.938c-0.301,0.289-0.662,0.498-1.078,0.629
			c-0.418,0.131-0.941,0.195-1.572,0.195h-1.293l-0.508,2.637H81L82.48,154.301z M84.17,155.721l-0.418,2.123h1.084
			c0.461,0,0.814-0.109,1.059-0.326s0.365-0.533,0.365-0.947c0-0.273-0.086-0.484-0.262-0.631c-0.174-0.145-0.426-0.219-0.756-0.219
			H84.17z"/>
		<path fill="#FFFFFF" d="M89.668,154.301h1.959l-0.885,4.549c-0.033,0.164-0.059,0.309-0.074,0.434s-0.021,0.234-0.021,0.33
			c0,0.332,0.088,0.582,0.266,0.746s0.443,0.246,0.797,0.246c0.475,0,0.84-0.133,1.094-0.398c0.254-0.268,0.443-0.717,0.564-1.352
			l0.885-4.555h1.959l-0.885,4.555c-0.221,1.119-0.639,1.932-1.254,2.434c-0.615,0.504-1.496,0.756-2.643,0.756
			c-0.9,0-1.582-0.191-2.051-0.576s-0.703-0.945-0.703-1.678c0-0.121,0.01-0.258,0.025-0.408c0.018-0.152,0.045-0.328,0.082-0.527
			L89.668,154.301z M93.443,152.236h1.426l-1.623,1.344h-1.055L93.443,152.236z"/>
		<path fill="#FFFFFF" d="M101.891,157.832c0.332,0.096,0.588,0.27,0.77,0.521c0.182,0.254,0.273,0.566,0.273,0.939
			c0,0.818-0.305,1.455-0.914,1.916c-0.609,0.459-1.465,0.689-2.566,0.689h-3.252l1.48-7.598h2.936c0.902,0,1.57,0.133,2.004,0.398
			c0.432,0.264,0.648,0.672,0.648,1.225c0,0.465-0.127,0.873-0.383,1.225C102.633,157.5,102.301,157.729,101.891,157.832z
			 M99.57,160.564c0.447,0,0.791-0.105,1.033-0.32c0.24-0.213,0.361-0.52,0.361-0.92c0-0.256-0.084-0.443-0.25-0.566
			c-0.166-0.121-0.42-0.182-0.764-0.182h-1.154l-0.387,1.988H99.57z M100.15,157.242c0.35,0,0.621-0.088,0.818-0.264
			c0.197-0.178,0.295-0.42,0.295-0.729c0-0.199-0.068-0.352-0.205-0.457c-0.139-0.105-0.336-0.158-0.594-0.158h-1.094l-0.314,1.607
			H100.15z"/>
		<path fill="#FFFFFF" d="M105.176,154.301h1.959l-1.189,6.117h3.428l-0.279,1.48h-5.398L105.176,154.301z"/>
		<path fill="#FFFFFF" d="M111.367,154.301h1.959l-1.48,7.598h-1.959L111.367,154.301z"/>
		<path fill="#FFFFFF" d="M119.412,161.541c-0.469,0.168-0.918,0.293-1.35,0.377c-0.43,0.086-0.84,0.127-1.227,0.127
			c-1.02,0-1.836-0.279-2.447-0.84c-0.609-0.559-0.914-1.301-0.914-2.223c0-0.607,0.096-1.18,0.289-1.717s0.479-1.029,0.855-1.473
			c0.443-0.523,0.979-0.926,1.605-1.207c0.625-0.281,1.299-0.422,2.021-0.422c0.393,0,0.789,0.047,1.186,0.141
			s0.801,0.234,1.211,0.424l-0.314,1.572c-0.326-0.248-0.654-0.428-0.982-0.545c-0.33-0.115-0.682-0.172-1.059-0.172
			c-0.783,0-1.439,0.301-1.969,0.906c-0.529,0.604-0.795,1.357-0.795,2.264c0,0.584,0.164,1.041,0.488,1.373
			c0.326,0.332,0.775,0.498,1.35,0.498c0.342,0,0.705-0.061,1.092-0.186c0.385-0.123,0.816-0.316,1.295-0.582L119.412,161.541z"/>
		<path fill="#FFFFFF" d="M125.414,160.514h-3.031l-0.754,1.385h-2.01l4.295-7.598h2.238l1.344,7.598h-1.863L125.414,160.514z
			 M123.121,159.135h2.039l-0.457-2.926L123.121,159.135z"/>
		<path fill="#FFFFFF" d="M136.211,160.514h-3.033l-0.752,1.385h-2.01l4.293-7.598h2.24l1.342,7.598h-1.861L136.211,160.514z
			 M133.916,159.135h2.041l-0.459-2.926L133.916,159.135z"/>
		<path fill="#FFFFFF" d="M141.451,159.023l-0.564,2.875h-1.959l1.48-7.598h2.896c0.834,0,1.467,0.156,1.896,0.469
			c0.432,0.313,0.646,0.771,0.646,1.379c0,0.613-0.17,1.119-0.508,1.516c-0.34,0.398-0.799,0.625-1.379,0.682
			c0.264,0.055,0.484,0.189,0.66,0.406c0.178,0.215,0.332,0.545,0.463,0.988l0.646,2.158h-1.949l-0.568-1.889
			c-0.115-0.375-0.256-0.635-0.42-0.775s-0.402-0.211-0.715-0.211H141.451z M142.535,157.67c0.445,0,0.781-0.104,1.01-0.311
			c0.23-0.207,0.344-0.51,0.344-0.91c0-0.252-0.078-0.436-0.236-0.553s-0.406-0.176-0.746-0.176h-0.809l-0.387,1.949H142.535z"/>
		<path fill="#FFFFFF" d="M153.383,161.334c-0.496,0.24-1.01,0.42-1.543,0.535c-0.531,0.117-1.102,0.176-1.709,0.176
			c-1.078,0-1.926-0.273-2.543-0.82c-0.617-0.549-0.926-1.295-0.926-2.242c0-0.613,0.096-1.189,0.289-1.727
			c0.193-0.539,0.482-1.029,0.865-1.475c0.469-0.541,1.02-0.947,1.656-1.215c0.635-0.268,1.363-0.402,2.18-0.402
			c0.455,0,0.912,0.047,1.373,0.143c0.463,0.096,0.916,0.236,1.365,0.422l-0.301,1.572c-0.414-0.24-0.818-0.42-1.213-0.539
			c-0.396-0.119-0.793-0.178-1.193-0.178c-0.875,0-1.588,0.291-2.137,0.875c-0.551,0.584-0.824,1.332-0.824,2.248
			c0,0.607,0.16,1.08,0.48,1.416s0.771,0.502,1.355,0.502c0.189,0,0.379-0.012,0.57-0.037c0.189-0.025,0.381-0.064,0.574-0.119
			l0.291-1.477h-1.197l0.25-1.313h3.043L153.383,161.334z"/>
		<path fill="#FFFFFF" d="M156.088,154.301h5.281l-0.289,1.48h-3.322l-0.275,1.416h3.129l-0.295,1.48h-3.123l-0.336,1.74h3.428
			l-0.279,1.48h-5.398L156.088,154.301z"/>
		<path fill="#FFFFFF" d="M162.76,154.301h2.188l1.74,5.262l1.023-5.262h1.852l-1.48,7.598h-2.188l-1.74-5.262l-1.018,5.262h-1.857
			L162.76,154.301z"/>
		<path fill="#FFFFFF" d="M170.127,154.301h7l-0.289,1.48h-2.523l-1.191,6.117h-1.959l1.191-6.117h-2.523L170.127,154.301z"/>
		<path fill="#FFFFFF" d="M177.691,154.301h1.959l-1.48,7.598h-1.959L177.691,154.301z"/>
		<path fill="#FFFFFF" d="M181.121,154.301h2.188l1.74,5.262l1.023-5.262h1.852l-1.48,7.598h-2.188l-1.74-5.262l-1.018,5.262h-1.857
			L181.121,154.301z"/>
		<path fill="#FFFFFF" d="M192.813,160.514h-3.033l-0.752,1.385h-2.01l4.293-7.598h2.24l1.342,7.598h-1.861L192.813,160.514z
			 M190.518,159.135h2.041l-0.459-2.926L190.518,159.135z"/>
	</g>
</g>
</svg>
