<?xml version="1.0" encoding="utf-8"?>
<!-- Generator: Adobe Illustrator 16.0.0, SVG Export Plug-In . SVG Version: 6.00 Build 0)  -->
<!DOCTYPE svg PUBLIC "-//W3C//DTD SVG 1.1//EN" "http://www.w3.org/Graphics/SVG/1.1/DTD/svg11.dtd">
<svg version="1.1" xmlns="http://www.w3.org/2000/svg" xmlns:xlink="http://www.w3.org/1999/xlink" x="0px" y="0px"
	 width="850.394px" height="425.197px" viewBox="0 0 850.394 425.197" enable-background="new 0 0 850.394 425.197"
	 xml:space="preserve">
<g id="Capa_1" display="none">
</g>
<g id="logo">
</g>
<g id="guias" display="none">
</g>
<g id="pruebas">
</g>
<g id="pruebas_guias" display="none">
</g>
<g id="logo2">
</g>
<g id="guias2" display="none">
</g>
<g id="Capa_8">
</g>
<g id="Capa_9">
</g>
<g id="Variantes1">
</g>
<g id="variantes1_guia" display="none">
</g>
<g id="Variantes2">
</g>
<g id="fondo">
</g>
<g id="seleccion1">
</g>
<g id="seleccion2">
</g>
<g id="seleccion3">
</g>
<g id="guias_1_" display="none">
</g>
<g id="para_web">
	<rect y="0.1" display="none" fill="#0893D2" width="850.394" height="425.197"/>
	<g>
		<path fill="#FFFFFF" d="M179.246,284.18l-12.983,30.297l-12.925-30.297C161.96,285.424,172.682,285.35,179.246,284.18z"/>
		<g>
			<path fill="#FFFFFF" d="M166.213,285.093c0.969,0,1.936-0.015,2.896-0.047C168.148,285.078,167.182,285.093,166.213,285.093z"/>
			<path fill="#FFFFFF" d="M156.877,284.637c-0.894-0.086-1.787-0.184-2.677-0.299C155.09,284.453,155.983,284.551,156.877,284.637z
				"/>
			<path fill="#FFFFFF" d="M166.213,285.093c-0.936,0-1.865-0.015-2.796-0.04C164.348,285.078,165.277,285.093,166.213,285.093z"/>
			<path fill="#FFFFFF" d="M166.213,95.586c-52.329,0-94.754,42.424-94.754,94.756c0,48.245,36.059,88.07,82.695,93.992
				c-0.264-0.052-0.523-0.107-0.807-0.168l-20.912-48.34h-0.04l-1.161-2.783l-0.068-0.156h0.004l-29.904-71.59h0.914
				c20.141,7.749,42.012,12.009,64.885,12.009c22.573,0,44.175-4.147,64.099-11.71l-31.188,74.397h-0.043L179.24,284.16
				c-0.191,0.039-0.361,0.076-0.541,0.117c-1.952,0.256-3.92,0.448-5.906,0.587c49.259-3.377,88.146-44.401,88.146-94.522
				C260.939,138.01,218.543,95.586,166.213,95.586z"/>
			<path fill="#FFFFFF" d="M159.661,284.864c-0.651-0.042-1.3-0.093-1.946-0.155C158.361,284.771,159.01,284.822,159.661,284.864z"
				/>
			<path fill="#FFFFFF" d="M172.119,284.907c-0.746,0.052-1.494,0.087-2.244,0.111C170.625,284.994,171.373,284.951,172.119,284.907
				z"/>
			<path fill="#FFFFFF" d="M162.564,285.019c-0.654-0.024-1.307-0.052-1.959-0.091C161.258,284.967,161.91,284.994,162.564,285.019z
				"/>
		</g>
	</g>
	<g>
		<g>
			<path fill="#FFFFFF" d="M317.119,250.806h1.329l5.729,12.661h-1.526l-1.473-3.322h-6.843l-1.49,3.322h-1.455L317.119,250.806z
				 M320.621,258.869l-2.855-6.411l-2.874,6.411H320.621z"/>
			<path fill="#FFFFFF" d="M328.366,252.206h-4.221v-1.311h9.878v1.311h-4.221v11.261h-1.437V252.206z"/>
			<path fill="#FFFFFF" d="M336.686,250.896h1.419v11.26h7.075v1.312h-8.494V250.896z"/>
			<path fill="#FFFFFF" d="M352.457,250.806h1.329l5.729,12.661h-1.526l-1.473-3.322h-6.843l-1.49,3.322h-1.455L352.457,250.806z
				 M355.959,258.869l-2.855-6.411l-2.874,6.411H355.959z"/>
			<path fill="#FFFFFF" d="M360.921,261.635l0.88-1.041c1.311,1.185,2.568,1.777,4.311,1.777c1.688,0,2.802-0.897,2.802-2.137
				v-0.036c0-1.167-0.629-1.832-3.27-2.389c-2.891-0.629-4.22-1.563-4.22-3.628v-0.036c0-1.976,1.742-3.43,4.13-3.43
				c1.832,0,3.144,0.521,4.419,1.544l-0.826,1.096c-1.168-0.952-2.335-1.365-3.628-1.365c-1.635,0-2.677,0.898-2.677,2.03v0.035
				c0,1.186,0.647,1.851,3.413,2.442c2.802,0.611,4.095,1.635,4.095,3.557v0.036c0,2.154-1.796,3.556-4.293,3.556
				C364.063,263.646,362.43,262.981,360.921,261.635z"/>
			<path fill="#FFFFFF" d="M378.634,250.896h1.329l7.92,10.075v-10.075h1.383v12.571h-1.132l-8.117-10.309v10.309h-1.383V250.896z"
				/>
			<path fill="#FFFFFF" d="M397.479,250.806h1.329l5.729,12.661h-1.526l-1.473-3.322h-6.843l-1.49,3.322h-1.455L397.479,250.806z
				 M400.98,258.869l-2.855-6.411l-2.874,6.411H400.98z"/>
			<path fill="#FFFFFF" d="M405.727,257.217v-0.036c0-3.556,2.657-6.501,6.357-6.501c2.28,0,3.646,0.808,4.902,1.993l-0.97,1.042
				c-1.06-1.006-2.244-1.725-3.951-1.725c-2.783,0-4.866,2.264-4.866,5.154v0.036c0,2.91,2.101,5.19,4.866,5.19
				c1.725,0,2.856-0.664,4.06-1.813l0.934,0.916c-1.311,1.329-2.748,2.209-5.028,2.209
				C408.402,263.683,405.727,260.827,405.727,257.217z"/>
			<path fill="#FFFFFF" d="M419.666,250.896h1.419v12.571h-1.419V250.896z"/>
			<path fill="#FFFFFF" d="M424.212,257.217v-0.036c0-3.466,2.604-6.501,6.429-6.501c3.826,0,6.394,2.999,6.394,6.465v0.036
				c0,3.467-2.604,6.502-6.429,6.502C426.779,263.683,424.212,260.683,424.212,257.217z M435.562,257.217v-0.036
				c0-2.855-2.083-5.19-4.956-5.19c-2.874,0-4.921,2.299-4.921,5.154v0.036c0,2.855,2.083,5.19,4.956,5.19
				C433.515,262.371,435.562,260.072,435.562,257.217z"/>
			<path fill="#FFFFFF" d="M440.039,250.896h1.329l7.92,10.075v-10.075h1.383v12.571h-1.132l-8.117-10.309v10.309h-1.383V250.896z"
				/>
			<path fill="#FFFFFF" d="M458.884,250.806h1.329l5.729,12.661h-1.526l-1.473-3.322H456.1l-1.49,3.322h-1.455L458.884,250.806z
				 M462.386,258.869l-2.855-6.411l-2.874,6.411H462.386z"/>
			<path fill="#FFFFFF" d="M468.425,250.896h1.419v11.26h7.075v1.312h-8.494V250.896z"/>
			<path fill="#FFFFFF" d="M485.06,250.896h1.419v12.571h-1.419V250.896z"/>
			<path fill="#FFFFFF" d="M490.162,250.896h1.329l7.92,10.075v-10.075h1.383v12.571h-1.132l-8.117-10.309v10.309h-1.383V250.896z"
				/>
			<path fill="#FFFFFF" d="M507.677,252.206h-4.221v-1.311h9.878v1.311h-4.221v11.261h-1.437V252.206z"/>
			<path fill="#FFFFFF" d="M515.996,250.896h9.087v1.293h-7.668v4.292h6.86v1.293h-6.86v4.4h7.758v1.293h-9.177V250.896z"/>
			<path fill="#FFFFFF" d="M528.033,250.896h5.405c1.545,0,2.784,0.467,3.574,1.257c0.61,0.61,0.97,1.49,0.97,2.479v0.036
				c0,2.083-1.437,3.304-3.412,3.663l3.861,5.137h-1.742l-3.646-4.885h-3.592v4.885h-1.419V250.896z M533.313,257.307
				c1.886,0,3.232-0.97,3.232-2.586v-0.036c0-1.545-1.186-2.479-3.215-2.479h-3.879v5.101H533.313z"/>
			<path fill="#FFFFFF" d="M545.674,250.806h1.329l5.729,12.661h-1.526l-1.473-3.322h-6.843l-1.49,3.322h-1.455L545.674,250.806z
				 M549.176,258.869l-2.855-6.411l-2.874,6.411H549.176z"/>
			<path fill="#FFFFFF" d="M553.922,257.217v-0.036c0-3.556,2.657-6.501,6.357-6.501c2.28,0,3.646,0.808,4.902,1.993l-0.97,1.042
				c-1.06-1.006-2.244-1.725-3.951-1.725c-2.783,0-4.866,2.264-4.866,5.154v0.036c0,2.91,2.101,5.19,4.866,5.19
				c1.725,0,2.856-0.664,4.06-1.813l0.934,0.916c-1.311,1.329-2.748,2.209-5.028,2.209
				C556.598,263.683,553.922,260.827,553.922,257.217z"/>
			<path fill="#FFFFFF" d="M571.06,252.206h-4.221v-1.311h9.878v1.311h-4.221v11.261h-1.437V252.206z"/>
			<path fill="#FFFFFF" d="M579.503,250.896h1.419v12.571h-1.419V250.896z"/>
			<path fill="#FFFFFF" d="M583.528,250.896h1.581l4.472,10.829l4.49-10.829h1.526l-5.406,12.661h-1.257L583.528,250.896z"/>
			<path fill="#FFFFFF" d="M596.787,257.217v-0.036c0-3.466,2.604-6.501,6.429-6.501c3.826,0,6.394,2.999,6.394,6.465v0.036
				c0,3.467-2.604,6.502-6.429,6.502C599.354,263.683,596.787,260.683,596.787,257.217z M608.137,257.217v-0.036
				c0-2.855-2.083-5.19-4.956-5.19c-2.874,0-4.921,2.299-4.921,5.154v0.036c0,2.855,2.083,5.19,4.956,5.19
				C606.09,262.371,608.137,260.072,608.137,257.217z"/>
			<path fill="#FFFFFF" d="M618.004,250.896h4.364c3.951,0,6.681,2.712,6.681,6.249v0.036c0,3.538-2.729,6.286-6.681,6.286h-4.364
				V250.896z M622.368,262.155c3.179,0,5.208-2.154,5.208-4.938v-0.036c0-2.783-2.029-4.975-5.208-4.975h-2.945v9.949H622.368z"/>
			<path fill="#FFFFFF" d="M632.053,250.896h9.087v1.293h-7.668v4.292h6.86v1.293h-6.86v4.4h7.758v1.293h-9.177V250.896z"/>
			<path fill="#FFFFFF" d="M654.131,250.806h1.329l5.729,12.661h-1.526l-1.473-3.322h-6.843l-1.49,3.322h-1.455L654.131,250.806z
				 M657.633,258.869l-2.855-6.411l-2.874,6.411H657.633z"/>
			<path fill="#FFFFFF" d="M663.672,250.896h5.405c1.545,0,2.784,0.467,3.574,1.257c0.61,0.61,0.97,1.49,0.97,2.479v0.036
				c0,2.083-1.437,3.304-3.412,3.663l3.861,5.137h-1.742l-3.646-4.885h-3.592v4.885h-1.419V250.896z M668.952,257.307
				c1.886,0,3.232-0.97,3.232-2.586v-0.036c0-1.545-1.186-2.479-3.215-2.479h-3.879v5.101H668.952z"/>
			<path fill="#FFFFFF" d="M676.104,257.217v-0.036c0-3.448,2.532-6.501,6.304-6.501c2.119,0,3.43,0.61,4.688,1.67l-0.916,1.078
				c-0.97-0.845-2.048-1.438-3.825-1.438c-2.784,0-4.777,2.354-4.777,5.154v0.036c0,3,1.921,5.227,4.975,5.227
				c1.437,0,2.766-0.557,3.628-1.257v-3.125h-3.825v-1.275h5.189v5.011c-1.167,1.042-2.927,1.922-5.046,1.922
				C678.546,263.683,676.104,260.809,676.104,257.217z"/>
			<path fill="#FFFFFF" d="M690.745,250.896h9.087v1.293h-7.668v4.292h6.86v1.293h-6.86v4.4h7.758v1.293h-9.177V250.896z"/>
			<path fill="#FFFFFF" d="M702.782,250.896h1.329l7.92,10.075v-10.075h1.383v12.571h-1.132l-8.117-10.309v10.309h-1.383V250.896z"
				/>
			<path fill="#FFFFFF" d="M720.297,252.206h-4.221v-1.311h9.878v1.311h-4.221v11.261h-1.437V252.206z"/>
			<path fill="#FFFFFF" d="M728.741,250.896h1.419v12.571h-1.419V250.896z"/>
			<path fill="#FFFFFF" d="M733.844,250.896h1.329l7.92,10.075v-10.075h1.383v12.571h-1.132l-8.117-10.309v10.309h-1.383V250.896z"
				/>
			<path fill="#FFFFFF" d="M752.688,250.806h1.329l5.729,12.661h-1.526l-1.473-3.322h-6.843l-1.49,3.322h-1.455L752.688,250.806z
				 M756.19,258.869l-2.855-6.411l-2.874,6.411H756.19z"/>
		</g>
		<g>
			<path fill="#FFFFFF" d="M348.305,156.318h11.095l29.975,68.611h-12.652l-6.909-16.447H337.6l-7.008,16.447H318.33
				L348.305,156.318z M365.433,197.875l-11.775-27.25l-11.679,27.25H365.433z"/>
			<path fill="#FFFFFF" d="M427.32,156.806h11.095l36.495,47.103v-47.103h11.775v68.124h-10.023l-37.566-48.466v48.466H427.32
				V156.806z"/>
			<path fill="#FFFFFF" d="M531.153,156.806h11.97v68.124h-11.97V156.806z"/>
			<path fill="#FFFFFF" d="M587.593,156.806h25.4c21.411,0,36.203,14.695,36.203,33.867v0.194c0,19.173-14.792,34.063-36.203,34.063
				h-25.4V156.806z M612.993,214.029c14.307,0,23.649-9.634,23.649-22.967v-0.195c0-13.333-9.343-23.162-23.649-23.162h-13.43
				v46.324H612.993z"/>
			<path fill="#FFFFFF" d="M709.432,156.318h11.095l29.975,68.611h-12.652l-6.909-16.447h-32.213l-7.008,16.447h-12.262
				L709.432,156.318z M726.56,197.875l-11.775-27.25l-11.679,27.25H726.56z"/>
		</g>
	</g>
</g>
</svg>
