<?xml version="1.0" encoding="utf-8"?>
<!-- Generator: Adobe Illustrator 16.0.0, SVG Export Plug-In . SVG Version: 6.00 Build 0)  -->
<!DOCTYPE svg PUBLIC "-//W3C//DTD SVG 1.1//EN" "http://www.w3.org/Graphics/SVG/1.1/DTD/svg11.dtd">
<svg version="1.1" xmlns="http://www.w3.org/2000/svg" xmlns:xlink="http://www.w3.org/1999/xlink" x="0px" y="0px" width="1378px"
	 height="986px" viewBox="0 0 1378 986" enable-background="new 0 0 1378 986" xml:space="preserve">
<g id="Capa_1">
	<g>
		<g>
			<path fill="none" stroke="#38608F" stroke-width="3" stroke-miterlimit="10" d="M1499.625,691.191
				c-67.153,216.818-297.365,338.154-514.188,270.994c-216.823-67.145-338.15-297.364-270.996-514.18
				c34.856-112.545,113.647-199.363,211.694-247.444c90.844-44.555,198.213-55.851,302.488-23.553
				C1445.448,244.16,1566.777,474.375,1499.625,691.191z"/>
			<path fill="none" stroke="#38608F" stroke-width="3" stroke-linecap="round" stroke-linejoin="round" stroke-miterlimit="10" d="
				M942.81,192.847c-9.759,9.66-52.099,54.476-39.727,71.832c12.378,17.358,36.455,32.423,47.431,32.445
				c10.985,0.017,5.173,2.399,23.784,13.278c18.605,10.882,15.46,18.316,26.604,25.989c11.149,7.684,6.294,15.884,23.12,18.155
				c8.819,1.187,11.298-9.183,15.958,5.783c4.661,14.974,4.879,25.184-26.782,37.354c-31.665,12.172-10.842,111.092,25.096,134.567
				c24.611,16.072-33.256,104.656-42.043,135.747c-8.78,31.095-50.545,108.606,23.524,120.557
				c-29.011-42.798,10.802-32.159,2.543-60.07c10.937-5.768,19.322-15.999,18.693-27.604c14.233,8.633,17.22-1.006,17.423-8.552
				c31.018,10.454,24.916-1.993,40.843-7.638c67.426-23.893,62.667-37.371,69.806-49.526c7.154-12.157,23.208-7.884,45.945-7.606
				c38.255-21.743,102.128-73.179,82.699-97.792c-17.186-15.472-62.018-65.094-75.666-70.165
				c-13.645-5.07,26.991-9.648-56.978-77.43c-66.275-53.49-70.055-41.382-108.571-37.005c-17.714,2.01-36.078-1.246-39.28-9.633
				c-5.316-13.907,18.197-20.568,5.643-34.598c-12.557-14.035-21.071,5.358-23.548-3.018c-2.483-8.376,29.719-22.233,22.121-27.856
				c-13.75-10.177-50.342,19.986-57.247,10.164c-12.907-18.362,34.047-79.901,93.169-38.787
				c30.63,21.294,11.525-9.936,42.047-15.695c30.523-5.76,80.102-40.276,117.746-11.714c37.641,28.569,18.404-34.063-15.197-44.005"
				/>
			<path fill="#38608F" d="M990.156,776.352l3.684-11.887c0,0-14.591-5.745-7.818-23.512c6.769-17.766,13.092-16.701,13.188-36.115
				c0.097-19.413,14.146-41.684,19.465-48.913c5.318-7.229,0.612-15.872,3.979-26.241c3.36-10.369,14.726-30.518,19.596-29.852
				c4.865,0.66-0.282-16.574,9.349-17.396c9.633-0.817,9.125-24.327,23.814-5.302c5.604,0.985,4.474-14.25,14.469,5.327
				c9.999,19.581,25.931,22.827,23.216,27.477c-2.708,4.657-12.492,6.275-11.128,10.08c1.355,3.8,10.237,6.548,16.114,6.68
				c5.874,0.132,11.055-8.407,13.731-8.849c2.673-0.439,2.748,8.882-0.64,11.633c-3.393,2.752-40.726,12.749-42.279,35.514
				c-0.573,8.334,0.184,27.215-13.755,32.056c-26.864-2.496-12.795,12.043-34.838,5.009c-0.938,13.601-8.441,22.042-17.986,26.425
				c2.041,12.502-2.396,15.935-12.604,30.516c1.115,20.11,5.266,21.851,10.062,29.555
				C1007.943,788.824,990.156,776.352,990.156,776.352z"/>
			<path fill="none" stroke="#38608F" stroke-width="3" stroke-miterlimit="10" d="M920.372,935.823
				c19.707-4.591,28.247,0.592,35.263-5.688c7.016-6.282-35.333-17.562-45.826-30.109c-10.482-12.54-12.354-32.222,28.352-22.638
				c27.575,6.492-34.679-17.758-3.597-12.949c28.681,4.436,35.774,12.772,50.26,9.646c14.494-3.11,4.776-15.42,11.264-22.708
				c6.483-7.287,15.696-20.652,43.712-10.133c-9.267,6.155-30.366,9.219-28.976,19.788c1.393,10.576,18.829,15.828-19.632,30.729
				c-21.136,8.188,10.458,25.58,25.78,26.939c15.319,1.365,40.539-11.829,62.144,0.295c21.605,12.126,36.03-21.321,56.829,34.869
				c4.648,12.555,11.337,24.856,11.337,24.856"/>
			
				<line fill="#38608F" stroke="#38608F" stroke-width="3" stroke-miterlimit="10" x1="1325.456" y1="176.368" x2="1304.981" y2="209.326"/>
			
				<line fill="#38608F" stroke="#38608F" stroke-width="3" stroke-miterlimit="10" x1="876.438" y1="911.12" x2="855.751" y2="943.752"/>
			<path fill="none" stroke="#38608F" stroke-width="3" stroke-miterlimit="10" d="M1214.993,133.136
				c-9.718-2.426-16.146-11.941-16.146-22.411c0-12.344,10.004-22.351,22.347-22.351c1.544,0,3.05,0.155,4.501,0.456l0.359-0.015
				c217.303,53.338,378.492,249.423,378.492,483.188c0,274.789-222.73,497.513-497.519,497.513
				c-152.324,0-295.946-72.786-379.905-176.236c-4.039-4.985-3.893-7.612-3.893-12.731c0-11.955,12.122-22.997,24.078-22.997
				c5.533,0,9.162,1.028,13.572,4.901c70.354,90.875,207.193,161.4,346.148,161.4c249.551,0,451.85-202.297,451.85-451.85
				C1558.878,359.665,1412.409,181.534,1214.993,133.136z"/>
			<path fill="none" stroke="#38608F" stroke-width="3" stroke-linecap="round" stroke-linejoin="round" stroke-miterlimit="10" d="
				M735.533,519.268c0.665-4.87,1.427-9.739,2.291-14.608"/>
			<path fill="none" stroke="#38608F" stroke-width="3" stroke-linecap="round" stroke-linejoin="round" stroke-miterlimit="10" d="
				M734.127,608.557c-2.418-23.047-2.704-46.499-0.718-70.082"/>
			<path fill="none" stroke="#38608F" stroke-width="3" stroke-linecap="round" stroke-linejoin="round" stroke-miterlimit="10" d="
				M747.627,676.211c-4.899-16.464-8.682-33.312-11.287-50.423"/>
			<path fill="none" stroke="#38608F" stroke-width="3" stroke-linecap="round" stroke-linejoin="round" stroke-miterlimit="10" d="
				M837.129,829.817c-41.725-43.355-72.41-96.173-89.501-153.606"/>
			<path fill="none" stroke="#38608F" stroke-width="3" stroke-miterlimit="10" d="M841.931,834.718
				c-1.616-1.62-3.218-3.254-4.802-4.9"/>
			
				<line fill="none" stroke="#38608F" stroke-width="3" stroke-linecap="round" stroke-linejoin="round" stroke-miterlimit="10" x1="1047.207" y1="704.275" x2="1089.553" y2="726.843"/>
			
				<line fill="none" stroke="#38608F" stroke-width="3" stroke-linecap="round" stroke-linejoin="round" stroke-miterlimit="10" x1="1039.685" y1="718.386" x2="1103.208" y2="752.234"/>
			
				<line fill="none" stroke="#38608F" stroke-width="3" stroke-linecap="round" stroke-linejoin="round" stroke-miterlimit="10" x1="1117.32" y1="759.761" x2="1124.383" y2="763.521"/>
			
				<line fill="none" stroke="#38608F" stroke-width="3" stroke-linecap="round" stroke-linejoin="round" stroke-miterlimit="10" x1="1029.066" y1="730.116" x2="1130.977" y2="785.16"/>
			
				<line fill="none" stroke="#38608F" stroke-width="3" stroke-linecap="round" stroke-linejoin="round" stroke-miterlimit="10" x1="1024.651" y1="746.621" x2="1088.167" y2="780.463"/>
			
				<line fill="none" stroke="#38608F" stroke-width="3" stroke-linecap="round" stroke-linejoin="round" stroke-miterlimit="10" x1="1013.747" y1="758.599" x2="1031.221" y2="768.254"/>
			
				<line fill="none" stroke="#38608F" stroke-width="3" stroke-linecap="round" stroke-linejoin="round" stroke-miterlimit="10" x1="1001.1" y1="469.579" x2="917.949" y2="425.393"/>
			
				<line fill="none" stroke="#38608F" stroke-width="3" stroke-linecap="round" stroke-linejoin="round" stroke-miterlimit="10" x1="998.57" y1="449.213" x2="895.613" y2="394.615"/>
			
				<line fill="none" stroke="#38608F" stroke-width="3" stroke-linecap="round" stroke-linejoin="round" stroke-miterlimit="10" x1="874.659" y1="383.439" x2="864.172" y2="377.855"/>
			
				<line fill="none" stroke="#38608F" stroke-width="3" stroke-linecap="round" stroke-linejoin="round" stroke-miterlimit="10" x1="996.201" y1="428.517" x2="854.385" y2="352.937"/>
			
				<line fill="none" stroke="#38608F" stroke-width="3" stroke-linecap="round" stroke-linejoin="round" stroke-miterlimit="10" x1="1001.1" y1="411.506" x2="917.949" y2="367.114"/>
			
				<line fill="none" stroke="#38608F" stroke-width="3" stroke-linecap="round" stroke-linejoin="round" stroke-miterlimit="10" x1="1007.606" y1="399.024" x2="984.788" y2="386.871"/>
			
				<line fill="none" stroke="#38608F" stroke-width="3" stroke-linecap="round" stroke-linejoin="round" stroke-miterlimit="10" x1="1010.533" y1="493.366" x2="929.074" y2="449.966"/>
			
				<line fill="none" stroke="#38608F" stroke-width="3" stroke-linecap="round" stroke-linejoin="round" stroke-miterlimit="10" x1="1027.711" y1="522.723" x2="957.312" y2="485.177"/>
			
				<line fill="none" stroke="#38608F" stroke-width="3" stroke-linecap="round" stroke-linejoin="round" stroke-miterlimit="10" x1="896.445" y1="460.274" x2="891.944" y2="457.953"/>
			
				<line fill="none" stroke="#38608F" stroke-width="3" stroke-linecap="round" stroke-linejoin="round" stroke-miterlimit="10" x1="838.762" y1="409.803" x2="834.262" y2="407.481"/>
			
				<line fill="none" stroke="#38608F" stroke-width="3" stroke-linecap="round" stroke-linejoin="round" stroke-miterlimit="10" x1="1148.811" y1="813.585" x2="1144.312" y2="811.263"/>
		</g>
		<path fill="#38608F" d="M1037.179,916.003l-42.696,48.872c0,0-25.56-85.923-27.154-90.185
			c-1.595-4.261,20.354,11.496,24.313-15.336c3.697-25.065,33.285-28.909,50.495-18.463c-23.405,13.123-27.157,8.901-29.144,18.624
			c5.738,17.011,2.455,22.17-13.666,28.769c-20.93,6.533-17.091,18.586,2.835,26.211
			C1022.083,922.121,1037.179,916.003,1037.179,916.003z"/>
		<path fill="#38608F" stroke="#38608F" stroke-width="3" stroke-miterlimit="10" d="M1040.187,778.851c0,0-0.45-2.858,1.353-3.457
			c1.803-0.6,0.601-3.45,7.661-1.05c7.059,2.401,9.014,5.408,5.256,4.957c-3.757-0.45-4.204,3.457-9.763,1.352
			C1039.134,778.548,1040.187,778.851,1040.187,778.851z"/>
	</g>
</g>
<g id="Capa_2" display="none">
</g>
<g id="Capa_3" display="none">
</g>
<g id="Capa_4" display="none">
</g>
<g id="Capa_5" display="none">
</g>
<g id="Capa_6" display="none">
</g>
</svg>
