<?xml version="1.0" encoding="utf-8"?>
<!-- Generator: Adobe Illustrator 16.0.0, SVG Export Plug-In . SVG Version: 6.00 Build 0)  -->
<!DOCTYPE svg PUBLIC "-//W3C//DTD SVG 1.1//EN" "http://www.w3.org/Graphics/SVG/1.1/DTD/svg11.dtd">
<svg version="1.1" xmlns="http://www.w3.org/2000/svg" xmlns:xlink="http://www.w3.org/1999/xlink" x="0px" y="0px" width="200px"
	 height="200px" viewBox="0 0 200 200" enable-background="new 0 0 200 200" xml:space="preserve">
<g id="Capa_2" display="none">
	<rect x="-67.699" y="-8" display="inline" fill="#0000FF" width="981" height="234"/>
</g>
<g id="Capa_1">
</g>
<g id="f">
	<path fill="#FFFFFF" d="M188.301,0h-176c-6.627,0-12,5.373-12,12v176c0,6.627,5.373,12,12,12h94v-78h-26V91h26V63.092
		c-0.083-5.88,6-34.092,35.529-34.092h26.471v29c0,0-16.654-0.16-19.904,0c-6.445,0-10.096,6.011-10.096,9.427V91h30l-5,32h-26v77
		h51c6.627,0,12-5.373,12-12V12C200.301,5.373,194.928,0,188.301,0z"/>
</g>
<g id="yt">
</g>
</svg>
