<?xml version="1.0" encoding="utf-8"?>
<!-- Generator: Adobe Illustrator 16.0.0, SVG Export Plug-In . SVG Version: 6.00 Build 0)  -->
<!DOCTYPE svg PUBLIC "-//W3C//DTD SVG 1.1//EN" "http://www.w3.org/Graphics/SVG/1.1/DTD/svg11.dtd">
<svg version="1.1" id="Capa_1" xmlns="http://www.w3.org/2000/svg" xmlns:xlink="http://www.w3.org/1999/xlink" x="0px" y="0px"
	 width="188.5px" height="200px" viewBox="0 0 188.5 200" enable-background="new 0 0 188.5 200" xml:space="preserve">
<path fill="#FAFAFA" d="M166.343,0H15.802C2.363,0,0,12.056,0,25.554v150.495C0,189.557,2.363,200,15.802,200h150.541
	C179.816,200,188,189.557,188,176.049V25.554C188,12.056,179.816,0,166.343,0z M123.098,83l-1.671,24H107v71H71v-71H59V83h12V61.745
	c0-6.455,0.156-16.333,4.881-22.51c4.934-6.548,11.659-10.882,23.312-10.882c18.868,0,26.896,2.617,26.896,2.617l-3.802,22.291
	c0,0-2.391-1.832-8.176-1.832c-5.855,0-7.11,2.027-7.11,7.859V83H123.098z"/>
</svg>
