<?xml version="1.0" encoding="utf-8"?>
<!-- Generator: Adobe Illustrator 16.0.0, SVG Export Plug-In . SVG Version: 6.00 Build 0)  -->
<!DOCTYPE svg PUBLIC "-//W3C//DTD SVG 1.1//EN" "http://www.w3.org/Graphics/SVG/1.1/DTD/svg11.dtd">
<svg version="1.1" xmlns="http://www.w3.org/2000/svg" xmlns:xlink="http://www.w3.org/1999/xlink" x="0px" y="0px" width="200px"
	 height="200px" viewBox="0 0 200 200" enable-background="new 0 0 200 200" xml:space="preserve">
<g id="Capa_2" display="none">
	<rect x="-756.561" y="-8.091" display="inline" fill="#0000FF" width="981" height="234"/>
</g>
<g id="Capa_1">
</g>
<g id="f">
</g>
<g id="yt">
	<path fill="#FFFFFF" d="M178.52,0.909H28.894c-13.428,0-28.454,15.481-28.454,28.863v149.671c0,13.381,15.026,20.466,28.454,20.466
		H178.52c13.392,0,20.92-7.085,20.92-20.466V29.772C199.439,16.391,191.911,0.909,178.52,0.909z M165.439,130.827
		c-3.833,7.583-5.449,9.915-12.975,13.082s-89.472,2.71-103.379,0c-8.813-2.333-11.479-5.998-13.646-13.082s-2.5-54.921,0-61.836
		s3.46-9.916,13.646-13.082s91.854-3.166,103.379,0c6.475,1.501,11.308,5.33,12.975,13.082S169.272,123.244,165.439,130.827z"/>
	<polygon fill="#FFFFFF" points="87.439,79.909 87.439,120.909 121.106,100.076 	"/>
</g>
</svg>
