<?xml version="1.0" encoding="utf-8"?>
<!-- Generator: Adobe Illustrator 16.0.0, SVG Export Plug-In . SVG Version: 6.00 Build 0)  -->
<!DOCTYPE svg PUBLIC "-//W3C//DTD SVG 1.1//EN" "http://www.w3.org/Graphics/SVG/1.1/DTD/svg11.dtd">
<svg version="1.1" id="Capa_1" xmlns="http://www.w3.org/2000/svg" xmlns:xlink="http://www.w3.org/1999/xlink" x="0px" y="0px"
	 width="200px" height="200px" viewBox="0 0 200 200" enable-background="new 0 0 200 200" xml:space="preserve">
<g>
	<path fill="#FAFAFA" d="M158.772,86.317c-0.103-5.33-0.345-10.845-0.884-16.383c-1.149-11.695-8.043-19.302-19.176-21.461
		c-6.457-1.241-13.132-1.379-19.611-1.448c-6.158-0.161-12.351-0.184-18.589-0.184c-5.733,0-11.569,0-17.383,0.092
		c-5.71,0.138-12.271,0.253-18.555,1.218c-10.088,1.608-16.556,7.307-19.152,16.82c-0.965,3.217-1.482,6.595-1.528,9.949
		c-0.299,15.9-0.494,28.056-0.402,39.407c0,9.674,0.276,17.601,0.873,24.885c1.058,11.719,7.813,19.37,19.198,21.53
		c6.423,1.195,13.408,1.402,19.566,1.517c11.971,0.229,23.988,0.184,36.04,0c5.596-0.022,11.18-0.391,16.625-0.942
		c5.147-0.459,9.594-2.205,13.281-5.031c5.722-4.55,8.64-11.076,9.134-19.762c0.345-7.835,0.494-15.9,0.62-23.575l0.414-9.559
		c-0.241-1.31-0.299-3.516-0.299-7.468C158.83,92.614,158.818,88.846,158.772,86.317z M100.938,143.579
		c-10.421,0-20.278-3.998-27.563-11.489c-7.237-7.353-11.247-17.279-11.247-27.941c0-21.208,17.589-38.534,39.154-38.534
		c21.748,0.093,38.821,17.326,38.821,39.339C140.104,126.254,122.514,143.579,100.938,143.579z M139.942,76.322h-0.161
		c-5.721,0-10.42-4.642-10.42-10.409c-0.081-2.734,1.045-5.354,2.998-7.33c3.952-4.044,10.983-3.906,14.936-0.046
		c1.907,1.931,2.987,4.596,2.987,7.376C150.214,71.658,145.561,76.322,139.942,76.322z"/>
	<path fill="#FAFAFA" d="M176.121,0.139H26.063c-13.385,0-25.827,15.936-25.827,29.354v150.115c0,13.396,12.442,20.53,25.827,20.53
		h150.058c13.431,0,24.115-7.134,24.115-20.53V29.493C200.236,16.074,189.552,0.139,176.121,0.139z M175.179,127.586
		c-0.034,7.95-0.355,15.648-2.849,22.933c-5.113,14.798-15.453,23.689-30.652,26.563c-6.802,1.355-13.821,1.563-20.382,1.654
		c-6.262,0.114-12.661,0.114-19.003,0.114c-8.076,0-16.073-0.046-24.139-0.114c-7.835-0.092-15.532-0.299-22.932-2.941
		c-14.764-4.917-23.679-15.326-26.585-30.584c-1.265-6.158-1.494-12.568-1.712-20.289c-0.195-14.959-0.081-29.711,0.046-43.291
		c0.172-7.881,0.401-15.51,2.998-22.954c5.044-14.706,15.326-23.622,30.572-26.608c5.733-1.034,11.627-1.241,17.44-1.517
		l2.838-0.046c4.688-0.23,6.894-0.23,11.569-0.139c1.482,0,1.965,0.023,1.965,0.023v-0.023l4.262-0.184
		c3.688,0.092,8.605,0.184,12.282,0.184c6.112,0.139,12.902,0.185,19.071,0.345c9.996,0.322,18.164,2.298,24.978,6.388
		c10.179,6.228,16.452,15.234,18.509,26.885c0.965,5.813,1.608,12.247,1.734,20.358C175.397,99.461,175.374,114.765,175.179,127.586
		z"/>
</g>
<path fill="#FAFAFA" d="M101.891,84.445c-4.182,0-8.054,1.252-11.339,3.354c-0.402,0.299-0.839,0.552-1.218,0.873
	c-0.047,0.023-0.081,0.058-0.115,0.092c-4.733,4.045-8.008,9.605-8.02,15.752c0,3.642,0.482,7.111,1.746,10.282
	c3.436,7.031,10.593,11.926,18.945,11.926c11.673,0,21.14-9.467,21.14-21.14S113.563,84.445,101.891,84.445z"/>
</svg>
