<?xml version="1.0" encoding="utf-8"?>
<!-- Generator: Adobe Illustrator 16.0.0, SVG Export Plug-In . SVG Version: 6.00 Build 0)  -->
<!DOCTYPE svg PUBLIC "-//W3C//DTD SVG 1.1//EN" "http://www.w3.org/Graphics/SVG/1.1/DTD/svg11.dtd">
<svg version="1.1" xmlns="http://www.w3.org/2000/svg" xmlns:xlink="http://www.w3.org/1999/xlink" x="0px" y="0px"
	 width="198.917px" height="200px" viewBox="0 0 198.917 200" enable-background="new 0 0 198.917 200" xml:space="preserve">
<g id="Capa_2" display="none">
	<rect x="-302.083" y="-8.091" display="inline" fill="#0000FF" width="981" height="234"/>
</g>
<g id="Capa_1">
	<g>
		<path fill="#FAFAFA" d="M178.192-0.091H28.567c-13.396,0-28.65,10.005-28.65,23.459v149.763c0,13.34,15.254,26.778,28.65,26.778
			h149.625c13.432,0,20.725-13.438,20.725-26.778V23.368C198.917,9.914,191.624-0.091,178.192-0.091z M170.136,64.006
			c0.046,1.444,0.104,2.911,0.104,4.378c0,45.589-34.667,98.054-98.043,98.054c-19.447,0-37.509-5.638-52.797-15.448
			c2.682,0.252,5.443,0.527,8.251,0.527c16.102,0,31.023-5.523,42.747-14.829c-15.07-0.298-27.769-10.223-32.181-23.86
			c2.109,0.366,4.274,0.596,6.498,0.596c3.141,0,4.555-0.436,7.478-1.283c-15.826-3.049-29.275-17.053-29.275-33.763v-0.435
			c0,2.636,11.558,4.194,17.242,4.331c-9.248-6.119-14.551-16.731-14.551-28.673c0-6.304,2.109-12.24,5.124-17.396
			c16.995,20.88,42.558,34.633,71.22,36.03c-0.607-2.498-0.879-5.157-0.879-7.839c0-19.093,15.525-34.426,34.525-34.426
			c9.959,0,18.936,4.148,25.239,10.841c7.873-1.559,15.244-4.332,21.868-8.32c-2.579,8.068-8.033,14.807-15.115,19.047
			c6.899-0.825,13.58-2.704,19.746-5.432C182.753,53.027,176.932,59.102,170.136,64.006z"/>
	</g>
</g>
<g id="f">
</g>
<g id="yt">
</g>
</svg>
