<?xml version="1.0" encoding="utf-8"?>
<!-- Generator: Adobe Illustrator 16.0.0, SVG Export Plug-In . SVG Version: 6.00 Build 0)  -->
<!DOCTYPE svg PUBLIC "-//W3C//DTD SVG 1.1//EN" "http://www.w3.org/Graphics/SVG/1.1/DTD/svg11.dtd">
<svg version="1.1" id="Capa_1" xmlns="http://www.w3.org/2000/svg" xmlns:xlink="http://www.w3.org/1999/xlink" x="0px" y="0px"
	 width="200px" height="200px" viewBox="0 0 200 200" enable-background="new 0 0 200 200" xml:space="preserve">
<g>
	<path fill="#FAFAFA" d="M87.013,82.343c-0.942-0.552-4.412-0.092-4.412,0.988v42.026c0,1.034,3.47,1.493,4.412,0.965l37.729-20.979
		c0.873-0.598,0.207-1.471-0.666-2.022L87.013,82.343z"/>
	<path fill="#FAFAFA" d="M179.269-0.091H29.223c-13.465,0-28.975,15.936-28.975,29.354v150.092c0,13.419,15.51,20.554,28.975,20.554
		h150.046c13.431,0,20.979-7.135,20.979-20.554V29.264C200.248,15.845,192.699-0.091,179.269-0.091z M158.428,143.51
		c-6.296,6.182-31.479,6.365-54.309,6.365c-22.862,0-48.035-0.184-54.285-6.365c-6.354-6.296-7.962-13.764-7.962-39.2
		c0-25.391,1.608-32.836,7.962-39.178c6.25-6.204,31.423-6.388,54.285-6.388c22.829,0,48.013,0.184,54.309,6.388
		c6.25,6.342,8.008,13.787,8.008,39.178C166.436,129.746,164.678,137.214,158.428,143.51z"/>
</g>
</svg>
